<?xml version="1.0" encoding="utf-8"?>
<!-- Generator: Adobe Illustrator 21.0.2, SVG Export Plug-In . SVG Version: 6.00 Build 0)  -->
<svg version="1.1" id="Layer_1" xmlns="http://www.w3.org/2000/svg" xmlns:xlink="http://www.w3.org/1999/xlink" x="0px" y="0px"
	 viewBox="0 0 24 24" style="enable-background:new 0 0 24 24;" xml:space="preserve">
<g id="surface1">
	<path d="M20.7,3.3c2,2,2,5.3,0,7.3l-1.8,1.8c-1.3,1.3-3.2,1.8-5,1.3l3.1-3.1l0.9-0.9l0.9-0.9c1-1,1-2.6,0-3.7c-1-1-2.6-1-3.7,0
		l-0.9,0.9l-4.1,4.1c-0.4-1.7,0-3.6,1.3-5l1.8-1.8C15.4,1.3,18.7,1.3,20.7,3.3z M9.7,16.1l6.4-6.4c0.5-0.5,0.5-1.3,0-1.8
		c-0.5-0.5-1.4-0.5-1.8,0l-6.4,6.4c-0.5,0.5-0.5,1.3,0,1.8C8.4,16.6,9.2,16.6,9.7,16.1z M8.8,18.9l5-5c0.5,1.7,0,3.6-1.3,5l-1.8,1.8
		c-2,2-5.3,2-7.3,0c-2-2-2-5.3,0-7.3l1.8-1.8c1.3-1.3,3.2-1.8,5-1.3l-5,5c-1,1-1,2.6,0,3.7C6.2,19.9,7.8,19.9,8.8,18.9z"/>
</g>
</svg>
