<?xml version="1.0" encoding="utf-8"?>
<!-- Generator: Adobe Illustrator 21.0.2, SVG Export Plug-In . SVG Version: 6.00 Build 0)  -->
<svg version="1.1" id="Layer_1" xmlns="http://www.w3.org/2000/svg" xmlns:xlink="http://www.w3.org/1999/xlink" x="0px" y="0px"
	 viewBox="0 0 24 24" style="enable-background:new 0 0 24 24;" xml:space="preserve">
<g id="surface1">
	<path d="M15.7,5.2l-3.9,3.9L9.6,6.9L13.5,3c0.4-0.4,1.3-0.2,1.9,0.4C16,4,16.2,4.8,15.7,5.2z M6.1,7.4L7.2,6L18,16.8l-1.4,1
		c-0.9,0.8-3.2,1.4-4.6,1.4H7.4l-1.5,1.5c-0.7,0.7-1.8,0.7-2.5,0c-0.7-0.7-0.7-1.8,0-2.5l1.5-1.5V12C4.8,10.7,5.3,8.2,6.1,7.4z
		 M14.8,12.1l3.9-3.9C19.1,7.8,20,8,20.6,8.6c0.6,0.6,0.8,1.5,0.4,1.9l-3.9,3.9L14.8,12.1z"/>
</g>
</svg>
