<?xml version="1.0" encoding="utf-8"?>
<!-- Generator: Adobe Illustrator 21.0.2, SVG Export Plug-In . SVG Version: 6.00 Build 0)  -->
<svg version="1.1" id="Layer_1" xmlns="http://www.w3.org/2000/svg" xmlns:xlink="http://www.w3.org/1999/xlink" x="0px" y="0px"
	 viewBox="0 0 24 24" style="enable-background:new 0 0 24 24;" xml:space="preserve">
<g id="surface1">
	<path d="M12,11.1C9.3,11.1,8.7,7,8.7,7C8.4,4.8,9.4,2.4,12,2.4c2.6,0,3.6,2.4,3.2,4.6C15.2,7,14.7,11.1,12,11.1z M12,14.2l3.3-2.2
		c2.9,0,5.4,2.8,5.4,5.4v3c0,0-4.4,1.4-8.7,1.4c-4.4,0-8.7-1.4-8.7-1.4v-3c0-2.7,2.3-5.4,5.4-5.4L12,14.2z"/>
</g>
</svg>
