<?xml version="1.0" encoding="utf-8"?>
<!-- Generator: Adobe Illustrator 21.0.2, SVG Export Plug-In . SVG Version: 6.00 Build 0)  -->
<svg version="1.1" id="Layer_1" xmlns="http://www.w3.org/2000/svg" xmlns:xlink="http://www.w3.org/1999/xlink" x="0px" y="0px"
	 viewBox="0 0 24 24" style="enable-background:new 0 0 24 24;" xml:space="preserve">
<g id="surface1">
	<path d="M22.2,14.4h-2.6c-0.2,0.8-0.5,1.6-1,2.3l1.8,1.8l-2.5,2.5l-1.8-1.8c-0.7,0.4-1.5,0.8-2.3,0.9v2.6h-3.6v-2.6
		c-0.8-0.2-1.6-0.5-2.3-0.9l-1.8,1.8l-2.5-2.5l1.8-1.8c-0.4-0.7-0.8-1.5-0.9-2.3H1.8v-3.6h2.6c0.2-0.8,0.5-1.6,1-2.3L3.5,6.7L6,4.1
		L7.9,6c0.7-0.4,1.5-0.8,2.3-1V2.4h3.6V5c0.8,0.2,1.6,0.5,2.3,0.9l1.8-1.8l2.5,2.5l-1.8,1.8c0.4,0.7,0.8,1.5,1,2.3h2.6V14.4z
		 M12,16.2c2,0,3.6-1.6,3.6-3.6c0-2-1.6-3.6-3.6-3.6c-2,0-3.6,1.6-3.6,3.6C8.4,14.6,10,16.2,12,16.2z"/>
</g>
</svg>
