<?xml version="1.0" encoding="UTF-8" standalone="yes"?>
<svg xmlns="http://www.w3.org/2000/svg" xmlns:xlink="http://www.w3.org/1999/xlink" width="24px" height="24px" viewBox="0 0 18 18" version="1.1">
  <g id="surface1">
    <path style=" stroke:none;fill-rule:nonzero;fill:rgb(0%,0%,0%);fill-opacity:1;" d="M 15.011719 8.792969 C 13.804688 10 12.042969 10.296875 10.558594 9.683594 L 5.6875 15.550781 C 4.796875 16.441406 3.355469 16.441406 2.464844 15.550781 C 1.574219 14.660156 1.574219 13.222656 2.464844 12.339844 L 8.335938 7.460938 C 7.722656 5.976562 8.019531 4.210938 9.226562 3.007812 C 10.378906 1.855469 12.03125 1.546875 13.472656 2.050781 L 10.871094 4.652344 L 13.410156 7.191406 L 15.984375 4.609375 C 16.460938 6.03125 16.144531 7.660156 15.011719 8.792969 Z M 3.429688 14.589844 C 3.789062 14.941406 4.363281 14.941406 4.714844 14.589844 C 5.074219 14.230469 5.074219 13.652344 4.714844 13.300781 C 4.363281 12.941406 3.789062 12.941406 3.429688 13.300781 C 3.078125 13.652344 3.078125 14.230469 3.429688 14.589844 Z M 3.429688 14.589844 "/>
  </g>
</svg>