<?xml version="1.0" encoding="UTF-8" standalone="yes"?>
<svg xmlns="http://www.w3.org/2000/svg" xmlns:xlink="http://www.w3.org/1999/xlink" width="24px" height="24px" viewBox="0 0 18 18" version="1.1">
  <g id="surface1">
    <path style=" stroke:none;fill-rule:nonzero;fill:rgb(0%,0%,0%);fill-opacity:1;" d="M 11.800781 3.925781 L 8.882812 6.839844 L 7.199219 5.15625 L 10.117188 2.242188 C 10.429688 1.933594 11.0625 2.0625 11.519531 2.527344 C 11.988281 2.988281 12.113281 3.617188 11.800781 3.925781 Z M 4.597656 5.515625 L 5.417969 4.507812 L 13.527344 12.617188 L 12.457031 13.375 C 11.816406 14.011719 10.089844 14.417969 9.019531 14.417969 L 5.527344 14.417969 L 4.410156 15.535156 C 3.878906 16.066406 3.023438 16.066406 2.503906 15.535156 C 1.972656 15.011719 1.972656 14.15625 2.503906 13.625 L 3.617188 12.511719 L 3.617188 9.019531 C 3.617188 8 3.976562 6.148438 4.597656 5.515625 Z M 11.132812 9.089844 L 14.050781 6.175781 C 14.355469 5.859375 14.984375 5.984375 15.445312 6.453125 C 15.910156 6.910156 16.039062 7.542969 15.722656 7.847656 L 12.808594 10.773438 Z M 11.132812 9.089844 "/>
  </g>
</svg>