<?xml version="1.0" encoding="utf-8"?>
<!-- Generator: Adobe Illustrator 21.0.2, SVG Export Plug-In . SVG Version: 6.00 Build 0)  -->
<svg version="1.1" id="Layer_1" xmlns="http://www.w3.org/2000/svg" xmlns:xlink="http://www.w3.org/1999/xlink" x="0px" y="0px"
	 viewBox="0 0 24 24" style="enable-background:new 0 0 24 24;" xml:space="preserve">
<g id="surface1">
	<path d="M20,11.7c-1.6,1.6-4,2-5.9,1.2l-6.5,7.8c-1.2,1.2-3.1,1.2-4.3,0s-1.2-3.1,0-4.3l7.8-6.5c-0.8-2-0.4-4.3,1.2-5.9
		C13.8,2.5,16,2.1,18,2.7l-3.5,3.5l3.4,3.4l3.4-3.4C21.9,8,21.5,10.2,20,11.7z M4.6,19.5c0.5,0.5,1.2,0.5,1.7,0
		c0.5-0.5,0.5-1.2,0-1.7c-0.5-0.5-1.2-0.5-1.7,0C4.1,18.2,4.1,19,4.6,19.5z"/>
</g>
</svg>
