<?xml version="1.0" encoding="utf-8"?>
<!-- Generator: Adobe Illustrator 21.0.2, SVG Export Plug-In . SVG Version: 6.00 Build 0)  -->
<svg version="1.1" id="Layer_1" xmlns="http://www.w3.org/2000/svg" xmlns:xlink="http://www.w3.org/1999/xlink" x="0px" y="0px"
	 viewBox="0 0 24 24" style="enable-background:new 0 0 24 24;" xml:space="preserve">
<g id="surface1">
	<path d="M17.1,8.2L12,3.8L6.9,8.2L6,7.4l6-5.3l6,5.3L17.1,8.2z M16.8,10.1l-4.9,4.1l-4.7-4.2V9.2L12,5l4.8,4.2V10.1z M13.2,11.6v-2
		h-2.4v2H13.2z M11.1,16.5L6,12l-5.1,4.5L0,15.6l6-5.3l6,5.3L11.1,16.5z M23.1,16.5L18,12l-5.1,4.5L12,15.6l6-5.3l6,5.3L23.1,16.5z
		 M6,13.2l4.8,4.2v4.2H1.2v-4.2L6,13.2z M18,13.2l4.8,4.2v4.2h-9.6v-4.2L18,13.2z M7.2,20.4V18H4.8v2.4H7.2z M19.2,20.4V18h-2.4v2.4
		H19.2z"/>
</g>
</svg>
