<?xml version="1.0" encoding="UTF-8" standalone="yes"?>
<svg xmlns="http://www.w3.org/2000/svg" xmlns:xlink="http://www.w3.org/1999/xlink" width="24px" height="24px" viewBox="0 0 18 18" version="1.1">
  <g id="surface1">
    <path style=" stroke:none;fill-rule:nonzero;fill:rgb(0%,0%,0%);fill-opacity:1;" d="M 15.964844 2.484375 C 17.476562 4.003906 17.476562 6.453125 15.964844 7.972656 L 14.589844 9.34375 C 13.582031 10.351562 12.160156 10.664062 10.863281 10.324219 L 13.222656 7.972656 L 13.90625 7.28125 L 14.589844 6.597656 C 15.34375 5.839844 15.34375 4.617188 14.589844 3.859375 C 13.832031 3.097656 12.609375 3.097656 11.851562 3.859375 L 11.160156 4.546875 L 8.117188 7.585938 C 7.785156 6.289062 8.101562 4.867188 9.109375 3.859375 L 10.476562 2.484375 C 11.996094 0.972656 14.453125 0.972656 15.964844 2.484375 Z M 7.730469 12.085938 L 12.535156 7.28125 C 12.914062 6.902344 12.914062 6.289062 12.535156 5.914062 C 12.140625 5.527344 11.519531 5.5625 11.160156 5.914062 L 6.363281 10.71875 C 5.984375 11.097656 5.984375 11.710938 6.363281 12.085938 C 6.757812 12.472656 7.378906 12.4375 7.730469 12.085938 Z M 7.046875 14.148438 L 10.773438 10.414062 C 11.113281 11.710938 10.800781 13.132812 9.792969 14.140625 L 8.425781 15.515625 C 6.902344 17.027344 4.453125 17.027344 2.933594 15.515625 C 1.421875 14.003906 1.421875 11.539062 2.933594 10.027344 L 4.3125 8.65625 C 5.320312 7.648438 6.742188 7.335938 8.035156 7.667969 L 4.3125 11.402344 C 3.546875 12.160156 3.546875 13.382812 4.3125 14.148438 C 5.066406 14.902344 6.289062 14.902344 7.046875 14.148438 Z M 7.046875 14.148438 "/>
  </g>
</svg>