<?xml version="1.0" encoding="utf-8"?>
<!-- Generator: Adobe Illustrator 21.0.2, SVG Export Plug-In . SVG Version: 6.00 Build 0)  -->
<svg version="1.1" id="Layer_1" xmlns="http://www.w3.org/2000/svg" xmlns:xlink="http://www.w3.org/1999/xlink" x="0px" y="0px"
	 viewBox="0 0 24 24" style="enable-background:new 0 0 24 24;" xml:space="preserve">
<g id="surface1">
	<path d="M15.6,13.2V4.8c0-0.7-0.5-1.2-1.2-1.2h-2l-1.6-2.4H6L4.4,3.6h-2c-0.7,0-1.2,0.5-1.2,1.2v8.4c0,0.7,0.5,1.2,1.2,1.2h12
		C15.1,14.4,15.6,13.9,15.6,13.2z M8.4,5.4c1.7,0,3,1.3,3,3c0,1.7-1.3,3-3,3c-1.7,0-3-1.3-3-3C5.4,6.7,6.7,5.4,8.4,5.4z M16.8,7.2h6
		v12.6c0,1.7-1.3,3-3,3c-1.7,0-3-1.3-3-3c0-1.7,1.3-3,3-3c0.2,0,0.4,0,0.6,0.1v-6.1h-3.6V7.2z M12,16.9v-1.3h2.4v4.2
		c0,1.7-1.3,3-3,3s-3-1.3-3-3c0-1.7,1.3-3,3-3C11.6,16.8,11.8,16.8,12,16.9z"/>
</g>
</svg>
