<?xml version="1.0" encoding="UTF-8" standalone="yes"?>
<svg xmlns="http://www.w3.org/2000/svg" xmlns:xlink="http://www.w3.org/1999/xlink" width="24px" height="24px" viewBox="0 0 18 18" version="1.1">
  <g id="surface1">
    <path style=" stroke:none;fill-rule:nonzero;fill:rgb(0%,0%,0%);fill-opacity:1;" d="M 16.496094 3.214844 C 16.496094 3.214844 16.738281 2.492188 16.21875 1.988281 C 15.742188 1.519531 15.121094 1.773438 15.121094 1.773438 C 14.570312 2.042969 9.9375 4.894531 8.21875 6.785156 C 7.441406 7.648438 6.363281 10.195312 7.234375 11.125 C 8.0625 12.007812 10.800781 10.972656 11.546875 10.222656 C 13.402344 8.371094 16.234375 3.769531 16.496094 3.214844 Z M 1.261719 15.886719 C 3.394531 14.480469 2.574219 12.816406 4.167969 11.710938 C 5.003906 11.125 6.164062 11.152344 6.9375 11.96875 C 7.507812 12.574219 7.660156 14.28125 6.796875 15.085938 C 5.382812 16.390625 3.195312 16.480469 1.261719 15.886719 Z M 1.261719 15.886719 "/>
  </g>
</svg>