<?xml version="1.0" encoding="utf-8"?>
<!-- Generator: Adobe Illustrator 21.0.2, SVG Export Plug-In . SVG Version: 6.00 Build 0)  -->
<svg version="1.1" id="Layer_1" xmlns="http://www.w3.org/2000/svg" xmlns:xlink="http://www.w3.org/1999/xlink" x="0px" y="0px"
	 viewBox="0 0 24 24" style="enable-background:new 0 0 24 24;" xml:space="preserve">
<g id="surface1">
	<path d="M16.9,13.3L8.4,4.8L10.2,3c0.6-0.7,2.8-0.6,4.2,0.4c1.4,1,1.7,1.5,3.5,2.5c1.4,0.8,2.9,1.5,5.3,1L16.9,13.3z M16.1,14.1
		L7.6,5.6L5.4,7.8C5,8.2,5,9,5.4,9.5l1.3,1.3c0.5,0.5,0.5,1.2,0,1.7c-0.7,0.7-1.7,1.3-2.7,2c-0.4,0.3-0.8,0.6-1.2,1
		c-1.6,1.6-2.8,3.8-1.6,5c1.2,1.2,3.4,0,5-1.6c0.4-0.4,0.7-0.8,1-1.2c0.7-0.9,1.3-1.9,2-2.7c0.5-0.5,1.2-0.5,1.7,0l1.3,1.3
		c0.5,0.5,1.2,0.5,1.7,0L16.1,14.1z"/>
</g>
</svg>
