<?xml version="1.0" encoding="UTF-8" standalone="yes"?>
<svg xmlns="http://www.w3.org/2000/svg" xmlns:xlink="http://www.w3.org/1999/xlink" width="24px" height="24px" viewBox="0 0 18 18" version="1.1">
  <g id="surface1">
    <path style=" stroke:none;fill-rule:nonzero;fill:rgb(0%,0%,0%);fill-opacity:1;" d="M 17.101562 9 C 17.101562 4.527344 13.472656 0.898438 9 0.898438 C 4.527344 0.898438 0.898438 4.527344 0.898438 9 C 0.898438 13.472656 4.527344 17.101562 9 17.101562 C 13.472656 17.101562 17.101562 13.472656 17.101562 9 Z M 7.199219 9.089844 C 4.644531 8.828125 3.167969 8.035156 2.269531 7.027344 C 3.140625 4.183594 5.6875 2.097656 8.792969 1.960938 C 8.035156 3.203125 7.441406 5.679688 8.765625 6.976562 C 7.40625 7.164062 6.777344 5.300781 5.96875 5.941406 C 4.679688 6.949219 5.894531 8.34375 8.847656 8.882812 C 11.808594 9.414062 12.140625 10.304688 12.113281 11.65625 C 12.085938 12.976562 11.394531 14.625 8.460938 15.886719 C 8.539062 12.121094 6.085938 12.429688 5.578125 11.347656 C 5.761719 10.566406 5.976562 9.746094 7.199219 9.089844 Z M 14.839844 5.203125 C 16.777344 8.171875 15.757812 10.675781 15.597656 11.214844 C 14.902344 9.539062 13.644531 9.152344 13.320312 8.027344 C 13.03125 7.027344 13.878906 6.019531 14.839844 5.203125 Z M 14.839844 5.203125 "/>
  </g>
</svg>