<?xml version="1.0" encoding="utf-8"?>
<!-- Generator: Adobe Illustrator 21.0.2, SVG Export Plug-In . SVG Version: 6.00 Build 0)  -->
<svg version="1.1" id="Layer_1" xmlns="http://www.w3.org/2000/svg" xmlns:xlink="http://www.w3.org/1999/xlink" x="0px" y="0px"
	 viewBox="0 0 24 24" style="enable-background:new 0 0 24 24;" xml:space="preserve">
<g id="surface1">
	<path d="M20.7,3.1c2.4,2.3,2.4,6.1,0,8.5c-1.8,1.8-4.5,2.2-6.7,1.2l-2.2,4l-3.6,0.4l-1.8,4.5H2.7l-1.2-2.4l9.5-9.2
		c-1.1-2.2-0.7-5,1.1-6.9C14.5,0.7,18.3,0.7,20.7,3.1z M17.7,7.6c0.9,0,1.6-0.7,1.6-1.6c0-0.9-0.7-1.6-1.6-1.6
		c-0.9,0-1.6,0.7-1.6,1.6C16.1,6.9,16.8,7.6,17.7,7.6z"/>
</g>
</svg>
