<?xml version="1.0" encoding="UTF-8" standalone="yes"?>
<svg xmlns="http://www.w3.org/2000/svg" xmlns:xlink="http://www.w3.org/1999/xlink" width="24px" height="24px" viewBox="0 0 18 18" version="1.1">
  <g id="surface1">
    <path style=" stroke:none;fill-rule:nonzero;fill:rgb(0%,0%,0%);fill-opacity:1;" d="M 16.199219 14.398438 L 16.199219 3.601562 C 16.199219 3.105469 15.796875 2.699219 15.300781 2.699219 L 3.601562 2.699219 C 3.105469 2.699219 2.699219 3.105469 2.699219 3.601562 L 2.699219 14.398438 C 2.699219 14.894531 3.105469 15.300781 3.601562 15.300781 L 15.300781 15.300781 C 15.796875 15.300781 16.199219 14.894531 16.199219 14.398438 Z M 7.199219 9.898438 L 8.101562 9.898438 C 8.59375 9.898438 9 10.304688 9 10.800781 C 9 11.296875 8.59375 11.699219 8.101562 11.699219 L 7.199219 11.699219 L 7.199219 13.050781 C 7.199219 13.300781 7.003906 13.5 6.75 13.5 C 6.496094 13.5 6.300781 13.300781 6.300781 13.050781 L 6.300781 11.699219 L 5.398438 11.699219 C 4.90625 11.699219 4.5 11.296875 4.5 10.800781 C 4.5 10.304688 4.90625 9.898438 5.398438 9.898438 L 6.300781 9.898438 L 6.300781 4.949219 C 6.300781 4.699219 6.496094 4.5 6.75 4.5 C 7.003906 4.5 7.199219 4.699219 7.199219 4.949219 Z M 11.699219 8.101562 L 10.800781 8.101562 C 10.304688 8.101562 9.898438 7.695312 9.898438 7.199219 C 9.898438 6.703125 10.304688 6.300781 10.800781 6.300781 L 11.699219 6.300781 L 11.699219 4.949219 C 11.699219 4.699219 11.898438 4.5 12.148438 4.5 C 12.402344 4.5 12.601562 4.699219 12.601562 4.949219 L 12.601562 6.300781 L 13.5 6.300781 C 13.996094 6.300781 14.398438 6.703125 14.398438 7.199219 C 14.398438 7.695312 13.996094 8.101562 13.5 8.101562 L 12.601562 8.101562 L 12.601562 13.050781 C 12.601562 13.300781 12.402344 13.5 12.148438 13.5 C 11.898438 13.5 11.699219 13.300781 11.699219 13.050781 Z M 11.699219 8.101562 "/>
  </g>
</svg>