<?xml version="1.0" encoding="UTF-8" standalone="yes"?>
<svg xmlns="http://www.w3.org/2000/svg" xmlns:xlink="http://www.w3.org/1999/xlink" width="24px" height="24px" viewBox="0 0 18 18" version="1.1">
  <g id="surface1">
    <path style=" stroke:none;fill-rule:nonzero;fill:rgb(0%,0%,0%);fill-opacity:1;" d="M 15.253906 2.320312 C 17.019531 4.078125 17.019531 6.929688 15.253906 8.683594 C 13.894531 10.042969 11.878906 10.339844 10.222656 9.59375 L 8.539062 12.574219 L 5.851562 12.851562 L 4.5 16.199219 L 1.800781 16.199219 L 0.898438 14.398438 L 8.054688 7.480469 C 7.226562 5.796875 7.496094 3.71875 8.890625 2.320312 C 10.648438 0.558594 13.5 0.558594 15.253906 2.320312 Z M 12.996094 5.734375 C 13.660156 5.734375 14.191406 5.191406 14.191406 4.527344 C 14.191406 3.871094 13.660156 3.328125 12.996094 3.328125 C 12.339844 3.328125 11.800781 3.871094 11.800781 4.527344 C 11.800781 5.191406 12.339844 5.734375 12.996094 5.734375 Z M 12.996094 5.734375 "/>
  </g>
</svg>