<?xml version="1.0" encoding="UTF-8" standalone="yes"?>
<svg xmlns="http://www.w3.org/2000/svg" xmlns:xlink="http://www.w3.org/1999/xlink" width="24px" height="24px" viewBox="0 0 18 18" version="1.1">
  <g id="surface1">
    <path style=" stroke:none;fill-rule:nonzero;fill:rgb(0%,0%,0%);fill-opacity:1;" d="M 12.84375 6.183594 L 9 2.824219 L 5.15625 6.183594 L 4.5 5.527344 L 9 1.585938 L 13.5 5.527344 Z M 12.601562 7.578125 L 8.953125 10.664062 L 5.398438 7.542969 L 5.398438 6.875 L 9 3.726562 L 12.601562 6.875 Z M 9.898438 8.730469 L 9.898438 7.199219 L 8.101562 7.199219 L 8.101562 8.730469 Z M 8.34375 12.355469 L 4.5 9 L 0.65625 12.355469 L 0 11.699219 L 4.5 7.757812 L 9 11.699219 Z M 17.34375 12.355469 L 13.5 9 L 9.65625 12.355469 L 9 11.699219 L 13.5 7.757812 L 18 11.699219 Z M 4.5 9.898438 L 8.101562 13.050781 L 8.101562 16.199219 L 0.898438 16.199219 L 0.898438 13.050781 Z M 13.5 9.898438 L 17.101562 13.050781 L 17.101562 16.199219 L 9.898438 16.199219 L 9.898438 13.050781 Z M 5.398438 15.300781 L 5.398438 13.5 L 3.601562 13.5 L 3.601562 15.300781 Z M 14.398438 15.300781 L 14.398438 13.5 L 12.601562 13.5 L 12.601562 15.300781 Z M 14.398438 15.300781 "/>
  </g>
</svg>