<?xml version="1.0" encoding="UTF-8" standalone="yes"?>
<svg xmlns="http://www.w3.org/2000/svg" xmlns:xlink="http://www.w3.org/1999/xlink" width="24px" height="24px" viewBox="0 0 18 18" version="1.1">
  <g id="surface1">
    <path style=" stroke:none;fill-rule:nonzero;fill:rgb(0%,0%,0%);fill-opacity:1;" d="M 11.699219 9.898438 L 11.699219 3.601562 C 11.699219 3.105469 11.296875 2.699219 10.800781 2.699219 L 9.296875 2.699219 L 8.101562 0.898438 L 4.5 0.898438 L 3.304688 2.699219 L 1.800781 2.699219 C 1.304688 2.699219 0.898438 3.105469 0.898438 3.601562 L 0.898438 9.898438 C 0.898438 10.394531 1.304688 10.800781 1.800781 10.800781 L 10.800781 10.800781 C 11.296875 10.800781 11.699219 10.394531 11.699219 9.898438 Z M 6.300781 4.050781 C 7.542969 4.050781 8.550781 5.058594 8.550781 6.300781 C 8.550781 7.542969 7.542969 8.550781 6.300781 8.550781 C 5.058594 8.550781 4.050781 7.542969 4.050781 6.300781 C 4.050781 5.058594 5.058594 4.050781 6.300781 4.050781 Z M 12.601562 5.398438 L 17.101562 5.398438 L 17.101562 14.851562 C 17.101562 16.09375 16.09375 17.101562 14.851562 17.101562 C 13.609375 17.101562 12.601562 16.09375 12.601562 14.851562 C 12.601562 13.609375 13.609375 12.601562 14.851562 12.601562 C 15.003906 12.601562 15.15625 12.617188 15.300781 12.644531 L 15.300781 8.101562 L 12.601562 8.101562 Z M 9 12.644531 L 9 11.699219 L 10.800781 11.699219 L 10.800781 14.851562 C 10.800781 16.09375 9.792969 17.101562 8.550781 17.101562 C 7.308594 17.101562 6.300781 16.09375 6.300781 14.851562 C 6.300781 13.609375 7.308594 12.601562 8.550781 12.601562 C 8.703125 12.601562 8.855469 12.617188 9 12.644531 Z M 9 12.644531 "/>
  </g>
</svg>