<?xml version="1.0" encoding="utf-8"?>
<!-- Generator: Adobe Illustrator 21.0.2, SVG Export Plug-In . SVG Version: 6.00 Build 0)  -->
<svg version="1.1" id="Layer_1" xmlns="http://www.w3.org/2000/svg" xmlns:xlink="http://www.w3.org/1999/xlink" x="0px" y="0px"
	 viewBox="0 0 24 24" style="enable-background:new 0 0 24 24;" xml:space="preserve">
<g id="surface1">
	<path d="M22.8,12C22.8,6,18,1.2,12,1.2S1.2,6,1.2,12S6,22.8,12,22.8S22.8,18,22.8,12z M9.6,12.1C6.2,11.8,4.2,10.7,3,9.4
		c1.2-3.8,4.6-6.6,8.7-6.8c-1,1.7-1.8,5,0,6.7C9.9,9.6,9,7.1,8,7.9c-1.7,1.3-0.1,3.2,3.8,3.9c3.9,0.7,4.4,1.9,4.4,3.7
		c0,1.8-1,4-4.9,5.6c0.1-5-3.2-4.6-3.8-6.1C7.7,14.1,8,13,9.6,12.1z M19.8,6.9c2.6,4,1.2,7.3,1,8c-0.9-2.2-2.6-2.8-3-4.2
		C17.4,9.4,18.5,8,19.8,6.9z"/>
</g>
</svg>
