<?xml version="1.0" encoding="utf-8"?>
<!-- Generator: Adobe Illustrator 21.0.2, SVG Export Plug-In . SVG Version: 6.00 Build 0)  -->
<svg version="1.1" id="Layer_1" xmlns="http://www.w3.org/2000/svg" xmlns:xlink="http://www.w3.org/1999/xlink" x="0px" y="0px"
	 viewBox="0 0 24 24" style="enable-background:new 0 0 24 24;" xml:space="preserve">
<g id="surface1">
	<path d="M12.5,3.6l2.2-2.2l7.6,7.6l-2.2,2.2c-1.3-0.8-3-0.7-4.1,0.4l-0.9,0.9c-1.1,1.1-1.2,2.8-0.4,4.1l-2.2,2.2L9.6,16l-3.4,3.3
		c-0.5,0.5-4.1,3.3-4.6,2.8C1.2,21.6,4,18,4.5,17.5l3.3-3.3l-2.9-2.9L7.1,9c1.3,0.8,3,0.7,4.1-0.4l0.9-0.9
		C13.2,6.6,13.4,4.9,12.5,3.6z"/>
</g>
</svg>
