<?xml version="1.0" encoding="UTF-8" standalone="yes"?>
<svg xmlns="http://www.w3.org/2000/svg" xmlns:xlink="http://www.w3.org/1999/xlink" width="24px" height="24px" viewBox="0 0 18 18" version="1.1">
  <g id="surface1">
    <path style=" stroke:none;fill-rule:nonzero;fill:rgb(0%,0%,0%);fill-opacity:1;" d="M 13.03125 9.953125 L 6.667969 3.589844 L 8.019531 2.242188 C 8.46875 1.738281 10.089844 1.816406 11.179688 2.527344 C 12.265625 3.25 12.464844 3.679688 13.796875 4.417969 C 14.859375 4.996094 16.003906 5.554688 17.800781 5.183594 Z M 12.394531 10.59375 L 6.03125 4.230469 L 4.4375 5.824219 C 4.085938 6.175781 4.085938 6.742188 4.4375 7.09375 L 5.390625 8.046875 C 5.742188 8.398438 5.742188 8.972656 5.390625 9.324219 C 4.851562 9.863281 4.105469 10.324219 3.402344 10.84375 C 3.085938 11.078125 2.773438 11.320312 2.492188 11.601562 C 1.285156 12.808594 0.359375 14.472656 1.261719 15.363281 C 2.152344 16.261719 3.816406 15.335938 5.023438 14.140625 C 5.300781 13.859375 5.542969 13.546875 5.785156 13.222656 C 6.300781 12.519531 6.757812 11.773438 7.308594 11.230469 C 7.660156 10.882812 8.226562 10.882812 8.578125 11.230469 L 9.53125 12.1875 C 9.882812 12.535156 10.449219 12.535156 10.800781 12.1875 Z M 12.394531 10.59375 "/>
  </g>
</svg>