<?xml version="1.0" encoding="UTF-8" standalone="yes"?>
<svg xmlns="http://www.w3.org/2000/svg" xmlns:xlink="http://www.w3.org/1999/xlink" width="24px" height="24px" viewBox="0 0 18 18" version="1.1">
  <g id="surface1">
    <path style=" stroke:none;fill-rule:nonzero;fill:rgb(0%,0%,0%);fill-opacity:1;" d="M 9 8.324219 C 6.957031 8.324219 6.542969 5.230469 6.542969 5.230469 C 6.300781 3.617188 7.039062 1.800781 8.972656 1.800781 C 10.917969 1.800781 11.65625 3.617188 11.410156 5.230469 C 11.410156 5.230469 11.042969 8.324219 9 8.324219 Z M 9 10.636719 L 11.449219 9 C 13.597656 9 15.515625 11.097656 15.515625 13.078125 L 15.515625 15.316406 C 15.515625 15.316406 12.230469 16.335938 9 16.335938 C 5.714844 16.335938 2.484375 15.316406 2.484375 15.316406 L 2.484375 13.078125 C 2.484375 11.050781 4.230469 9.046875 6.507812 9.046875 Z M 9 10.636719 "/>
  </g>
</svg>