<?xml version="1.0" encoding="UTF-8" standalone="yes"?>
<svg xmlns="http://www.w3.org/2000/svg" xmlns:xlink="http://www.w3.org/1999/xlink" width="24px" height="24px" viewBox="0 0 18 18" version="1.1">
  <g id="surface1">
    <path style=" stroke:none;fill-rule:nonzero;fill:rgb(0%,0%,0%);fill-opacity:1;" d="M 16.199219 10.800781 L 14.238281 10.800781 C 14.085938 11.429688 13.84375 12.015625 13.507812 12.535156 L 14.894531 13.921875 L 13.003906 15.8125 L 11.617188 14.425781 C 11.097656 14.75 10.511719 14.992188 9.898438 15.136719 L 9.898438 17.101562 L 7.199219 17.101562 L 7.199219 15.136719 C 6.589844 14.992188 6.003906 14.75 5.480469 14.425781 L 4.09375 15.8125 L 2.1875 13.90625 L 3.574219 12.519531 C 3.25 11.996094 3.007812 11.410156 2.863281 10.800781 L 0.898438 10.800781 L 0.898438 8.128906 L 2.851562 8.128906 C 2.996094 7.496094 3.25 6.910156 3.574219 6.382812 L 2.1875 4.996094 L 4.078125 3.105469 L 5.464844 4.492188 C 5.984375 4.15625 6.578125 3.914062 7.199219 3.761719 L 7.199219 1.800781 L 9.898438 1.800781 L 9.898438 3.761719 C 10.511719 3.90625 11.097656 4.148438 11.617188 4.472656 L 13.003906 3.085938 L 14.914062 4.996094 L 13.527344 6.382812 C 13.851562 6.910156 14.101562 7.496094 14.246094 8.128906 L 16.199219 8.128906 Z M 8.550781 12.148438 C 10.042969 12.148438 11.25 10.945312 11.25 9.449219 C 11.25 7.957031 10.042969 6.75 8.550781 6.75 C 7.054688 6.75 5.851562 7.957031 5.851562 9.449219 C 5.851562 10.945312 7.054688 12.148438 8.550781 12.148438 Z M 8.550781 12.148438 "/>
  </g>
</svg>