<?xml version="1.0" encoding="UTF-8" standalone="yes"?>
<svg xmlns="http://www.w3.org/2000/svg" xmlns:xlink="http://www.w3.org/1999/xlink" width="24px" height="24px" viewBox="0 0 18 18" version="1.1">
  <g id="surface1">
    <path style=" stroke:none;fill-rule:nonzero;fill:rgb(0%,0%,0%);fill-opacity:1;" d="M 9.394531 2.71875 L 11.035156 1.078125 L 16.757812 6.796875 L 15.109375 8.433594 C 14.164062 7.820312 12.878906 7.921875 12.042969 8.757812 L 11.367188 9.433594 C 10.539062 10.269531 10.429688 11.546875 11.050781 12.5 L 9.40625 14.140625 L 7.234375 11.96875 L 4.714844 14.480469 C 4.339844 14.859375 1.675781 16.921875 1.296875 16.542969 C 0.917969 16.164062 2.96875 13.492188 3.347656 13.113281 L 5.859375 10.601562 L 3.691406 8.425781 L 5.335938 6.785156 C 6.28125 7.40625 7.570312 7.300781 8.398438 6.460938 L 9.070312 5.785156 C 9.910156 4.960938 10.015625 3.671875 9.394531 2.71875 Z M 9.394531 2.71875 "/>
  </g>
</svg>