<?xml version="1.0" encoding="utf-8"?>
<!-- Generator: Adobe Illustrator 21.0.2, SVG Export Plug-In . SVG Version: 6.00 Build 0)  -->
<svg version="1.1" id="Layer_1" xmlns="http://www.w3.org/2000/svg" xmlns:xlink="http://www.w3.org/1999/xlink" x="0px" y="0px"
	 viewBox="0 0 24 24" style="enable-background:new 0 0 24 24;" xml:space="preserve">
<g id="surface1">
	<path d="M22.1,4.3c0,0,0.3-1-0.4-1.6c-0.6-0.6-1.5-0.3-1.5-0.3c-0.7,0.4-6.9,4.2-9.2,6.7c-1,1.2-2.5,4.5-1.3,5.8
		c1.1,1.2,4.8-0.2,5.8-1.2C18,11.2,21.8,5,22.1,4.3z M1.8,21.2c2.8-1.9,1.8-4.1,3.9-5.6c1.1-0.8,2.7-0.7,3.7,0.3
		c0.8,0.8,1,3.1-0.2,4.2C7.3,21.9,4.4,22,1.8,21.2z"/>
</g>
</svg>
