<?xml version="1.0" encoding="utf-8"?>
<!-- Generator: Adobe Illustrator 21.0.2, SVG Export Plug-In . SVG Version: 6.00 Build 0)  -->
<svg version="1.1" id="Layer_1" xmlns="http://www.w3.org/2000/svg" xmlns:xlink="http://www.w3.org/1999/xlink" x="0px" y="0px"
	 viewBox="0 0 24 24" style="enable-background:new 0 0 24 24;" xml:space="preserve">
<g id="surface1">
	<path d="M0,21.6h12v-0.3c1.8,0.5,3.8,0.4,5.7-0.3c5-1.8,7.5-7.3,5.7-12.3C21.7,4,16.7,1.5,12,2.7V2.4H0V21.6z M10.8,3.6v16.8H1.2
		V3.6H10.8z M17.3,13.5c-0.8,1.6-2.8,2.3-4.4,1.5c-0.4-0.2-0.7-0.4-0.9-0.7V9.8c1-1,2.5-1.4,3.9-0.7C17.5,9.9,18.1,11.8,17.3,13.5z
		 M14,12.5c0.3,0.2,0.6,0.1,0.8-0.1c0.2-0.3,0.1-0.6-0.1-0.8c-0.3-0.2-0.6-0.1-0.8,0.1C13.7,11.9,13.8,12.3,14,12.5z M17.7,16.9
		c-1.4,0.9-3.1,1.2-4.6,0.8c-0.3-0.1-0.5-0.4-0.4-0.7c0.1-0.3,0.4-0.5,0.7-0.4l0.2,0c1.2,0.2,2.4,0,3.4-0.7c0.6-0.4,1-0.9,1.4-1.4
		c0.2-0.3,0.5-0.4,0.8-0.2c0.3,0.2,0.4,0.6,0.2,0.8C18.9,15.8,18.4,16.4,17.7,16.9z M18.9,18.8c-1.8,1.2-3.8,1.6-5.8,1.3
		c-0.3-0.1-0.6-0.4-0.5-0.7c0.1-0.3,0.4-0.5,0.7-0.5l0.3,0c1.6,0.2,3.2-0.2,4.6-1.1c0.9-0.6,1.5-1.3,2-2.1c0.2-0.3,0.5-0.4,0.8-0.2
		c0.3,0.2,0.4,0.5,0.2,0.8C20.7,17.3,19.9,18.1,18.9,18.8z"/>
</g>
</svg>
