<?xml version="1.0" encoding="UTF-8" standalone="yes"?>
<svg xmlns="http://www.w3.org/2000/svg" xmlns:xlink="http://www.w3.org/1999/xlink" width="24px" height="24px" viewBox="0 0 18 18" version="1.1">
  <g id="surface1">
    <path style=" stroke:none;fill-rule:nonzero;fill:rgb(0%,0%,0%);fill-opacity:1;" d="M 0 16.199219 L 9 16.199219 L 9 15.964844 C 10.367188 16.324219 11.851562 16.28125 13.285156 15.75 C 17.011719 14.382812 18.925781 10.242188 17.558594 6.515625 C 16.273438 3.015625 12.535156 1.117188 9 2.035156 L 9 1.800781 L 0 1.800781 Z M 8.101562 2.699219 L 8.101562 15.300781 L 0.898438 15.300781 L 0.898438 2.699219 Z M 13.003906 10.097656 C 12.394531 11.3125 10.917969 11.808594 9.703125 11.203125 C 9.421875 11.070312 9.1875 10.890625 9 10.675781 L 9 7.316406 C 9.71875 6.542969 10.898438 6.300781 11.898438 6.796875 C 13.113281 7.40625 13.609375 8.882812 13.003906 10.097656 Z M 10.53125 9.359375 C 10.726562 9.503906 11.007812 9.46875 11.160156 9.269531 C 11.304688 9.070312 11.269531 8.792969 11.070312 8.640625 C 10.871094 8.488281 10.59375 8.53125 10.441406 8.730469 C 10.296875 8.917969 10.332031 9.207031 10.53125 9.359375 Z M 13.238281 12.664062 C 12.1875 13.363281 10.933594 13.554688 9.792969 13.285156 C 9.550781 13.230469 9.394531 12.976562 9.460938 12.734375 C 9.523438 12.492188 9.765625 12.347656 10.015625 12.410156 L 10.171875 12.445312 C 11.035156 12.601562 11.953125 12.4375 12.742188 11.914062 C 13.167969 11.628906 13.519531 11.269531 13.769531 10.855469 C 13.90625 10.648438 14.175781 10.585938 14.390625 10.710938 C 14.597656 10.84375 14.660156 11.125 14.535156 11.332031 C 14.210938 11.84375 13.777344 12.304688 13.238281 12.664062 Z M 14.183594 14.074219 C 12.851562 14.96875 11.296875 15.265625 9.828125 15.03125 C 9.574219 14.984375 9.40625 14.742188 9.460938 14.488281 C 9.503906 14.246094 9.746094 14.085938 10.007812 14.140625 L 10.207031 14.175781 C 11.386719 14.308594 12.617188 14.050781 13.6875 13.328125 C 14.328125 12.90625 14.832031 12.367188 15.21875 11.761719 C 15.34375 11.546875 15.625 11.484375 15.832031 11.617188 C 16.046875 11.746094 16.109375 12.023438 15.976562 12.238281 C 15.535156 12.949219 14.929688 13.582031 14.183594 14.074219 Z M 14.183594 14.074219 "/>
  </g>
</svg>