<?xml version="1.0" encoding="utf-8"?>
<!-- Generator: Adobe Illustrator 21.0.2, SVG Export Plug-In . SVG Version: 6.00 Build 0)  -->
<svg version="1.1" id="Layer_1" xmlns="http://www.w3.org/2000/svg" xmlns:xlink="http://www.w3.org/1999/xlink" x="0px" y="0px"
	 viewBox="0 0 24 24" style="enable-background:new 0 0 24 24;" xml:space="preserve">
<g id="surface1">
	<path d="M21.6,21.6V2.4H2.4v19.2H21.6z M19.2,6H4.8V4.8h14.4V6z M8.4,8.4V12H12c0,2-1.6,3.6-3.6,3.6c-2,0-3.6-1.6-3.6-3.6
		S6.4,8.4,8.4,8.4z M9.6,10.8V8.4c1.3,0,2.4,1.1,2.4,2.4H9.6z M19.2,9.6h-4.8V8.4h4.8V9.6z M19.2,13.2h-4.8v-2.4h4.8V13.2z
		 M19.2,15.6h-4.8v-1.2h4.8V15.6z M19.2,19.2H4.8V18h14.4V19.2z"/>
</g>
</svg>
