<?xml version="1.0" encoding="UTF-8" standalone="yes"?>
<svg xmlns="http://www.w3.org/2000/svg" xmlns:xlink="http://www.w3.org/1999/xlink" width="24px" height="24px" viewBox="0 0 18 18" version="1.1">
  <g id="surface1">
    <path style=" stroke:none;fill-rule:nonzero;fill:rgb(0%,0%,0%);fill-opacity:1;" d="M 16.199219 16.199219 L 16.199219 1.800781 L 1.800781 1.800781 L 1.800781 16.199219 Z M 14.398438 4.5 L 3.601562 4.5 L 3.601562 3.601562 L 14.398438 3.601562 Z M 6.300781 6.300781 L 6.300781 9 L 9 9 C 9 10.492188 7.792969 11.699219 6.300781 11.699219 C 4.804688 11.699219 3.601562 10.492188 3.601562 9 C 3.601562 7.507812 4.804688 6.300781 6.300781 6.300781 Z M 7.199219 8.101562 L 7.199219 6.300781 C 8.191406 6.300781 9 7.109375 9 8.101562 Z M 14.398438 7.199219 L 10.800781 7.199219 L 10.800781 6.300781 L 14.398438 6.300781 Z M 14.398438 9.898438 L 10.800781 9.898438 L 10.800781 8.101562 L 14.398438 8.101562 Z M 14.398438 11.699219 L 10.800781 11.699219 L 10.800781 10.800781 L 14.398438 10.800781 Z M 14.398438 14.398438 L 3.601562 14.398438 L 3.601562 13.5 L 14.398438 13.5 Z M 14.398438 14.398438 "/>
  </g>
</svg>