<?xml version="1.0" encoding="UTF-8" standalone="yes"?>
<svg xmlns="http://www.w3.org/2000/svg" xmlns:xlink="http://www.w3.org/1999/xlink" width="24px" height="24px" viewBox="0 0 18 18" version="1.1">
  <g id="surface1">
    <path style=" stroke:none;fill-rule:nonzero;fill:rgb(0%,0%,0%);fill-opacity:1;" d="M 4.015625 4.644531 L 4.5 6.714844 L 4.015625 8.773438 L 5.824219 9.890625 L 6.929688 11.699219 L 9 11.214844 L 11.070312 11.699219 L 12.175781 9.890625 L 13.984375 8.773438 L 13.5 6.714844 L 13.984375 4.644531 L 12.1875 3.527344 L 11.070312 1.71875 L 9 2.214844 L 6.9375 1.726562 L 5.8125 3.527344 Z M 9.007812 10.351562 C 7.011719 10.351562 5.398438 8.738281 5.398438 6.742188 C 5.398438 4.761719 7.011719 3.148438 9.007812 3.148438 C 10.988281 3.148438 12.601562 4.761719 12.601562 6.742188 C 12.601562 8.738281 10.988281 10.351562 9.007812 10.351562 Z M 8.992188 9.449219 C 7.496094 9.449219 6.300781 8.242188 6.300781 6.75 C 6.300781 5.265625 7.496094 4.050781 8.992188 4.050781 C 10.484375 4.050781 11.699219 5.265625 11.699219 6.75 C 11.699219 8.242188 10.484375 9.449219 8.992188 9.449219 Z M 12.445312 10.441406 L 11.296875 12.457031 L 9.421875 12.03125 L 11.699219 17.28125 L 12.960938 15.300781 L 15.210938 15.300781 Z M 5.515625 10.503906 L 6.640625 12.527344 L 8.558594 12.070312 L 6.300781 17.28125 L 5.039062 15.300781 L 2.789062 15.300781 Z M 5.515625 10.503906 "/>
  </g>
</svg>