<?xml version="1.0" encoding="utf-8"?>
<!-- Generator: Adobe Illustrator 21.0.2, SVG Export Plug-In . SVG Version: 6.00 Build 0)  -->
<svg version="1.1" id="Layer_1" xmlns="http://www.w3.org/2000/svg" xmlns:xlink="http://www.w3.org/1999/xlink" x="0px" y="0px"
	 viewBox="0 0 24 24" style="enable-background:new 0 0 24 24;" xml:space="preserve">
<g id="surface1">
	<path d="M5.4,6.2L6,9l-0.6,2.7l2.4,1.5l1.5,2.4L12,15l2.8,0.6l1.5-2.4l2.4-1.5L18,9l0.6-2.8l-2.4-1.5l-1.5-2.4L12,3L9.2,2.3
		L7.8,4.7L5.4,6.2z M12,13.8c-2.7,0-4.8-2.2-4.8-4.8c0-2.6,2.2-4.8,4.8-4.8c2.6,0,4.8,2.2,4.8,4.8C16.8,11.7,14.7,13.8,12,13.8z
		 M12,12.6c-2,0-3.6-1.6-3.6-3.6c0-2,1.6-3.6,3.6-3.6c2,0,3.6,1.6,3.6,3.6C15.6,11,14,12.6,12,12.6z M16.6,13.9l-1.5,2.7L12.6,16
		l3,7l1.7-2.6h3L16.6,13.9z M7.4,14l1.5,2.7l2.6-0.6l-3,6.9l-1.7-2.6h-3L7.4,14z"/>
</g>
</svg>
