<?xml version="1.0" encoding="utf-8"?>
<!-- Generator: Adobe Illustrator 21.0.2, SVG Export Plug-In . SVG Version: 6.00 Build 0)  -->
<svg version="1.1" id="Layer_1" xmlns="http://www.w3.org/2000/svg" xmlns:xlink="http://www.w3.org/1999/xlink" x="0px" y="0px"
	 viewBox="0 0 24 24" style="enable-background:new 0 0 24 24;" xml:space="preserve">
<g id="surface1">
	<path d="M16.9,3.5c4.7,2.4,6.6,8.2,4.2,12.9c-2.4,4.7-8.2,6.6-12.9,4.2c-2.2-1.2-3.8-3.1-4.6-5.3l2-1.2c0.5,1.9,1.8,3.5,3.7,4.5
		c3.6,1.8,8,0.4,9.9-3.2c1.9-3.6,0.4-8-3.2-9.9C12.3,3.6,7.9,5,6,8.7l2.3,1.2l-5.9,3.7l-0.5-7L4,7.6C6.4,2.9,12.2,1.1,16.9,3.5z
		 M11.7,12.9c-0.2-0.2-0.3-0.5-0.3-0.9c0-0.1,0-0.1,0-0.2h0L12.5,6l1.2,5.8l3.6,3.8l-5.4-2.5l0,0C11.9,13,11.8,12.9,11.7,12.9z"/>
</g>
</svg>
