<?xml version="1.0" encoding="UTF-8" standalone="yes"?>
<svg xmlns="http://www.w3.org/2000/svg" xmlns:xlink="http://www.w3.org/1999/xlink" width="24px" height="24px" viewBox="0 0 18 18" version="1.1">
  <g id="surface1">
    <path style=" stroke:none;fill-rule:nonzero;fill:rgb(0%,0%,0%);fill-opacity:1;" d="M 12.285156 2.59375 C 15.820312 4.402344 17.21875 8.746094 15.40625 12.285156 C 13.597656 15.820312 9.261719 17.21875 5.714844 15.40625 C 4.03125 14.542969 2.835938 13.105469 2.242188 11.449219 L 3.71875 10.519531 C 4.121094 11.933594 5.085938 13.175781 6.488281 13.90625 C 9.199219 15.289062 12.511719 14.21875 13.894531 11.511719 C 15.289062 8.800781 14.21875 5.488281 11.511719 4.09375 C 8.800781 2.710938 5.488281 3.78125 4.105469 6.488281 L 5.796875 7.363281 L 1.339844 10.132812 L 0.988281 4.894531 L 2.59375 5.714844 C 4.410156 2.160156 8.773438 0.800781 12.285156 2.59375 Z M 8.359375 9.640625 C 8.199219 9.476562 8.101562 9.253906 8.101562 9 C 8.101562 8.9375 8.128906 8.890625 8.136719 8.828125 L 8.128906 8.828125 L 9 4.5 L 9.871094 8.828125 L 12.601562 11.699219 L 8.550781 9.792969 L 8.566406 9.773438 C 8.496094 9.738281 8.425781 9.691406 8.359375 9.640625 Z M 8.359375 9.640625 "/>
  </g>
</svg>