<?xml version="1.0" encoding="utf-8"?>
<!-- Generator: Adobe Illustrator 21.0.2, SVG Export Plug-In . SVG Version: 6.00 Build 0)  -->
<svg version="1.1" id="Layer_1" xmlns="http://www.w3.org/2000/svg" xmlns:xlink="http://www.w3.org/1999/xlink" x="0px" y="0px"
	 viewBox="0 0 24 24" style="enable-background:new 0 0 24 24;" xml:space="preserve">
<g id="surface1">
	<path d="M6,20.4h15.6v2.4H6c-2,0-3.6-1.6-3.6-3.6V4.8c0-2,1.6-3.6,3.6-3.6h15.6V18H6c-0.7,0-1.2,0.5-1.2,1.2
		C4.8,19.9,5.3,20.4,6,20.4z M8.4,16.2V3c0-0.3-0.3-0.6-0.6-0.6C7.5,2.4,7.2,2.7,7.2,3v13.2c0,0.3,0.3,0.6,0.6,0.6
		C8.1,16.8,8.4,16.5,8.4,16.2z"/>
</g>
</svg>
