<?xml version="1.0" encoding="utf-8"?>
<!-- Generator: Adobe Illustrator 21.0.2, SVG Export Plug-In . SVG Version: 6.00 Build 0)  -->
<svg version="1.1" id="Layer_1" xmlns="http://www.w3.org/2000/svg" xmlns:xlink="http://www.w3.org/1999/xlink" x="0px" y="0px"
	 viewBox="0 0 24 24" style="enable-background:new 0 0 24 24;" xml:space="preserve">
<g id="surface1">
	<path d="M3.6,24h16.8V0H3.6V24z M8.4,3.6H6V1.2h2.4V3.6z M13.2,3.6h-2.4V1.2h2.4V3.6z M18,3.6h-2.4V1.2H18V3.6z M8.4,7.2H6V4.8h2.4
		V7.2z M13.2,7.2h-2.4V4.8h2.4V7.2z M18,7.2h-2.4V4.8H18V7.2z M8.4,10.8H6V8.4h2.4V10.8z M13.2,10.8h-2.4V8.4h2.4V10.8z M18,10.8
		h-2.4V8.4H18V10.8z M8.4,14.4H6V12h2.4V14.4z M13.2,14.4h-2.4V12h2.4V14.4z M18,14.4h-2.4V12H18V14.4z M13.2,22.8H6v-7.2h7.2V22.8z
		 M18,18h-2.4v-2.4H18V18z M18,21.6h-2.4v-2.4H18V21.6z"/>
</g>
</svg>
