<?xml version="1.0" encoding="UTF-8" standalone="yes"?>
<svg xmlns="http://www.w3.org/2000/svg" xmlns:xlink="http://www.w3.org/1999/xlink" width="24px" height="24px" viewBox="0 0 18 18" version="1.1">
  <g id="surface1">
    <path style=" stroke:none;fill-rule:nonzero;fill:rgb(0%,0%,0%);fill-opacity:1;" d="M 2.699219 18 L 15.300781 18 L 15.300781 0 L 2.699219 0 Z M 6.300781 2.699219 L 4.5 2.699219 L 4.5 0.898438 L 6.300781 0.898438 Z M 9.898438 2.699219 L 8.101562 2.699219 L 8.101562 0.898438 L 9.898438 0.898438 Z M 13.5 2.699219 L 11.699219 2.699219 L 11.699219 0.898438 L 13.5 0.898438 Z M 6.300781 5.398438 L 4.5 5.398438 L 4.5 3.601562 L 6.300781 3.601562 Z M 9.898438 5.398438 L 8.101562 5.398438 L 8.101562 3.601562 L 9.898438 3.601562 Z M 13.5 5.398438 L 11.699219 5.398438 L 11.699219 3.601562 L 13.5 3.601562 Z M 6.300781 8.101562 L 4.5 8.101562 L 4.5 6.300781 L 6.300781 6.300781 Z M 9.898438 8.101562 L 8.101562 8.101562 L 8.101562 6.300781 L 9.898438 6.300781 Z M 13.5 8.101562 L 11.699219 8.101562 L 11.699219 6.300781 L 13.5 6.300781 Z M 6.300781 10.800781 L 4.5 10.800781 L 4.5 9 L 6.300781 9 Z M 9.898438 10.800781 L 8.101562 10.800781 L 8.101562 9 L 9.898438 9 Z M 13.5 10.800781 L 11.699219 10.800781 L 11.699219 9 L 13.5 9 Z M 9.898438 17.101562 L 4.5 17.101562 L 4.5 11.699219 L 9.898438 11.699219 Z M 13.5 13.5 L 11.699219 13.5 L 11.699219 11.699219 L 13.5 11.699219 Z M 13.5 16.199219 L 11.699219 16.199219 L 11.699219 14.398438 L 13.5 14.398438 Z M 13.5 16.199219 "/>
  </g>
</svg>