<?xml version="1.0" encoding="UTF-8" standalone="yes"?>
<svg xmlns="http://www.w3.org/2000/svg" xmlns:xlink="http://www.w3.org/1999/xlink" width="24px" height="24px" viewBox="0 0 18 18" version="1.1">
  <g id="surface1">
    <path style=" stroke:none;fill-rule:nonzero;fill:rgb(0%,0%,0%);fill-opacity:1;" d="M 6.570312 5.398438 L 6.542969 5.230469 C 6.507812 4.894531 6.496094 4.570312 6.515625 4.257812 C 6.535156 3.933594 6.605469 3.617188 6.742188 3.320312 C 6.867188 3.03125 7.019531 2.773438 7.210938 2.546875 C 7.398438 2.320312 7.648438 2.132812 7.957031 2.007812 C 8.261719 1.871094 8.605469 1.800781 8.972656 1.800781 C 9.59375 1.800781 10.105469 1.980469 10.511719 2.332031 C 10.917969 2.683594 11.195312 3.113281 11.332031 3.628906 C 11.464844 4.140625 11.492188 4.671875 11.410156 5.230469 L 11.386719 5.398438 C 11.375 5.480469 11.339844 5.625 11.285156 5.832031 C 11.242188 6.046875 11.179688 6.253906 11.105469 6.453125 C 11.035156 6.640625 10.933594 6.859375 10.800781 7.101562 C 10.675781 7.34375 10.53125 7.542969 10.378906 7.722656 C 10.214844 7.894531 10.015625 8.027344 9.773438 8.152344 C 9.53125 8.269531 9.277344 8.324219 9 8.324219 C 8.722656 8.324219 8.46875 8.269531 8.21875 8.152344 C 7.984375 8.035156 7.777344 7.894531 7.613281 7.703125 C 7.453125 7.523438 7.308594 7.324219 7.171875 7.109375 C 7.039062 6.886719 6.9375 6.667969 6.867188 6.453125 C 6.785156 6.226562 6.722656 6.03125 6.679688 5.851562 C 6.625 5.660156 6.589844 5.515625 6.570312 5.398438 Z M 14.851562 11.015625 C 15.21875 11.644531 15.300781 12.285156 15.300781 12.941406 L 15.300781 15.183594 C 15.300781 15.210938 15.191406 15.253906 15.039062 15.300781 C 14.878906 15.335938 14.660156 15.417969 14.164062 15.542969 C 13.671875 15.652344 13.175781 15.757812 12.679688 15.847656 C 12.1875 15.9375 11.609375 16.019531 10.925781 16.09375 C 10.25 16.164062 9.613281 16.199219 9.007812 16.199219 C 8.398438 16.199219 7.757812 16.164062 7.082031 16.09375 C 6.40625 16.027344 5.824219 15.9375 5.300781 15.847656 C 4.777344 15.75 4.328125 15.640625 3.898438 15.542969 C 3.457031 15.445312 3.175781 15.355469 2.941406 15.28125 L 2.699219 15.183594 L 2.699219 12.941406 C 2.699219 12.265625 2.761719 11.628906 3.113281 11.007812 C 3.464844 10.386719 3.84375 9.882812 4.464844 9.496094 C 5.09375 9.109375 6.472656 9 7.199219 9 L 8.703125 10.503906 L 8.101562 11.699219 L 8.101562 14.398438 L 9.019531 15.371094 L 9.898438 14.398438 L 9.898438 11.699219 L 9.289062 10.503906 L 10.773438 9 C 11.464844 9 12.753906 9.0625 13.382812 9.46875 C 14.023438 9.871094 14.472656 10.386719 14.851562 11.015625 Z M 14.851562 11.015625 "/>
  </g>
</svg>