<?xml version="1.0" encoding="utf-8"?>
<!-- Generator: Adobe Illustrator 21.0.2, SVG Export Plug-In . SVG Version: 6.00 Build 0)  -->
<svg version="1.1" id="Layer_1" xmlns="http://www.w3.org/2000/svg" xmlns:xlink="http://www.w3.org/1999/xlink" x="0px" y="0px"
	 viewBox="0 0 24 24" style="enable-background:new 0 0 24 24;" xml:space="preserve">
<g id="surface1">
	<path d="M8.8,7.2l0-0.2c0-0.4-0.1-0.9,0-1.3c0-0.4,0.1-0.9,0.3-1.2c0.2-0.4,0.4-0.7,0.6-1c0.2-0.3,0.6-0.6,1-0.7
		C11,2.5,11.5,2.4,12,2.4c0.8,0,1.5,0.2,2.1,0.7c0.5,0.5,0.9,1,1.1,1.7c0.2,0.7,0.2,1.4,0.1,2.1l0,0.2c0,0.1-0.1,0.3-0.1,0.6
		c-0.1,0.3-0.1,0.6-0.2,0.8c-0.1,0.2-0.2,0.5-0.4,0.9c-0.2,0.3-0.4,0.6-0.6,0.8c-0.2,0.2-0.5,0.4-0.8,0.6c-0.3,0.2-0.7,0.2-1,0.2
		c-0.4,0-0.7-0.1-1-0.2c-0.3-0.2-0.6-0.3-0.8-0.6C9.9,10,9.7,9.8,9.6,9.5C9.4,9.2,9.2,8.9,9.2,8.6C9,8.3,9,8,8.9,7.8
		C8.8,7.5,8.8,7.4,8.8,7.2z M19.8,14.7c0.5,0.8,0.6,1.7,0.6,2.6v3c0,0-0.1,0.1-0.3,0.2c-0.2,0-0.5,0.2-1.2,0.3
		c-0.7,0.1-1.3,0.3-2,0.4c-0.7,0.1-1.4,0.2-2.3,0.3c-0.9,0.1-1.8,0.1-2.6,0.1c-0.8,0-1.7,0-2.6-0.1c-0.9-0.1-1.7-0.2-2.4-0.3
		c-0.7-0.1-1.3-0.3-1.9-0.4c-0.6-0.1-1-0.2-1.3-0.3l-0.3-0.1v-3c0-0.9,0.1-1.8,0.6-2.6c0.5-0.8,1-1.5,1.8-2C6.8,12.1,8.6,12,9.6,12
		l2,2l-0.8,1.6v3.6l1.2,1.3l1.2-1.3v-3.6L12.4,14l2-2c0.9,0,2.6,0.1,3.5,0.6C18.7,13.2,19.3,13.8,19.8,14.7z"/>
</g>
</svg>
