<?xml version="1.0" encoding="utf-8"?>
<!-- Generator: Adobe Illustrator 21.0.2, SVG Export Plug-In . SVG Version: 6.00 Build 0)  -->
<svg version="1.1" id="Layer_1" xmlns="http://www.w3.org/2000/svg" xmlns:xlink="http://www.w3.org/1999/xlink" x="0px" y="0px"
	 viewBox="0 0 24 24" style="enable-background:new 0 0 24 24;" xml:space="preserve">
<g id="surface1">
	<path d="M18,4.8h3.6v16.8H2.4V4.8H6V3.6c0-1,0.8-1.8,1.8-1.8c1,0,1.8,0.8,1.8,1.8v1.2h4.8V3.6c0-1,0.8-1.8,1.8-1.8
		c1,0,1.8,0.8,1.8,1.8V4.8z M7.2,3.6v3c0,0.3,0.3,0.6,0.6,0.6c0.3,0,0.6-0.3,0.6-0.6v-3C8.4,3.3,8.1,3,7.8,3C7.5,3,7.2,3.3,7.2,3.6z
		 M15.6,3.6v3c0,0.3,0.3,0.6,0.6,0.6c0.3,0,0.6-0.3,0.6-0.6v-3c0-0.3-0.3-0.6-0.6-0.6C15.9,3,15.6,3.3,15.6,3.6z M20.4,20.4V9.6H3.6
		v10.8H20.4z M8.4,19.2v-8.4H6v8.4H8.4z M13.2,19.2v-8.4h-2.4v8.4H13.2z M18,19.2v-8.4h-2.4v8.4H18z"/>
</g>
</svg>
