<?xml version="1.0" encoding="utf-8"?>
<!-- Generator: Adobe Illustrator 21.0.2, SVG Export Plug-In . SVG Version: 6.00 Build 0)  -->
<svg version="1.1" id="Layer_1" xmlns="http://www.w3.org/2000/svg" xmlns:xlink="http://www.w3.org/1999/xlink" x="0px" y="0px"
	 viewBox="0 0 24 24" style="enable-background:new 0 0 24 24;" xml:space="preserve">
<g id="surface1">
	<path d="M18,4.8h3.6v18H2.4v-18H6V3.6c0-0.5,0.2-0.9,0.5-1.3C6.9,2,7.3,1.8,7.8,1.8c0.5,0,0.9,0.2,1.3,0.5c0.3,0.4,0.5,0.8,0.5,1.3
		v1.2h4.8V3.6c0-0.5,0.2-0.9,0.5-1.3c0.3-0.3,0.8-0.5,1.3-0.5c0.5,0,0.9,0.2,1.3,0.5C17.8,2.7,18,3.1,18,3.6V4.8z M7.2,3.6v3
		c0,0.2,0.1,0.3,0.2,0.4c0.1,0.1,0.2,0.2,0.4,0.2C8,7.2,8.1,7.1,8.2,7c0.1-0.1,0.2-0.3,0.2-0.4v-3c0-0.2-0.1-0.3-0.2-0.4
		C8.1,3.1,8,3,7.8,3C7.6,3,7.5,3.1,7.4,3.2C7.3,3.3,7.2,3.4,7.2,3.6z M15.6,3.6v3c0,0.2,0.1,0.3,0.2,0.4c0.1,0.1,0.3,0.2,0.4,0.2
		c0.2,0,0.3-0.1,0.4-0.2c0.1-0.1,0.2-0.3,0.2-0.4v-3c0-0.2-0.1-0.3-0.2-0.4C16.5,3.1,16.4,3,16.2,3c-0.2,0-0.3,0.1-0.4,0.2
		C15.7,3.3,15.6,3.4,15.6,3.6z M20.4,21.6v-12H3.6v12H20.4z M8.4,10.8v2.4H6v-2.4H8.4z M10.8,10.8h2.4v2.4h-2.4V10.8z M15.6,13.2
		v-2.4H18v2.4H15.6z M8.4,14.4v2.4H6v-2.4H8.4z M10.8,14.4h2.4v2.4h-2.4V14.4z M15.6,16.8v-2.4H18v2.4H15.6z M8.4,18v2.4H6V18H8.4z
		 M13.2,20.4h-2.4V18h2.4V20.4z M18,20.4h-2.4V18H18V20.4z"/>
</g>
</svg>
