<?xml version="1.0" encoding="UTF-8" standalone="yes"?>
<svg xmlns="http://www.w3.org/2000/svg" xmlns:xlink="http://www.w3.org/1999/xlink" width="24px" height="24px" viewBox="0 0 18 18" version="1.1">
  <g id="surface1">
    <path style=" stroke:none;fill-rule:nonzero;fill:rgb(0%,0%,0%);fill-opacity:1;" d="M 13.5 3.601562 L 16.199219 3.601562 L 16.199219 16.199219 L 1.800781 16.199219 L 1.800781 3.601562 L 4.5 3.601562 L 4.5 2.699219 C 4.5 1.953125 5.101562 1.351562 5.851562 1.351562 C 6.597656 1.351562 7.199219 1.953125 7.199219 2.699219 L 7.199219 3.601562 L 10.800781 3.601562 L 10.800781 2.699219 C 10.800781 1.953125 11.402344 1.351562 12.148438 1.351562 C 12.898438 1.351562 13.5 1.953125 13.5 2.699219 Z M 5.398438 2.699219 L 5.398438 4.949219 C 5.398438 5.203125 5.597656 5.398438 5.851562 5.398438 C 6.101562 5.398438 6.300781 5.203125 6.300781 4.949219 L 6.300781 2.699219 C 6.300781 2.449219 6.101562 2.25 5.851562 2.25 C 5.597656 2.25 5.398438 2.449219 5.398438 2.699219 Z M 11.699219 2.699219 L 11.699219 4.949219 C 11.699219 5.203125 11.898438 5.398438 12.148438 5.398438 C 12.402344 5.398438 12.601562 5.203125 12.601562 4.949219 L 12.601562 2.699219 C 12.601562 2.449219 12.402344 2.25 12.148438 2.25 C 11.898438 2.25 11.699219 2.449219 11.699219 2.699219 Z M 15.300781 15.300781 L 15.300781 7.199219 L 2.699219 7.199219 L 2.699219 15.300781 Z M 6.300781 14.398438 L 6.300781 8.101562 L 4.5 8.101562 L 4.5 14.398438 Z M 9.898438 14.398438 L 9.898438 8.101562 L 8.101562 8.101562 L 8.101562 14.398438 Z M 13.5 14.398438 L 13.5 8.101562 L 11.699219 8.101562 L 11.699219 14.398438 Z M 13.5 14.398438 "/>
  </g>
</svg>