<?xml version="1.0" encoding="UTF-8" standalone="yes"?>
<svg xmlns="http://www.w3.org/2000/svg" xmlns:xlink="http://www.w3.org/1999/xlink" width="24px" height="24px" viewBox="0 0 18 18" version="1.1">
  <g id="surface1">
    <path style=" stroke:none;fill-rule:nonzero;fill:rgb(0%,0%,0%);fill-opacity:1;" d="M 13.5 3.601562 L 16.199219 3.601562 L 16.199219 17.101562 L 1.800781 17.101562 L 1.800781 3.601562 L 4.5 3.601562 L 4.5 2.699219 C 4.5 2.332031 4.636719 2.015625 4.894531 1.746094 C 5.15625 1.484375 5.480469 1.351562 5.851562 1.351562 C 6.21875 1.351562 6.542969 1.484375 6.804688 1.746094 C 7.066406 2.015625 7.199219 2.332031 7.199219 2.699219 L 7.199219 3.601562 L 10.800781 3.601562 L 10.800781 2.699219 C 10.800781 2.332031 10.933594 2.015625 11.195312 1.746094 C 11.457031 1.484375 11.78125 1.351562 12.148438 1.351562 C 12.519531 1.351562 12.84375 1.484375 13.105469 1.746094 C 13.363281 2.015625 13.5 2.332031 13.5 2.699219 Z M 5.398438 2.699219 L 5.398438 4.949219 C 5.398438 5.074219 5.445312 5.183594 5.535156 5.273438 C 5.617188 5.355469 5.722656 5.398438 5.851562 5.398438 C 5.976562 5.398438 6.085938 5.355469 6.164062 5.273438 C 6.253906 5.183594 6.300781 5.074219 6.300781 4.949219 L 6.300781 2.699219 C 6.300781 2.574219 6.253906 2.464844 6.164062 2.386719 C 6.085938 2.296875 5.976562 2.25 5.851562 2.25 C 5.722656 2.25 5.617188 2.296875 5.535156 2.386719 C 5.445312 2.464844 5.398438 2.574219 5.398438 2.699219 Z M 11.699219 2.699219 L 11.699219 4.949219 C 11.699219 5.074219 11.746094 5.183594 11.824219 5.273438 C 11.914062 5.355469 12.023438 5.398438 12.148438 5.398438 C 12.277344 5.398438 12.382812 5.355469 12.472656 5.273438 C 12.554688 5.183594 12.601562 5.074219 12.601562 4.949219 L 12.601562 2.699219 C 12.601562 2.574219 12.554688 2.464844 12.472656 2.386719 C 12.382812 2.296875 12.277344 2.25 12.148438 2.25 C 12.023438 2.25 11.914062 2.296875 11.824219 2.386719 C 11.746094 2.464844 11.699219 2.574219 11.699219 2.699219 Z M 15.300781 16.199219 L 15.300781 7.199219 L 2.699219 7.199219 L 2.699219 16.199219 Z M 6.300781 8.101562 L 6.300781 9.898438 L 4.5 9.898438 L 4.5 8.101562 Z M 8.101562 8.101562 L 9.898438 8.101562 L 9.898438 9.898438 L 8.101562 9.898438 Z M 11.699219 9.898438 L 11.699219 8.101562 L 13.5 8.101562 L 13.5 9.898438 Z M 6.300781 10.800781 L 6.300781 12.601562 L 4.5 12.601562 L 4.5 10.800781 Z M 8.101562 10.800781 L 9.898438 10.800781 L 9.898438 12.601562 L 8.101562 12.601562 Z M 11.699219 12.601562 L 11.699219 10.800781 L 13.5 10.800781 L 13.5 12.601562 Z M 6.300781 13.5 L 6.300781 15.300781 L 4.5 15.300781 L 4.5 13.5 Z M 9.898438 15.300781 L 8.101562 15.300781 L 8.101562 13.5 L 9.898438 13.5 Z M 13.5 15.300781 L 11.699219 15.300781 L 11.699219 13.5 L 13.5 13.5 Z M 13.5 15.300781 "/>
  </g>
</svg>