<?xml version="1.0" encoding="UTF-8" standalone="yes"?>
<svg xmlns="http://www.w3.org/2000/svg" xmlns:xlink="http://www.w3.org/1999/xlink" width="24px" height="24px" viewBox="0 0 18 18" version="1.1">
  <g id="surface1">
    <path style=" stroke:none;fill-rule:nonzero;fill:rgb(0%,0%,0%);fill-opacity:1;" d="M 1.800781 16.585938 C 3.160156 17.8125 12.277344 12.382812 13.625 10.097656 C 14.273438 9 13.507812 7.390625 12.257812 6.101562 C 13.679688 5.15625 14.929688 8.101562 16.117188 7.480469 C 16.660156 7.191406 17.011719 6.300781 16.75 5.75 C 16.28125 4.777344 14.722656 4.777344 13.671875 4.660156 C 14.417969 4.480469 16.210938 3.71875 16.246094 2.636719 C 16.28125 1.808594 15.226562 0.863281 14.398438 0.964844 C 13.3125 1.089844 12.914062 2.65625 12.546875 3.664062 C 12.5 3.023438 12.367188 1.621094 11.664062 1.007812 C 10.726562 0.1875 9.601562 0.964844 9.574219 1.953125 C 9.539062 3.148438 12.113281 3.816406 11.304688 5.257812 C 9.9375 4.203125 8.324219 3.628906 7.289062 4.230469 C 6.847656 4.507812 6.34375 5.050781 5.824219 5.75 C 6.625 6.597656 7.730469 7.613281 8.605469 8.199219 C 8.785156 8.324219 8.839844 8.578125 8.703125 8.757812 C 8.578125 8.945312 8.324219 8.992188 8.144531 8.863281 C 7.253906 8.261719 6.164062 7.261719 5.355469 6.425781 C 4.949219 7.027344 4.535156 7.714844 4.148438 8.433594 C 4.914062 9.207031 5.886719 10.078125 6.660156 10.601562 C 6.839844 10.726562 6.886719 10.980469 6.757812 11.160156 C 6.632812 11.347656 6.382812 11.394531 6.191406 11.269531 C 5.425781 10.746094 4.519531 9.9375 3.753906 9.179688 C 2.160156 12.320312 0.988281 15.867188 1.800781 16.585938 Z M 1.800781 16.585938 "/>
  </g>
</svg>