<?xml version="1.0" encoding="utf-8"?>
<!-- Generator: Adobe Illustrator 21.0.2, SVG Export Plug-In . SVG Version: 6.00 Build 0)  -->
<svg version="1.1" id="Layer_1" xmlns="http://www.w3.org/2000/svg" xmlns:xlink="http://www.w3.org/1999/xlink" x="0px" y="0px"
	 viewBox="0 0 24 24" style="enable-background:new 0 0 24 24;" xml:space="preserve">
<g id="surface1">
	<path d="M2.2,22.1c1.8,1.6,14-5.6,15.8-8.7c0.9-1.5-0.2-3.6-1.8-5.3c1.9-1.3,3.6,2.7,5.1,1.8c0.7-0.4,1.2-1.6,0.8-2.3
		c-0.6-1.3-2.7-1.3-4.1-1.5C19,6,21.4,5,21.4,3.5c0-1.1-1.4-2.4-2.5-2.2c-1.4,0.2-2,2.3-2.5,3.6c-0.1-0.9-0.2-2.7-1.2-3.5
		c-1.2-1.1-2.8-0.1-2.8,1.3c0,1.6,3.4,2.5,2.3,4.4c-1.8-1.4-4-2.2-5.4-1.4c-0.6,0.4-1.3,1.1-2,2c1.1,1.1,2.5,2.5,3.7,3.3
		c0.2,0.2,0.3,0.5,0.1,0.7c-0.2,0.2-0.5,0.3-0.7,0.1C9.4,11,8,9.7,6.9,8.6c-0.5,0.8-1.1,1.7-1.6,2.7c1,1,2.3,2.2,3.3,2.9
		c0.2,0.2,0.3,0.5,0.1,0.7C8.6,15.1,8.3,15.2,8,15c-1-0.7-2.2-1.8-3.2-2.8C2.6,16.4,1.1,21.2,2.2,22.1z"/>
</g>
</svg>
