<?xml version="1.0" encoding="UTF-8" standalone="yes"?>
<svg xmlns="http://www.w3.org/2000/svg" xmlns:xlink="http://www.w3.org/1999/xlink" width="24px" height="24px" viewBox="0 0 18 18" version="1.1">
  <g id="surface1">
    <path style=" stroke:none;fill-rule:nonzero;fill:rgb(0%,0%,0%);fill-opacity:1;" d="M 5.398438 11.699219 L 13.5 11.699219 C 13.996094 11.699219 14.398438 12.105469 14.398438 12.601562 C 14.398438 13.09375 13.996094 13.5 13.5 13.5 L 4.5 13.5 C 4.003906 13.5 3.601562 13.09375 3.601562 12.601562 L 3.601562 3.601562 L 1.800781 3.601562 C 1.304688 3.601562 0.898438 3.195312 0.898438 2.699219 C 0.898438 2.203125 1.304688 1.800781 1.800781 1.800781 L 4.5 1.800781 C 4.996094 1.800781 5.398438 2.203125 5.398438 2.699219 L 5.398438 4.5 L 17.101562 4.5 L 13.5 10.800781 L 5.398438 10.800781 Z M 4.949219 14.398438 C 5.695312 14.398438 6.300781 15.003906 6.300781 15.75 C 6.300781 16.496094 5.695312 17.101562 4.949219 17.101562 C 4.203125 17.101562 3.601562 16.496094 3.601562 15.75 C 3.601562 15.003906 4.203125 14.398438 4.949219 14.398438 Z M 13.050781 14.398438 C 13.796875 14.398438 14.398438 15.003906 14.398438 15.75 C 14.398438 16.496094 13.796875 17.101562 13.050781 17.101562 C 12.304688 17.101562 11.699219 16.496094 11.699219 15.75 C 11.699219 15.003906 12.304688 14.398438 13.050781 14.398438 Z M 13.050781 14.398438 "/>
  </g>
</svg>