<?xml version="1.0" encoding="utf-8"?>
<!-- Generator: Adobe Illustrator 21.0.2, SVG Export Plug-In . SVG Version: 6.00 Build 0)  -->
<svg version="1.1" id="Layer_1" xmlns="http://www.w3.org/2000/svg" xmlns:xlink="http://www.w3.org/1999/xlink" x="0px" y="0px"
	 viewBox="0 0 24 24" style="enable-background:new 0 0 24 24;" xml:space="preserve">
<g id="surface1">
	<path d="M7.2,15.6H18c0.7,0,1.2,0.5,1.2,1.2c0,0.7-0.5,1.2-1.2,1.2H6c-0.7,0-1.2-0.5-1.2-1.2v-12H2.4c-0.7,0-1.2-0.5-1.2-1.2
		c0-0.7,0.5-1.2,1.2-1.2H6c0.7,0,1.2,0.5,1.2,1.2V6h15.6L18,14.4H7.2V15.6z M6.6,19.2c1,0,1.8,0.8,1.8,1.8c0,1-0.8,1.8-1.8,1.8
		c-1,0-1.8-0.8-1.8-1.8C4.8,20,5.6,19.2,6.6,19.2z M17.4,19.2c1,0,1.8,0.8,1.8,1.8c0,1-0.8,1.8-1.8,1.8S15.6,22,15.6,21
		C15.6,20,16.4,19.2,17.4,19.2z"/>
</g>
</svg>
