<?xml version="1.0" encoding="UTF-8" standalone="yes"?>
<svg xmlns="http://www.w3.org/2000/svg" xmlns:xlink="http://www.w3.org/1999/xlink" width="24px" height="24px" viewBox="0 0 18 18" version="1.1">
  <g id="surface1">
    <path style=" stroke:none;fill-rule:nonzero;fill:rgb(0%,0%,0%);fill-opacity:1;" d="M 16.199219 3.148438 C 16.199219 3.707031 15.859375 4.195312 15.371094 4.390625 L 15.371094 16.191406 L 1.789062 16.191406 L 5.589844 10.132812 C 5.472656 9.925781 5.398438 9.703125 5.398438 9.449219 C 5.398438 8.703125 6.003906 8.101562 6.75 8.101562 C 7.496094 8.101562 8.101562 8.703125 8.101562 9.449219 C 8.101562 9.566406 8.082031 9.675781 8.054688 9.78125 L 9.351562 10.351562 C 9.59375 10.078125 9.953125 9.898438 10.351562 9.898438 C 10.511719 9.898438 10.664062 9.9375 10.808594 9.980469 L 14.03125 4.210938 C 13.707031 3.96875 13.5 3.582031 13.5 3.148438 C 13.5 2.402344 14.101562 1.800781 14.851562 1.800781 C 15.019531 1.800781 15.175781 1.835938 15.328125 1.890625 L 15.371094 1.808594 L 15.371094 1.90625 C 15.859375 2.105469 16.199219 2.59375 16.199219 3.148438 Z M 14.472656 15.289062 L 14.472656 5.265625 L 11.511719 10.566406 C 11.628906 10.773438 11.699219 10.996094 11.699219 11.25 C 11.699219 11.996094 11.097656 12.601562 10.351562 12.601562 C 9.601562 12.601562 9 11.996094 9 11.25 L 9.007812 11.1875 L 7.542969 10.539062 C 7.316406 10.699219 7.046875 10.800781 6.75 10.800781 C 6.589844 10.800781 6.433594 10.765625 6.289062 10.710938 L 3.410156 15.289062 Z M 14.472656 15.289062 "/>
  </g>
</svg>