<?xml version="1.0" encoding="UTF-8" standalone="yes"?>
<svg xmlns="http://www.w3.org/2000/svg" xmlns:xlink="http://www.w3.org/1999/xlink" width="24px" height="24px" viewBox="0 0 18 18" version="1.1">
  <g id="surface1">
    <path style=" stroke:none;fill-rule:nonzero;fill:rgb(0%,0%,0%);fill-opacity:1;" d="M 16.199219 16.199219 L 16.210938 5.148438 C 16.738281 4.832031 17.101562 4.257812 17.101562 3.601562 C 17.101562 2.609375 16.289062 1.800781 15.300781 1.800781 C 14.308594 1.800781 13.5 2.609375 13.5 3.601562 C 13.5 4.320312 13.921875 4.933594 14.527344 5.21875 L 10.808594 11.140625 C 10.511719 10.925781 10.152344 10.800781 9.765625 10.800781 C 9.007812 10.800781 8.371094 11.257812 8.101562 11.914062 L 6.175781 10.539062 C 6.253906 10.339844 6.300781 10.125 6.300781 9.898438 C 6.300781 8.902344 5.5 8.101562 4.5 8.101562 C 3.511719 8.101562 2.699219 8.902344 2.699219 9.898438 C 2.699219 10.558594 3.058594 11.125 3.582031 11.4375 L 0.898438 16.199219 Z M 15.300781 2.699219 C 15.796875 2.699219 16.199219 3.105469 16.199219 3.601562 C 16.199219 4.09375 15.796875 4.5 15.300781 4.5 C 14.804688 4.5 14.398438 4.09375 14.398438 3.601562 C 14.398438 3.105469 14.804688 2.699219 15.300781 2.699219 Z M 4.5 9 C 4.996094 9 5.398438 9.40625 5.398438 9.898438 C 5.398438 10.394531 4.996094 10.800781 4.5 10.800781 C 4.003906 10.800781 3.601562 10.394531 3.601562 9.898438 C 3.601562 9.40625 4.003906 9 4.5 9 Z M 9.765625 11.699219 C 10.261719 11.699219 10.664062 12.105469 10.664062 12.601562 C 10.664062 13.09375 10.261719 13.5 9.765625 13.5 C 9.269531 13.5 8.863281 13.09375 8.863281 12.601562 C 8.863281 12.105469 9.269531 11.699219 9.765625 11.699219 Z M 9.765625 11.699219 "/>
  </g>
</svg>