<?xml version="1.0" encoding="utf-8"?>
<!-- Generator: Adobe Illustrator 21.0.2, SVG Export Plug-In . SVG Version: 6.00 Build 0)  -->
<svg version="1.1" id="Layer_1" xmlns="http://www.w3.org/2000/svg" xmlns:xlink="http://www.w3.org/1999/xlink" x="0px" y="0px"
	 viewBox="0 0 24 24" style="enable-background:new 0 0 24 24;" xml:space="preserve">
<g id="surface1">
	<path d="M13.7,0.5l1.7,1.7c1.9,0.2,4.2-0.9,5.5,0.4c1.3,1.3,0.2,3.6,0.4,5.5L23,9.8c0.5,0.5,0.5,1.2,0,1.7l-11,11
		c-0.5,0.5-1.2,0.5-1.7,0L1,13.2c-0.5-0.5-0.5-1.2,0-1.7l11-11C12.5,0,13.2,0,13.7,0.5z M14.4,3.2l-0.7,0.7l5.9,5.9l0.7-0.7
		c-0.2-0.7-0.2-1.5-0.2-2.2c0-0.4,0.1-0.7,0.1-1.1c0.1-1.2,0.2-2-0.2-2.4c-0.4-0.4-1.2-0.3-2.4-0.2c-0.4,0-0.7,0.1-1.1,0.1
		C15.9,3.4,15.1,3.4,14.4,3.2z M19.2,4.3c0.5,0.5,0.5,1.2,0,1.7c-0.5,0.5-1.2,0.5-1.7,0c-0.5-0.5-0.5-1.2,0-1.7
		C18,3.8,18.8,3.8,19.2,4.3z M11.2,4.7l-0.8,0.8l7.6,7.6l0.8-0.8L11.2,4.7z M9.5,6.4L8.6,7.3l7.6,7.6l0.9-0.8L9.5,6.4z M7.8,8.1
		L6.9,9l7.6,7.6l0.8-0.8L7.8,8.1z M6.1,9.8l-0.8,0.9l7.6,7.6l0.9-0.8L6.1,9.8z M4.4,11.5l-0.8,0.9l7.6,7.6l0.9-0.8L4.4,11.5z"/>
</g>
</svg>
