<?xml version="1.0" encoding="UTF-8" standalone="yes"?>
<svg xmlns="http://www.w3.org/2000/svg" xmlns:xlink="http://www.w3.org/1999/xlink" width="24px" height="24px" viewBox="0 0 18 18" version="1.1">
  <g id="surface1">
    <path style=" stroke:none;fill-rule:nonzero;fill:rgb(0%,0%,0%);fill-opacity:1;" d="M 10.710938 0.351562 L 11.96875 1.609375 C 13.417969 1.78125 15.121094 0.945312 16.117188 1.945312 C 17.117188 2.941406 16.28125 4.644531 16.453125 6.09375 L 17.710938 7.351562 C 18.0625 7.703125 18.0625 8.269531 17.710938 8.621094 L 9.441406 16.902344 C 9.082031 17.253906 8.515625 17.253906 8.164062 16.902344 L 1.160156 9.898438 C 0.808594 9.550781 0.808594 8.980469 1.160156 8.621094 L 9.441406 0.351562 C 9.792969 0 10.359375 0 10.710938 0.351562 Z M 11.230469 2.375 L 10.710938 2.898438 L 15.164062 7.351562 L 15.6875 6.832031 C 15.515625 6.289062 15.507812 5.734375 15.550781 5.191406 C 15.570312 4.914062 15.597656 4.636719 15.632812 4.363281 C 15.742188 3.464844 15.796875 2.898438 15.480469 2.582031 C 15.164062 2.269531 14.597656 2.320312 13.699219 2.429688 C 13.429688 2.464844 13.148438 2.492188 12.871094 2.511719 C 12.328125 2.554688 11.773438 2.546875 11.230469 2.375 Z M 14.851562 3.214844 C 15.199219 3.5625 15.199219 4.140625 14.851562 4.492188 C 14.5 4.84375 13.921875 4.84375 13.570312 4.492188 C 13.222656 4.140625 13.222656 3.5625 13.570312 3.214844 C 13.921875 2.863281 14.5 2.863281 14.851562 3.214844 Z M 8.800781 3.535156 L 8.164062 4.167969 L 13.894531 9.898438 L 14.527344 9.261719 Z M 7.523438 4.804688 L 6.894531 5.445312 L 12.617188 11.167969 L 13.257812 10.539062 Z M 6.253906 6.085938 L 5.617188 6.714844 L 11.347656 12.445312 L 11.980469 11.808594 Z M 4.984375 7.351562 L 4.347656 7.992188 L 10.070312 13.714844 L 10.710938 13.078125 Z M 3.707031 8.621094 L 3.070312 9.261719 L 8.800781 14.992188 L 9.441406 14.355469 Z M 3.707031 8.621094 "/>
  </g>
</svg>