<?xml version="1.0" encoding="utf-8"?>
<!-- Generator: Adobe Illustrator 21.0.2, SVG Export Plug-In . SVG Version: 6.00 Build 0)  -->
<svg version="1.1" id="Layer_1" xmlns="http://www.w3.org/2000/svg" xmlns:xlink="http://www.w3.org/1999/xlink" x="0px" y="0px"
	 viewBox="0 0 24 24" style="enable-background:new 0 0 24 24;" xml:space="preserve">
<g id="surface1">
	<path d="M12,2.4c5.3,0,9.6,4.3,9.6,9.6s-4.3,9.6-9.6,9.6S2.4,17.3,2.4,12S6.7,2.4,12,2.4z M12,19.2c4,0,7.2-3.2,7.2-7.2
		S16,4.8,12,4.8S4.8,8,4.8,12S8,19.2,12,19.2z M11.1,12.9c0.1,0.1,0.2,0.1,0.3,0.2l0,0l5.4,2.5l-3.6-3.8L12,6l-1.2,5.8h0
		c0,0,0,0.1,0,0.1c0,0,0,0.1,0,0.1C10.8,12.3,10.9,12.6,11.1,12.9z"/>
</g>
</svg>
