<?xml version="1.0" encoding="UTF-8" standalone="yes"?>
<svg xmlns="http://www.w3.org/2000/svg" xmlns:xlink="http://www.w3.org/1999/xlink" width="24px" height="24px" viewBox="0 0 18 18" version="1.1">
  <g id="surface1">
    <path style=" stroke:none;fill-rule:nonzero;fill:rgb(0%,0%,0%);fill-opacity:1;" d="M 9 1.800781 C 12.976562 1.800781 16.199219 5.023438 16.199219 9 C 16.199219 12.976562 12.976562 16.199219 9 16.199219 C 5.023438 16.199219 1.800781 12.976562 1.800781 9 C 1.800781 5.023438 5.023438 1.800781 9 1.800781 Z M 9 14.398438 C 11.980469 14.398438 14.398438 11.980469 14.398438 9 C 14.398438 6.019531 11.980469 3.601562 9 3.601562 C 6.019531 3.601562 3.601562 6.019531 3.601562 9 C 3.601562 11.980469 6.019531 14.398438 9 14.398438 Z M 8.359375 9.640625 C 8.425781 9.683594 8.488281 9.730469 8.566406 9.773438 L 8.550781 9.792969 L 12.601562 11.699219 L 9.871094 8.828125 L 9 4.5 L 8.128906 8.828125 L 8.136719 8.828125 C 8.136719 8.847656 8.128906 8.875 8.117188 8.910156 C 8.109375 8.945312 8.101562 8.972656 8.101562 9 C 8.101562 9.253906 8.191406 9.46875 8.359375 9.640625 Z M 8.359375 9.640625 "/>
  </g>
</svg>