<?xml version="1.0" encoding="utf-8"?>
<!-- Generator: Adobe Illustrator 21.0.2, SVG Export Plug-In . SVG Version: 6.00 Build 0)  -->
<svg version="1.1" id="Layer_1" xmlns="http://www.w3.org/2000/svg" xmlns:xlink="http://www.w3.org/1999/xlink" x="0px" y="0px"
	 viewBox="0 0 24 24" style="enable-background:new 0 0 24 24;" xml:space="preserve">
<g id="surface1">
	<path d="M18.4,12c2.1,0.2,3.8,2,3.8,4.2c0,2.3-1.9,4.2-4.2,4.2H6c-2.3,0-4.2-1.9-4.2-4.2c0-2.1,1.6-3.9,3.7-4.2
		c0-0.2-0.1-0.4-0.1-0.6c0-1.7,1.3-3,3-3c0.4,0,0.8,0.1,1.1,0.2C10.3,7.1,11.9,6,13.8,6c2.7,0,4.8,2.1,4.8,4.8
		C18.6,11.2,18.5,11.6,18.4,12z"/>
</g>
</svg>
