<?xml version="1.0" encoding="UTF-8" standalone="yes"?>
<svg xmlns="http://www.w3.org/2000/svg" xmlns:xlink="http://www.w3.org/1999/xlink" width="24px" height="24px" viewBox="0 0 18 18" version="1.1">
  <g id="surface1">
    <path style=" stroke:none;fill-rule:nonzero;fill:rgb(0%,0%,0%);fill-opacity:1;" d="M 13.363281 9.027344 C 14.949219 9.1875 16.199219 10.519531 16.199219 12.148438 C 16.199219 13.886719 14.785156 15.300781 13.050781 15.300781 L 4.050781 15.300781 C 2.3125 15.300781 0.898438 13.886719 0.898438 12.148438 C 0.898438 10.539062 2.105469 9.234375 3.652344 9.035156 C 3.617188 8.882812 3.601562 8.722656 3.601562 8.550781 C 3.601562 7.308594 4.609375 6.300781 5.851562 6.300781 C 6.15625 6.300781 6.445312 6.363281 6.703125 6.472656 C 7.300781 5.300781 8.503906 4.5 9.898438 4.5 C 11.890625 4.5 13.5 6.109375 13.5 8.101562 C 13.5 8.425781 13.445312 8.730469 13.363281 9.027344 Z M 13.363281 9.027344 "/>
  </g>
</svg>