<?xml version="1.0" encoding="UTF-8" standalone="yes"?>
<svg xmlns="http://www.w3.org/2000/svg" xmlns:xlink="http://www.w3.org/1999/xlink" width="24px" height="24px" viewBox="0 0 18 18" version="1.1">
  <g id="surface1">
    <path style=" stroke:none;fill-rule:nonzero;fill:rgb(0%,0%,0%);fill-opacity:1;" d="M 1.800781 6.300781 L 5.398438 6.300781 L 9.898438 2.699219 L 9.898438 15.300781 L 5.398438 11.699219 L 1.800781 11.699219 Z M 13.222656 4.085938 C 13.339844 4.132812 16.199219 5.328125 16.199219 9 C 16.199219 12.671875 13.339844 13.867188 13.222656 13.914062 C 13.167969 13.941406 13.105469 13.949219 13.050781 13.949219 C 12.871094 13.949219 12.699219 13.84375 12.636719 13.671875 C 12.535156 13.4375 12.652344 13.175781 12.878906 13.085938 C 12.976562 13.039062 15.300781 12.050781 15.300781 9 C 15.300781 5.929688 12.90625 4.921875 12.878906 4.914062 C 12.652344 4.824219 12.535156 4.5625 12.636719 4.328125 C 12.726562 4.105469 12.988281 3.988281 13.222656 4.085938 Z M 14.398438 9 C 14.398438 11.3125 12.394531 12.085938 12.3125 12.121094 C 12.257812 12.140625 12.203125 12.148438 12.148438 12.148438 C 11.96875 12.148438 11.800781 12.042969 11.726562 11.863281 C 11.636719 11.628906 11.761719 11.367188 11.988281 11.277344 C 12.050781 11.257812 13.5 10.675781 13.5 9 C 13.5 7.324219 12.050781 6.742188 11.988281 6.722656 C 11.761719 6.632812 11.644531 6.371094 11.726562 6.136719 C 11.816406 5.914062 12.078125 5.785156 12.3125 5.878906 C 12.394531 5.914062 14.398438 6.6875 14.398438 9 Z M 14.398438 9 "/>
  </g>
</svg>