<?xml version="1.0" encoding="utf-8"?>
<!-- Generator: Adobe Illustrator 21.0.2, SVG Export Plug-In . SVG Version: 6.00 Build 0)  -->
<svg version="1.1" id="Layer_1" xmlns="http://www.w3.org/2000/svg" xmlns:xlink="http://www.w3.org/1999/xlink" x="0px" y="0px"
	 viewBox="0 0 24 24" style="enable-background:new 0 0 24 24;" xml:space="preserve">
<g id="surface1">
	<path d="M2.4,8.4h4.8l6-4.8v16.8l-6-4.8H2.4V8.4z M17.6,5.4c0.2,0.1,4,1.7,4,6.6s-3.8,6.5-4,6.6c-0.1,0-0.2,0-0.2,0
		c-0.2,0-0.5-0.1-0.6-0.4c-0.1-0.3,0-0.7,0.3-0.8c0.1-0.1,3.2-1.4,3.2-5.4c0-4.1-3.2-5.4-3.2-5.4c-0.3-0.1-0.5-0.5-0.3-0.8
		C17,5.5,17.3,5.3,17.6,5.4z M19.2,12c0,3.1-2.7,4.1-2.8,4.2c-0.1,0-0.1,0-0.2,0c-0.2,0-0.5-0.1-0.6-0.4c-0.1-0.3,0-0.7,0.3-0.8
		c0.1,0,2-0.8,2-3s-1.9-3-2-3c-0.3-0.1-0.5-0.5-0.3-0.8c0.1-0.3,0.5-0.5,0.8-0.3C16.5,7.9,19.2,8.9,19.2,12z"/>
</g>
</svg>
