<?xml version="1.0" encoding="utf-8"?>
<!-- Generator: Adobe Illustrator 21.0.2, SVG Export Plug-In . SVG Version: 6.00 Build 0)  -->
<svg version="1.1" id="Layer_1" xmlns="http://www.w3.org/2000/svg" xmlns:xlink="http://www.w3.org/1999/xlink" x="0px" y="0px"
	 viewBox="0 0 24 24" style="enable-background:new 0 0 24 24;" xml:space="preserve">
<g id="surface1">
	<path d="M4.5,19.2h15c1.3-1.6,2.1-3.7,2.1-6c0-5.3-4.3-9.6-9.6-9.6s-9.6,4.3-9.6,9.6C2.4,15.5,3.2,17.6,4.5,19.2z M12,4.8
		c0.7,0,1.2,0.5,1.2,1.2S12.7,7.2,12,7.2c-0.7,0-1.2-0.5-1.2-1.2S11.3,4.8,12,4.8z M7.2,7.2c0.7,0,1.2,0.5,1.2,1.2
		c0,0.7-0.5,1.2-1.2,1.2C6.5,9.6,6,9.1,6,8.4C6,7.7,6.5,7.2,7.2,7.2z M16.8,7.2c0.7,0,1.2,0.5,1.2,1.2c0,0.7-0.5,1.2-1.2,1.2
		c-0.7,0-1.2-0.5-1.2-1.2C15.6,7.7,16.1,7.2,16.8,7.2z M10.4,13.9l4-5.5v7.2c0,1.3-1.1,2.4-2.4,2.4s-2.4-1.1-2.4-2.4
		C9.6,14.9,9.9,14.3,10.4,13.9z M4.8,12C5.5,12,6,12.5,6,13.2c0,0.7-0.5,1.2-1.2,1.2c-0.7,0-1.2-0.5-1.2-1.2C3.6,12.5,4.1,12,4.8,12
		z M19.2,12c0.7,0,1.2,0.5,1.2,1.2c0,0.7-0.5,1.2-1.2,1.2c-0.7,0-1.2-0.5-1.2-1.2C18,12.5,18.5,12,19.2,12z M13.2,15.6
		c0-0.7-0.5-1.2-1.2-1.2c-0.7,0-1.2,0.5-1.2,1.2c0,0.7,0.5,1.2,1.2,1.2C12.7,16.8,13.2,16.3,13.2,15.6z"/>
</g>
</svg>
