<?xml version="1.0" encoding="UTF-8" standalone="yes"?>
<svg xmlns="http://www.w3.org/2000/svg" xmlns:xlink="http://www.w3.org/1999/xlink" width="24px" height="24px" viewBox="0 0 18 18" version="1.1">
  <g id="surface1">
    <path style=" stroke:none;fill-rule:nonzero;fill:rgb(0%,0%,0%);fill-opacity:1;" d="M 3.382812 14.398438 L 14.617188 14.398438 C 15.605469 13.167969 16.199219 11.601562 16.199219 9.898438 C 16.199219 5.921875 12.976562 2.699219 9 2.699219 C 5.023438 2.699219 1.800781 5.921875 1.800781 9.898438 C 1.800781 11.601562 2.394531 13.167969 3.382812 14.398438 Z M 9 3.601562 C 9.496094 3.601562 9.898438 4.003906 9.898438 4.5 C 9.898438 4.996094 9.496094 5.398438 9 5.398438 C 8.503906 5.398438 8.101562 4.996094 8.101562 4.5 C 8.101562 4.003906 8.503906 3.601562 9 3.601562 Z M 5.398438 5.398438 C 5.894531 5.398438 6.300781 5.804688 6.300781 6.300781 C 6.300781 6.796875 5.894531 7.199219 5.398438 7.199219 C 4.90625 7.199219 4.5 6.796875 4.5 6.300781 C 4.5 5.804688 4.90625 5.398438 5.398438 5.398438 Z M 12.601562 5.398438 C 13.09375 5.398438 13.5 5.804688 13.5 6.300781 C 13.5 6.796875 13.09375 7.199219 12.601562 7.199219 C 12.105469 7.199219 11.699219 6.796875 11.699219 6.300781 C 11.699219 5.804688 12.105469 5.398438 12.601562 5.398438 Z M 7.765625 10.394531 L 10.800781 6.300781 L 10.800781 11.699219 C 10.800781 12.691406 9.988281 13.5 9 13.5 C 8.011719 13.5 7.199219 12.691406 7.199219 11.699219 C 7.199219 11.1875 7.414062 10.726562 7.765625 10.394531 Z M 3.601562 9 C 4.09375 9 4.5 9.40625 4.5 9.898438 C 4.5 10.394531 4.09375 10.800781 3.601562 10.800781 C 3.105469 10.800781 2.699219 10.394531 2.699219 9.898438 C 2.699219 9.40625 3.105469 9 3.601562 9 Z M 14.398438 9 C 14.894531 9 15.300781 9.40625 15.300781 9.898438 C 15.300781 10.394531 14.894531 10.800781 14.398438 10.800781 C 13.90625 10.800781 13.5 10.394531 13.5 9.898438 C 13.5 9.40625 13.90625 9 14.398438 9 Z M 9.898438 11.699219 C 9.898438 11.203125 9.496094 10.800781 9 10.800781 C 8.503906 10.800781 8.101562 11.203125 8.101562 11.699219 C 8.101562 12.195312 8.503906 12.601562 9 12.601562 C 9.496094 12.601562 9.898438 12.195312 9.898438 11.699219 Z M 9.898438 11.699219 "/>
  </g>
</svg>