<?xml version="1.0" encoding="utf-8"?>
<!-- Generator: Adobe Illustrator 21.0.2, SVG Export Plug-In . SVG Version: 6.00 Build 0)  -->
<svg version="1.1" id="Layer_1" xmlns="http://www.w3.org/2000/svg" xmlns:xlink="http://www.w3.org/1999/xlink" x="0px" y="0px"
	 viewBox="0 0 24 24" style="enable-background:new 0 0 24 24;" xml:space="preserve">
<g id="surface1">
	<path d="M3.6,2.4h16.8c0.7,0,1.2,0.5,1.2,1.2v12c0,0.7-0.5,1.2-1.2,1.2h-6v2.4h2.4c0.7,0,1.2,0.5,1.2,1.2v1.2H6v-1.2
		c0-0.7,0.5-1.2,1.2-1.2h2.4v-2.4h-6c-0.7,0-1.2-0.5-1.2-1.2v-12C2.4,2.9,2.9,2.4,3.6,2.4z M19.2,13.2V4.8H4.8v8.4H19.2z M6,6h10.8
		L6,10.8V6z"/>
</g>
</svg>
