<?xml version="1.0" encoding="UTF-8" standalone="yes"?>
<svg xmlns="http://www.w3.org/2000/svg" xmlns:xlink="http://www.w3.org/1999/xlink" width="24px" height="24px" viewBox="0 0 18 18" version="1.1">
  <g id="surface1">
    <path style=" stroke:none;fill-rule:nonzero;fill:rgb(0%,0%,0%);fill-opacity:1;" d="M 2.699219 1.800781 L 15.300781 1.800781 C 15.796875 1.800781 16.199219 2.203125 16.199219 2.699219 L 16.199219 11.699219 C 16.199219 12.195312 15.796875 12.601562 15.300781 12.601562 L 10.800781 12.601562 L 10.800781 14.398438 L 12.601562 14.398438 C 13.09375 14.398438 13.5 14.804688 13.5 15.300781 L 13.5 16.199219 L 4.5 16.199219 L 4.5 15.300781 C 4.5 14.804688 4.90625 14.398438 5.398438 14.398438 L 7.199219 14.398438 L 7.199219 12.601562 L 2.699219 12.601562 C 2.203125 12.601562 1.800781 12.195312 1.800781 11.699219 L 1.800781 2.699219 C 1.800781 2.203125 2.203125 1.800781 2.699219 1.800781 Z M 14.398438 9.898438 L 14.398438 3.601562 L 3.601562 3.601562 L 3.601562 9.898438 Z M 4.5 4.5 L 12.601562 4.5 L 4.5 8.101562 Z M 4.5 4.5 "/>
  </g>
</svg>