<?xml version="1.0" encoding="UTF-8" standalone="yes"?>
<svg xmlns="http://www.w3.org/2000/svg" xmlns:xlink="http://www.w3.org/1999/xlink" width="24px" height="24px" viewBox="0 0 18 18" version="1.1">
  <g id="surface1">
    <path style=" stroke:none;fill-rule:nonzero;fill:rgb(0%,0%,0%);fill-opacity:1;" d="M 17.101562 1.800781 L 17.101562 7.199219 L 0.898438 7.199219 L 0.898438 1.800781 Z M 16.199219 6.300781 L 16.199219 2.699219 L 1.800781 2.699219 L 1.800781 6.300781 Z M 4.5 3.601562 L 4.5 5.398438 L 2.699219 5.398438 L 2.699219 3.601562 Z M 7.199219 3.601562 L 7.199219 5.398438 L 5.398438 5.398438 L 5.398438 3.601562 Z M 9.898438 3.601562 L 9.898438 5.398438 L 8.101562 5.398438 L 8.101562 3.601562 Z M 12.601562 3.601562 L 12.601562 5.398438 L 10.800781 5.398438 L 10.800781 3.601562 Z M 15.300781 3.601562 L 15.300781 5.398438 L 13.5 5.398438 L 13.5 3.601562 Z M 17.101562 8.101562 L 17.101562 16.199219 L 0.898438 16.199219 L 0.898438 8.101562 Z M 16.199219 15.300781 L 16.199219 9 L 1.800781 9 L 1.800781 15.300781 Z M 4.5 9.898438 L 4.5 11.699219 L 2.699219 11.699219 L 2.699219 9.898438 Z M 7.199219 9.898438 L 7.199219 11.699219 L 5.398438 11.699219 L 5.398438 9.898438 Z M 9.898438 9.898438 L 9.898438 11.699219 L 8.101562 11.699219 L 8.101562 9.898438 Z M 15.300781 9.898438 L 15.300781 11.699219 L 10.800781 11.699219 L 10.800781 9.898438 Z M 9.898438 12.601562 L 9.898438 14.398438 L 2.699219 14.398438 L 2.699219 12.601562 Z M 12.601562 12.601562 L 12.601562 14.398438 L 10.800781 14.398438 L 10.800781 12.601562 Z M 15.300781 12.601562 L 15.300781 14.398438 L 13.5 14.398438 L 13.5 12.601562 Z M 15.300781 12.601562 "/>
  </g>
</svg>