<?xml version="1.0" encoding="UTF-8" standalone="yes"?>
<svg xmlns="http://www.w3.org/2000/svg" xmlns:xlink="http://www.w3.org/1999/xlink" width="24px" height="24px" viewBox="0 0 18 18" version="1.1">
  <g id="surface1">
    <path style=" stroke:none;fill-rule:nonzero;fill:rgb(0%,0%,0%);fill-opacity:1;" d="M 4.949219 6.300781 C 4.203125 6.300781 3.601562 5.695312 3.601562 4.949219 C 3.601562 4.210938 4.203125 3.601562 4.949219 3.601562 C 5.6875 3.601562 6.300781 4.210938 6.300781 4.949219 C 6.300781 5.695312 5.6875 6.300781 4.949219 6.300781 Z M 7.199219 4.5 L 15.300781 4.5 L 15.300781 5.398438 L 7.199219 5.398438 Z M 4.949219 10.800781 C 4.203125 10.800781 3.601562 10.195312 3.601562 9.449219 C 3.601562 8.710938 4.203125 8.101562 4.949219 8.101562 C 5.6875 8.101562 6.300781 8.710938 6.300781 9.449219 C 6.300781 10.195312 5.6875 10.800781 4.949219 10.800781 Z M 7.199219 9 L 15.300781 9 L 15.300781 9.898438 L 7.199219 9.898438 Z M 4.949219 15.300781 C 4.203125 15.300781 3.601562 14.695312 3.601562 13.949219 C 3.601562 13.210938 4.203125 12.601562 4.949219 12.601562 C 5.6875 12.601562 6.300781 13.210938 6.300781 13.949219 C 6.300781 14.695312 5.6875 15.300781 4.949219 15.300781 Z M 7.199219 13.5 L 15.300781 13.5 L 15.300781 14.398438 L 7.199219 14.398438 Z M 7.199219 13.5 "/>
  </g>
</svg>