<?xml version="1.0" encoding="UTF-8" standalone="yes"?>
<svg xmlns="http://www.w3.org/2000/svg" xmlns:xlink="http://www.w3.org/1999/xlink" width="24px" height="24px" viewBox="0 0 18 18" version="1.1">
  <g id="surface1">
    <path style=" stroke:none;fill-rule:nonzero;fill:rgb(0%,0%,0%);fill-opacity:1;" d="M 11.140625 1.800781 L 13.5 4.5 L 13.5 5.398438 L 4.5 5.398438 L 4.5 4.5 L 6.875 1.800781 Z M 9 4.5 C 9.496094 4.5 9.898438 4.105469 9.898438 3.601562 C 9.898438 3.105469 9.496094 2.699219 9 2.699219 C 8.503906 2.699219 8.101562 3.105469 8.101562 3.601562 C 8.101562 4.105469 8.503906 4.5 9 4.5 Z M 13.90625 3.601562 L 15.300781 3.601562 C 15.796875 3.601562 16.199219 4.003906 16.199219 4.5 L 16.199219 15.300781 C 16.199219 15.804688 15.796875 16.199219 15.300781 16.199219 L 2.699219 16.199219 C 2.203125 16.199219 1.800781 15.804688 1.800781 15.300781 L 1.800781 4.5 C 1.800781 4.003906 2.203125 3.601562 2.699219 3.601562 L 4.09375 3.601562 L 3.601562 4.167969 L 3.601562 6.300781 L 14.398438 6.300781 L 14.398438 4.167969 Z M 12.601562 9.898438 L 12.601562 8.101562 L 5.398438 8.101562 L 5.398438 9.898438 L 8.101562 9.898438 L 8.101562 14.398438 L 9.898438 14.398438 L 9.898438 9.898438 Z M 12.601562 9.898438 "/>
  </g>
</svg>