<?xml version="1.0" encoding="utf-8"?>
<!-- Generator: Adobe Illustrator 21.0.2, SVG Export Plug-In . SVG Version: 6.00 Build 0)  -->
<svg version="1.1" id="Layer_1" xmlns="http://www.w3.org/2000/svg" xmlns:xlink="http://www.w3.org/1999/xlink" x="0px" y="0px"
	 viewBox="0 0 24 24" style="enable-background:new 0 0 24 24;" xml:space="preserve">
<g id="surface1">
	<path d="M14.9,2.4L18,6v1.2H6V6l3.2-3.6H14.9z M12,6c0.7,0,1.2-0.5,1.2-1.2c0-0.7-0.5-1.2-1.2-1.2c-0.7,0-1.2,0.5-1.2,1.2
		C10.8,5.5,11.3,6,12,6z M21.6,20.4V6c0-0.7-0.5-1.2-1.2-1.2h-1.8l0.6,0.8v2.8H4.8V5.5l0.7-0.7H3.6C2.9,4.8,2.4,5.3,2.4,6v14.4
		c0,0.7,0.5,1.2,1.2,1.2h16.8C21.1,21.6,21.6,21.1,21.6,20.4z M18,10.8l-2.4,8.4h-2.4l-1.2-6l-1.2,6H8.3L6,10.8h2.4l1.2,6l1.2-6h2.4
		l1.2,6l1.2-6H18z"/>
</g>
</svg>
