<?xml version="1.0" encoding="utf-8"?>
<!-- Generator: Adobe Illustrator 21.0.2, SVG Export Plug-In . SVG Version: 6.00 Build 0)  -->
<svg version="1.1" id="Layer_1" xmlns="http://www.w3.org/2000/svg" xmlns:xlink="http://www.w3.org/1999/xlink" x="0px" y="0px"
	 viewBox="0 0 24 24" style="enable-background:new 0 0 24 24;" xml:space="preserve">
<g id="surface1">
	<path d="M22.8,2.4v7.2H1.2V2.4H22.8z M21.6,8.4V3.6H2.4v4.8H21.6z M6,4.8v2.4H3.6V4.8H6z M9.6,4.8v2.4H7.2V4.8H9.6z M13.2,4.8v2.4
		h-2.4V4.8H13.2z M16.8,4.8v2.4h-2.4V4.8H16.8z M20.4,4.8v2.4H18V4.8H20.4z M22.8,10.8v10.8H1.2V10.8H22.8z M21.6,20.4V12H2.4v8.4
		H21.6z M6,13.2v2.4H3.6v-2.4H6z M9.6,13.2v2.4H7.2v-2.4H9.6z M13.2,13.2v2.4h-2.4v-2.4H13.2z M20.4,13.2v2.4h-6v-2.4H20.4z
		 M13.2,16.8v2.4H3.6v-2.4H13.2z M16.8,16.8v2.4h-2.4v-2.4H16.8z M20.4,16.8v2.4H18v-2.4H20.4z"/>
</g>
</svg>
