<?xml version="1.0" encoding="utf-8"?>
<!-- Generator: Adobe Illustrator 21.0.2, SVG Export Plug-In . SVG Version: 6.00 Build 0)  -->
<svg version="1.1" id="Layer_1" xmlns="http://www.w3.org/2000/svg" xmlns:xlink="http://www.w3.org/1999/xlink" x="0px" y="0px"
	 viewBox="0 0 24 24" style="enable-background:new 0 0 24 24;" xml:space="preserve">
<g id="surface1">
	<path d="M19,3.3c0.3,0,0.6,0,0.8,0.1c0.3,0.1,0.5,0.2,0.8,0.3l0.4-1c-0.6-0.3-1.3-0.5-2-0.5c-0.7,0-1.3,0.2-1.8,0.4
		C16.7,3,16.3,3.5,16,4c-0.3,0.6-0.4,1.2-0.4,2c0,1.2,0.3,2.1,0.8,2.7c0.6,0.6,1.4,0.9,2.4,0.9c0.7,0,1.4-0.1,1.9-0.3v-1
		c-0.3,0.1-0.6,0.2-0.9,0.2c-0.3,0.1-0.6,0.1-0.9,0.1c-0.7,0-1.2-0.2-1.6-0.7c-0.4-0.4-0.6-1.1-0.6-2c0-0.8,0.2-1.5,0.6-2
		C17.8,3.6,18.3,3.3,19,3.3z M7.8,9.6H9L6.4,2.4H5.1L2.4,9.6h1.2l0.7-2h2.7L7.8,9.6z M9.6,2.4v7.2h2.6c0.8,0,1.4-0.2,1.9-0.6
		c0.5-0.4,0.7-0.9,0.7-1.5c0-0.5-0.1-0.9-0.4-1.1c-0.2-0.3-0.6-0.5-1.1-0.6v0c0.4-0.1,0.7-0.3,0.9-0.5c0.2-0.3,0.3-0.6,0.3-1.1
		c0-0.6-0.2-1.1-0.7-1.4c-0.4-0.3-1.2-0.4-2.2-0.4H9.6z M10.8,5.4v-2h1c0.5,0,0.9,0.1,1.2,0.2c0.3,0.1,0.4,0.4,0.4,0.7
		c0,0.4-0.1,0.6-0.3,0.8c-0.2,0.2-0.6,0.2-1.1,0.2H10.8z M6.8,6.6H4.7l0.6-1.9c0.2-0.5,0.3-0.9,0.4-1.3L5.9,4C6,4.3,6,4.5,6.1,4.6
		L6.8,6.6z M10.8,6.3H12c0.5,0,0.9,0.1,1.2,0.3c0.2,0.2,0.4,0.5,0.4,0.8c0,0.4-0.1,0.7-0.4,0.9c-0.3,0.2-0.6,0.3-1.1,0.3h-1.2V6.3z
		 M4.8,15.6l6,6L21.6,12l-1.2-1.2L10.8,18L6,14.4L4.8,15.6z"/>
</g>
</svg>
