<?xml version="1.0" encoding="utf-8"?>
<!-- Generator: Adobe Illustrator 21.0.2, SVG Export Plug-In . SVG Version: 6.00 Build 0)  -->
<svg version="1.1" id="Layer_1" xmlns="http://www.w3.org/2000/svg" xmlns:xlink="http://www.w3.org/1999/xlink" x="0px" y="0px"
	 viewBox="0 0 24 24" style="enable-background:new 0 0 24 24;" xml:space="preserve">
<g id="surface1">
	<path d="M17.7,5.5l1.3,1.3c0.5,0.5,0.7,1.1,0.7,1.8v2.5c0,0.6-0.2,1.3-0.7,1.8l-8,8c-0.5,0.5-1.1,0.7-1.8,0.7s-1.3-0.2-1.8-0.7
		l-1.3-1.3l-1.3-1.3c-0.5-0.5-0.7-1.1-0.7-1.8v-2.5c0-0.6,0.2-1.3,0.7-1.8l8-7.9c0.5-0.5,1.1-0.7,1.8-0.7c0.6,0,1.3,0.2,1.8,0.7
		L17.7,5.5z M10.3,17.1L18,9.4c0.5-0.5,0.5-1.2,0-1.7l-2.6-2.6c-0.2-0.2-0.5-0.3-0.9-0.3c-0.3,0-0.6,0.1-0.9,0.3L6,12.9
		c-0.5,0.5-0.5,1.2,0,1.7l2.6,2.6C9,17.6,9.8,17.6,10.3,17.1z"/>
</g>
</svg>
