<?xml version="1.0" encoding="utf-8"?>
<!-- Generator: Adobe Illustrator 21.0.2, SVG Export Plug-In . SVG Version: 6.00 Build 0)  -->
<svg version="1.1" id="Layer_1" xmlns="http://www.w3.org/2000/svg" xmlns:xlink="http://www.w3.org/1999/xlink" x="0px" y="0px"
	 viewBox="0 0 24 24" style="enable-background:new 0 0 24 24;" xml:space="preserve">
<g id="surface1">
	<path d="M19.3,14.7c0.3,0,0.6,0,0.9-0.1c0.3-0.1,0.6-0.1,0.9-0.2v1c-0.6,0.2-1.2,0.3-1.9,0.3c-1.1,0-1.8-0.3-2.4-0.9
		c-0.5-0.5-0.7-1.2-0.8-2.2h-1.1c0.1,0.3,0.2,0.6,0.2,0.9c0,0.7-0.2,1.1-0.7,1.5c-0.5,0.4-1.1,0.5-1.9,0.5H9.9v-3H8.2l1.1,3H8.1
		l-0.7-2H4.6l-0.7,2H2.7l1.1-3H2.7v-1.2h1.6l1.1-3h1.3l1.1,3h2.1v-3H12c1.2,0,1.7,0.2,2.1,0.5c0.4,0.3,0.7,0.7,0.7,1.4
		c0,0.4-0.1,0.8-0.3,1l-0.1,0.1h1.5c0.1-0.5,0.2-0.9,0.4-1.3c0.3-0.6,0.7-1,1.2-1.3c0.5-0.3,1.1-0.4,1.8-0.4c0.7,0,1.4,0.1,2,0.5
		l-0.4,1c-0.2-0.1-0.5-0.2-0.8-0.3c-0.3-0.1-0.6-0.1-0.9-0.1c-0.7,0-1.2,0.2-1.6,0.7c-0.3,0.3-0.5,0.8-0.5,1.3h3.5v1.2h-3.5
		c0.1,0.6,0.2,1.1,0.5,1.4C18,14.5,18.6,14.7,19.3,14.7z M5.6,10.8l-0.2,0.7h1.2l-0.3-0.7c0-0.1-0.1-0.3-0.2-0.6
		C6.1,9.8,6,9.6,6,9.4C5.9,9.8,5.8,10.3,5.6,10.8z M11.1,9.4v2h1.4c0.3,0,0.6-0.1,0.8-0.2c0.2-0.2,0.3-0.4,0.3-0.8
		c0-0.3-0.1-0.6-0.4-0.7c-0.2-0.1-0.6-0.2-1.2-0.2H11.1z M7.1,12.6L7.1,12.6l-2.1,0v0H7.1z M13.4,12.6L13.4,12.6l-2.3,0v2h1.2
		c0.5,0,0.9-0.1,1.1-0.3c0.3-0.2,0.4-0.5,0.4-0.9C13.8,13.1,13.6,12.8,13.4,12.6z"/>
</g>
</svg>
