<?xml version="1.0" encoding="UTF-8" standalone="yes"?>
<svg xmlns="http://www.w3.org/2000/svg" xmlns:xlink="http://www.w3.org/1999/xlink" width="24px" height="24px" viewBox="0 0 18 18" version="1.1">
  <g id="surface1">
    <path style=" stroke:none;fill-rule:nonzero;fill:rgb(0%,0%,0%);fill-opacity:1;" d="M 8.539062 11.898438 C 8.539062 11.230469 8.359375 10.65625 7.992188 10.1875 C 7.433594 9.484375 6.34375 9.394531 5.714844 9.539062 C 5.453125 8.054688 6.714844 6.164062 8.34375 5.355469 L 7.09375 3.601562 C 4.636719 4.769531 2.214844 7.453125 2.628906 10.84375 C 2.890625 12.988281 4.132812 14.398438 5.886719 14.398438 C 6.652344 14.398438 7.289062 14.175781 7.792969 13.726562 C 8.296875 13.273438 8.539062 12.664062 8.539062 11.898438 Z M 15.785156 11.898438 C 15.785156 11.230469 15.605469 10.65625 15.238281 10.1875 C 14.671875 9.484375 13.589844 9.394531 12.960938 9.539062 C 12.699219 8.054688 13.960938 6.164062 15.589844 5.355469 L 14.335938 3.601562 C 11.878906 4.769531 9.46875 7.453125 9.882812 10.84375 C 10.144531 12.988281 11.375 14.398438 13.132812 14.398438 C 13.894531 14.398438 14.535156 14.175781 15.039062 13.726562 C 15.542969 13.273438 15.785156 12.664062 15.785156 11.898438 Z M 15.785156 11.898438 "/>
  </g>
</svg>