<?xml version="1.0" encoding="UTF-8" standalone="yes"?>
<svg xmlns="http://www.w3.org/2000/svg" xmlns:xlink="http://www.w3.org/1999/xlink" width="24px" height="24px" viewBox="0 0 18 18" version="1.1">
  <g id="surface1">
    <path style=" stroke:none;fill-rule:nonzero;fill:rgb(0%,0%,0%);fill-opacity:1;" d="M 13.5 1.800781 L 6.785156 1.800781 C 6.039062 1.800781 5.355469 1.980469 4.734375 2.339844 C 4.105469 2.710938 3.609375 3.203125 3.25 3.824219 C 2.878906 4.445312 2.699219 5.128906 2.699219 5.867188 C 2.699219 6.605469 2.878906 7.289062 3.25 7.910156 C 3.609375 8.53125 4.105469 9.027344 4.734375 9.386719 C 5.355469 9.757812 6.039062 9.9375 6.785156 9.9375 L 7.171875 9.9375 L 7.171875 15.300781 C 7.171875 15.542969 7.261719 15.757812 7.433594 15.9375 C 7.613281 16.109375 7.828125 16.199219 8.074219 16.199219 C 8.324219 16.199219 8.53125 16.109375 8.710938 15.9375 C 8.890625 15.757812 8.980469 15.542969 8.980469 15.300781 L 8.980469 4.5 C 8.980469 4.257812 9.0625 4.039062 9.242188 3.859375 C 9.421875 3.691406 9.640625 3.601562 9.882812 3.601562 C 10.125 3.601562 10.339844 3.691406 10.519531 3.859375 C 10.691406 4.039062 10.78125 4.257812 10.78125 4.5 L 10.78125 15.300781 C 10.78125 15.542969 10.871094 15.757812 11.050781 15.9375 C 11.230469 16.109375 11.4375 16.199219 11.691406 16.199219 C 11.933594 16.199219 12.148438 16.109375 12.328125 15.9375 C 12.5 15.757812 12.589844 15.542969 12.589844 15.300781 L 12.589844 3.601562 L 13.5 3.601562 C 13.742188 3.601562 13.949219 3.511719 14.128906 3.328125 C 14.308594 3.160156 14.398438 2.941406 14.398438 2.699219 C 14.398438 2.457031 14.308594 2.242188 14.128906 2.0625 C 13.949219 1.890625 13.742188 1.800781 13.5 1.800781 Z M 13.5 1.800781 "/>
  </g>
</svg>