<?xml version="1.0" encoding="utf-8"?>
<!-- Generator: Adobe Illustrator 21.0.2, SVG Export Plug-In . SVG Version: 6.00 Build 0)  -->
<svg version="1.1" id="Layer_1" xmlns="http://www.w3.org/2000/svg" xmlns:xlink="http://www.w3.org/1999/xlink" x="0px" y="0px"
	 viewBox="0 0 24 24" style="enable-background:new 0 0 24 24;" xml:space="preserve">
<g id="surface1">
	<path d="M18.6,2.4h-9c-1,0-1.9,0.2-2.7,0.7c-0.8,0.5-1.5,1.2-2,2C4.4,5.9,4.2,6.8,4.2,7.8s0.2,1.9,0.7,2.7c0.5,0.8,1.1,1.5,2,2
		c0.8,0.5,1.7,0.7,2.7,0.7h0.5v7.2c0,0.3,0.1,0.6,0.3,0.8c0.2,0.2,0.5,0.3,0.9,0.3c0.3,0,0.6-0.1,0.8-0.3c0.2-0.2,0.4-0.5,0.4-0.8V6
		c0-0.3,0.1-0.6,0.3-0.9c0.2-0.2,0.5-0.3,0.9-0.3c0.3,0,0.6,0.1,0.8,0.3C14.9,5.4,15,5.7,15,6v14.4c0,0.3,0.1,0.6,0.4,0.8
		c0.2,0.2,0.5,0.3,0.9,0.3c0.3,0,0.6-0.1,0.8-0.3c0.2-0.2,0.3-0.5,0.3-0.8V4.8h1.2c0.3,0,0.6-0.1,0.8-0.4c0.2-0.2,0.4-0.5,0.4-0.8
		c0-0.3-0.1-0.6-0.4-0.8C19.2,2.5,18.9,2.4,18.6,2.4z"/>
</g>
</svg>
