<?xml version="1.0" encoding="UTF-8" standalone="yes"?>
<svg xmlns="http://www.w3.org/2000/svg" xmlns:xlink="http://www.w3.org/1999/xlink" width="24px" height="24px" viewBox="0 0 18 18" version="1.1">
  <g id="surface1">
    <path style=" stroke:none;fill-rule:nonzero;fill:rgb(0%,0%,0%);fill-opacity:1;" d="M 12.859375 4.132812 L 13.851562 5.128906 C 14.21875 5.488281 14.398438 5.976562 14.398438 6.453125 L 14.398438 8.359375 C 14.398438 8.839844 14.21875 9.324219 13.851562 9.683594 L 7.882812 15.652344 C 7.523438 16.019531 7.039062 16.199219 6.5625 16.199219 C 6.085938 16.199219 5.597656 16.019531 5.238281 15.652344 L 4.238281 14.660156 L 3.25 13.660156 C 2.878906 13.300781 2.699219 12.816406 2.699219 12.339844 L 2.699219 10.429688 C 2.699219 9.945312 2.878906 9.46875 3.25 9.097656 L 9.214844 3.140625 C 9.574219 2.773438 10.0625 2.59375 10.539062 2.59375 C 11.015625 2.59375 11.492188 2.773438 11.863281 3.140625 Z M 7.273438 12.859375 L 13.050781 7.082031 C 13.402344 6.730469 13.402344 6.15625 13.050781 5.796875 L 11.125 3.871094 C 10.953125 3.699219 10.71875 3.609375 10.476562 3.609375 C 10.234375 3.609375 10.007812 3.699219 9.835938 3.871094 L 4.058594 9.648438 C 3.707031 10.007812 3.707031 10.585938 4.058594 10.933594 L 5.984375 12.859375 C 6.328125 13.203125 6.921875 13.203125 7.273438 12.859375 Z M 7.273438 12.859375 "/>
  </g>
</svg>