<?xml version="1.0" encoding="UTF-8" standalone="yes"?>
<svg xmlns="http://www.w3.org/2000/svg" xmlns:xlink="http://www.w3.org/1999/xlink" width="24px" height="24px" viewBox="0 0 18 18" version="1.1">
  <g id="surface1">
    <path style=" stroke:none;fill-rule:nonzero;fill:rgb(0%,0%,0%);fill-opacity:1;" d="M 15.300781 9 C 15.300781 5.515625 12.472656 2.699219 9 2.699219 C 5.515625 2.699219 2.699219 5.515625 2.699219 9 C 2.699219 12.484375 5.515625 15.300781 9 15.300781 C 12.472656 15.300781 15.300781 12.484375 15.300781 9 Z M 9.628906 10.332031 L 8.226562 10.332031 L 8.226562 9.945312 C 8.226562 9.601562 8.296875 9.316406 8.441406 9.0625 C 8.585938 8.8125 8.855469 8.550781 9.234375 8.261719 C 9.601562 8 9.847656 7.785156 9.964844 7.621094 C 10.089844 7.460938 10.144531 7.273438 10.144531 7.066406 C 10.144531 6.839844 10.0625 6.667969 9.890625 6.542969 C 9.71875 6.425781 9.484375 6.371094 9.179688 6.371094 C 8.65625 6.371094 8.054688 6.542969 7.378906 6.886719 L 6.804688 5.734375 C 7.585938 5.292969 8.425781 5.066406 9.296875 5.066406 C 10.027344 5.066406 10.601562 5.246094 11.023438 5.589844 C 11.457031 5.941406 11.664062 6.40625 11.664062 6.984375 C 11.664062 7.371094 11.582031 7.703125 11.402344 7.984375 C 11.230469 8.269531 10.890625 8.585938 10.402344 8.9375 C 10.0625 9.1875 9.855469 9.378906 9.765625 9.503906 C 9.675781 9.640625 9.628906 9.808594 9.628906 10.015625 Z M 8.308594 12.796875 C 8.144531 12.644531 8.0625 12.421875 8.0625 12.140625 C 8.0625 11.84375 8.136719 11.617188 8.296875 11.464844 C 8.460938 11.3125 8.683594 11.242188 8.992188 11.242188 C 9.277344 11.242188 9.503906 11.320312 9.664062 11.476562 C 9.828125 11.628906 9.910156 11.851562 9.910156 12.140625 C 9.910156 12.410156 9.828125 12.636719 9.664062 12.789062 C 9.503906 12.949219 9.277344 13.03125 8.992188 13.03125 C 8.695312 13.03125 8.46875 12.949219 8.308594 12.796875 Z M 8.308594 12.796875 "/>
  </g>
</svg>