<?xml version="1.0" encoding="utf-8"?>
<!-- Generator: Adobe Illustrator 21.0.2, SVG Export Plug-In . SVG Version: 6.00 Build 0)  -->
<svg version="1.1" id="Layer_1" xmlns="http://www.w3.org/2000/svg" xmlns:xlink="http://www.w3.org/1999/xlink" x="0px" y="0px"
	 viewBox="0 0 24 24" style="enable-background:new 0 0 24 24;" xml:space="preserve">
<g id="surface1">
	<path d="M12,6.5c1.5,0,2.7,0.4,3.5,1.3c0.8,0.9,1.2,2.1,1.2,3.8c0,1.5-0.3,2.8-0.8,3.9c-0.6,1.1-1.5,1.8-2.7,2.5v2.4h7.2V18H16
		c1.1-0.8,1.9-1.6,2.5-2.8c0.6-1.2,0.9-2.6,0.9-4c0-2.1-0.7-3.8-2-5.1c-1.3-1.2-3.1-1.9-5.4-1.9S7.9,4.9,6.6,6.1c-1.3,1.2-2,2.9-2,5
		c0,1.5,0.3,2.8,0.9,4C6,16.4,6.9,17.2,8,18H3.6v2.4h7.2V18c-1.2-0.8-2.2-1.5-2.7-2.6c-0.5-1.1-0.8-2.4-0.8-3.9
		c0-1.6,0.4-2.9,1.2-3.8C9.3,6.9,10.5,6.5,12,6.5z"/>
</g>
</svg>
