<?xml version="1.0" encoding="utf-8"?>
<!-- Generator: Adobe Illustrator 21.0.2, SVG Export Plug-In . SVG Version: 6.00 Build 0)  -->
<svg version="1.1" id="Layer_1" xmlns="http://www.w3.org/2000/svg" xmlns:xlink="http://www.w3.org/1999/xlink" x="0px" y="0px"
	 viewBox="0 0 24 24" style="enable-background:new 0 0 24 24;" xml:space="preserve">
<g id="surface1">
	<path d="M20.7,2.7c2,2,2,5.3,0,7.3l-1.8,1.8c-0.4,0.4-0.8,0.7-1.3,0.9L15,12l2-2l0.9-0.9l0.9-0.9c1-1,1-2.6,0-3.7c-1-1-2.6-1-3.7,0
		l-0.9,0.9l-0.9,0.9l-2,2l-0.8-2.6c0.2-0.5,0.5-0.9,0.9-1.3l1.8-1.8C15.4,0.7,18.7,0.7,20.7,2.7z M1.8,4.8l9.6,7.2L4.2,2.4L1.8,4.8z
		 M6.6,2.4l4.8,9.6L9,2.4H6.6z M1.8,7.2l9.6,4.8L1.8,9.6V7.2z M10.6,16.4l0.8-0.8l0.9,2.8l-1.7,1.7c-2,2-5.3,2-7.3,0
		c-2-2-2-5.3,0-7.3L5,11.1L7.8,12L7,12.8l-1.8,1.8c-1,1-1,2.6,0,3.6c1,1,2.6,1,3.6,0L10.6,16.4z M21,19.2L11.4,12l7.2,9.6L21,19.2z
		 M16.2,21.6L11.4,12l2.4,9.6H16.2z M21,16.8L11.4,12l9.6,2.4V16.8z"/>
</g>
</svg>
