<?xml version="1.0" encoding="UTF-8" standalone="yes"?>
<svg xmlns="http://www.w3.org/2000/svg" xmlns:xlink="http://www.w3.org/1999/xlink" width="24px" height="24px" viewBox="0 0 18 18" version="1.1">
  <g id="surface1">
    <path style=" stroke:none;fill-rule:nonzero;fill:rgb(0%,0%,0%);fill-opacity:1;" d="M 4.96875 1.800781 L 11.65625 1.800781 C 12.148438 1.800781 12.554688 2.203125 12.554688 2.699219 C 12.554688 3.195312 12.148438 3.601562 11.65625 3.601562 L 10.753906 3.601562 L 10.753906 15.300781 C 10.753906 15.796875 10.351562 16.199219 9.855469 16.199219 C 9.359375 16.199219 8.953125 15.796875 8.953125 15.300781 L 8.953125 4.5 C 8.953125 4.003906 8.550781 3.601562 8.054688 3.601562 C 7.558594 3.601562 7.15625 4.003906 7.15625 4.5 L 7.15625 15.300781 C 7.15625 15.796875 6.75 16.199219 6.253906 16.199219 C 5.761719 16.199219 5.355469 15.796875 5.355469 15.300781 L 5.355469 9.9375 L 4.96875 9.9375 C 2.71875 9.9375 0.898438 8.117188 0.898438 5.867188 C 0.898438 3.617188 2.71875 1.800781 4.96875 1.800781 Z M 12.601562 12.601562 L 17.101562 9 L 12.601562 5.398438 Z M 12.601562 12.601562 "/>
  </g>
</svg>