<?xml version="1.0" encoding="UTF-8" standalone="yes"?>
<svg xmlns="http://www.w3.org/2000/svg" xmlns:xlink="http://www.w3.org/1999/xlink" width="24px" height="24px" viewBox="0 0 18 18" version="1.1">
  <g id="surface1">
    <path style=" stroke:none;fill-rule:nonzero;fill:rgb(0%,0%,0%);fill-opacity:1;" d="M 6.300781 3.601562 L 6.300781 2.699219 L 2.699219 2.699219 L 2.699219 3.601562 Z M 15.300781 4.5 L 15.300781 2.699219 L 7.199219 2.699219 L 7.199219 4.5 Z M 6.300781 6.300781 L 4.5 6.300781 L 4.5 4.5 L 0.898438 7.648438 L 4.5 10.800781 L 4.5 9 L 6.300781 9 Z M 15.300781 7.199219 L 15.300781 5.398438 L 7.199219 5.398438 L 7.199219 7.199219 Z M 13.5 9.898438 L 13.5 8.101562 L 7.199219 8.101562 L 7.199219 9.898438 Z M 15.300781 12.601562 L 15.300781 10.800781 L 7.199219 10.800781 L 7.199219 12.601562 Z M 6.300781 12.601562 L 6.300781 11.699219 L 2.699219 11.699219 L 2.699219 12.601562 Z M 9.898438 15.300781 L 9.898438 13.5 L 7.199219 13.5 L 7.199219 15.300781 Z M 9.898438 15.300781 "/>
  </g>
</svg>