<?xml version="1.0" encoding="utf-8"?>
<!-- Generator: Adobe Illustrator 21.0.2, SVG Export Plug-In . SVG Version: 6.00 Build 0)  -->
<svg version="1.1" id="Layer_1" xmlns="http://www.w3.org/2000/svg" xmlns:xlink="http://www.w3.org/1999/xlink" x="0px" y="0px"
	 viewBox="0 0 24 24" style="enable-background:new 0 0 24 24;" xml:space="preserve">
<g id="surface1">
	<path d="M6.6,8.4V3.6H5.8L4.2,4.8l0.5,0.6L5.3,5c0.1-0.1,0.2-0.2,0.4-0.3l0,0.5v3.2H6.6z M9,6h10.8v1.2H9V6z M7.5,14.3v-0.8H5.5v0
		l0.6-0.6c0.4-0.4,0.7-0.6,0.8-0.8c0.2-0.2,0.3-0.4,0.4-0.6c0.1-0.2,0.1-0.4,0.1-0.6c0-0.2-0.1-0.5-0.2-0.7C7.1,10,6.9,9.8,6.7,9.7
		C6.4,9.6,6.2,9.5,5.9,9.5c-0.2,0-0.4,0-0.6,0.1c-0.2,0-0.3,0.1-0.5,0.2C4.6,9.9,4.4,10,4.2,10.2l0.5,0.6c0.2-0.2,0.4-0.3,0.5-0.4
		c0.2-0.1,0.4-0.1,0.5-0.1c0.2,0,0.3,0,0.4,0.1c0.1,0.1,0.2,0.2,0.2,0.4c0,0.1,0,0.2-0.1,0.4c0,0.1-0.1,0.3-0.2,0.4
		c-0.1,0.1-0.3,0.4-0.7,0.7l-1.2,1.2v0.7H7.5z M9,12h10.8v1.2H9V12z M7.5,16.7c0-0.4-0.1-0.6-0.4-0.9c-0.3-0.2-0.7-0.3-1.2-0.3
		c-0.6,0-1.2,0.2-1.6,0.5l0.5,0.7c0.2-0.1,0.4-0.2,0.6-0.3c0.2-0.1,0.3-0.1,0.5-0.1c0.5,0,0.7,0.2,0.7,0.6c0,0.2-0.1,0.4-0.3,0.5
		c-0.2,0.1-0.5,0.1-0.8,0.1H5v0.8h0.4c0.4,0,0.7,0,0.9,0.1c0.2,0.1,0.3,0.3,0.3,0.5c0,0.3-0.1,0.4-0.2,0.6c-0.2,0.1-0.4,0.2-0.8,0.2
		c-0.2,0-0.5,0-0.7-0.1c-0.2-0.1-0.4-0.1-0.6-0.2v0.9c0.4,0.2,0.9,0.3,1.4,0.3c0.6,0,1.1-0.1,1.5-0.4c0.3-0.3,0.5-0.6,0.5-1.1
		c0-0.3-0.1-0.6-0.3-0.8C7.1,18.2,6.8,18,6.4,18v0c0.3-0.1,0.6-0.2,0.8-0.4C7.4,17.3,7.5,17.1,7.5,16.7z M9,18h10.8v1.2H9V18z"/>
</g>
</svg>
