<?xml version="1.0" encoding="UTF-8" standalone="yes"?>
<svg xmlns="http://www.w3.org/2000/svg" xmlns:xlink="http://www.w3.org/1999/xlink" width="24px" height="24px" viewBox="0 0 18 18" version="1.1">
  <g id="surface1">
    <path style=" stroke:none;fill-rule:nonzero;fill:rgb(0%,0%,0%);fill-opacity:1;" d="M 5.398438 3.601562 L 5.398438 15.300781 L 9.484375 15.300781 C 10.71875 15.300781 11.699219 15.003906 12.421875 14.398438 C 13.140625 13.804688 13.5 12.976562 13.5 11.90625 C 13.5 11.152344 13.347656 10.546875 13.039062 10.097656 C 12.734375 9.648438 12.230469 9.332031 11.539062 9.171875 L 11.539062 9.089844 C 12.050781 9 12.457031 8.730469 12.761719 8.28125 C 13.066406 7.828125 13.222656 7.261719 13.222656 6.5625 C 13.222656 5.535156 12.871094 4.777344 12.167969 4.3125 C 11.476562 3.835938 10.351562 3.601562 8.800781 3.601562 Z M 7.714844 8.234375 L 7.714844 5.632812 L 8.9375 5.632812 C 9.59375 5.632812 10.078125 5.734375 10.386719 5.921875 C 10.691406 6.121094 10.84375 6.445312 10.84375 6.886719 C 10.84375 7.371094 10.699219 7.714844 10.421875 7.921875 C 10.144531 8.128906 9.683594 8.234375 9.0625 8.234375 Z M 7.714844 10.207031 L 9.152344 10.207031 C 10.449219 10.207031 11.097656 10.683594 11.097656 11.65625 C 11.097656 12.195312 10.945312 12.601562 10.636719 12.859375 C 10.332031 13.121094 9.863281 13.246094 9.226562 13.246094 L 7.714844 13.246094 Z M 7.714844 10.207031 "/>
  </g>
</svg>