<?xml version="1.0" encoding="utf-8"?>
<!-- Generator: Adobe Illustrator 21.0.2, SVG Export Plug-In . SVG Version: 6.00 Build 0)  -->
<svg version="1.1" id="Layer_1" xmlns="http://www.w3.org/2000/svg" xmlns:xlink="http://www.w3.org/1999/xlink" x="0px" y="0px"
	 viewBox="0 0 24 24" style="enable-background:new 0 0 24 24;" xml:space="preserve">
<g id="surface1">
	<path d="M20.4,12c0-4.6-3.8-8.4-8.4-8.4c-4.6,0-8.4,3.8-8.4,8.4s3.8,8.4,8.4,8.4C16.6,20.4,20.4,16.6,20.4,12z M12.8,13.8H11v-0.5
		c0-0.5,0.1-0.8,0.3-1.2c0.2-0.3,0.6-0.7,1.1-1.1c0.5-0.3,0.8-0.6,1-0.9c0.2-0.2,0.2-0.5,0.2-0.7c0-0.3-0.1-0.5-0.3-0.7
		c-0.2-0.2-0.5-0.2-0.9-0.2c-0.7,0-1.5,0.2-2.4,0.7L9.1,7.6c1-0.6,2.2-0.9,3.3-0.9c1,0,1.7,0.2,2.3,0.7c0.6,0.5,0.9,1.1,0.9,1.9
		c0,0.5-0.1,1-0.3,1.3c-0.2,0.4-0.7,0.8-1.3,1.3c-0.5,0.3-0.7,0.6-0.8,0.8c-0.1,0.2-0.2,0.4-0.2,0.7V13.8z M11.1,17.1
		c-0.2-0.2-0.3-0.5-0.3-0.9c0-0.4,0.1-0.7,0.3-0.9c0.2-0.2,0.5-0.3,0.9-0.3c0.4,0,0.7,0.1,0.9,0.3c0.2,0.2,0.3,0.5,0.3,0.9
		c0,0.4-0.1,0.7-0.3,0.9c-0.2,0.2-0.5,0.3-0.9,0.3C11.6,17.4,11.3,17.3,11.1,17.1z"/>
</g>
</svg>
