<?xml version="1.0" encoding="UTF-8" standalone="yes"?>
<svg xmlns="http://www.w3.org/2000/svg" xmlns:xlink="http://www.w3.org/1999/xlink" width="24px" height="24px" viewBox="0 0 18 18" version="1.1">
  <g id="surface1">
    <path style=" stroke:none;fill-rule:nonzero;fill:rgb(0%,0%,0%);fill-opacity:1;" d="M 9 4.859375 C 10.144531 4.859375 11.015625 5.183594 11.617188 5.832031 C 12.214844 6.472656 12.519531 7.414062 12.519531 8.648438 C 12.519531 9.800781 12.3125 10.78125 11.898438 11.59375 C 11.476562 12.394531 10.753906 12.960938 9.898438 13.5 L 9.898438 15.300781 L 15.300781 15.300781 L 15.300781 13.5 L 11.980469 13.5 C 12.808594 12.925781 13.4375 12.292969 13.886719 11.394531 C 14.328125 10.484375 14.554688 9.476562 14.554688 8.378906 C 14.554688 6.777344 14.058594 5.507812 13.066406 4.582031 C 12.078125 3.652344 10.726562 3.1875 9 3.1875 C 7.273438 3.1875 5.914062 3.664062 4.933594 4.597656 C 3.941406 5.535156 3.445312 6.796875 3.445312 8.378906 C 3.445312 9.46875 3.664062 10.457031 4.105469 11.375 C 4.535156 12.285156 5.175781 12.914062 5.992188 13.5 L 2.699219 13.5 L 2.699219 15.300781 L 8.101562 15.300781 L 8.101562 13.5 C 7.21875 12.925781 6.480469 12.347656 6.085938 11.546875 C 5.679688 10.746094 5.480469 9.78125 5.480469 8.648438 C 5.480469 7.414062 5.777344 6.480469 6.382812 5.832031 C 6.976562 5.183594 7.847656 4.859375 9 4.859375 Z M 9 4.859375 "/>
  </g>
</svg>