<?xml version="1.0" encoding="UTF-8" standalone="yes"?>
<svg xmlns="http://www.w3.org/2000/svg" xmlns:xlink="http://www.w3.org/1999/xlink" width="24px" height="24px" viewBox="0 0 18 18" version="1.1">
  <g id="surface1">
    <path style=" stroke:none;fill-rule:nonzero;fill:rgb(0%,0%,0%);fill-opacity:1;" d="M 14.398438 1.800781 L 11.699219 1.800781 L 11.699219 2.699219 L 6.300781 2.699219 L 6.300781 1.800781 L 3.601562 1.800781 L 3.601562 15.300781 L 6.300781 15.300781 L 6.300781 14.398438 L 11.699219 14.398438 L 11.699219 15.300781 L 14.398438 15.300781 Z M 5.398438 2.699219 L 5.398438 3.601562 L 4.5 3.601562 L 4.5 2.699219 Z M 13.5 2.699219 L 13.5 3.601562 L 12.601562 3.601562 L 12.601562 2.699219 Z M 11.699219 3.601562 L 11.699219 8.101562 L 6.300781 8.101562 L 6.300781 3.601562 Z M 5.398438 4.5 L 5.398438 5.398438 L 4.5 5.398438 L 4.5 4.5 Z M 13.5 4.5 L 13.5 5.398438 L 12.601562 5.398438 L 12.601562 4.5 Z M 5.398438 6.300781 L 5.398438 7.199219 L 4.5 7.199219 L 4.5 6.300781 Z M 13.5 6.300781 L 13.5 7.199219 L 12.601562 7.199219 L 12.601562 6.300781 Z M 5.398438 8.101562 L 5.398438 9 L 4.5 9 L 4.5 8.101562 Z M 13.5 8.101562 L 13.5 9 L 12.601562 9 L 12.601562 8.101562 Z M 11.699219 9 L 11.699219 13.5 L 6.300781 13.5 L 6.300781 9 Z M 5.398438 9.898438 L 5.398438 10.800781 L 4.5 10.800781 L 4.5 9.898438 Z M 13.5 9.898438 L 13.5 10.800781 L 12.601562 10.800781 L 12.601562 9.898438 Z M 5.398438 11.699219 L 5.398438 12.601562 L 4.5 12.601562 L 4.5 11.699219 Z M 13.5 11.699219 L 13.5 12.601562 L 12.601562 12.601562 L 12.601562 11.699219 Z M 5.398438 13.5 L 5.398438 14.398438 L 4.5 14.398438 L 4.5 13.5 Z M 13.5 13.5 L 13.5 14.398438 L 12.601562 14.398438 L 12.601562 13.5 Z M 13.5 13.5 "/>
  </g>
</svg>