<?xml version="1.0" encoding="UTF-8" standalone="yes"?>
<svg xmlns="http://www.w3.org/2000/svg" xmlns:xlink="http://www.w3.org/1999/xlink" width="24px" height="24px" viewBox="0 0 18 18" version="1.1">
  <g id="surface1">
    <path style=" stroke:none;fill-rule:nonzero;fill:rgb(0%,0%,0%);fill-opacity:1;" d="M 14.238281 11.023438 C 14.472656 11.023438 14.6875 11.007812 14.902344 10.960938 C 15.109375 10.917969 15.335938 10.855469 15.5625 10.78125 L 15.5625 11.539062 C 15.148438 11.691406 14.671875 11.773438 14.140625 11.773438 C 13.347656 11.773438 12.753906 11.539062 12.328125 11.0625 C 11.980469 10.664062 11.773438 10.125 11.71875 9.449219 L 10.871094 9.449219 C 10.980469 9.640625 11.035156 9.882812 11.035156 10.160156 C 11.035156 10.648438 10.871094 11.015625 10.539062 11.296875 C 10.195312 11.566406 9.730469 11.699219 9.136719 11.699219 L 7.199219 11.699219 L 7.199219 9.449219 L 5.929688 9.449219 L 6.769531 11.699219 L 5.839844 11.699219 L 5.308594 10.195312 L 3.257812 10.195312 L 2.734375 11.699219 L 1.800781 11.699219 L 2.636719 9.449219 L 1.800781 9.449219 L 1.800781 8.550781 L 2.980469 8.550781 L 3.816406 6.308594 L 4.769531 6.308594 L 5.597656 8.550781 L 7.199219 8.550781 L 7.199219 6.300781 L 8.792969 6.300781 C 9.691406 6.300781 10.0625 6.453125 10.386719 6.667969 C 10.71875 6.886719 10.882812 7.226562 10.882812 7.6875 C 10.882812 8 10.800781 8.261719 10.636719 8.46875 L 10.566406 8.550781 L 11.726562 8.550781 C 11.773438 8.191406 11.863281 7.855469 12.007812 7.558594 C 12.214844 7.144531 12.5 6.820312 12.886719 6.605469 C 13.273438 6.382812 13.726562 6.273438 14.246094 6.273438 C 14.796875 6.273438 15.300781 6.382812 15.769531 6.613281 L 15.453125 7.34375 C 15.273438 7.253906 15.074219 7.183594 14.878906 7.117188 C 14.679688 7.054688 14.464844 7.019531 14.238281 7.019531 C 13.742188 7.019531 13.347656 7.199219 13.058594 7.550781 C 12.851562 7.8125 12.71875 8.144531 12.664062 8.550781 L 15.300781 8.550781 L 15.300781 9.449219 L 12.644531 9.449219 C 12.699219 9.898438 12.824219 10.261719 13.039062 10.519531 C 13.3125 10.855469 13.714844 11.023438 14.238281 11.023438 Z M 3.996094 8.0625 L 3.835938 8.550781 L 4.769531 8.550781 L 4.570312 8 C 4.535156 7.902344 4.492188 7.75 4.417969 7.542969 C 4.355469 7.324219 4.3125 7.171875 4.292969 7.082031 C 4.222656 7.378906 4.132812 7.703125 3.996094 8.0625 Z M 8.074219 7.082031 L 8.074219 8.550781 L 9.144531 8.550781 C 9.394531 8.53125 9.585938 8.46875 9.71875 8.386719 C 9.890625 8.269531 9.972656 8.074219 9.972656 7.792969 C 9.972656 7.542969 9.882812 7.363281 9.703125 7.246094 C 9.523438 7.136719 9.226562 7.082031 8.828125 7.082031 Z M 5.074219 9.460938 L 5.074219 9.449219 L 3.519531 9.449219 L 3.519531 9.460938 Z M 9.828125 9.46875 L 9.800781 9.449219 L 8.074219 9.449219 L 8.074219 10.960938 L 9.007812 10.960938 C 9.367188 10.960938 9.648438 10.890625 9.835938 10.753906 C 10.027344 10.609375 10.117188 10.394531 10.117188 10.089844 C 10.117188 9.808594 10.015625 9.601562 9.828125 9.46875 Z M 9.828125 9.46875 "/>
  </g>
</svg>