<?xml version="1.0" encoding="utf-8"?>
<!-- Generator: Adobe Illustrator 21.0.2, SVG Export Plug-In . SVG Version: 6.00 Build 0)  -->
<svg version="1.1" id="Layer_1" xmlns="http://www.w3.org/2000/svg" xmlns:xlink="http://www.w3.org/1999/xlink" x="0px" y="0px"
	 viewBox="0 0 24 24" style="enable-background:new 0 0 24 24;" xml:space="preserve">
<g id="surface1">
	<path d="M11.1,15.9c0-0.9-0.2-1.7-0.7-2.3c-0.7-0.9-2.2-1.1-3-0.9c-0.3-2,1.3-4.5,3.5-5.6L9.2,4.8c-3.3,1.6-6.5,5.1-6,9.7
		c0.3,2.9,2,4.7,4.3,4.7c1,0,1.9-0.3,2.5-0.9C10.8,17.7,11.1,16.9,11.1,15.9z M20.8,15.9c0-0.9-0.2-1.7-0.7-2.3
		c-0.8-0.9-2.2-1.1-3-0.9c-0.3-2,1.3-4.5,3.5-5.6l-1.7-2.3c-3.3,1.6-6.5,5.1-5.9,9.7c0.3,2.9,2,4.7,4.3,4.7c1,0,1.9-0.3,2.5-0.9
		C20.5,17.7,20.8,16.9,20.8,15.9z"/>
</g>
</svg>
