<?xml version="1.0" encoding="utf-8"?>
<!-- Generator: Adobe Illustrator 21.0.2, SVG Export Plug-In . SVG Version: 6.00 Build 0)  -->
<svg version="1.1" id="Layer_1" xmlns="http://www.w3.org/2000/svg" xmlns:xlink="http://www.w3.org/1999/xlink" x="0px" y="0px"
	 viewBox="0 0 24 24" style="enable-background:new 0 0 24 24;" xml:space="preserve">
<g id="surface1">
	<path d="M19.2,2.4h-3.6v1.2H8.4V2.4H4.8v18h3.6v-1.2h7.2v1.2h3.6V2.4z M7.2,3.6v1.2H6V3.6H7.2z M18,3.6v1.2h-1.2V3.6H18z M15.6,4.8
		v6H8.4v-6H15.6z M7.2,6v1.2H6V6H7.2z M18,6v1.2h-1.2V6H18z M7.2,8.4v1.2H6V8.4H7.2z M18,8.4v1.2h-1.2V8.4H18z M7.2,10.8V12H6v-1.2
		H7.2z M18,10.8V12h-1.2v-1.2H18z M15.6,12v6H8.4v-6H15.6z M7.2,13.2v1.2H6v-1.2H7.2z M18,13.2v1.2h-1.2v-1.2H18z M7.2,15.6v1.2H6
		v-1.2H7.2z M18,15.6v1.2h-1.2v-1.2H18z M7.2,18v1.2H6V18H7.2z M18,18v1.2h-1.2V18H18z"/>
</g>
</svg>
