<?xml version="1.0" encoding="utf-8"?>
<!-- Generator: Adobe Illustrator 21.0.2, SVG Export Plug-In . SVG Version: 6.00 Build 0)  -->
<svg version="1.1" id="Layer_1" xmlns="http://www.w3.org/2000/svg" xmlns:xlink="http://www.w3.org/1999/xlink" x="0px" y="0px"
	 viewBox="0 0 24 24" style="enable-background:new 0 0 24 24;" xml:space="preserve">
<g id="surface1">
	<path d="M14.9,2.4L18,6v1.2H6V6l3.2-3.6H14.9z M12,6c0.7,0,1.2-0.5,1.2-1.2c0-0.7-0.5-1.2-1.2-1.2c-0.7,0-1.2,0.5-1.2,1.2
		C10.8,5.5,11.3,6,12,6z M18.5,4.8h1.9c0.7,0,1.2,0.5,1.2,1.2v14.4c0,0.7-0.5,1.2-1.2,1.2H3.6c-0.7,0-1.2-0.5-1.2-1.2V6
		c0-0.7,0.5-1.2,1.2-1.2h1.9L4.8,5.6v2.8h14.4V5.6L18.5,4.8z M16.8,13.2v-2.4H7.2v2.4h3.6v6h2.4v-6H16.8z"/>
</g>
</svg>
