<?xml version="1.0" encoding="utf-8"?>
<!-- Generator: Adobe Illustrator 21.0.2, SVG Export Plug-In . SVG Version: 6.00 Build 0)  -->
<svg version="1.1" id="Layer_1" xmlns="http://www.w3.org/2000/svg" xmlns:xlink="http://www.w3.org/1999/xlink" x="0px" y="0px"
	 viewBox="0 0 24 24" style="enable-background:new 0 0 24 24;" xml:space="preserve">
<g id="surface1">
	<path d="M6.6,4.8v15.6H12c1.6,0,3-0.4,3.9-1.2c1-0.8,1.4-1.9,1.4-3.3c0-1-0.2-1.8-0.6-2.4c-0.4-0.6-1.1-1-2-1.2v-0.1
		c0.7-0.1,1.2-0.5,1.6-1.1c0.4-0.6,0.6-1.4,0.6-2.3c0-1.4-0.5-2.4-1.4-3c-0.9-0.6-2.4-0.9-4.5-0.9H6.6z M9.7,11V7.5h1.6
		c0.9,0,1.5,0.1,1.9,0.4c0.4,0.3,0.6,0.7,0.6,1.3c0,0.6-0.2,1.1-0.6,1.4c-0.4,0.3-1,0.4-1.8,0.4H9.7z M9.7,13.6h1.9
		c1.7,0,2.6,0.6,2.6,1.9c0,0.7-0.2,1.3-0.6,1.6c-0.4,0.3-1,0.5-1.9,0.5h-2V13.6z"/>
</g>
</svg>
