<?xml version="1.0" encoding="UTF-8" standalone="yes"?>
<svg xmlns="http://www.w3.org/2000/svg" xmlns:xlink="http://www.w3.org/1999/xlink" width="24px" height="24px" viewBox="0 0 18 18" version="1.1">
  <g id="surface1">
    <path style=" stroke:none;fill-rule:nonzero;fill:rgb(0%,0%,0%);fill-opacity:1;" d="M 14.175781 6.074219 L 16.199219 2.699219 L 16.199219 15.300781 L 14.175781 11.925781 L 15.300781 10.800781 L 11.699219 10.800781 L 11.699219 14.398438 L 12.824219 13.273438 L 16.199219 15.300781 L 1.800781 15.300781 L 5.175781 13.273438 L 6.300781 14.398438 L 6.300781 10.800781 L 2.699219 10.800781 L 3.824219 11.925781 L 1.800781 15.300781 L 1.800781 2.699219 L 3.824219 6.074219 L 2.699219 7.199219 L 6.300781 7.199219 L 6.300781 3.601562 L 5.175781 4.726562 L 1.800781 2.699219 L 16.199219 2.699219 L 12.824219 4.726562 L 11.699219 3.601562 L 11.699219 7.199219 L 15.300781 7.199219 Z M 14.175781 6.074219 "/>
  </g>
</svg>