<?xml version="1.0" encoding="UTF-8" standalone="yes"?>
<svg xmlns="http://www.w3.org/2000/svg" xmlns:xlink="http://www.w3.org/1999/xlink" width="24px" height="24px" viewBox="0 0 18 18" version="1.1">
  <g id="surface1">
    <path style=" stroke:none;fill-rule:nonzero;fill:rgb(0%,0%,0%);fill-opacity:1;" d="M 14.257812 2.484375 C 14.480469 2.484375 14.695312 2.519531 14.894531 2.582031 C 15.101562 2.644531 15.289062 2.726562 15.472656 2.808594 L 15.785156 2.078125 C 15.316406 1.84375 14.8125 1.726562 14.265625 1.726562 C 13.742188 1.726562 13.285156 1.84375 12.898438 2.0625 C 12.511719 2.285156 12.214844 2.609375 12.007812 3.03125 C 11.800781 3.445312 11.699219 3.941406 11.699219 4.5 C 11.699219 5.390625 11.90625 6.074219 12.328125 6.550781 C 12.753906 7.027344 13.363281 7.261719 14.148438 7.261719 C 14.6875 7.261719 15.164062 7.183594 15.589844 7.027344 L 15.589844 6.273438 C 15.355469 6.34375 15.128906 6.398438 14.921875 6.445312 C 14.707031 6.488281 14.480469 6.515625 14.257812 6.515625 C 13.726562 6.515625 13.320312 6.34375 13.050781 6.003906 C 12.761719 5.671875 12.628906 5.164062 12.628906 4.507812 C 12.628906 3.878906 12.769531 3.382812 13.058594 3.023438 C 13.355469 2.664062 13.753906 2.484375 14.257812 2.484375 Z M 5.851562 7.199219 L 6.785156 7.199219 L 4.769531 1.800781 L 3.816406 1.800781 L 1.800781 7.199219 L 2.726562 7.199219 L 3.25 5.707031 L 5.308594 5.707031 Z M 7.199219 1.800781 L 7.199219 7.199219 L 9.152344 7.199219 C 9.757812 7.199219 10.222656 7.066406 10.566406 6.785156 C 10.90625 6.515625 11.070312 6.136719 11.070312 5.652344 C 11.070312 5.292969 10.980469 5.003906 10.800781 4.796875 C 10.628906 4.582031 10.351562 4.445312 9.964844 4.375 L 9.964844 4.339844 C 10.277344 4.285156 10.503906 4.148438 10.664062 3.941406 C 10.828125 3.726562 10.917969 3.464844 10.917969 3.148438 C 10.917969 2.683594 10.746094 2.339844 10.414062 2.125 C 10.089844 1.90625 9.550781 1.800781 8.800781 1.800781 Z M 8.082031 4.03125 L 8.082031 2.539062 L 8.847656 2.539062 C 9.242188 2.539062 9.539062 2.59375 9.71875 2.710938 C 9.910156 2.816406 10 3.007812 10 3.257812 C 10 3.535156 9.910156 3.734375 9.738281 3.851562 C 9.574219 3.96875 9.304688 4.03125 8.9375 4.03125 Z M 5.074219 4.949219 L 3.511719 4.949219 L 3.996094 3.546875 C 4.121094 3.1875 4.222656 2.863281 4.285156 2.554688 L 4.417969 3.023438 C 4.480469 3.230469 4.535156 3.382812 4.570312 3.484375 Z M 8.082031 4.742188 L 8.972656 4.742188 C 9.367188 4.742188 9.65625 4.816406 9.855469 4.949219 C 10.042969 5.085938 10.144531 5.292969 10.144531 5.570312 C 10.144531 5.878906 10.042969 6.101562 9.855469 6.246094 C 9.664062 6.390625 9.386719 6.460938 9.019531 6.460938 L 8.082031 6.460938 Z M 3.601562 11.699219 L 8.101562 16.199219 L 16.199219 9 L 15.300781 8.101562 L 8.101562 13.5 L 4.5 10.800781 Z M 3.601562 11.699219 "/>
  </g>
</svg>