<?xml version="1.0" encoding="UTF-8" standalone="yes"?>
<svg xmlns="http://www.w3.org/2000/svg" xmlns:xlink="http://www.w3.org/1999/xlink" width="24px" height="24px" viewBox="0 0 18 18" version="1.1">
  <g id="surface1">
    <path style=" stroke:none;fill-rule:nonzero;fill:rgb(0%,0%,0%);fill-opacity:1;" d="M 15.964844 2.035156 C 17.476562 3.554688 17.476562 6.003906 15.964844 7.523438 L 14.589844 8.890625 C 14.300781 9.1875 13.96875 9.414062 13.617188 9.585938 L 11.699219 9 L 13.222656 7.523438 L 13.90625 6.832031 L 14.589844 6.148438 C 15.34375 5.390625 15.34375 4.167969 14.589844 3.410156 C 13.832031 2.644531 12.609375 2.644531 11.851562 3.410156 L 11.160156 4.09375 L 10.476562 4.777344 L 9 6.300781 L 8.414062 4.375 C 8.585938 4.03125 8.8125 3.699219 9.109375 3.410156 L 10.476562 2.035156 C 11.996094 0.523438 14.453125 0.523438 15.964844 2.035156 Z M 1.800781 3.601562 L 9 9 L 3.601562 1.800781 Z M 5.398438 1.800781 L 9 9 L 7.199219 1.800781 Z M 1.800781 5.398438 L 9 9 L 1.800781 7.199219 Z M 8.425781 12.320312 L 9 11.699219 L 9.664062 13.816406 L 8.425781 15.066406 C 6.902344 16.578125 4.453125 16.578125 2.933594 15.066406 C 1.421875 13.554688 1.421875 11.089844 2.933594 9.574219 L 4.183594 8.335938 L 6.300781 9 L 5.679688 9.574219 L 4.3125 10.953125 C 3.546875 11.710938 3.546875 12.933594 4.3125 13.6875 C 5.066406 14.453125 6.289062 14.453125 7.046875 13.6875 Z M 16.199219 14.398438 L 9 9 L 14.398438 16.199219 Z M 12.601562 16.199219 L 9 9 L 10.800781 16.199219 Z M 16.199219 12.601562 L 9 9 L 16.199219 10.800781 Z M 16.199219 12.601562 "/>
  </g>
</svg>