<?xml version="1.0" encoding="UTF-8" standalone="yes"?>
<svg xmlns="http://www.w3.org/2000/svg" xmlns:xlink="http://www.w3.org/1999/xlink" width="24px" height="24px" viewBox="0 0 18 18" version="1.1">
  <g id="surface1">
    <path style=" stroke:none;fill-rule:nonzero;fill:rgb(0%,0%,0%);fill-opacity:1;" d="M 5.398438 2.699219 L 4.273438 3.824219 L 6.300781 7.199219 L 2.925781 5.175781 L 1.800781 6.300781 L 1.800781 2.699219 Z M 12.601562 2.699219 L 16.199219 2.699219 L 16.199219 6.300781 L 15.074219 5.175781 L 11.699219 7.199219 L 13.726562 3.824219 Z M 6.300781 10.800781 L 6.300781 7.199219 L 11.699219 7.199219 L 11.699219 10.800781 Z M 1.800781 11.699219 L 2.925781 12.824219 L 6.300781 10.800781 L 4.273438 14.175781 L 5.398438 15.300781 L 1.800781 15.300781 Z M 12.601562 15.300781 L 13.726562 14.175781 L 11.699219 10.800781 L 15.074219 12.824219 L 16.199219 11.699219 L 16.199219 15.300781 Z M 12.601562 15.300781 "/>
  </g>
</svg>