<?xml version="1.0" encoding="UTF-8" standalone="yes"?>
<svg xmlns="http://www.w3.org/2000/svg" xmlns:xlink="http://www.w3.org/1999/xlink" width="24px" height="24px" viewBox="0 0 18 18" version="1.1">
  <g id="surface1">
    <path style=" stroke:none;fill-rule:nonzero;fill:rgb(0%,0%,0%);fill-opacity:1;" d="M 5.398438 6.300781 L 5.398438 2.699219 L 4.777344 2.699219 L 3.617188 3.628906 L 3.976562 4.085938 L 4.390625 3.753906 C 4.445312 3.707031 4.535156 3.628906 4.660156 3.5 L 4.644531 3.878906 L 4.644531 6.300781 Z M 7.199219 4.5 L 15.300781 4.5 L 15.300781 5.398438 L 7.199219 5.398438 Z M 6.09375 10.753906 L 6.09375 10.125 L 4.546875 10.125 L 4.546875 10.089844 L 5.003906 9.65625 C 5.300781 9.378906 5.515625 9.171875 5.632812 9.019531 C 5.761719 8.863281 5.851562 8.722656 5.902344 8.578125 C 5.96875 8.433594 5.992188 8.28125 5.992188 8.117188 C 5.992188 7.929688 5.949219 7.757812 5.851562 7.613281 C 5.761719 7.46875 5.625 7.363281 5.453125 7.28125 C 5.28125 7.199219 5.085938 7.15625 4.867188 7.15625 C 4.699219 7.15625 4.546875 7.171875 4.410156 7.210938 C 4.273438 7.234375 4.148438 7.289062 4.03125 7.34375 C 3.925781 7.40625 3.769531 7.515625 3.601562 7.660156 L 4.003906 8.144531 C 4.148438 8.027344 4.285156 7.9375 4.410156 7.875 C 4.546875 7.8125 4.679688 7.785156 4.816406 7.785156 C 4.941406 7.785156 5.050781 7.8125 5.128906 7.882812 C 5.210938 7.957031 5.246094 8.0625 5.246094 8.207031 C 5.246094 8.296875 5.230469 8.386719 5.191406 8.476562 C 5.15625 8.566406 5.101562 8.667969 5.023438 8.773438 C 4.941406 8.875 4.761719 9.0625 4.5 9.332031 L 3.609375 10.234375 L 3.609375 10.753906 Z M 7.199219 9 L 15.300781 9 L 15.300781 9.898438 L 7.199219 9.898438 Z M 6.039062 12.554688 C 6.039062 12.285156 5.929688 12.070312 5.707031 11.914062 C 5.488281 11.761719 5.183594 11.683594 4.804688 11.683594 C 4.339844 11.683594 3.941406 11.800781 3.609375 12.042969 L 3.96875 12.582031 C 4.121094 12.484375 4.257812 12.410156 4.382812 12.375 C 4.507812 12.328125 4.625 12.3125 4.753906 12.3125 C 5.09375 12.3125 5.273438 12.445312 5.273438 12.726562 C 5.273438 12.90625 5.210938 13.039062 5.074219 13.113281 C 4.941406 13.183594 4.734375 13.222656 4.445312 13.222656 L 4.167969 13.222656 L 4.167969 13.816406 L 4.445312 13.816406 C 4.753906 13.816406 4.976562 13.851562 5.121094 13.921875 C 5.257812 13.996094 5.328125 14.121094 5.328125 14.292969 C 5.328125 14.488281 5.265625 14.625 5.148438 14.714844 C 5.023438 14.804688 4.832031 14.851562 4.582031 14.851562 C 4.410156 14.851562 4.238281 14.824219 4.066406 14.777344 C 3.898438 14.734375 3.742188 14.671875 3.601562 14.597656 L 3.601562 15.265625 C 3.90625 15.398438 4.265625 15.460938 4.660156 15.460938 C 5.140625 15.460938 5.507812 15.363281 5.761719 15.164062 C 6.019531 14.96875 6.148438 14.695312 6.148438 14.335938 C 6.148438 14.09375 6.066406 13.90625 5.914062 13.761719 C 5.761719 13.617188 5.535156 13.527344 5.246094 13.492188 L 5.246094 13.472656 C 5.488281 13.417969 5.6875 13.300781 5.832031 13.140625 C 5.96875 12.976562 6.039062 12.789062 6.039062 12.554688 Z M 7.199219 13.5 L 15.300781 13.5 L 15.300781 14.398438 L 7.199219 14.398438 Z M 7.199219 13.5 "/>
  </g>
</svg>