<?xml version="1.0" encoding="utf-8"?>
<!-- Generator: Adobe Illustrator 21.0.2, SVG Export Plug-In . SVG Version: 6.00 Build 0)  -->
<svg version="1.1" id="Layer_1" xmlns="http://www.w3.org/2000/svg" xmlns:xlink="http://www.w3.org/1999/xlink" x="0px" y="0px"
	 viewBox="0 0 24 24" style="enable-background:new 0 0 24 24;" xml:space="preserve">
<g id="surface1">
	<path d="M21.6,13.4V3c0-1.4-1.1-2.2-2.4-1.6L4.8,7.1c-1.3,0.5-2.4,2.1-2.4,3.6V21c0,1.4,1.1,2.2,2.4,1.6L19.2,17
		C20.5,16.4,21.6,14.9,21.6,13.4z M19.9,4.5l-7.2,11.2l-8-5.5c-0.1-0.1-0.4-0.4-0.2-0.8c0.2-0.4,0.8-0.2,0.8-0.2l7.6,2.8
		c0,0,5.8-7.6,6.1-8c0.2-0.2,0.5-0.4,0.9-0.2C20.2,3.9,20,4.3,19.9,4.5z"/>
</g>
</svg>
