<?xml version="1.0" encoding="UTF-8" standalone="yes"?>
<svg xmlns="http://www.w3.org/2000/svg" xmlns:xlink="http://www.w3.org/1999/xlink" width="24px" height="24px" viewBox="0 0 18 18" version="1.1">
  <g id="surface1">
    <path style=" stroke:none;fill-rule:nonzero;fill:rgb(0%,0%,0%);fill-opacity:1;" d="M 3.484375 3.601562 L 15.40625 3.601562 C 16.53125 3.601562 17.101562 4.132812 17.101562 5.210938 L 17.101562 12.789062 C 17.101562 13.859375 16.53125 14.398438 15.40625 14.398438 L 3.484375 14.398438 C 2.359375 14.398438 1.789062 13.859375 1.789062 12.789062 L 1.789062 5.210938 C 1.789062 4.132812 2.359375 3.601562 3.484375 3.601562 Z M 9.441406 11.339844 L 15.507812 6.363281 C 15.722656 6.183594 15.894531 5.769531 15.625 5.398438 C 15.363281 5.03125 14.886719 5.023438 14.570312 5.246094 L 9.441406 8.722656 L 4.320312 5.246094 C 4.003906 5.023438 3.527344 5.03125 3.265625 5.398438 C 2.996094 5.769531 3.167969 6.183594 3.382812 6.363281 Z M 9.441406 11.339844 "/>
  </g>
</svg>