<?xml version="1.0" encoding="UTF-8" standalone="yes"?>
<svg xmlns="http://www.w3.org/2000/svg" xmlns:xlink="http://www.w3.org/1999/xlink" width="24px" height="24px" viewBox="0 0 18 18" version="1.1">
  <g id="surface1">
    <path style=" stroke:none;fill-rule:nonzero;fill:rgb(0%,0%,0%);fill-opacity:1;" d="M 17.101562 13.050781 L 17.101562 4.949219 C 17.101562 4.203125 16.496094 3.601562 15.75 3.601562 L 3.140625 3.601562 C 2.394531 3.601562 1.789062 4.203125 1.789062 4.949219 L 1.789062 13.050781 C 1.789062 13.796875 2.394531 14.398438 3.140625 14.398438 L 15.75 14.398438 C 16.496094 14.398438 17.101562 13.796875 17.101562 13.050781 Z M 15.921875 4.851562 C 16.21875 5.148438 16.054688 5.453125 15.894531 5.605469 L 12.238281 8.953125 L 15.75 12.609375 C 15.859375 12.734375 15.929688 12.933594 15.804688 13.066406 C 15.6875 13.210938 15.417969 13.203125 15.300781 13.113281 L 11.367188 9.757812 L 9.441406 11.511719 L 7.523438 9.757812 L 3.589844 13.113281 C 3.472656 13.203125 3.203125 13.210938 3.085938 13.066406 C 2.960938 12.933594 3.03125 12.734375 3.140625 12.609375 L 6.652344 8.953125 L 2.996094 5.605469 C 2.835938 5.453125 2.671875 5.148438 2.96875 4.851562 C 3.265625 4.554688 3.574219 4.699219 3.824219 4.914062 L 9.441406 9.449219 L 15.066406 4.914062 C 15.316406 4.699219 15.625 4.554688 15.921875 4.851562 Z M 15.921875 4.851562 "/>
  </g>
</svg>