<?xml version="1.0" encoding="UTF-8" standalone="yes"?>
<svg xmlns="http://www.w3.org/2000/svg" xmlns:xlink="http://www.w3.org/1999/xlink" width="24px" height="24px" viewBox="0 0 18 18" version="1.1">
  <g id="surface1">
    <path style=" stroke:none;fill-rule:nonzero;fill:rgb(0%,0%,0%);fill-opacity:1;" d="M 16.210938 10.0625 L 16.210938 2.257812 C 16.210938 1.1875 15.398438 0.628906 14.410156 1.027344 L 3.601562 5.320312 C 2.609375 5.714844 1.800781 6.910156 1.800781 7.992188 L 1.800781 15.785156 C 1.800781 16.867188 2.609375 17.414062 3.601562 17.019531 L 14.410156 12.726562 C 15.398438 12.328125 16.210938 11.140625 16.210938 10.0625 Z M 14.921875 3.347656 L 9.484375 11.746094 L 3.5 7.605469 C 3.410156 7.542969 3.175781 7.316406 3.347656 7.027344 C 3.535156 6.703125 3.933594 6.839844 3.933594 6.839844 L 9.601562 8.929688 C 9.601562 8.929688 13.949219 3.222656 14.203125 2.898438 C 14.320312 2.746094 14.589844 2.59375 14.859375 2.78125 C 15.121094 2.960938 15.003906 3.222656 14.921875 3.347656 Z M 14.921875 3.347656 "/>
  </g>
</svg>