<?xml version="1.0" encoding="UTF-8" standalone="yes"?>
<svg xmlns="http://www.w3.org/2000/svg" xmlns:xlink="http://www.w3.org/1999/xlink" width="24px" height="24px" viewBox="0 0 18 18" version="1.1">
  <g id="surface1">
    <path style=" stroke:none;fill-rule:nonzero;fill:rgb(0%,0%,0%);fill-opacity:1;" d="M 17.101562 16.199219 L 17.101562 1.800781 C 17.101562 1.304688 16.695312 0.898438 16.199219 0.898438 L 1.800781 0.898438 C 1.304688 0.898438 0.898438 1.304688 0.898438 1.800781 L 0.898438 16.199219 C 0.898438 16.695312 1.304688 17.101562 1.800781 17.101562 L 16.199219 17.101562 C 16.695312 17.101562 17.101562 16.695312 17.101562 16.199219 Z M 3.601562 2.699219 C 4.09375 2.699219 4.5 3.105469 4.5 3.601562 C 4.5 4.09375 4.09375 4.5 3.601562 4.5 C 3.105469 4.5 2.699219 4.09375 2.699219 3.601562 C 2.699219 3.105469 3.105469 2.699219 3.601562 2.699219 Z M 15.300781 2.699219 L 15.300781 8.101562 L 5.398438 8.101562 L 5.398438 2.699219 Z M 3.601562 9.898438 C 4.09375 9.898438 4.5 10.304688 4.5 10.800781 C 4.5 11.296875 4.09375 11.699219 3.601562 11.699219 C 3.105469 11.699219 2.699219 11.296875 2.699219 10.800781 C 2.699219 10.304688 3.105469 9.898438 3.601562 9.898438 Z M 15.300781 9.898438 L 15.300781 15.300781 L 5.398438 15.300781 L 5.398438 9.898438 Z M 15.300781 9.898438 "/>
  </g>
</svg>