<?xml version="1.0" encoding="utf-8"?>
<!-- Generator: Adobe Illustrator 21.0.2, SVG Export Plug-In . SVG Version: 6.00 Build 0)  -->
<svg version="1.1" id="Layer_1" xmlns="http://www.w3.org/2000/svg" xmlns:xlink="http://www.w3.org/1999/xlink" x="0px" y="0px"
	 viewBox="0 0 24 24" style="enable-background:new 0 0 24 24;" xml:space="preserve">
<g id="surface1">
	<path d="M22.8,21.6V2.4c0-0.7-0.5-1.2-1.2-1.2H2.4c-0.7,0-1.2,0.5-1.2,1.2v19.2c0,0.7,0.5,1.2,1.2,1.2h19.2
		C22.3,22.8,22.8,22.3,22.8,21.6z M4.8,3.6C5.5,3.6,6,4.1,6,4.8C6,5.5,5.5,6,4.8,6C4.1,6,3.6,5.5,3.6,4.8C3.6,4.1,4.1,3.6,4.8,3.6z
		 M20.4,3.6v7.2H7.2V3.6H20.4z M4.8,13.2c0.7,0,1.2,0.5,1.2,1.2c0,0.7-0.5,1.2-1.2,1.2c-0.7,0-1.2-0.5-1.2-1.2
		C3.6,13.7,4.1,13.2,4.8,13.2z M20.4,13.2v7.2H7.2v-7.2H20.4z"/>
</g>
</svg>
