<?xml version="1.0" encoding="UTF-8" standalone="yes"?>
<svg xmlns="http://www.w3.org/2000/svg" xmlns:xlink="http://www.w3.org/1999/xlink" width="24px" height="24px" viewBox="0 0 18 18" version="1.1">
  <g id="surface1">
    <path style=" stroke:none;fill-rule:nonzero;fill:rgb(0%,0%,0%);fill-opacity:1;" d="M 2.601562 1.800781 L 15.40625 1.800781 C 15.847656 1.800781 16.199219 2.152344 16.199219 2.59375 L 16.199219 15.40625 C 16.199219 15.839844 15.847656 16.199219 15.40625 16.199219 L 11.734375 16.199219 L 11.734375 10.621094 L 13.609375 10.621094 L 13.886719 8.449219 L 11.734375 8.449219 L 11.734375 7.066406 C 11.734375 6.433594 11.914062 6.003906 12.816406 6.003906 L 13.96875 6.003906 L 13.96875 4.058594 C 13.769531 4.03125 13.085938 3.976562 12.292969 3.976562 C 10.628906 3.976562 9.496094 4.984375 9.496094 6.847656 L 9.496094 8.449219 L 7.613281 8.449219 L 7.613281 10.621094 L 9.496094 10.621094 L 9.496094 16.199219 L 2.601562 16.199219 C 2.160156 16.199219 1.800781 15.839844 1.800781 15.40625 L 1.800781 2.59375 C 1.800781 2.152344 2.160156 1.800781 2.601562 1.800781 Z M 2.601562 1.800781 "/>
  </g>
</svg>