<?xml version="1.0" encoding="UTF-8" standalone="yes"?>
<svg xmlns="http://www.w3.org/2000/svg" xmlns:xlink="http://www.w3.org/1999/xlink" width="24px" height="24px" viewBox="0 0 18 18" version="1.1">
  <g id="surface1">
    <path style=" stroke:none;fill-rule:nonzero;fill:rgb(0%,0%,0%);fill-opacity:1;" d="M 1.800781 1.800781 L 16.199219 1.800781 C 16.695312 1.800781 17.101562 2.203125 17.101562 2.699219 L 17.101562 15.300781 C 17.101562 15.796875 16.695312 16.199219 16.199219 16.199219 L 1.800781 16.199219 C 1.304688 16.199219 0.898438 15.796875 0.898438 15.300781 L 0.898438 2.699219 C 0.898438 2.203125 1.304688 1.800781 1.800781 1.800781 Z M 15.300781 14.398438 L 15.300781 6.300781 L 2.699219 6.300781 L 2.699219 14.398438 Z M 3.601562 7.199219 L 3.601562 8.101562 L 6.300781 8.101562 L 6.300781 7.199219 Z M 7.199219 7.199219 L 7.199219 9.898438 L 14.398438 9.898438 L 14.398438 7.199219 Z M 3.601562 10.800781 L 3.601562 11.699219 L 6.300781 11.699219 L 6.300781 10.800781 Z M 7.199219 10.800781 L 7.199219 13.5 L 14.398438 13.5 L 14.398438 10.800781 Z M 7.199219 10.800781 "/>
  </g>
</svg>