<?xml version="1.0" encoding="utf-8"?>
<!-- Generator: Adobe Illustrator 21.0.2, SVG Export Plug-In . SVG Version: 6.00 Build 0)  -->
<svg version="1.1" id="Layer_1" xmlns="http://www.w3.org/2000/svg" xmlns:xlink="http://www.w3.org/1999/xlink" x="0px" y="0px"
	 viewBox="0 0 24 24" style="enable-background:new 0 0 24 24;" xml:space="preserve">
<g id="surface1">
	<path d="M2.4,2.4h19.2c0.7,0,1.2,0.5,1.2,1.2v16.8c0,0.7-0.5,1.2-1.2,1.2H2.4c-0.7,0-1.2-0.5-1.2-1.2V3.6C1.2,2.9,1.7,2.4,2.4,2.4z
		 M20.4,19.2V8.4H3.6v10.8H20.4z M4.8,9.6v1.2h3.6V9.6H4.8z M9.6,9.6v3.6h9.6V9.6H9.6z M4.8,14.4v1.2h3.6v-1.2H4.8z M9.6,14.4V18
		h9.6v-3.6H9.6z"/>
</g>
</svg>
