<?xml version="1.0" encoding="UTF-8" standalone="yes"?>
<svg xmlns="http://www.w3.org/2000/svg" xmlns:xlink="http://www.w3.org/1999/xlink" width="24px" height="24px" viewBox="0 0 18 18" version="1.1">
  <g id="surface1">
    <path style=" stroke:none;fill-rule:nonzero;fill:rgb(0%,0%,0%);fill-opacity:1;" d="M 1.800781 0.898438 L 16.199219 0.898438 C 16.695312 0.898438 17.101562 1.304688 17.101562 1.800781 L 17.101562 16.199219 L 0.898438 16.183594 L 0.898438 1.800781 C 0.898438 1.304688 1.304688 0.898438 1.800781 0.898438 Z M 5.398438 1.800781 L 3.601562 4.5 L 4.5 4.5 L 6.300781 1.800781 Z M 9 1.800781 L 8.101562 1.800781 L 6.300781 4.5 L 7.199219 4.5 Z M 11.699219 1.800781 L 10.800781 1.800781 L 9 4.5 L 9.898438 4.5 Z M 14.398438 1.800781 L 13.5 1.800781 L 11.699219 4.5 L 12.601562 4.5 Z M 15.300781 14.398438 L 15.300781 5.398438 L 2.699219 5.398438 L 2.699219 14.398438 Z M 7.199219 6.300781 L 12.601562 9.898438 L 7.199219 13.5 Z M 7.199219 6.300781 "/>
  </g>
</svg>