<?xml version="1.0" encoding="UTF-8" standalone="yes"?>
<svg xmlns="http://www.w3.org/2000/svg" xmlns:xlink="http://www.w3.org/1999/xlink" width="24px" height="24px" viewBox="0 0 18 18" version="1.1">
  <g id="surface1">
    <path style=" stroke:none;fill-rule:nonzero;fill:rgb(0%,0%,0%);fill-opacity:1;" d="M 6.289062 2.773438 L 16.210938 0.972656 C 16.703125 0.898438 17.101562 1.378906 17.101562 1.871094 L 17.101562 13.050781 C 17.101562 14.796875 15.6875 16.199219 13.949219 16.199219 C 12.214844 16.199219 10.800781 14.796875 10.800781 13.050781 C 10.800781 11.3125 12.214844 9.898438 13.949219 9.898438 C 14.4375 9.898438 14.886719 10.027344 15.300781 10.214844 L 15.300781 4.570312 L 7.199219 6.371094 L 7.199219 14.398438 C 6.984375 15.929688 5.632812 17.101562 4.050781 17.101562 C 2.3125 17.101562 0.898438 15.695312 0.898438 13.949219 C 0.898438 12.214844 2.3125 10.800781 4.050781 10.800781 C 4.535156 10.800781 4.984375 10.925781 5.398438 11.113281 L 5.398438 3.671875 C 5.398438 3.175781 5.796875 2.851562 6.289062 2.773438 Z M 6.289062 2.773438 "/>
  </g>
</svg>