<?xml version="1.0" encoding="utf-8"?>
<!-- Generator: Adobe Illustrator 21.0.2, SVG Export Plug-In . SVG Version: 6.00 Build 0)  -->
<svg version="1.1" id="Layer_1" xmlns="http://www.w3.org/2000/svg" xmlns:xlink="http://www.w3.org/1999/xlink" x="0px" y="0px"
	 viewBox="0 0 24 24" style="enable-background:new 0 0 24 24;" xml:space="preserve">
<g id="surface1">
	<path d="M2.7,1.2h18.6c0.8,0,1.5,0.7,1.5,1.5v18.6c0,0.8-0.7,1.5-1.5,1.5H2.7c-0.8,0-1.5-0.7-1.5-1.5V2.7C1.2,1.9,1.9,1.2,2.7,1.2z
		 M20.4,20.4V3.6H3.6v16.8H20.4z M12,7.2c0-1.3-1.1-2.4-2.4-2.4c-1.3,0-2.4,1.1-2.4,2.4c0,1.3,1.1,2.4,2.4,2.4
		C10.9,9.6,12,8.5,12,7.2z M15.6,13.2c0,0,0-7.2,3.6-7.2v12c0,0.7-0.5,1.2-1.2,1.2H6c-0.7,0-1.2-0.5-1.2-1.2V9.6
		c2.4,0,3.6,4.8,3.6,4.8s1.2-3.6,3.6-3.6S15.6,13.2,15.6,13.2z"/>
</g>
</svg>
