<?xml version="1.0" encoding="UTF-8" standalone="yes"?>
<svg xmlns="http://www.w3.org/2000/svg" xmlns:xlink="http://www.w3.org/1999/xlink" width="24px" height="24px" viewBox="0 0 18 18" version="1.1">
  <g id="surface1">
    <path style=" stroke:none;fill-rule:nonzero;fill:rgb(0%,0%,0%);fill-opacity:1;" d="M 1.800781 1.800781 L 8.101562 1.800781 L 8.101562 8.101562 L 1.800781 8.101562 Z M 9.898438 1.800781 L 9.898438 8.101562 L 16.199219 8.101562 L 16.199219 1.800781 Z M 4.949219 4.050781 L 6.300781 2.699219 L 3.601562 2.699219 Z M 10.800781 7.199219 L 10.800781 2.699219 L 15.300781 2.699219 L 15.300781 7.199219 Z M 4.050781 4.949219 L 2.699219 3.601562 L 2.699219 6.300781 Z M 7.199219 3.601562 L 5.851562 4.949219 L 7.199219 6.300781 Z M 4.949219 5.851562 L 3.601562 7.199219 L 6.300781 7.199219 Z M 8.101562 16.199219 L 8.101562 9.898438 L 1.800781 9.898438 L 1.800781 16.199219 Z M 16.199219 16.199219 L 9.898438 16.199219 L 9.898438 9.898438 L 16.199219 9.898438 Z M 7.199219 10.800781 L 7.199219 15.300781 L 2.699219 15.300781 L 2.699219 10.800781 Z M 13.050781 12.148438 L 14.398438 10.800781 L 11.699219 10.800781 Z M 10.800781 14.398438 L 12.148438 13.050781 L 10.800781 11.699219 Z M 13.949219 13.050781 L 15.300781 14.398438 L 15.300781 11.699219 Z M 13.050781 13.949219 L 11.699219 15.300781 L 14.398438 15.300781 Z M 13.050781 13.949219 "/>
  </g>
</svg>