<?xml version="1.0" encoding="UTF-8" standalone="yes"?>
<svg xmlns="http://www.w3.org/2000/svg" xmlns:xlink="http://www.w3.org/1999/xlink" width="24px" height="24px" viewBox="0 0 18 18" version="1.1">
  <g id="surface1">
    <path style=" stroke:none;fill-rule:nonzero;fill:rgb(0%,0%,0%);fill-opacity:1;" d="M 9 0.898438 C 15.300781 0.898438 17.101562 3.519531 17.101562 6.75 C 17.101562 9.980469 15.300781 12.601562 9 12.601562 C 2.699219 12.601562 0.898438 9.980469 0.898438 6.75 C 0.898438 3.519531 2.699219 0.898438 9 0.898438 Z M 4.949219 8.101562 C 5.695312 8.101562 6.300781 7.496094 6.300781 6.75 C 6.300781 6.003906 5.695312 5.398438 4.949219 5.398438 C 4.203125 5.398438 3.601562 6.003906 3.601562 6.75 C 3.601562 7.496094 4.203125 8.101562 4.949219 8.101562 Z M 9 8.101562 C 9.746094 8.101562 10.351562 7.496094 10.351562 6.75 C 10.351562 6.003906 9.746094 5.398438 9 5.398438 C 8.253906 5.398438 7.648438 6.003906 7.648438 6.75 C 7.648438 7.496094 8.253906 8.101562 9 8.101562 Z M 13.050781 8.101562 C 13.796875 8.101562 14.398438 7.496094 14.398438 6.75 C 14.398438 6.003906 13.796875 5.398438 13.050781 5.398438 C 12.304688 5.398438 11.699219 6.003906 11.699219 6.75 C 11.699219 7.496094 12.304688 8.101562 13.050781 8.101562 Z M 5.398438 13.050781 C 6.148438 13.050781 6.75 13.652344 6.75 14.398438 C 6.75 15.148438 6.148438 15.75 5.398438 15.75 C 4.652344 15.75 4.050781 15.148438 4.050781 14.398438 C 4.050781 13.652344 4.652344 13.050781 5.398438 13.050781 Z M 2.699219 14.851562 C 3.195312 14.851562 3.601562 15.253906 3.601562 15.75 C 3.601562 16.246094 3.195312 16.648438 2.699219 16.648438 C 2.203125 16.648438 1.800781 16.246094 1.800781 15.75 C 1.800781 15.253906 2.203125 14.851562 2.699219 14.851562 Z M 2.699219 14.851562 "/>
  </g>
</svg>