<?xml version="1.0" encoding="utf-8"?>
<!-- Generator: Adobe Illustrator 21.0.2, SVG Export Plug-In . SVG Version: 6.00 Build 0)  -->
<svg version="1.1" id="Layer_1" xmlns="http://www.w3.org/2000/svg" xmlns:xlink="http://www.w3.org/1999/xlink" x="0px" y="0px"
	 viewBox="0 0 24 24" style="enable-background:new 0 0 24 24;" xml:space="preserve">
<g id="surface1">
	<path d="M2.4,1.2h19.2c0.7,0,1.2,0.5,1.2,1.2v19.2l-21.6,0V2.4C1.2,1.7,1.7,1.2,2.4,1.2z M7.2,2.4L4.8,6H6l2.4-3.6H7.2z M12,2.4
		h-1.2L8.4,6h1.2L12,2.4z M15.6,2.4h-1.2L12,6h1.2L15.6,2.4z M19.2,2.4H18L15.6,6h1.2L19.2,2.4z M20.4,19.2v-12H3.6v12H20.4z
		 M9.6,8.4l7.2,4.8L9.6,18V8.4z"/>
</g>
</svg>
