<?xml version="1.0" encoding="UTF-8" standalone="yes"?>
<svg xmlns="http://www.w3.org/2000/svg" xmlns:xlink="http://www.w3.org/1999/xlink" width="24px" height="24px" viewBox="0 0 18 18" version="1.1">
  <g id="surface1">
    <path style=" stroke:none;fill-rule:nonzero;fill:rgb(0%,0%,0%);fill-opacity:1;" d="M 9.898438 5.398438 L 9.160156 5.398438 C 8.164062 5.398438 7.199219 6.480469 7.199219 7.34375 L 7.199219 9 L 4.5 11.699219 L 4.5 9 L 2.699219 9 C 1.710938 9 0.898438 8.191406 0.898438 7.199219 L 0.898438 2.699219 C 0.898438 1.710938 1.710938 0.898438 2.699219 0.898438 L 8.101562 0.898438 C 9.089844 0.898438 9.898438 1.710938 9.898438 2.699219 Z M 9.898438 6.300781 L 15.300781 6.300781 C 16.289062 6.300781 17.101562 7.109375 17.101562 8.101562 L 17.101562 12.601562 C 17.101562 13.589844 16.289062 14.398438 15.300781 14.398438 L 13.5 14.398438 L 13.5 17.101562 L 10.800781 14.398438 L 9.898438 14.398438 C 8.910156 14.398438 8.101562 13.589844 8.101562 12.601562 L 8.101562 8.101562 C 8.101562 7.109375 8.910156 6.300781 9.898438 6.300781 Z M 9.898438 6.300781 "/>
  </g>
</svg>