<?xml version="1.0" encoding="utf-8"?>
<!-- Generator: Adobe Illustrator 21.0.2, SVG Export Plug-In . SVG Version: 6.00 Build 0)  -->
<svg version="1.1" id="Layer_1" xmlns="http://www.w3.org/2000/svg" xmlns:xlink="http://www.w3.org/1999/xlink" x="0px" y="0px"
	 viewBox="0 0 24 24" style="enable-background:new 0 0 24 24;" xml:space="preserve">
<g id="surface1">
	<path d="M8.4,3.7l13.2-2.4c0.7-0.1,1.2,0.5,1.2,1.2v14.9c0,2.3-1.9,4.2-4.2,4.2c-2.3,0-4.2-1.9-4.2-4.2c0-2.3,1.9-4.2,4.2-4.2
		c0.7,0,1.2,0.2,1.8,0.4V6.1L9.6,8.5v10.7c-0.3,2-2.1,3.6-4.2,3.6c-2.3,0-4.2-1.9-4.2-4.2c0-2.3,1.9-4.2,4.2-4.2
		c0.6,0,1.2,0.2,1.8,0.4V4.9C7.2,4.2,7.7,3.8,8.4,3.7z"/>
</g>
</svg>
