<?xml version="1.0" encoding="utf-8"?>
<!-- Generator: Adobe Illustrator 21.0.2, SVG Export Plug-In . SVG Version: 6.00 Build 0)  -->
<svg version="1.1" id="Layer_1" xmlns="http://www.w3.org/2000/svg" xmlns:xlink="http://www.w3.org/1999/xlink" x="0px" y="0px"
	 viewBox="0 0 24 24" style="enable-background:new 0 0 24 24;" xml:space="preserve">
<g id="surface1">
	<path d="M13.2,7.2h-1c-1.3,0-2.6,1.4-2.6,2.6V12L6,15.6V12H3.6c-1.3,0-2.4-1.1-2.4-2.4v-6c0-1.3,1.1-2.4,2.4-2.4h7.2
		c1.3,0,2.4,1.1,2.4,2.4V7.2z M13.2,8.4h7.2c1.3,0,2.4,1.1,2.4,2.4v6c0,1.3-1.1,2.4-2.4,2.4H18v3.6l-3.6-3.6h-1.2
		c-1.3,0-2.4-1.1-2.4-2.4v-6C10.8,9.5,11.9,8.4,13.2,8.4z"/>
</g>
</svg>
