<?xml version="1.0" encoding="UTF-8" standalone="yes"?>
<svg xmlns="http://www.w3.org/2000/svg" xmlns:xlink="http://www.w3.org/1999/xlink" width="24px" height="24px" viewBox="0 0 18 18" version="1.1">
  <g id="surface1">
    <path style=" stroke:none;fill-rule:nonzero;fill:rgb(0%,0%,0%);fill-opacity:1;" d="M 14.398438 3.601562 L 16.164062 3.601562 C 16.675781 3.601562 17.101562 4.023438 17.101562 4.535156 L 17.101562 16.164062 C 17.101562 16.675781 16.675781 17.101562 16.164062 17.101562 L 4.535156 17.101562 C 4.023438 17.101562 3.601562 16.675781 3.601562 16.164062 L 3.601562 14.398438 L 1.835938 14.398438 C 1.324219 14.398438 0.898438 13.976562 0.898438 13.464844 L 0.898438 1.835938 C 0.898438 1.324219 1.324219 0.898438 1.835938 0.898438 L 13.464844 0.898438 C 13.976562 0.898438 14.398438 1.324219 14.398438 1.835938 Z M 2.699219 12.601562 L 12.601562 12.601562 L 12.601562 2.699219 L 2.699219 2.699219 Z M 7.199219 4.949219 C 7.199219 4.203125 6.597656 3.601562 5.851562 3.601562 C 5.101562 3.601562 4.5 4.203125 4.5 4.949219 C 4.5 5.695312 5.101562 6.300781 5.851562 6.300781 C 6.597656 6.300781 7.199219 5.695312 7.199219 4.949219 Z M 9 9 C 9 9 9.898438 4.5 11.699219 4.5 L 11.699219 11.699219 L 3.601562 11.699219 L 3.601562 6.300781 C 5.398438 6.300781 5.398438 9 5.398438 9 C 5.398438 9 5.695312 7.199219 7.199219 7.199219 C 8.703125 7.199219 9 9 9 9 Z M 15.300781 15.300781 L 15.300781 5.398438 L 14.398438 5.398438 L 14.398438 13.464844 C 14.398438 13.976562 13.976562 14.398438 13.464844 14.398438 L 5.398438 14.398438 L 5.398438 15.300781 Z M 15.300781 15.300781 "/>
  </g>
</svg>