<?xml version="1.0" encoding="utf-8"?>
<!-- Generator: Adobe Illustrator 21.0.2, SVG Export Plug-In . SVG Version: 6.00 Build 0)  -->
<svg version="1.1" id="Layer_1" xmlns="http://www.w3.org/2000/svg" xmlns:xlink="http://www.w3.org/1999/xlink" x="0px" y="0px"
	 viewBox="0 0 24 24" style="enable-background:new 0 0 24 24;" xml:space="preserve">
<g id="surface1">
	<path d="M12,1.2c8.4,0,10.8,3.5,10.8,7.8s-2.4,7.8-10.8,7.8S1.2,13.3,1.2,9S3.6,1.2,12,1.2z M6.6,10.8c1,0,1.8-0.8,1.8-1.8
		S7.6,7.2,6.6,7.2C5.6,7.2,4.8,8,4.8,9S5.6,10.8,6.6,10.8z M12,10.8c1,0,1.8-0.8,1.8-1.8S13,7.2,12,7.2S10.2,8,10.2,9
		S11,10.8,12,10.8z M17.4,10.8c1,0,1.8-0.8,1.8-1.8s-0.8-1.8-1.8-1.8S15.6,8,15.6,9S16.4,10.8,17.4,10.8z M7.2,17.4
		c1,0,1.8,0.8,1.8,1.8c0,1-0.8,1.8-1.8,1.8c-1,0-1.8-0.8-1.8-1.8C5.4,18.2,6.2,17.4,7.2,17.4z M3.6,19.8c0.7,0,1.2,0.5,1.2,1.2
		c0,0.7-0.5,1.2-1.2,1.2c-0.7,0-1.2-0.5-1.2-1.2C2.4,20.3,2.9,19.8,3.6,19.8z"/>
</g>
</svg>
