<?xml version="1.0" encoding="utf-8"?>
<!-- Generator: Adobe Illustrator 21.0.2, SVG Export Plug-In . SVG Version: 6.00 Build 0)  -->
<svg version="1.1" id="Layer_1" xmlns="http://www.w3.org/2000/svg" xmlns:xlink="http://www.w3.org/1999/xlink" x="0px" y="0px"
	 viewBox="0 0 24 24" style="enable-background:new 0 0 24 24;" xml:space="preserve">
<g id="surface1">
	<path d="M11,15.3c0-1-0.3-1.9-0.9-2.7c-0.9-1.1-2.6-1.2-3.6-1c-0.4-2.3,1.6-5.3,4.1-6.5l-2-2.7c-3.8,1.8-7.6,6-7,11.3
		c0.4,3.3,2.3,5.6,5.1,5.6c1.2,0,2.2-0.3,3-1.1C10.6,17.4,11,16.5,11,15.3z M22.3,15.3c0-1-0.3-1.9-0.9-2.7c-0.9-1.1-2.6-1.2-3.6-1
		c-0.4-2.3,1.6-5.3,4.1-6.5l-2-2.7c-3.8,1.8-7.6,6-7,11.3c0.4,3.3,2.3,5.6,5.1,5.6c1.2,0,2.2-0.3,3-1.1
		C21.9,17.4,22.3,16.5,22.3,15.3z"/>
</g>
</svg>
