<?xml version="1.0" encoding="utf-8"?>
<!-- Generator: Adobe Illustrator 21.0.2, SVG Export Plug-In . SVG Version: 6.00 Build 0)  -->
<svg version="1.1" id="Layer_1" xmlns="http://www.w3.org/2000/svg" xmlns:xlink="http://www.w3.org/1999/xlink" x="0px" y="0px"
	 viewBox="0 0 24 24" style="enable-background:new 0 0 24 24;" xml:space="preserve">
<g id="surface1">
	<path d="M19.2,4.8h2.4c0.7,0,1.2,0.6,1.2,1.2v15.5c0,0.7-0.6,1.2-1.2,1.2H6c-0.7,0-1.2-0.6-1.2-1.2v-2.4H2.4
		c-0.7,0-1.3-0.6-1.3-1.2V2.4c0-0.7,0.6-1.3,1.3-1.3H18c0.7,0,1.2,0.6,1.2,1.3V4.8z M3.6,16.8h13.2V3.6H3.6V16.8z M9.6,6.6
		c0-1-0.8-1.8-1.8-1.8C6.8,4.8,6,5.6,6,6.6c0,1,0.8,1.8,1.8,1.8C8.8,8.4,9.6,7.6,9.6,6.6z M12,12c0,0,1.2-6,3.6-6v9.6H4.8V8.4
		c2.4,0,2.4,3.6,2.4,3.6s0.4-2.4,2.4-2.4S12,12,12,12z M20.4,20.4V7.2h-1.2V18c0,0.7-0.6,1.2-1.2,1.2H7.2v1.2H20.4z"/>
</g>
</svg>
