<?xml version="1.0" encoding="UTF-8" standalone="yes"?>
<svg xmlns="http://www.w3.org/2000/svg" xmlns:xlink="http://www.w3.org/1999/xlink" width="24px" height="24px" viewBox="0 0 18 18" version="1.1">
  <g id="surface1">
    <path style=" stroke:none;fill-rule:nonzero;fill:rgb(0%,0%,0%);fill-opacity:1;" d="M 2.023438 0.898438 L 15.976562 0.898438 C 16.597656 0.898438 17.101562 1.402344 17.101562 2.023438 L 17.101562 15.976562 C 17.101562 16.597656 16.597656 17.101562 15.976562 17.101562 L 2.023438 17.101562 C 1.402344 17.101562 0.898438 16.597656 0.898438 15.976562 L 0.898438 2.023438 C 0.898438 1.402344 1.402344 0.898438 2.023438 0.898438 Z M 15.300781 15.300781 L 15.300781 2.699219 L 2.699219 2.699219 L 2.699219 15.300781 Z M 9 5.398438 C 9 4.410156 8.191406 3.601562 7.199219 3.601562 C 6.210938 3.601562 5.398438 4.410156 5.398438 5.398438 C 5.398438 6.390625 6.210938 7.199219 7.199219 7.199219 C 8.191406 7.199219 9 6.390625 9 5.398438 Z M 11.699219 9.898438 C 11.699219 9.898438 11.699219 4.5 14.398438 4.5 L 14.398438 13.5 C 14.398438 13.996094 13.996094 14.398438 13.5 14.398438 L 4.5 14.398438 C 4.003906 14.398438 3.601562 13.996094 3.601562 13.5 L 3.601562 7.199219 C 5.398438 7.199219 6.300781 10.800781 6.300781 10.800781 C 6.300781 10.800781 7.199219 8.101562 9 8.101562 C 10.800781 8.101562 11.699219 9.898438 11.699219 9.898438 Z M 11.699219 9.898438 "/>
  </g>
</svg>