<?xml version="1.0" encoding="utf-8"?>
<!-- Generator: Adobe Illustrator 21.0.2, SVG Export Plug-In . SVG Version: 6.00 Build 0)  -->
<svg version="1.1" id="Layer_1" xmlns="http://www.w3.org/2000/svg" xmlns:xlink="http://www.w3.org/1999/xlink" x="0px" y="0px"
	 viewBox="0 0 24 24" style="enable-background:new 0 0 24 24;" xml:space="preserve">
<g id="surface1">
	<path d="M2.4,2.4h8.4v8.4H2.4V2.4z M13.2,2.4v8.4h8.4V2.4H13.2z M6.6,5.4l1.8-1.8H4.8L6.6,5.4z M14.4,9.6v-6h6v6H14.4z M5.4,6.6
		L3.6,4.8v3.6L5.4,6.6z M9.6,4.8L7.8,6.6l1.8,1.8V4.8z M6.6,7.8L4.8,9.6h3.6L6.6,7.8z M10.8,21.6v-8.4H2.4v8.4H10.8z M21.6,21.6
		h-8.4v-8.4h8.4V21.6z M9.6,14.4v6h-6v-6H9.6z M17.4,16.2l1.8-1.8h-3.6L17.4,16.2z M14.4,19.2l1.8-1.8l-1.8-1.8V19.2z M18.6,17.4
		l1.8,1.8v-3.6L18.6,17.4z M17.4,18.6l-1.8,1.8h3.6L17.4,18.6z"/>
</g>
</svg>
