<?xml version="1.0" encoding="UTF-8" standalone="yes"?>
<svg xmlns="http://www.w3.org/2000/svg" xmlns:xlink="http://www.w3.org/1999/xlink" width="24px" height="24px" viewBox="0 0 18 18" version="1.1">
  <g id="surface1">
    <path style=" stroke:none;fill-rule:nonzero;fill:rgb(0%,0%,0%);fill-opacity:1;" d="M 7.6875 11.464844 C 7.6875 10.683594 7.46875 10.015625 7.039062 9.46875 C 6.382812 8.640625 5.113281 8.539062 4.375 8.703125 C 4.066406 6.964844 5.542969 4.753906 7.453125 3.796875 L 5.984375 1.746094 C 3.105469 3.113281 0.277344 6.265625 0.765625 10.234375 C 1.070312 12.742188 2.519531 14.398438 4.570312 14.398438 C 5.472656 14.398438 6.21875 14.140625 6.804688 13.609375 C 7.398438 13.078125 7.6875 12.367188 7.6875 11.464844 Z M 16.171875 11.464844 C 16.171875 10.683594 15.957031 10.015625 15.523438 9.46875 C 14.867188 8.640625 13.597656 8.539062 12.859375 8.703125 C 12.554688 6.964844 14.03125 4.753906 15.9375 3.796875 L 14.472656 1.746094 C 11.59375 3.113281 8.765625 6.265625 9.253906 10.234375 C 9.558594 12.742188 11.007812 14.398438 13.058594 14.398438 C 13.960938 14.398438 14.707031 14.140625 15.289062 13.609375 C 15.886719 13.078125 16.171875 12.367188 16.171875 11.464844 Z M 16.171875 11.464844 "/>
  </g>
</svg>