<?xml version="1.0" encoding="utf-8"?>
<!-- Generator: Adobe Illustrator 21.0.2, SVG Export Plug-In . SVG Version: 6.00 Build 0)  -->
<svg version="1.1" id="Layer_1" xmlns="http://www.w3.org/2000/svg" xmlns:xlink="http://www.w3.org/1999/xlink" x="0px" y="0px"
	 viewBox="0 0 24 24" style="enable-background:new 0 0 24 24;" xml:space="preserve">
<g id="surface1">
	<path d="M8.1,12h6.5c0.1,0.3,0.1,0.7,0.1,1.1c0,3.9-2.6,6.7-6.6,6.7c-3.8,0-6.9-3.1-6.9-6.9c0-3.8,3.1-6.9,6.9-6.9
		c1.8,0,3.4,0.7,4.6,1.8l-1.9,1.8c-0.5-0.5-1.4-1.1-2.7-1.1c-2.4,0-4.3,1.9-4.3,4.3c0,2.4,1.9,4.3,4.3,4.3c2.7,0,3.7-1.9,3.9-3H8.1
		V12z M22.8,12v2h-2v2h-2v-2h-2v-2h2v-2h2v2H22.8z"/>
</g>
</svg>
