<?xml version="1.0" encoding="UTF-8" standalone="yes"?>
<svg xmlns="http://www.w3.org/2000/svg" xmlns:xlink="http://www.w3.org/1999/xlink" width="24px" height="24px" viewBox="0 0 18 18" version="1.1">
  <g id="surface1">
    <path style=" stroke:none;fill-rule:nonzero;fill:rgb(0%,0%,0%);fill-opacity:1;" d="M 6.058594 9 L 10.917969 9 C 10.960938 9.261719 10.996094 9.511719 10.996094 9.855469 C 10.996094 12.796875 9.027344 14.894531 6.058594 14.894531 C 3.203125 14.894531 0.898438 12.582031 0.898438 9.738281 C 0.898438 6.886719 3.203125 4.582031 6.058594 4.582031 C 7.441406 4.582031 8.613281 5.09375 9.503906 5.929688 L 8.109375 7.28125 C 7.722656 6.910156 7.054688 6.480469 6.058594 6.480469 C 4.292969 6.480469 2.863281 7.9375 2.863281 9.738281 C 2.863281 11.527344 4.292969 12.988281 6.058594 12.988281 C 8.089844 12.988281 8.855469 11.527344 8.972656 10.765625 L 6.058594 10.765625 Z M 17.101562 9 L 17.101562 10.476562 L 15.625 10.476562 L 15.625 11.941406 L 14.15625 11.941406 L 14.15625 10.476562 L 12.679688 10.476562 L 12.679688 9 L 14.15625 9 L 14.15625 7.523438 L 15.625 7.523438 L 15.625 9 Z M 17.101562 9 "/>
  </g>
</svg>