<?xml version="1.0" encoding="UTF-8" standalone="yes"?>
<svg xmlns="http://www.w3.org/2000/svg" xmlns:xlink="http://www.w3.org/1999/xlink" width="24px" height="24px" viewBox="0 0 18 18" version="1.1">
  <g id="surface1">
    <path style=" stroke:none;fill-rule:nonzero;fill:rgb(0%,0%,0%);fill-opacity:1;" d="M 1.800781 0.898438 L 16.199219 0.898438 C 16.695312 0.898438 17.101562 1.304688 17.101562 1.800781 L 17.101562 16.199219 C 17.101562 16.695312 16.695312 17.101562 16.199219 17.101562 L 1.800781 17.101562 C 1.304688 17.101562 0.898438 16.695312 0.898438 16.199219 L 0.898438 1.800781 C 0.898438 1.304688 1.304688 0.898438 1.800781 0.898438 Z M 8.109375 8.089844 L 8.109375 2.691406 L 2.699219 2.691406 L 2.699219 8.089844 Z M 15.308594 8.089844 L 15.308594 2.691406 L 9.910156 2.691406 L 9.910156 8.089844 Z M 8.109375 15.300781 L 8.109375 9.898438 L 2.699219 9.898438 L 2.699219 15.300781 Z M 15.308594 15.300781 L 15.308594 9.898438 L 9.910156 9.898438 L 9.910156 15.300781 Z M 15.308594 15.300781 "/>
  </g>
</svg>