<?xml version="1.0" encoding="UTF-8" standalone="yes"?>
<svg xmlns="http://www.w3.org/2000/svg" xmlns:xlink="http://www.w3.org/1999/xlink" width="24px" height="24px" viewBox="0 0 18 18" version="1.1">
  <g id="surface1">
    <path style=" stroke:none;fill-rule:nonzero;fill:rgb(0%,0%,0%);fill-opacity:1;" d="M 7.226562 4.015625 C 6.964844 5.164062 7.722656 7.128906 9 7.128906 C 10.269531 7.128906 11.023438 5.164062 10.765625 4.015625 C 10.566406 3.132812 9.792969 2.546875 9 2.546875 C 8.199219 2.546875 7.433594 3.132812 7.226562 4.015625 Z M 3.511719 4.824219 C 3.285156 5.796875 3.933594 7.460938 5.011719 7.460938 C 6.09375 7.460938 6.742188 5.796875 6.515625 4.824219 C 6.34375 4.078125 5.6875 3.574219 5.011719 3.574219 C 4.339844 3.574219 3.679688 4.078125 3.511719 4.824219 Z M 11.484375 4.824219 C 11.257812 5.796875 11.90625 7.460938 12.976562 7.460938 C 14.058594 7.460938 14.707031 5.796875 14.480469 4.824219 C 14.308594 4.078125 13.652344 3.574219 12.976562 3.574219 C 12.3125 3.574219 11.65625 4.078125 11.484375 4.824219 Z M 10.953125 15.109375 L 12.078125 11.242188 C 12.78125 9 11.4375 7.621094 9 7.621094 C 6.550781 7.621094 5.210938 9 5.902344 11.242188 L 7.039062 15.109375 C 7.246094 15.757812 8.101562 16.199219 9 16.199219 C 9.882812 16.199219 10.746094 15.757812 10.953125 15.109375 Z M 5.464844 8.242188 C 5.023438 8.847656 4.597656 9.890625 5.085938 11.476562 L 6.09375 14.886719 C 5.785156 15.066406 5.398438 15.164062 5.011719 15.164062 C 4.246094 15.164062 3.527344 14.796875 3.347656 14.238281 L 2.386719 10.953125 C 1.800781 9.054688 2.933594 7.894531 5.011719 7.894531 C 5.257812 7.894531 5.5 7.910156 5.722656 7.945312 C 5.632812 8.035156 5.542969 8.144531 5.464844 8.242188 Z M 12.976562 7.894531 C 15.058594 7.894531 16.199219 9.054688 15.605469 10.953125 L 14.644531 14.238281 C 14.464844 14.796875 13.742188 15.164062 12.976562 15.164062 C 12.589844 15.164062 12.203125 15.066406 11.898438 14.886719 L 12.898438 11.492188 C 13.390625 9.890625 12.96875 8.847656 12.519531 8.242188 C 12.445312 8.144531 12.355469 8.035156 12.265625 7.945312 C 12.492188 7.910156 12.726562 7.894531 12.976562 7.894531 Z M 12.976562 7.894531 "/>
  </g>
</svg>