<?xml version="1.0" encoding="utf-8"?>
<!-- Generator: Adobe Illustrator 21.0.2, SVG Export Plug-In . SVG Version: 6.00 Build 0)  -->
<svg version="1.1" id="Layer_1" xmlns="http://www.w3.org/2000/svg" xmlns:xlink="http://www.w3.org/1999/xlink" x="0px" y="0px"
	 viewBox="0 0 24 24" style="enable-background:new 0 0 24 24;" xml:space="preserve">
<g id="surface1">
	<path d="M9.6,5.4C9.3,6.9,10.3,9.5,12,9.5c1.7,0,2.7-2.6,2.4-4.2c-0.3-1.2-1.3-2-2.4-2C10.9,3.4,9.9,4.2,9.6,5.4z M4.7,6.4
		c-0.3,1.3,0.6,3.5,2,3.5c1.4,0,2.3-2.2,2-3.5c-0.2-1-1.1-1.7-2-1.7C5.8,4.8,4.9,5.4,4.7,6.4z M15.3,6.4c-0.3,1.3,0.6,3.5,2,3.5
		c1.4,0,2.3-2.2,2-3.5c-0.2-1-1.1-1.7-2-1.7C16.4,4.8,15.5,5.4,15.3,6.4z M14.6,20.1l1.5-5.2c0.9-3-0.9-4.8-4.1-4.8
		c-3.3,0-5.1,1.8-4.1,4.8l1.5,5.2c0.3,0.9,1.4,1.5,2.6,1.5C13.2,21.6,14.3,21,14.6,20.1z M7.3,11c-0.6,0.8-1.2,2.2-0.5,4.3l1.3,4.5
		c-0.4,0.2-0.9,0.4-1.4,0.4c-1,0-2-0.5-2.2-1.2l-1.3-4.4c-0.8-2.5,0.7-4.1,3.5-4.1c0.3,0,0.7,0,0.9,0.1C7.5,10.7,7.4,10.9,7.3,11z
		 M17.3,10.5c2.8,0,4.3,1.5,3.5,4.1L19.5,19c-0.2,0.7-1.2,1.2-2.2,1.2c-0.5,0-1-0.1-1.4-0.4l1.3-4.5c0.7-2.1,0.1-3.5-0.5-4.3
		c-0.1-0.1-0.2-0.3-0.3-0.4C16.7,10.5,17,10.5,17.3,10.5z"/>
</g>
</svg>
