<?xml version="1.0" encoding="UTF-8" standalone="yes"?>
<svg xmlns="http://www.w3.org/2000/svg" xmlns:xlink="http://www.w3.org/1999/xlink" width="24px" height="24px" viewBox="0 0 18 18" version="1.1">
  <g id="surface1">
    <path style=" stroke:none;fill-rule:nonzero;fill:rgb(0%,0%,0%);fill-opacity:1;" d="M 15.480469 2.96875 L 15.625 3.121094 C 15.976562 3.472656 15.976562 4.039062 15.625 4.390625 L 4.09375 15.929688 C 3.742188 16.28125 3.167969 16.28125 2.824219 15.929688 L 2.671875 15.777344 C 2.320312 15.425781 2.320312 14.859375 2.671875 14.507812 L 4.105469 13.066406 C 2.691406 12.167969 1.621094 10.996094 0.898438 9.53125 C 1.628906 8.046875 2.726562 6.847656 4.175781 5.941406 C 5.625 5.03125 7.234375 4.582031 9 4.582031 C 10.078125 4.582031 11.097656 4.769531 12.058594 5.121094 L 14.203125 2.96875 C 14.554688 2.617188 15.128906 2.617188 15.480469 2.96875 Z M 9.097656 6.578125 C 8.890625 6.804688 8.792969 7.066406 8.792969 7.371094 C 8.792969 7.648438 8.902344 7.894531 9.070312 8.101562 L 10.691406 6.488281 C 10.574219 6.382812 10.441406 6.300781 10.285156 6.253906 C 10.1875 6.246094 10.035156 6.226562 9.847656 6.21875 C 9.550781 6.246094 9.304688 6.363281 9.097656 6.578125 Z M 2.160156 9.53125 C 2.78125 10.636719 3.699219 11.554688 4.90625 12.277344 L 6.058594 11.125 C 5.597656 10.503906 5.363281 9.800781 5.363281 9 C 5.363281 8.046875 5.6875 7.21875 6.34375 6.515625 C 5.410156 6.757812 4.582031 7.144531 3.859375 7.648438 C 3.140625 8.171875 2.574219 8.792969 2.160156 9.53125 Z M 14.058594 7.613281 L 14.921875 6.75 C 15.839844 7.523438 16.570312 8.449219 17.101562 9.53125 C 16.371094 11.015625 15.273438 12.214844 13.824219 13.121094 C 12.375 14.03125 10.765625 14.480469 9 14.480469 C 8.433594 14.480469 7.882812 14.417969 7.351562 14.320312 L 8.316406 13.355469 C 8.539062 13.375 8.765625 13.402344 9 13.402344 C 10.46875 13.402344 11.816406 13.039062 13.050781 12.3125 C 14.28125 11.582031 15.210938 10.65625 15.839844 9.53125 C 15.425781 8.792969 14.859375 8.171875 14.140625 7.648438 C 14.113281 7.640625 14.085938 7.621094 14.058594 7.613281 Z M 9.035156 12.636719 L 12.636719 9.035156 C 12.628906 10.027344 12.265625 10.871094 11.574219 11.566406 C 10.871094 12.265625 10.027344 12.628906 9.035156 12.636719 Z M 9.035156 12.636719 "/>
  </g>
</svg>