<?xml version="1.0" encoding="utf-8"?>
<!-- Generator: Adobe Illustrator 21.0.2, SVG Export Plug-In . SVG Version: 6.00 Build 0)  -->
<svg version="1.1" id="Layer_1" xmlns="http://www.w3.org/2000/svg" xmlns:xlink="http://www.w3.org/1999/xlink" x="0px" y="0px"
	 viewBox="0 0 24 24" style="enable-background:new 0 0 24 24;" xml:space="preserve">
<g id="surface1">
	<path d="M20.6,4l0.2,0.2c0.5,0.5,0.5,1.2,0,1.7L5.5,21.2c-0.5,0.5-1.2,0.5-1.7,0L3.6,21c-0.5-0.5-0.5-1.2,0-1.7l1.9-1.9
		c-1.9-1.2-3.3-2.8-4.3-4.7c1-2,2.4-3.6,4.4-4.8C7.5,6.7,9.6,6.1,12,6.1c1.4,0,2.8,0.2,4.1,0.7L18.9,4C19.4,3.5,20.2,3.5,20.6,4z
		 M12.1,8.8c-0.3,0.3-0.4,0.7-0.4,1.1c0,0.4,0.1,0.7,0.4,1l2.2-2.2c-0.2-0.1-0.3-0.2-0.5-0.3c-0.1,0-0.3,0-0.6,0
		C12.7,8.3,12.4,8.5,12.1,8.8z M2.9,12.7c0.8,1.5,2.1,2.7,3.7,3.7l1.5-1.5C7.5,14,7.2,13.1,7.2,12c0-1.3,0.4-2.4,1.3-3.3
		C7.2,9,6.1,9.5,5.1,10.2C4.2,10.9,3.4,11.7,2.9,12.7z M18.7,10.2L19.9,9c1.2,1,2.2,2.3,2.9,3.7c-1,2-2.4,3.6-4.4,4.8
		c-1.9,1.2-4.1,1.8-6.4,1.8c-0.8,0-1.5-0.1-2.2-0.2l1.3-1.3c0.3,0,0.6,0.1,0.9,0.1c2,0,3.8-0.5,5.4-1.5c1.6-1,2.9-2.2,3.7-3.7
		c-0.6-1-1.3-1.8-2.3-2.5C18.8,10.2,18.8,10.2,18.7,10.2z M12,16.8l4.8-4.8c0,1.3-0.5,2.4-1.4,3.4C14.5,16.4,13.4,16.8,12,16.8z"/>
</g>
</svg>
