<?xml version="1.0" encoding="utf-8"?>
<!-- Generator: Adobe Illustrator 21.0.2, SVG Export Plug-In . SVG Version: 6.00 Build 0)  -->
<svg version="1.1" id="Layer_1" xmlns="http://www.w3.org/2000/svg" xmlns:xlink="http://www.w3.org/1999/xlink" x="0px" y="0px"
	 viewBox="0 0 24 24" style="enable-background:new 0 0 24 24;" xml:space="preserve">
<g id="surface1">
	<path d="M21.6,21.6H2.4V2.4h19.2V21.6z M9.7,9C9.8,9,9.9,8.9,10.1,8.8c0.1-0.1,0.2-0.3,0.3-0.4c0.1-0.2,0.2-0.3,0.2-0.4
		s0.1-0.3,0.1-0.4l0.1-0.3c0,0,0-0.1,0-0.1c0.1-0.4,0-0.7,0-1.1c-0.1-0.3-0.3-0.6-0.6-0.9c-0.3-0.2-0.6-0.3-1-0.3
		c-0.2,0-0.5,0-0.7,0.1C8.2,5,8.1,5.1,8,5.3C7.8,5.4,7.7,5.6,7.6,5.8C7.5,6,7.5,6.2,7.5,6.4c0,0.2,0,0.4,0,0.7l0,0.1
		c0,0.1,0,0.2,0.1,0.3c0,0.1,0.1,0.2,0.1,0.4C7.8,8,7.8,8.2,7.9,8.3C8,8.5,8.1,8.6,8.2,8.7C8.3,8.9,8.5,9,8.6,9
		C8.8,9.1,9,9.1,9.1,9.1C9.3,9.1,9.5,9.1,9.7,9z M19.2,6V4.8h-6V6H19.2z M19.2,8.4V7.2h-6v1.2H19.2z M9.1,10.6L7.5,9.5
		C7,9.5,6.5,9.7,6.1,9.9c-0.4,0.3-0.7,0.6-1,1c-0.2,0.4-0.3,0.8-0.3,1.3v1.5L5,13.8c0.2,0.1,0.4,0.1,0.7,0.2c0.3,0.1,0.6,0.1,1,0.2
		c0.3,0.1,0.7,0.1,1.2,0.2c0.4,0,0.9,0.1,1.3,0.1c0.4,0,0.8,0,1.3-0.1c0.5,0,0.8-0.1,1.2-0.2c0.3-0.1,0.6-0.1,1-0.2
		c0.3-0.1,0.5-0.1,0.6-0.2c0.1,0,0.2-0.1,0.3-0.1v-1.5c0-0.4-0.1-0.9-0.4-1.3c-0.2-0.4-0.6-0.8-1-1c-0.4-0.3-0.9-0.4-1.3-0.4
		L9.1,10.6z M19.2,10.8V9.6h-3.6v1.2H19.2z M19.2,13.2V12h-3.6v1.2H19.2z M19.2,16.8v-1.2H4.8v1.2H19.2z M19.2,19.2V18H4.8v1.2H19.2
		z"/>
</g>
</svg>
