<?xml version="1.0" encoding="UTF-8" standalone="yes"?>
<svg xmlns="http://www.w3.org/2000/svg" xmlns:xlink="http://www.w3.org/1999/xlink" width="24px" height="24px" viewBox="0 0 18 18" version="1.1">
  <g id="surface1">
    <path style=" stroke:none;fill-rule:nonzero;fill:rgb(0%,0%,0%);fill-opacity:1;" d="M 16.199219 16.199219 L 1.800781 16.199219 L 1.800781 1.800781 L 16.199219 1.800781 Z M 7.246094 6.777344 C 7.363281 6.714844 7.460938 6.640625 7.542969 6.5625 C 7.621094 6.472656 7.695312 6.371094 7.757812 6.253906 C 7.820312 6.128906 7.875 6.019531 7.910156 5.921875 C 7.945312 5.824219 7.972656 5.722656 8 5.617188 L 8.054688 5.398438 C 8.054688 5.363281 8.0625 5.335938 8.0625 5.320312 C 8.109375 5.03125 8.089844 4.769531 8.027344 4.507812 C 7.957031 4.257812 7.820312 4.039062 7.613281 3.859375 C 7.40625 3.691406 7.15625 3.601562 6.839844 3.601562 C 6.660156 3.601562 6.488281 3.636719 6.335938 3.699219 C 6.183594 3.769531 6.058594 3.859375 5.96875 3.96875 C 5.867188 4.085938 5.785156 4.210938 5.722656 4.363281 C 5.660156 4.507812 5.625 4.660156 5.617188 4.824219 C 5.605469 4.984375 5.617188 5.148438 5.625 5.320312 L 5.644531 5.398438 C 5.652344 5.453125 5.671875 5.535156 5.695312 5.625 C 5.722656 5.714844 5.75 5.8125 5.785156 5.921875 C 5.824219 6.03125 5.878906 6.148438 5.941406 6.253906 C 6.011719 6.363281 6.085938 6.460938 6.164062 6.550781 C 6.246094 6.640625 6.34375 6.722656 6.472656 6.777344 C 6.589844 6.832031 6.722656 6.859375 6.859375 6.859375 C 6.992188 6.859375 7.128906 6.832031 7.246094 6.777344 Z M 14.398438 4.5 L 14.398438 3.601562 L 9.898438 3.601562 L 9.898438 4.5 Z M 14.398438 6.300781 L 14.398438 5.398438 L 9.898438 5.398438 L 9.898438 6.300781 Z M 6.859375 7.945312 L 5.617188 7.15625 C 5.246094 7.15625 4.90625 7.253906 4.589844 7.441406 C 4.273438 7.640625 4.03125 7.894531 3.859375 8.207031 C 3.691406 8.515625 3.601562 8.839844 3.601562 9.171875 L 3.601562 10.296875 L 3.78125 10.339844 C 3.898438 10.378906 4.058594 10.421875 4.273438 10.46875 C 4.492188 10.519531 4.734375 10.574219 4.996094 10.621094 C 5.257812 10.675781 5.554688 10.710938 5.894531 10.746094 C 6.226562 10.78125 6.550781 10.800781 6.859375 10.800781 C 7.164062 10.800781 7.480469 10.78125 7.820312 10.746094 C 8.164062 10.710938 8.449219 10.664062 8.703125 10.621094 C 8.945312 10.574219 9.1875 10.53125 9.441406 10.46875 C 9.683594 10.414062 9.847656 10.367188 9.925781 10.351562 C 10.007812 10.324219 10.070312 10.304688 10.117188 10.296875 L 10.117188 9.171875 C 10.117188 8.847656 10.027344 8.523438 9.835938 8.207031 C 9.648438 7.894531 9.394531 7.632812 9.082031 7.433594 C 8.765625 7.234375 8.433594 7.136719 8.082031 7.136719 Z M 14.398438 8.101562 L 14.398438 7.199219 L 11.699219 7.199219 L 11.699219 8.101562 Z M 14.398438 9.898438 L 14.398438 9 L 11.699219 9 L 11.699219 9.898438 Z M 14.398438 12.601562 L 14.398438 11.699219 L 3.601562 11.699219 L 3.601562 12.601562 Z M 14.398438 14.398438 L 14.398438 13.5 L 3.601562 13.5 L 3.601562 14.398438 Z M 14.398438 14.398438 "/>
  </g>
</svg>