<?xml version="1.0" encoding="utf-8"?>
<!-- Generator: Adobe Illustrator 21.0.2, SVG Export Plug-In . SVG Version: 6.00 Build 0)  -->
<svg version="1.1" id="Layer_1" xmlns="http://www.w3.org/2000/svg" xmlns:xlink="http://www.w3.org/1999/xlink" x="0px" y="0px"
	 viewBox="0 0 24 24" style="enable-background:new 0 0 24 24;" xml:space="preserve">
<g id="surface1">
	<path d="M21.6,19.2H2.4V4.8h19.2V19.2z M8.5,10.2c0.2-0.1,0.3-0.2,0.4-0.3C9,9.8,9.1,9.7,9.1,9.5c0.1-0.2,0.2-0.3,0.2-0.4
		c0-0.1,0.1-0.3,0.1-0.4l0.1-0.3c0,0,0-0.1,0-0.1c0.1-0.4,0-0.7,0-1.1C9.4,6.9,9.2,6.6,9,6.3C8.7,6.1,8.3,6,7.9,6
		C7.7,6,7.5,6,7.2,6.1C7,6.2,6.9,6.3,6.8,6.5C6.6,6.6,6.5,6.8,6.4,7C6.3,7.2,6.3,7.4,6.3,7.6c0,0.2,0,0.4,0,0.7l0,0.1
		c0,0.1,0,0.2,0.1,0.3c0,0.1,0.1,0.3,0.1,0.4c0,0.1,0.1,0.3,0.2,0.4C6.8,9.7,6.9,9.8,7,9.9c0.1,0.1,0.2,0.2,0.4,0.3
		c0.2,0.1,0.3,0.1,0.5,0.1C8.1,10.3,8.3,10.3,8.5,10.2z M20.4,10.8V6h-6v4.8H20.4z M7.9,11.8l-1.7-1.1c-0.5,0-0.9,0.1-1.4,0.4
		c-0.4,0.3-0.7,0.6-1,1c-0.2,0.4-0.3,0.8-0.3,1.3v1.5L3.8,15c0.2,0,0.4,0.1,0.7,0.2c0.3,0.1,0.6,0.1,1,0.2c0.3,0.1,0.7,0.1,1.2,0.2
		c0.4,0.1,0.9,0.1,1.3,0.1c0.4,0,0.8,0,1.3-0.1c0.5,0,0.8-0.1,1.2-0.2c0.3-0.1,0.6-0.1,1-0.2c0.3-0.1,0.5-0.1,0.7-0.2
		c0.1,0,0.2-0.1,0.2-0.1v-1.5c0-0.4-0.1-0.9-0.4-1.3c-0.3-0.4-0.6-0.8-1-1c-0.4-0.3-0.9-0.4-1.3-0.4L7.9,11.8z M20.4,13.2V12h-6v1.2
		H20.4z M20.4,15.6v-1.2h-6v1.2H20.4z M20.4,18v-1.2H3.6V18H20.4z"/>
</g>
</svg>
