<?xml version="1.0" encoding="UTF-8" standalone="yes"?>
<svg xmlns="http://www.w3.org/2000/svg" xmlns:xlink="http://www.w3.org/1999/xlink" width="24px" height="24px" viewBox="0 0 18 18" version="1.1">
  <g id="surface1">
    <path style=" stroke:none;fill-rule:nonzero;fill:rgb(0%,0%,0%);fill-opacity:1;" d="M 16.199219 14.398438 L 1.800781 14.398438 L 1.800781 3.601562 L 16.199219 3.601562 Z M 6.34375 7.675781 C 6.460938 7.613281 6.5625 7.542969 6.640625 7.460938 C 6.722656 7.371094 6.796875 7.273438 6.859375 7.15625 C 6.921875 7.027344 6.976562 6.921875 7.011719 6.820312 C 7.046875 6.722656 7.074219 6.625 7.101562 6.515625 L 7.15625 6.300781 C 7.15625 6.265625 7.164062 6.238281 7.164062 6.21875 C 7.210938 5.929688 7.191406 5.671875 7.128906 5.410156 C 7.054688 5.15625 6.921875 4.941406 6.714844 4.761719 C 6.507812 4.589844 6.253906 4.5 5.941406 4.5 C 5.761719 4.5 5.589844 4.535156 5.4375 4.597656 C 5.28125 4.671875 5.15625 4.761719 5.066406 4.867188 C 4.96875 4.984375 4.886719 5.113281 4.824219 5.265625 C 4.761719 5.410156 4.726562 5.5625 4.714844 5.722656 C 4.707031 5.886719 4.714844 6.046875 4.726562 6.21875 L 4.742188 6.300781 C 4.753906 6.355469 4.769531 6.433594 4.796875 6.523438 C 4.824219 6.613281 4.851562 6.714844 4.886719 6.820312 C 4.921875 6.929688 4.976562 7.046875 5.039062 7.15625 C 5.113281 7.261719 5.183594 7.363281 5.265625 7.453125 C 5.347656 7.542969 5.445312 7.621094 5.570312 7.675781 C 5.6875 7.730469 5.824219 7.757812 5.957031 7.757812 C 6.09375 7.757812 6.226562 7.730469 6.34375 7.675781 Z M 15.300781 8.101562 L 15.300781 4.5 L 10.800781 4.5 L 10.800781 8.101562 Z M 5.957031 8.847656 L 4.714844 8.054688 C 4.347656 8.054688 4.003906 8.152344 3.691406 8.34375 C 3.375 8.539062 3.132812 8.792969 2.960938 9.109375 C 2.789062 9.414062 2.699219 9.738281 2.699219 10.070312 L 2.699219 11.195312 L 2.878906 11.242188 C 2.996094 11.277344 3.160156 11.320312 3.375 11.367188 C 3.589844 11.421875 3.835938 11.476562 4.09375 11.519531 C 4.355469 11.574219 4.652344 11.609375 4.996094 11.644531 C 5.328125 11.683594 5.652344 11.699219 5.957031 11.699219 C 6.265625 11.699219 6.578125 11.683594 6.921875 11.644531 C 7.261719 11.609375 7.550781 11.566406 7.804688 11.519531 C 8.046875 11.476562 8.289062 11.429688 8.539062 11.367188 C 8.785156 11.3125 8.945312 11.269531 9.027344 11.25 C 9.109375 11.222656 9.171875 11.203125 9.214844 11.195312 L 9.214844 10.070312 C 9.214844 9.746094 9.125 9.421875 8.9375 9.109375 C 8.746094 8.792969 8.496094 8.53125 8.179688 8.335938 C 7.867188 8.136719 7.53125 8.035156 7.183594 8.035156 Z M 15.300781 9.898438 L 15.300781 9 L 10.800781 9 L 10.800781 9.898438 Z M 15.300781 11.699219 L 15.300781 10.800781 L 10.800781 10.800781 L 10.800781 11.699219 Z M 15.300781 13.5 L 15.300781 12.601562 L 2.699219 12.601562 L 2.699219 13.5 Z M 15.300781 13.5 "/>
  </g>
</svg>