<?xml version="1.0" encoding="UTF-8" standalone="yes"?>
<svg xmlns="http://www.w3.org/2000/svg" xmlns:xlink="http://www.w3.org/1999/xlink" width="24px" height="24px" viewBox="0 0 18 18" version="1.1">
  <g id="surface1">
    <path style=" stroke:none;fill-rule:nonzero;fill:rgb(0%,0%,0%);fill-opacity:1;" d="M 12.601562 5.28125 C 12.601562 3.304688 10.988281 1.683594 9 1.683594 C 7.011719 1.683594 5.398438 3.304688 5.398438 5.28125 C 5.398438 7.273438 7.011719 8.882812 9 8.882812 C 10.988281 8.882812 12.601562 7.273438 12.601562 5.28125 Z M 2.914062 9.59375 C 1.1875 10.585938 0.601562 12.789062 1.59375 14.507812 C 2.59375 16.234375 4.789062 16.820312 6.515625 15.832031 C 8.234375 14.832031 8.828125 12.636719 7.828125 10.90625 C 6.839844 9.1875 4.636719 8.605469 2.914062 9.59375 Z M 11.484375 15.832031 C 13.210938 16.820312 15.40625 16.234375 16.40625 14.515625 C 17.398438 12.789062 16.8125 10.59375 15.085938 9.59375 C 13.363281 8.605469 11.160156 9.1875 10.171875 10.90625 C 9.171875 12.636719 9.765625 14.832031 11.484375 15.832031 Z M 11.484375 15.832031 "/>
  </g>
</svg>