<?xml version="1.0" encoding="utf-8"?>
<!-- Generator: Adobe Illustrator 21.0.2, SVG Export Plug-In . SVG Version: 6.00 Build 0)  -->
<svg version="1.1" id="Layer_1" xmlns="http://www.w3.org/2000/svg" xmlns:xlink="http://www.w3.org/1999/xlink" x="0px" y="0px"
	 viewBox="0 0 24 24" style="enable-background:new 0 0 24 24;" xml:space="preserve">
<g id="surface1">
	<path d="M6,3.6h16.8v13.2h-2.4v2.4H18v2.4H1.2V8.4h2.4V6H6V3.6z M21.6,15.6V4.8H7.2v10.8H21.6z M18,10.8c-1.3,0-2.4-1.1-2.4-2.4
		C15.6,7.1,16.7,6,18,6c1.3,0,2.4,1.1,2.4,2.4C20.4,9.7,19.3,10.8,18,10.8z M19.2,18v-1.2H6V7.2H4.8V18H19.2z M8.4,7.2l12,7.2h-12
		V7.2z M16.8,20.4v-1.2H3.6V9.6H2.4v10.8H16.8z"/>
</g>
</svg>
