<?xml version="1.0" encoding="UTF-8" standalone="yes"?>
<svg xmlns="http://www.w3.org/2000/svg" xmlns:xlink="http://www.w3.org/1999/xlink" width="24px" height="24px" viewBox="0 0 18 18" version="1.1">
  <g id="surface1">
    <path style=" stroke:none;fill-rule:nonzero;fill:rgb(0%,0%,0%);fill-opacity:1;" d="M 14.355469 4.5 L 12.601562 4.5 L 15.480469 7.550781 L 17.839844 4.5 L 16.234375 4.5 C 16.234375 1.898438 14.535156 0 11.699219 0 L 11.699219 1.890625 C 13.589844 1.890625 14.355469 2.933594 14.355469 4.5 Z M 0.898438 0.898438 L 9.898438 0.898438 L 9.898438 9 L 18 9 L 18 18 L 5.398438 18 L 5.398438 13.5 L 0.898438 13.5 Z M 2.699219 2.699219 L 2.699219 11.699219 L 5.398438 11.699219 L 5.398438 9 L 8.101562 9 L 8.101562 2.699219 Z M 7.199219 10.800781 L 7.199219 16.199219 L 16.199219 16.199219 L 16.199219 10.800781 Z M 7.199219 10.800781 "/>
  </g>
</svg>