<?xml version="1.0" encoding="UTF-8" standalone="yes"?>
<svg xmlns="http://www.w3.org/2000/svg" xmlns:xlink="http://www.w3.org/1999/xlink" width="24px" height="24px" viewBox="0 0 18 18" version="1.1">
  <g id="surface1">
    <path style=" stroke:none;fill-rule:nonzero;fill:rgb(0%,0%,0%);fill-opacity:1;" d="M 6.300781 4.5 L 4.546875 4.5 C 4.546875 2.933594 5.308594 1.890625 7.199219 1.890625 L 7.199219 0 C 4.363281 0 2.664062 1.898438 2.664062 4.5 L 1.0625 4.5 L 3.421875 7.550781 Z M 18 0.898438 L 18 13.5 L 13.5 13.5 L 13.5 18 L 0.898438 18 L 0.898438 9 L 9 9 L 9 0.898438 Z M 16.199219 2.699219 L 10.800781 2.699219 L 10.800781 9 L 13.5 9 L 13.5 11.699219 L 16.199219 11.699219 Z M 11.699219 10.800781 L 2.699219 10.800781 L 2.699219 16.199219 L 11.699219 16.199219 Z M 11.699219 10.800781 "/>
  </g>
</svg>