<?xml version="1.0" encoding="utf-8"?>
<!-- Generator: Adobe Illustrator 21.0.2, SVG Export Plug-In . SVG Version: 6.00 Build 0)  -->
<svg version="1.1" id="Layer_1" xmlns="http://www.w3.org/2000/svg" xmlns:xlink="http://www.w3.org/1999/xlink" x="0px" y="0px"
	 viewBox="0 0 24 24" style="enable-background:new 0 0 24 24;" xml:space="preserve">
<g id="surface1">
	<path d="M16.8,7c0-2.6-2.2-4.8-4.8-4.8S7.2,4.4,7.2,7c0,2.7,2.2,4.8,4.8,4.8S16.8,9.7,16.8,7z M3.9,12.8c-2.3,1.3-3.1,4.3-1.8,6.6
		c1.3,2.3,4.3,3.1,6.6,1.8c2.3-1.3,3.1-4.3,1.8-6.6C9.1,12.2,6.2,11.5,3.9,12.8z M15.3,21.1c2.3,1.3,5.2,0.5,6.6-1.8
		c1.3-2.3,0.5-5.2-1.8-6.6c-2.3-1.3-5.2-0.5-6.6,1.8C12.2,16.8,13,19.8,15.3,21.1z"/>
</g>
</svg>
