<?xml version="1.0" encoding="utf-8"?>
<!-- Generator: Adobe Illustrator 21.0.2, SVG Export Plug-In . SVG Version: 6.00 Build 0)  -->
<svg version="1.1" id="Layer_1" xmlns="http://www.w3.org/2000/svg" xmlns:xlink="http://www.w3.org/1999/xlink" x="0px" y="0px"
	 viewBox="0 0 24 24" style="enable-background:new 0 0 24 24;" xml:space="preserve">
<g id="surface1">
	<path d="M4.8,18v-3.6H2.4v-12h14.4V6h2.4v3.6h2.4v12H7.2V18H4.8z M13.2,3.6c-1.3,0-2.4,1.1-2.4,2.4h4.8C15.6,4.7,14.5,3.6,13.2,3.6
		z M4.8,13.2v-6H3.6v6H4.8z M13.2,9.6H18c0-1.3-1.1-2.4-2.4-2.4C14.3,7.2,13.2,8.3,13.2,9.6z M7.2,16.8v-6H6v6H7.2z M18,15.6
		c1.3,0,2.4-1.1,2.4-2.4c0-1.3-1.1-2.4-2.4-2.4c-1.3,0-2.4,1.1-2.4,2.4C15.6,14.5,16.7,15.6,18,15.6z M20.4,20.4V18
		c-6,0-6-3.6-12-3.6v6H20.4z"/>
</g>
</svg>
