<?xml version="1.0" encoding="UTF-8" standalone="yes"?>
<svg xmlns="http://www.w3.org/2000/svg" xmlns:xlink="http://www.w3.org/1999/xlink" width="24px" height="24px" viewBox="0 0 18 18" version="1.1">
  <g id="surface1">
    <path style=" stroke:none;fill-rule:nonzero;fill:rgb(0%,0%,0%);fill-opacity:1;" d="M 3.601562 13.5 L 3.601562 10.800781 L 1.800781 10.800781 L 1.800781 1.800781 L 12.601562 1.800781 L 12.601562 4.5 L 14.398438 4.5 L 14.398438 7.199219 L 16.199219 7.199219 L 16.199219 16.199219 L 5.398438 16.199219 L 5.398438 13.5 Z M 9.898438 2.699219 C 8.910156 2.699219 8.101562 3.511719 8.101562 4.5 L 11.699219 4.5 C 11.699219 3.511719 10.898438 2.699219 9.898438 2.699219 Z M 3.601562 9.898438 L 3.601562 5.398438 L 2.699219 5.398438 L 2.699219 9.898438 Z M 9.898438 7.199219 L 13.5 7.199219 C 13.5 6.210938 12.699219 5.398438 11.699219 5.398438 C 10.710938 5.398438 9.898438 6.210938 9.898438 7.199219 Z M 5.398438 12.601562 L 5.398438 8.101562 L 4.5 8.101562 L 4.5 12.601562 Z M 13.5 11.699219 C 14.488281 11.699219 15.300781 10.898438 15.300781 9.898438 C 15.300781 8.910156 14.488281 8.101562 13.5 8.101562 C 12.511719 8.101562 11.699219 8.910156 11.699219 9.898438 C 11.699219 10.898438 12.511719 11.699219 13.5 11.699219 Z M 15.300781 15.300781 L 15.300781 13.5 C 10.800781 13.5 10.800781 10.800781 6.300781 10.800781 L 6.300781 15.300781 Z M 15.300781 15.300781 "/>
  </g>
</svg>