<?xml version="1.0" encoding="UTF-8" standalone="yes"?>
<svg xmlns="http://www.w3.org/2000/svg" xmlns:xlink="http://www.w3.org/1999/xlink" width="24px" height="24px" viewBox="0 0 18 18" version="1.1">
  <g id="surface1">
    <path style=" stroke:none;fill-rule:nonzero;fill:rgb(0%,0%,0%);fill-opacity:1;" d="M 9.226562 0.917969 C 13.816406 0.917969 17.101562 4.554688 17.101562 9.019531 C 17.101562 13.480469 13.816406 17.117188 9.226562 17.117188 C 6.34375 17.117188 3.808594 15.6875 2.3125 13.527344 L 4.644531 12.160156 C 5.632812 13.507812 7.21875 14.417969 9 14.417969 C 11.96875 14.417969 14.398438 11.90625 14.398438 9.019531 C 14.398438 6.128906 11.96875 3.617188 9 3.617188 C 7.226562 3.617188 5.652344 4.519531 4.660156 5.859375 L 6.300781 7.21875 L 0.898438 9.019531 L 0.898438 2.71875 L 2.601562 4.140625 C 4.121094 2.1875 6.523438 0.917969 9.226562 0.917969 Z M 9.226562 0.917969 "/>
  </g>
</svg>