<?xml version="1.0" encoding="UTF-8" standalone="yes"?>
<svg xmlns="http://www.w3.org/2000/svg" xmlns:xlink="http://www.w3.org/1999/xlink" width="24px" height="24px" viewBox="0 0 18 18" version="1.1">
  <g id="surface1">
    <path style=" stroke:none;fill-rule:nonzero;fill:rgb(0%,0%,0%);fill-opacity:1;" d="M 4.5 2.699219 L 17.101562 2.699219 L 17.101562 12.601562 L 15.300781 12.601562 L 15.300781 14.398438 L 13.5 14.398438 L 13.5 16.199219 L 0.898438 16.199219 L 0.898438 6.300781 L 2.699219 6.300781 L 2.699219 4.5 L 4.5 4.5 Z M 16.199219 11.699219 L 16.199219 3.601562 L 5.398438 3.601562 L 5.398438 11.699219 Z M 13.5 8.101562 C 12.511719 8.101562 11.699219 7.289062 11.699219 6.300781 C 11.699219 5.308594 12.511719 4.5 13.5 4.5 C 14.488281 4.5 15.300781 5.308594 15.300781 6.300781 C 15.300781 7.289062 14.488281 8.101562 13.5 8.101562 Z M 14.398438 13.5 L 14.398438 12.601562 L 4.5 12.601562 L 4.5 5.398438 L 3.601562 5.398438 L 3.601562 13.5 Z M 6.300781 5.398438 L 15.300781 10.800781 L 6.300781 10.800781 Z M 12.601562 15.300781 L 12.601562 14.398438 L 2.699219 14.398438 L 2.699219 7.199219 L 1.800781 7.199219 L 1.800781 15.300781 Z M 12.601562 15.300781 "/>
  </g>
</svg>