<?xml version="1.0" encoding="utf-8"?>
<!-- Generator: Adobe Illustrator 21.0.2, SVG Export Plug-In . SVG Version: 6.00 Build 0)  -->
<svg version="1.1" id="Layer_1" xmlns="http://www.w3.org/2000/svg" xmlns:xlink="http://www.w3.org/1999/xlink" x="0px" y="0px"
	 viewBox="0 0 24 24" style="enable-background:new 0 0 24 24;" xml:space="preserve">
<g id="surface1">
	<path d="M12.3,1.2c6.1,0,10.5,4.8,10.5,10.8c0,5.9-4.4,10.8-10.5,10.8c-3.8,0-7.2-1.9-9.2-4.8l3.1-1.8c1.3,1.8,3.4,3,5.8,3
		c4,0,7.2-3.3,7.2-7.2c0-3.9-3.2-7.2-7.2-7.2c-2.4,0-4.5,1.2-5.8,3l2.2,1.8L1.2,12V3.6l2.3,1.9C5.5,2.9,8.7,1.2,12.3,1.2z"/>
</g>
</svg>
