<?xml version="1.0" encoding="UTF-8" standalone="yes"?>
<svg xmlns="http://www.w3.org/2000/svg" xmlns:xlink="http://www.w3.org/1999/xlink" width="24px" height="24px" viewBox="0 0 18 18" version="1.1">
  <g id="surface1">
    <path style=" stroke:none;fill-rule:nonzero;fill:rgb(0%,0%,0%);fill-opacity:1;" d="M 0.898438 2.851562 L 0.898438 16.199219 L 17.101562 16.199219 L 17.101562 3.601562 L 7.199219 3.601562 L 7.199219 2.851562 C 7.199219 2.566406 7.09375 2.3125 6.886719 2.105469 C 6.679688 1.898438 6.425781 1.800781 6.136719 1.800781 L 1.960938 1.800781 C 1.664062 1.800781 1.421875 1.898438 1.214844 2.105469 C 1 2.3125 0.898438 2.566406 0.898438 2.851562 Z M 9 5.398438 L 9 7.199219 L 2.699219 7.199219 L 2.699219 5.398438 Z M 15.300781 5.398438 L 15.300781 14.398438 L 10.800781 14.398438 L 10.800781 5.398438 Z M 9 9 L 9 10.800781 L 2.699219 10.800781 L 2.699219 9 Z M 9 12.601562 L 9 14.398438 L 2.699219 14.398438 L 2.699219 12.601562 Z M 9 12.601562 "/>
  </g>
</svg>