<?xml version="1.0" encoding="UTF-8" standalone="yes"?>
<svg xmlns="http://www.w3.org/2000/svg" xmlns:xlink="http://www.w3.org/1999/xlink" width="24px" height="24px" viewBox="0 0 18 18" version="1.1">
  <g id="surface1">
    <path style=" stroke:none;fill-rule:nonzero;fill:rgb(0%,0%,0%);fill-opacity:1;" d="M 9 1.800781 C 12.976562 1.800781 16.199219 5.023438 16.199219 9 C 16.199219 12.976562 12.976562 16.199219 9 16.199219 C 5.023438 16.199219 1.800781 12.976562 1.800781 9 C 1.800781 5.023438 5.023438 1.800781 9 1.800781 Z M 9.898438 5.398438 C 9.898438 4.90625 9.496094 4.5 9 4.5 C 8.503906 4.5 8.101562 4.90625 8.101562 5.398438 C 8.101562 5.894531 8.503906 6.300781 9 6.300781 C 9.496094 6.300781 9.898438 5.894531 9.898438 5.398438 Z M 9.898438 13.5 L 9.898438 8.101562 L 8.101562 8.101562 L 8.101562 13.5 Z M 9.898438 13.5 "/>
  </g>
</svg>