<?xml version="1.0" encoding="utf-8"?>
<!-- Generator: Adobe Illustrator 21.0.2, SVG Export Plug-In . SVG Version: 6.00 Build 0)  -->
<svg version="1.1" id="Layer_1" xmlns="http://www.w3.org/2000/svg" xmlns:xlink="http://www.w3.org/1999/xlink" x="0px" y="0px"
	 viewBox="0 0 24 24" style="enable-background:new 0 0 24 24;" xml:space="preserve">
<g id="surface1">
	<path d="M3.6,3.6h16.8c0.7,0,1.2,0.5,1.2,1.2v12c0,0.7-0.5,1.2-1.2,1.2H3.6c-0.7,0-1.2-0.5-1.2-1.2v-12C2.4,4.1,2.9,3.6,3.6,3.6z
		 M19.2,6H4.8v9.6h14.4V6z M15.6,7.2H6V12L15.6,7.2z M22.8,20.4v-1.2H1.2v1.2c0,0.7,0.6,1.2,1.3,1.2h19
		C22.2,21.6,22.8,21.1,22.8,20.4z"/>
</g>
</svg>
