<?xml version="1.0" encoding="UTF-8" standalone="yes"?>
<svg xmlns="http://www.w3.org/2000/svg" xmlns:xlink="http://www.w3.org/1999/xlink" width="24px" height="24px" viewBox="0 0 18 18" version="1.1">
  <g id="surface1">
    <path style=" stroke:none;fill-rule:nonzero;fill:rgb(0%,0%,0%);fill-opacity:1;" d="M 2.699219 2.699219 L 15.300781 2.699219 C 15.839844 2.699219 16.199219 3.058594 16.199219 3.601562 L 16.199219 12.601562 C 16.199219 13.140625 15.839844 13.5 15.300781 13.5 L 2.699219 13.5 C 2.160156 13.5 1.800781 13.140625 1.800781 12.601562 L 1.800781 3.601562 C 1.800781 3.058594 2.160156 2.699219 2.699219 2.699219 Z M 14.398438 4.5 L 3.601562 4.5 L 3.601562 11.699219 L 14.398438 11.699219 Z M 11.699219 5.398438 L 4.5 5.398438 L 4.5 9 Z M 17.101562 15.300781 L 17.101562 14.398438 L 0.898438 14.398438 L 0.898438 15.300781 C 0.898438 15.839844 1.351562 16.199219 1.890625 16.199219 L 16.109375 16.199219 C 16.648438 16.199219 17.101562 15.839844 17.101562 15.300781 Z M 17.101562 15.300781 "/>
  </g>
</svg>