<?xml version="1.0" encoding="UTF-8" standalone="yes"?>
<svg xmlns="http://www.w3.org/2000/svg" xmlns:xlink="http://www.w3.org/1999/xlink" width="24px" height="24px" viewBox="0 0 18 18" version="1.1">
  <g id="surface1">
    <path style=" stroke:none;fill-rule:nonzero;fill:rgb(0%,0%,0%);fill-opacity:1;" d="M 9 0.898438 C 11.800781 0.898438 14.066406 3.167969 14.066406 5.957031 C 14.066406 7.613281 12.238281 10.078125 12.238281 10.078125 C 11.941406 10.476562 11.699219 11.203125 11.699219 11.699219 L 11.699219 12.601562 C 11.699219 13.09375 11.296875 13.5 10.800781 13.5 L 7.199219 13.5 C 6.703125 13.5 6.300781 13.09375 6.300781 12.601562 L 6.300781 11.699219 C 6.300781 11.203125 6.058594 10.476562 5.761719 10.078125 C 5.761719 10.078125 3.941406 7.613281 3.941406 5.957031 C 3.941406 3.167969 6.199219 0.898438 9 0.898438 Z M 6.300781 15.183594 L 6.300781 14.398438 L 11.699219 14.398438 L 11.699219 15.183594 C 11.699219 15.742188 11.582031 16.199219 11.023438 16.199219 L 10.800781 16.199219 C 10.800781 16.757812 10.441406 17.101562 9.882812 17.101562 L 8.082031 17.101562 C 7.53125 17.101562 7.199219 16.757812 7.199219 16.199219 L 6.976562 16.199219 C 6.417969 16.199219 6.300781 15.742188 6.300781 15.183594 Z M 6.300781 15.183594 "/>
  </g>
</svg>