<?xml version="1.0" encoding="utf-8"?>
<!-- Generator: Adobe Illustrator 21.0.2, SVG Export Plug-In . SVG Version: 6.00 Build 0)  -->
<svg version="1.1" id="Layer_1" xmlns="http://www.w3.org/2000/svg" xmlns:xlink="http://www.w3.org/1999/xlink" x="0px" y="0px"
	 viewBox="0 0 24 24" style="enable-background:new 0 0 24 24;" xml:space="preserve">
<g id="surface1">
	<path d="M12,1.2c3.7,0,6.8,3,6.8,6.7c0,2.2-2.4,5.5-2.4,5.5c-0.4,0.5-0.7,1.5-0.7,2.2v1.2c0,0.7-0.5,1.2-1.2,1.2H9.6
		c-0.7,0-1.2-0.5-1.2-1.2v-1.2c0-0.7-0.3-1.6-0.7-2.2c0,0-2.4-3.3-2.4-5.5C5.3,4.2,8.3,1.2,12,1.2z M8.4,20.2v-1h7.2v1
		c0,0.7-0.2,1.4-0.9,1.4h-0.3c0,0.7-0.5,1.2-1.2,1.2h-2.4c-0.7,0-1.2-0.5-1.2-1.2H9.3C8.6,21.6,8.4,21,8.4,20.2z"/>
</g>
</svg>
