<?xml version="1.0" encoding="UTF-8" standalone="yes"?>
<svg xmlns="http://www.w3.org/2000/svg" xmlns:xlink="http://www.w3.org/1999/xlink" width="24px" height="24px" viewBox="0 0 18 18" version="1.1">
  <g id="surface1">
    <path style=" stroke:none;fill-rule:nonzero;fill:rgb(0%,0%,0%);fill-opacity:1;" d="M 1.800781 17.101562 L 16.199219 17.101562 C 16.695312 17.101562 17.101562 16.695312 17.101562 16.199219 L 17.101562 1.800781 C 17.101562 1.304688 16.695312 0.898438 16.199219 0.898438 L 1.800781 0.898438 C 1.304688 0.898438 0.898438 1.304688 0.898438 1.800781 L 0.898438 16.199219 C 0.898438 16.695312 1.304688 17.101562 1.800781 17.101562 Z M 3.601562 2.699219 C 4.09375 2.699219 4.5 3.105469 4.5 3.601562 C 4.5 4.09375 4.09375 4.5 3.601562 4.5 C 3.105469 4.5 2.699219 4.09375 2.699219 3.601562 C 2.699219 3.105469 3.105469 2.699219 3.601562 2.699219 Z M 15.300781 2.699219 L 15.300781 4.5 L 5.398438 4.5 L 5.398438 2.699219 Z M 3.601562 6.300781 C 4.09375 6.300781 4.5 6.703125 4.5 7.199219 C 4.5 7.695312 4.09375 8.101562 3.601562 8.101562 C 3.105469 8.101562 2.699219 7.695312 2.699219 7.199219 C 2.699219 6.703125 3.105469 6.300781 3.601562 6.300781 Z M 15.300781 6.300781 L 15.300781 8.101562 L 5.398438 8.101562 L 5.398438 6.300781 Z M 3.601562 9.898438 C 4.09375 9.898438 4.5 10.304688 4.5 10.800781 C 4.5 11.296875 4.09375 11.699219 3.601562 11.699219 C 3.105469 11.699219 2.699219 11.296875 2.699219 10.800781 C 2.699219 10.304688 3.105469 9.898438 3.601562 9.898438 Z M 15.300781 9.898438 L 15.300781 11.699219 L 5.398438 11.699219 L 5.398438 9.898438 Z M 3.601562 13.5 C 4.09375 13.5 4.5 13.90625 4.5 14.398438 C 4.5 14.894531 4.09375 15.300781 3.601562 15.300781 C 3.105469 15.300781 2.699219 14.894531 2.699219 14.398438 C 2.699219 13.90625 3.105469 13.5 3.601562 13.5 Z M 15.300781 13.5 L 15.300781 15.300781 L 5.398438 15.300781 L 5.398438 13.5 Z M 15.300781 13.5 "/>
  </g>
</svg>