<?xml version="1.0" encoding="UTF-8" standalone="yes"?>
<svg xmlns="http://www.w3.org/2000/svg" xmlns:xlink="http://www.w3.org/1999/xlink" width="24px" height="24px" viewBox="0 0 18 18" version="1.1">
  <g id="surface1">
    <path style=" stroke:none;fill-rule:nonzero;fill:rgb(0%,0%,0%);fill-opacity:1;" d="M 9 1.800781 C 6.019531 1.800781 3.601562 4.222656 3.601562 7.199219 C 3.601562 9.019531 4.652344 10.539062 5.878906 11.601562 C 6.265625 11.933594 6.9375 12.464844 7.542969 13.246094 C 8.207031 14.121094 8.8125 15.058594 9 15.6875 C 9.1875 15.058594 9.792969 14.121094 10.457031 13.246094 C 11.0625 12.464844 11.734375 11.933594 12.121094 11.601562 C 13.347656 10.539062 14.398438 9.019531 14.398438 7.199219 C 14.398438 4.222656 11.980469 1.800781 9 1.800781 Z M 9 4.105469 C 10.710938 4.105469 12.097656 5.488281 12.097656 7.199219 C 12.097656 8.910156 10.710938 10.296875 9 10.296875 C 7.289062 10.296875 5.902344 8.910156 5.902344 7.199219 C 5.902344 5.488281 7.289062 4.105469 9 4.105469 Z M 9 4.105469 "/>
  </g>
</svg>