<?xml version="1.0" encoding="utf-8"?>
<!-- Generator: Adobe Illustrator 21.0.2, SVG Export Plug-In . SVG Version: 6.00 Build 0)  -->
<svg version="1.1" id="Layer_1" xmlns="http://www.w3.org/2000/svg" xmlns:xlink="http://www.w3.org/1999/xlink" x="0px" y="0px"
	 viewBox="0 0 24 24" style="enable-background:new 0 0 24 24;" xml:space="preserve">
<g id="surface1">
	<path d="M15.6,15.8L17,8.6C18,8.1,18.6,7.1,18.6,6c0-1.7-1.3-3-3-3s-3,1.3-3,3c0,1.1,0.7,2.1,1.6,2.6L15.6,15.8z M15.6,4.2
		c1,0,1.8,0.8,1.8,1.8s-0.8,1.8-1.8,1.8S13.8,7,13.8,6S14.6,4.2,15.6,4.2z M17.7,10l3.9-1.6v10.8l-5.9,2.4l-7.3-2.4l-6,2.4V10.8
		l6-2.4l5.1,1.7l2.1,8.8L17.7,10z"/>
</g>
</svg>
