<?xml version="1.0" encoding="UTF-8" standalone="yes"?>
<svg xmlns="http://www.w3.org/2000/svg" xmlns:xlink="http://www.w3.org/1999/xlink" width="24px" height="24px" viewBox="0 0 18 18" version="1.1">
  <g id="surface1">
    <path style=" stroke:none;fill-rule:nonzero;fill:rgb(0%,0%,0%);fill-opacity:1;" d="M 11.699219 11.824219 L 12.753906 6.480469 C 13.464844 6.09375 13.949219 5.355469 13.949219 4.5 C 13.949219 3.257812 12.941406 2.25 11.699219 2.25 C 10.457031 2.25 9.449219 3.257812 9.449219 4.5 C 9.449219 5.355469 9.9375 6.09375 10.648438 6.480469 Z M 11.699219 3.148438 C 12.445312 3.148438 13.050781 3.753906 13.050781 4.5 C 13.050781 5.246094 12.445312 5.851562 11.699219 5.851562 C 10.953125 5.851562 10.351562 5.246094 10.351562 4.5 C 10.351562 3.753906 10.953125 3.148438 11.699219 3.148438 Z M 13.246094 7.46875 L 16.199219 6.273438 L 16.199219 14.371094 L 11.808594 16.199219 L 6.300781 14.371094 L 1.800781 16.171875 L 1.800781 8.074219 L 6.300781 6.273438 L 10.144531 7.542969 L 11.699219 14.113281 Z M 13.246094 7.46875 "/>
  </g>
</svg>