<?xml version="1.0" encoding="utf-8"?>
<!-- Generator: Adobe Illustrator 21.0.2, SVG Export Plug-In . SVG Version: 6.00 Build 0)  -->
<svg version="1.1" id="Layer_1" xmlns="http://www.w3.org/2000/svg" xmlns:xlink="http://www.w3.org/1999/xlink" x="0px" y="0px"
	 viewBox="0 0 24 24" style="enable-background:new 0 0 24 24;" xml:space="preserve">
<g id="surface1">
	<path d="M12,2.4c-4,0-7.2,3.2-7.2,7.2c0,2.4,1.4,4.5,3,5.9c0.5,0.4,1.4,1.2,2.2,2.2c0.9,1.2,1.7,2.4,1.9,3.3
		c0.2-0.8,1.1-2.1,1.9-3.3c0.8-1,1.7-1.8,2.2-2.2c1.6-1.4,3-3.4,3-5.9C19.2,5.6,16,2.4,12,2.4z M12,5.5c2.3,0,4.1,1.8,4.1,4.1
		s-1.8,4.1-4.1,4.1s-4.1-1.8-4.1-4.1S9.7,5.5,12,5.5z"/>
</g>
</svg>
