<?xml version="1.0" encoding="UTF-8" standalone="yes"?>
<svg xmlns="http://www.w3.org/2000/svg" xmlns:xlink="http://www.w3.org/1999/xlink" width="24px" height="24px" viewBox="0 0 18 18" version="1.1">
  <g id="surface1">
    <path style=" stroke:none;fill-rule:nonzero;fill:rgb(0%,0%,0%);fill-opacity:1;" d="M 12.601562 8.101562 L 13.5 8.101562 C 13.996094 8.101562 14.398438 8.503906 14.398438 9 L 14.398438 15.300781 C 14.398438 15.796875 13.996094 16.199219 13.5 16.199219 L 4.5 16.199219 C 4.003906 16.199219 3.601562 15.796875 3.601562 15.300781 L 3.601562 9 C 3.601562 8.503906 4.003906 8.101562 4.5 8.101562 L 5.398438 8.101562 L 5.398438 5.398438 C 5.398438 3.410156 7.011719 1.800781 9 1.800781 C 10.988281 1.800781 12.601562 3.410156 12.601562 5.398438 Z M 10.800781 8.101562 L 10.800781 5.398438 C 10.800781 4.410156 9.988281 3.601562 9 3.601562 C 8.011719 3.601562 7.199219 4.410156 7.199219 5.398438 L 7.199219 8.101562 Z M 9.898438 14.398438 L 9.574219 12.464844 C 10.035156 12.25 10.351562 11.789062 10.351562 11.25 C 10.351562 10.503906 9.746094 9.898438 9 9.898438 C 8.253906 9.898438 7.648438 10.503906 7.648438 11.25 C 7.648438 11.789062 7.964844 12.25 8.425781 12.464844 L 8.101562 14.398438 Z M 9.898438 14.398438 "/>
  </g>
</svg>