<?xml version="1.0" encoding="UTF-8" standalone="yes"?>
<svg xmlns="http://www.w3.org/2000/svg" xmlns:xlink="http://www.w3.org/1999/xlink" width="24px" height="24px" viewBox="0 0 18 18" version="1.1">
  <g id="surface1">
    <path style=" stroke:none;fill-rule:nonzero;fill:rgb(0%,0%,0%);fill-opacity:1;" d="M 10.800781 1.800781 L 14.398438 5.398438 L 14.398438 16.199219 L 3.601562 16.199219 L 3.601562 1.800781 Z M 10.800781 5.398438 L 13.5 5.398438 L 10.800781 2.699219 Z M 9.898438 12.601562 L 9.898438 9.898438 C 9.898438 9.65625 9.808594 9.441406 9.640625 9.261719 C 9.460938 9.089844 9.242188 9 9 9 L 6.300781 9 C 6.058594 9 5.839844 9.089844 5.660156 9.261719 C 5.488281 9.441406 5.398438 9.65625 5.398438 9.898438 L 5.398438 12.601562 C 5.398438 12.84375 5.488281 13.058594 5.660156 13.238281 C 5.839844 13.410156 6.058594 13.5 6.300781 13.5 L 9 13.5 C 9.242188 13.5 9.460938 13.410156 9.640625 13.238281 C 9.808594 13.058594 9.898438 12.84375 9.898438 12.601562 Z M 12.601562 13.5 L 12.601562 9 L 10.800781 10.800781 L 10.800781 11.699219 Z M 12.601562 13.5 "/>
  </g>
</svg>