<?xml version="1.0" encoding="UTF-8" standalone="yes"?>
<svg xmlns="http://www.w3.org/2000/svg" xmlns:xlink="http://www.w3.org/1999/xlink" width="24px" height="24px" viewBox="0 0 18 18" version="1.1">
  <g id="surface1">
    <path style=" stroke:none;fill-rule:nonzero;fill:rgb(0%,0%,0%);fill-opacity:1;" d="M 10.800781 1.800781 L 14.398438 5.398438 L 14.398438 16.199219 L 3.601562 16.199219 L 3.601562 1.800781 Z M 10.800781 5.398438 L 13.5 5.398438 L 10.800781 2.699219 Z M 12.601562 12.601562 L 12.601562 7.199219 L 5.398438 7.199219 L 5.398438 12.601562 L 8.101562 12.601562 L 7.199219 14.398438 L 8.101562 14.398438 L 9 12.601562 L 9.898438 14.398438 L 10.800781 14.398438 L 9.898438 12.601562 Z M 7.199219 9.898438 C 6.703125 9.898438 6.300781 9.496094 6.300781 9 C 6.300781 8.503906 6.703125 8.101562 7.199219 8.101562 C 7.695312 8.101562 8.101562 8.503906 8.101562 9 C 8.101562 9.496094 7.695312 9.898438 7.199219 9.898438 Z M 11.699219 8.101562 L 11.699219 9.898438 L 9 9.898438 L 9 8.101562 Z M 11.699219 10.800781 L 11.699219 11.699219 L 6.300781 11.699219 L 6.300781 10.800781 Z M 11.699219 10.800781 "/>
  </g>
</svg>