<?xml version="1.0" encoding="UTF-8" standalone="yes"?>
<svg xmlns="http://www.w3.org/2000/svg" xmlns:xlink="http://www.w3.org/1999/xlink" width="24px" height="24px" viewBox="0 0 18 18" version="1.1">
  <g id="surface1">
    <path style=" stroke:none;fill-rule:nonzero;fill:rgb(0%,0%,0%);fill-opacity:1;" d="M 10.800781 1.800781 L 14.398438 5.398438 L 14.398438 16.199219 L 3.601562 16.199219 L 3.601562 1.800781 Z M 4.5 2.699219 L 4.5 3.601562 L 9.898438 3.601562 L 9.898438 2.699219 Z M 10.800781 5.398438 L 13.5 5.398438 L 10.800781 2.699219 Z M 4.5 4.5 L 4.5 5.398438 L 9.898438 5.398438 L 9.898438 4.5 Z M 13.5 7.199219 L 13.5 6.300781 L 4.5 6.300781 L 4.5 7.199219 Z M 13.5 9 L 13.5 8.101562 L 4.5 8.101562 L 4.5 9 Z M 13.5 10.800781 L 13.5 9.898438 L 4.5 9.898438 L 4.5 10.800781 Z M 9.898438 12.601562 L 9.898438 11.699219 L 4.5 11.699219 L 4.5 12.601562 Z M 9.898438 12.601562 "/>
  </g>
</svg>