<?xml version="1.0" encoding="utf-8"?>
<!-- Generator: Adobe Illustrator 21.0.2, SVG Export Plug-In . SVG Version: 6.00 Build 0)  -->
<svg version="1.1" id="Layer_1" xmlns="http://www.w3.org/2000/svg" xmlns:xlink="http://www.w3.org/1999/xlink" x="0px" y="0px"
	 viewBox="0 0 24 24" style="enable-background:new 0 0 24 24;" xml:space="preserve">
<g id="surface1">
	<path d="M14.4,2.4l4.8,4.8v14.4H4.8V2.4H14.4z M13.2,7.2V3.6H6v3.6H13.2z M9.6,9.6V8.4H6v1.2H9.6z M13.2,9.6V8.4h-2.4v1.2H13.2z
		 M18,9.6V8.4h-3.6v1.2H18z M9.6,12v-1.2H6V12H9.6z M13.2,12v-1.2h-2.4V12H13.2z M18,12v-1.2h-3.6V12H18z M9.6,14.4v-1.2H6v1.2H9.6z
		 M13.2,14.4v-1.2h-2.4v1.2H13.2z M18,14.4v-1.2h-3.6v1.2H18z M9.6,16.8v-1.2H6v1.2H9.6z M13.2,16.8v-1.2h-2.4v1.2H13.2z M18,16.8
		v-1.2h-3.6v1.2H18z M9.6,19.2V18H6v1.2H9.6z M13.2,19.2V18h-2.4v1.2H13.2z"/>
</g>
</svg>
