<?xml version="1.0" encoding="UTF-8" standalone="yes"?>
<svg xmlns="http://www.w3.org/2000/svg" xmlns:xlink="http://www.w3.org/1999/xlink" width="24px" height="24px" viewBox="0 0 18 18" version="1.1">
  <g id="surface1">
    <path style=" stroke:none;fill-rule:nonzero;fill:rgb(0%,0%,0%);fill-opacity:1;" d="M 10.800781 1.800781 L 14.398438 5.398438 L 14.398438 16.199219 L 3.601562 16.199219 L 3.601562 1.800781 Z M 10.800781 5.398438 L 13.5 5.398438 L 10.800781 2.699219 Z M 7.199219 3.148438 L 7.199219 4.949219 L 8.820312 4.050781 Z M 9.898438 4.5 L 8.28125 5.398438 L 9.898438 6.300781 Z M 7.199219 5.851562 L 7.199219 7.648438 L 8.820312 6.75 Z M 9.898438 7.199219 L 8.28125 8.101562 L 9.898438 9 Z M 7.199219 8.550781 L 7.199219 10.351562 L 8.820312 9.449219 Z M 9.898438 9.898438 L 8.28125 10.800781 L 9.898438 11.699219 Z M 8.550781 15.300781 C 9.296875 15.300781 10.007812 14.652344 9.898438 13.832031 C 9.855469 13.492188 9.460938 12.382812 9.460938 12.382812 L 7.667969 11.394531 C 7.667969 11.394531 7.261719 13.148438 7.199219 13.832031 C 7.136719 14.527344 7.804688 15.300781 8.550781 15.300781 Z M 8.550781 13.148438 C 8.929688 13.148438 9.234375 13.453125 9.234375 13.832031 C 9.234375 14.21875 8.929688 14.527344 8.550781 14.527344 C 8.171875 14.527344 7.867188 14.21875 7.867188 13.832031 C 7.867188 13.453125 8.171875 13.148438 8.550781 13.148438 Z M 8.550781 13.148438 "/>
  </g>
</svg>