<?xml version="1.0" encoding="UTF-8" standalone="yes"?>
<svg xmlns="http://www.w3.org/2000/svg" xmlns:xlink="http://www.w3.org/1999/xlink" width="24px" height="24px" viewBox="0 0 18 18" version="1.1">
  <g id="surface1">
    <path style=" stroke:none;fill-rule:nonzero;fill:rgb(0%,0%,0%);fill-opacity:1;" d="M 10.800781 1.800781 L 14.398438 5.398438 L 14.398438 16.199219 L 3.601562 16.199219 L 3.601562 1.800781 Z M 10.800781 5.398438 L 13.5 5.398438 L 10.800781 2.699219 Z M 11.699219 11.933594 L 11.699219 7.28125 C 11.699219 7.183594 11.664062 7.09375 11.59375 7.019531 C 11.527344 6.949219 11.449219 6.921875 11.347656 6.929688 C 11.347656 6.929688 7.777344 7.570312 7.523438 7.632812 C 7.261719 7.6875 7.199219 7.921875 7.199219 8.101562 L 7.199219 11.132812 C 7.019531 11.050781 6.820312 11.070312 6.660156 11.070312 C 6.316406 11.070312 6.03125 11.1875 5.796875 11.421875 C 5.5625 11.664062 5.4375 11.941406 5.4375 12.285156 C 5.4375 12.617188 5.5625 12.90625 5.796875 13.140625 C 6.03125 13.382812 6.316406 13.5 6.660156 13.5 C 6.964844 13.5 7.289062 13.464844 7.523438 13.265625 C 7.757812 13.058594 8.101562 12.679688 8.101562 12.257812 L 8.101562 9.269531 L 10.800781 8.730469 L 10.800781 10.800781 C 10.195312 10.621094 9.746094 10.835938 9.503906 11.078125 C 9.269531 11.3125 9.152344 11.601562 9.152344 11.933594 C 9.152344 12.277344 9.269531 12.554688 9.503906 12.796875 C 9.746094 13.03125 10.144531 13.148438 10.476562 13.148438 C 10.816406 13.148438 11.105469 13.03125 11.339844 12.796875 C 11.574219 12.554688 11.699219 12.277344 11.699219 11.933594 Z M 11.699219 11.933594 "/>
  </g>
</svg>