<?xml version="1.0" encoding="utf-8"?>
<!-- Generator: Adobe Illustrator 21.0.2, SVG Export Plug-In . SVG Version: 6.00 Build 0)  -->
<svg version="1.1" id="Layer_1" xmlns="http://www.w3.org/2000/svg" xmlns:xlink="http://www.w3.org/1999/xlink" x="0px" y="0px"
	 viewBox="0 0 24 24" style="enable-background:new 0 0 24 24;" xml:space="preserve">
<g id="surface1">
	<path d="M14.4,2.4l4.8,4.8v14.4H4.8V2.4H14.4z M14.4,7.2H18l-3.6-3.6V7.2z M16.8,16.8V9.6H7.2v7.2h3.6l-1.2,2.4h1.2l1.2-2.4
		l1.2,2.4h1.2l-1.2-2.4H16.8z M9.6,13.2c-0.7,0-1.2-0.5-1.2-1.2c0-0.7,0.5-1.2,1.2-1.2c0.7,0,1.2,0.5,1.2,1.2
		C10.8,12.7,10.3,13.2,9.6,13.2z M15.6,10.8v2.4H12v-2.4H15.6z M15.6,14.4v1.2H8.4v-1.2H15.6z"/>
</g>
</svg>
