<?xml version="1.0" encoding="utf-8"?>
<!-- Generator: Adobe Illustrator 21.0.2, SVG Export Plug-In . SVG Version: 6.00 Build 0)  -->
<svg version="1.1" id="Layer_1" xmlns="http://www.w3.org/2000/svg" xmlns:xlink="http://www.w3.org/1999/xlink" x="0px" y="0px"
	 viewBox="0 0 24 24" style="enable-background:new 0 0 24 24;" xml:space="preserve">
<g id="surface1">
	<path d="M14.4,2.4l4.8,4.8v14.4H4.8V2.4H14.4z M6,3.6v1.2h7.2V3.6H6z M14.4,7.2H18l-3.6-3.6V7.2z M6,6v1.2h7.2V6H6z M18,9.6V8.4H6
		v1.2H18z M6,10.8V12h4.8v-1.2H6z M18,14.4v-3.6h-6v3.6H18z M6,13.2v1.2h4.8v-1.2H6z M18,16.8v-1.2H6v1.2H18z M14.4,19.2V18H6v1.2
		H14.4z"/>
</g>
</svg>
