<?xml version="1.0" encoding="utf-8"?>
<!-- Generator: Adobe Illustrator 21.0.2, SVG Export Plug-In . SVG Version: 6.00 Build 0)  -->
<svg version="1.1" id="Layer_1" xmlns="http://www.w3.org/2000/svg" xmlns:xlink="http://www.w3.org/1999/xlink" x="0px" y="0px"
	 viewBox="0 0 24 24" style="enable-background:new 0 0 24 24;" xml:space="preserve">
<g id="surface1">
	<path d="M14.4,2.4l4.8,4.8v14.4H4.8V2.4H14.4z M14.4,7.2H18l-3.6-3.6V7.2z M13.2,16.8v-3.6c0-0.3-0.1-0.6-0.3-0.8
		C12.6,12.1,12.3,12,12,12H8.4c-0.3,0-0.6,0.1-0.9,0.3c-0.2,0.2-0.3,0.5-0.3,0.8v3.6c0,0.3,0.1,0.6,0.3,0.8C7.8,17.9,8.1,18,8.4,18
		H12c0.3,0,0.6-0.1,0.9-0.3C13.1,17.4,13.2,17.1,13.2,16.8z M16.8,18v-6l-2.4,2.4v1.2L16.8,18z"/>
</g>
</svg>
