<?xml version="1.0" encoding="utf-8"?>
<!-- Generator: Adobe Illustrator 21.0.2, SVG Export Plug-In . SVG Version: 6.00 Build 0)  -->
<svg version="1.1" id="Layer_1" xmlns="http://www.w3.org/2000/svg" xmlns:xlink="http://www.w3.org/1999/xlink" x="0px" y="0px"
	 viewBox="0 0 24 24" style="enable-background:new 0 0 24 24;" xml:space="preserve">
<g id="surface1">
	<path d="M14.4,2.4l4.8,4.8v14.4H4.8V2.4H14.4z M14.4,7.2H18l-3.6-3.6V7.2z M9.6,4.2v2.4l2.2-1.2L9.6,4.2z M13.2,6L11,7.2l2.2,1.2V6
		z M9.6,7.8v2.4L11.8,9L9.6,7.8z M13.2,9.6L11,10.8l2.2,1.2V9.6z M9.6,11.4v2.4l2.2-1.2L9.6,11.4z M13.2,13.2L11,14.4l2.2,1.2V13.2z
		 M11.4,20.4c1,0,1.9-0.9,1.8-2c-0.1-0.5-0.6-1.9-0.6-1.9l-2.4-1.3c0,0-0.5,2.3-0.6,3.2C9.5,19.4,10.4,20.4,11.4,20.4z M11.4,17.5
		c0.5,0,0.9,0.4,0.9,0.9c0,0.5-0.4,0.9-0.9,0.9c-0.5,0-0.9-0.4-0.9-0.9C10.5,17.9,10.9,17.5,11.4,17.5z"/>
</g>
</svg>
