<?xml version="1.0" encoding="UTF-8" standalone="yes"?>
<svg xmlns="http://www.w3.org/2000/svg" xmlns:xlink="http://www.w3.org/1999/xlink" width="24px" height="24px" viewBox="0 0 18 18" version="1.1">
  <g id="surface1">
    <path style=" stroke:none;fill-rule:nonzero;fill:rgb(0%,0%,0%);fill-opacity:1;" d="M 10.800781 1.800781 L 14.398438 5.398438 L 14.398438 16.199219 L 3.601562 16.199219 L 3.601562 1.800781 Z M 9.898438 5.398438 L 9.898438 2.699219 L 4.5 2.699219 L 4.5 5.398438 Z M 7.199219 7.199219 L 7.199219 6.300781 L 4.5 6.300781 L 4.5 7.199219 Z M 9.898438 7.199219 L 9.898438 6.300781 L 8.101562 6.300781 L 8.101562 7.199219 Z M 13.5 7.199219 L 13.5 6.300781 L 10.800781 6.300781 L 10.800781 7.199219 Z M 7.199219 9 L 7.199219 8.101562 L 4.5 8.101562 L 4.5 9 Z M 9.898438 9 L 9.898438 8.101562 L 8.101562 8.101562 L 8.101562 9 Z M 13.5 9 L 13.5 8.101562 L 10.800781 8.101562 L 10.800781 9 Z M 7.199219 10.800781 L 7.199219 9.898438 L 4.5 9.898438 L 4.5 10.800781 Z M 9.898438 10.800781 L 9.898438 9.898438 L 8.101562 9.898438 L 8.101562 10.800781 Z M 13.5 10.800781 L 13.5 9.898438 L 10.800781 9.898438 L 10.800781 10.800781 Z M 7.199219 12.601562 L 7.199219 11.699219 L 4.5 11.699219 L 4.5 12.601562 Z M 9.898438 12.601562 L 9.898438 11.699219 L 8.101562 11.699219 L 8.101562 12.601562 Z M 13.5 12.601562 L 13.5 11.699219 L 10.800781 11.699219 L 10.800781 12.601562 Z M 7.199219 14.398438 L 7.199219 13.5 L 4.5 13.5 L 4.5 14.398438 Z M 9.898438 14.398438 L 9.898438 13.5 L 8.101562 13.5 L 8.101562 14.398438 Z M 9.898438 14.398438 "/>
  </g>
</svg>