<?xml version="1.0" encoding="utf-8"?>
<!-- Generator: Adobe Illustrator 21.0.2, SVG Export Plug-In . SVG Version: 6.00 Build 0)  -->
<svg version="1.1" id="Layer_1" xmlns="http://www.w3.org/2000/svg" xmlns:xlink="http://www.w3.org/1999/xlink" x="0px" y="0px"
	 viewBox="0 0 24 24" style="enable-background:new 0 0 24 24;" xml:space="preserve">
<g id="surface1">
	<path d="M21.8,7.1c0.6,1.9,0.5,3.9,0,5.4c-0.5,1.5-1.5,2.6-2.8,3c-0.2,0.1-0.3,0.1-0.5,0.1c-0.1,0-0.1,0-0.2,0c-0.1,0-0.2,0-0.3,0
		H9.9l2.7,6.6c0,0.2-0.1,0.3-0.2,0.4c-0.1,0.1-0.3,0.2-0.4,0.2H8.4c-0.1,0-0.3-0.1-0.4-0.2c-0.1-0.1-0.2-0.2-0.2-0.4l-1.2-6.6H5.1
		l0,0c-0.6,0.1-1.3-0.2-1.8-0.7c-0.6-0.5-1.1-1.3-1.3-2.3c-0.3-1-0.2-1.9,0-2.6c0.2-0.7,0.7-1.3,1.3-1.6l0,0l10.8-6.5
		c0.1-0.1,0.2-0.1,0.3-0.2c0.1-0.1,0.2-0.1,0.3-0.1c0.2-0.1,0.3-0.1,0.6-0.2c1.2-0.4,2.7,0.1,3.9,1.2C20.3,3.6,21.3,5.2,21.8,7.1z
		 M18.7,14.3L18.7,14.3c0.5-0.1,0.9-0.4,1.2-0.8c0.7-0.8,1-2.1,1-3.6c0-0.8-0.1-1.6-0.3-2.4c-0.4-1.6-1.2-3-2.1-3.9
		c-0.9-0.9-2-1.3-3-1.1c-1,0.3-1.7,1.2-2,2.4c-0.4,1.2-0.3,2.8,0.1,4.5c0.5,1.6,1.2,3,2.2,3.9C16.7,14.1,17.7,14.6,18.7,14.3z
		 M15.7,5.8c0.3,0,0.5,0,0.7,0c0.5,0.2,0.9,0.6,1.2,1.2s0.5,1.4,0.5,2.1c0,0.4,0,0.7-0.1,1c-0.2,0.6-0.5,1-1,1.1
		c-0.4,0.1-1-0.1-1.4-0.5c-0.4-0.4-0.8-1-0.9-1.8c-0.2-0.7-0.1-1.5,0-2.1C14.9,6.4,15.3,5.9,15.7,5.8z"/>
</g>
</svg>
