<?xml version="1.0" encoding="UTF-8" standalone="yes"?>
<svg xmlns="http://www.w3.org/2000/svg" xmlns:xlink="http://www.w3.org/1999/xlink" width="24px" height="24px" viewBox="0 0 18 18" version="1.1">
  <g id="surface1">
    <path style=" stroke:none;fill-rule:nonzero;fill:rgb(0%,0%,0%);fill-opacity:1;" d="M 16.335938 5.347656 C 16.75 6.804688 16.675781 8.242188 16.316406 9.378906 C 15.9375 10.53125 15.183594 11.339844 14.246094 11.609375 C 14.101562 11.664062 14.011719 11.664062 13.886719 11.664062 C 13.832031 11.683594 13.777344 11.683594 13.726562 11.683594 C 13.671875 11.699219 13.597656 11.699219 13.527344 11.699219 L 7.40625 11.699219 L 9.40625 16.648438 C 9.421875 16.777344 9.351562 16.882812 9.277344 16.957031 C 9.207031 17.046875 9.0625 17.101562 8.972656 17.101562 L 6.253906 17.101562 C 6.164062 17.101562 6.019531 17.046875 5.949219 16.957031 C 5.878906 16.882812 5.804688 16.777344 5.824219 16.648438 L 4.921875 11.699219 L 3.824219 11.699219 L 3.808594 11.683594 C 3.355469 11.734375 2.835938 11.519531 2.421875 11.125 C 2.007812 10.726562 1.628906 10.152344 1.46875 9.433594 C 1.25 8.710938 1.285156 8.027344 1.449219 7.453125 C 1.609375 6.894531 1.972656 6.480469 2.402344 6.28125 L 2.421875 6.265625 L 10.519531 1.402344 C 10.609375 1.351562 10.683594 1.3125 10.738281 1.261719 C 10.789062 1.222656 10.863281 1.1875 10.953125 1.152344 C 11.097656 1.078125 11.203125 1.042969 11.402344 0.988281 C 12.339844 0.71875 13.417969 1.078125 14.300781 1.871094 C 15.183594 2.664062 15.957031 3.886719 16.335938 5.347656 Z M 14.011719 10.726562 L 13.996094 10.726562 C 14.355469 10.636719 14.660156 10.421875 14.929688 10.097656 C 15.453125 9.46875 15.703125 8.515625 15.703125 7.363281 C 15.703125 6.785156 15.613281 6.191406 15.453125 5.578125 C 15.148438 4.355469 14.535156 3.328125 13.851562 2.664062 C 13.167969 1.996094 12.339844 1.675781 11.636719 1.871094 C 10.898438 2.070312 10.378906 2.734375 10.105469 3.671875 C 9.820312 4.609375 9.855469 5.796875 10.160156 7.019531 C 10.503906 8.242188 11.0625 9.269531 11.78125 9.9375 C 12.484375 10.601562 13.238281 10.925781 14.011719 10.726562 Z M 11.726562 4.355469 C 11.925781 4.320312 12.105469 4.339844 12.285156 4.390625 C 12.628906 4.535156 12.96875 4.824219 13.203125 5.292969 C 13.4375 5.761719 13.582031 6.371094 13.582031 6.894531 C 13.582031 7.164062 13.546875 7.398438 13.472656 7.613281 C 13.3125 8.046875 13.078125 8.371094 12.699219 8.460938 C 12.394531 8.550781 11.980469 8.40625 11.671875 8.101562 C 11.367188 7.792969 11.097656 7.324219 10.972656 6.75 C 10.808594 6.191406 10.863281 5.632812 10.988281 5.203125 C 11.113281 4.769531 11.421875 4.445312 11.726562 4.355469 Z M 11.726562 4.355469 "/>
  </g>
</svg>