<?xml version="1.0" encoding="utf-8"?>
<!-- Generator: Adobe Illustrator 21.0.2, SVG Export Plug-In . SVG Version: 6.00 Build 0)  -->
<svg version="1.1" id="Layer_1" xmlns="http://www.w3.org/2000/svg" xmlns:xlink="http://www.w3.org/1999/xlink" x="0px" y="0px"
	 viewBox="0 0 24 24" style="enable-background:new 0 0 24 24;" xml:space="preserve">
<g id="surface1">
	<path d="M14.4,10.8V3.6c0-1.3-1.1-2.4-2.4-2.4c-1.3,0-2.4,1.1-2.4,2.4v7.2c0,1.3,1.1,2.4,2.4,2.4C13.4,13.2,14.4,12.1,14.4,10.8z
		 M19.2,10.8c0,3.6-2.6,6.5-6,7.1v2.5h2.4c0.7,0,1.2,0.5,1.2,1.2s-0.5,1.2-1.2,1.2H8.4c-0.7,0-1.2-0.5-1.2-1.2s0.5-1.2,1.2-1.2h2.4
		v-2.5c-3.4-0.6-6-3.5-6-7.1c0-0.7,0.5-1.2,1.2-1.2c0.7,0,1.2,0.5,1.2,1.2c0,2.7,2.2,4.8,4.8,4.8c2.7,0,4.8-2.1,4.8-4.8
		c0-0.7,0.5-1.2,1.2-1.2C18.7,9.6,19.2,10.1,19.2,10.8z"/>
</g>
</svg>
