<?xml version="1.0" encoding="UTF-8" standalone="yes"?>
<svg xmlns="http://www.w3.org/2000/svg" xmlns:xlink="http://www.w3.org/1999/xlink" width="24px" height="24px" viewBox="0 0 18 18" version="1.1">
  <g id="surface1">
    <path style=" stroke:none;fill-rule:nonzero;fill:rgb(0%,0%,0%);fill-opacity:1;" d="M 10.800781 8.101562 L 10.800781 2.699219 C 10.800781 1.710938 10 0.898438 9 0.898438 C 7.992188 0.898438 7.199219 1.746094 7.199219 2.699219 L 7.199219 8.101562 C 7.199219 9.089844 8.011719 9.898438 9 9.898438 C 10.015625 9.898438 10.800781 9.054688 10.800781 8.101562 Z M 14.398438 8.101562 C 14.398438 10.773438 12.457031 12.988281 9.898438 13.417969 L 9.898438 15.300781 L 11.699219 15.300781 C 12.203125 15.300781 12.601562 15.703125 12.601562 16.199219 C 12.601562 16.695312 12.203125 17.101562 11.699219 17.101562 L 6.300781 17.101562 C 5.804688 17.101562 5.398438 16.695312 5.398438 16.199219 C 5.398438 15.703125 5.804688 15.300781 6.300781 15.300781 L 8.101562 15.300781 L 8.101562 13.417969 C 5.554688 12.988281 3.601562 10.773438 3.601562 8.101562 C 3.601562 7.605469 4.003906 7.199219 4.5 7.199219 C 5.003906 7.199219 5.398438 7.605469 5.398438 8.101562 C 5.398438 10.089844 7.019531 11.699219 9 11.699219 C 10.988281 11.699219 12.601562 10.089844 12.601562 8.101562 C 12.601562 7.605469 13.003906 7.199219 13.5 7.199219 C 14.003906 7.199219 14.398438 7.605469 14.398438 8.101562 Z M 14.398438 8.101562 "/>
  </g>
</svg>