<?xml version="1.0" encoding="UTF-8" standalone="yes"?>
<svg xmlns="http://www.w3.org/2000/svg" xmlns:xlink="http://www.w3.org/1999/xlink" width="24px" height="24px" viewBox="0 0 18 18" version="1.1">
  <g id="surface1">
    <path style=" stroke:none;fill-rule:nonzero;fill:rgb(0%,0%,0%);fill-opacity:1;" d="M 0 2.699219 L 18 2.699219 L 18 13.5 L 17.324219 13.5 C 17.324219 11.890625 16.011719 10.574219 14.398438 10.574219 C 13.222656 10.574219 12.222656 11.285156 11.753906 12.292969 C 11.527344 12.203125 11.285156 12.148438 11.023438 12.148438 C 10.144531 12.148438 9.40625 12.71875 9.125 13.5 L 0 13.5 Z M 7.53125 5.5 C 7.480469 5.632812 7.441406 5.777344 7.433594 5.921875 C 7.425781 6.066406 7.425781 6.21875 7.441406 6.371094 L 7.460938 6.445312 C 7.46875 6.496094 7.480469 6.570312 7.507812 6.652344 C 7.523438 6.742188 7.558594 6.832031 7.597656 6.929688 C 7.621094 7.027344 7.675781 7.128906 7.730469 7.226562 C 7.792969 7.335938 7.867188 7.425781 7.9375 7.507812 C 8.011719 7.585938 8.101562 7.660156 8.21875 7.714844 C 8.324219 7.765625 8.441406 7.792969 8.578125 7.792969 C 8.703125 7.792969 8.820312 7.765625 8.929688 7.714844 C 9.035156 7.660156 9.125 7.585938 9.199219 7.515625 C 9.277344 7.433594 9.34375 7.335938 9.394531 7.226562 C 9.460938 7.117188 9.503906 7.019531 9.539062 6.929688 C 9.574219 6.839844 9.601562 6.75 9.621094 6.652344 C 9.648438 6.550781 9.65625 6.488281 9.664062 6.453125 C 9.675781 6.417969 9.675781 6.390625 9.675781 6.371094 C 9.71875 6.109375 9.703125 5.867188 9.640625 5.632812 C 9.574219 5.398438 9.449219 5.203125 9.269531 5.039062 C 9.082031 4.878906 8.847656 4.796875 8.558594 4.796875 C 8.386719 4.796875 8.234375 4.824219 8.089844 4.886719 C 7.957031 4.949219 7.839844 5.03125 7.75 5.140625 C 7.667969 5.238281 7.597656 5.363281 7.53125 5.5 Z M 11.566406 10.933594 L 11.566406 9.910156 C 11.566406 9.613281 11.476562 9.316406 11.304688 9.027344 C 11.132812 8.738281 10.898438 8.496094 10.609375 8.316406 C 10.324219 8.128906 10.015625 8.035156 9.691406 8.035156 L 8.578125 8.792969 L 7.425781 8.054688 C 7.09375 8.054688 6.777344 8.144531 6.488281 8.324219 C 6.210938 8.503906 5.984375 8.738281 5.824219 9.019531 C 5.660156 9.304688 5.578125 9.601562 5.578125 9.910156 L 5.578125 10.933594 L 5.742188 10.980469 C 5.851562 11.015625 6.003906 11.050781 6.199219 11.105469 C 6.40625 11.152344 6.625 11.195312 6.867188 11.242188 C 7.101562 11.285156 7.378906 11.320312 7.6875 11.359375 C 7.992188 11.386719 8.289062 11.402344 8.578125 11.402344 C 8.847656 11.402344 9.144531 11.386719 9.460938 11.359375 C 9.765625 11.320312 10.035156 11.285156 10.261719 11.242188 C 10.484375 11.203125 10.710938 11.152344 10.945312 11.097656 L 11.394531 10.988281 C 11.464844 10.972656 11.519531 10.953125 11.566406 10.933594 Z M 14.398438 11.023438 C 15.769531 11.023438 16.875 12.132812 16.875 13.5 C 16.875 14.867188 15.769531 15.976562 14.398438 15.976562 C 13.742188 15.976562 13.15625 15.703125 12.71875 15.28125 C 12.925781 14.96875 13.050781 14.578125 13.050781 14.175781 C 13.050781 13.480469 12.699219 12.859375 12.160156 12.5 C 12.546875 11.636719 13.390625 11.023438 14.398438 11.023438 Z M 9.449219 14.175781 C 9.449219 13.3125 10.160156 12.601562 11.023438 12.601562 C 11.890625 12.601562 12.601562 13.3125 12.601562 14.175781 C 12.601562 15.039062 11.890625 15.75 11.023438 15.75 C 10.160156 15.75 9.449219 15.039062 9.449219 14.175781 Z M 9.449219 14.175781 "/>
  </g>
</svg>