<?xml version="1.0" encoding="UTF-8" standalone="yes"?>
<svg xmlns="http://www.w3.org/2000/svg" xmlns:xlink="http://www.w3.org/1999/xlink" width="24px" height="24px" viewBox="0 0 18 18" version="1.1">
  <g id="surface1">
    <path style=" stroke:none;fill-rule:nonzero;fill:rgb(0%,0%,0%);fill-opacity:1;" d="M 10.800781 4.5 L 10.800781 1.800781 C 10.800781 1.304688 10.394531 0.898438 9.898438 0.898438 L 8.101562 0.898438 C 7.605469 0.898438 7.199219 1.304688 7.199219 1.800781 L 7.199219 4.5 C 7.199219 4.996094 7.605469 5.398438 8.101562 5.398438 L 9.898438 5.398438 C 10.394531 5.398438 10.800781 4.996094 10.800781 4.5 Z M 9 1.800781 C 9.496094 1.800781 9.898438 2.203125 9.898438 2.699219 C 9.898438 3.195312 9.496094 3.601562 9 3.601562 C 8.503906 3.601562 8.101562 3.195312 8.101562 2.699219 C 8.101562 2.203125 8.503906 1.800781 9 1.800781 Z M 16.199219 13.5 L 16.199219 6.300781 C 16.199219 5.308594 15.390625 4.5 14.398438 4.5 L 11.699219 4.5 L 11.699219 4.796875 C 11.699219 5.625 11.023438 6.300781 10.195312 6.300781 L 7.804688 6.300781 C 6.976562 6.300781 6.300781 5.625 6.300781 4.796875 L 6.300781 4.5 L 3.601562 4.5 C 2.609375 4.5 1.800781 5.308594 1.800781 6.300781 L 1.800781 13.5 C 1.800781 14.488281 2.609375 15.300781 3.601562 15.300781 L 14.398438 15.300781 C 15.390625 15.300781 16.199219 14.488281 16.199219 13.5 Z M 15.300781 8.101562 L 15.300781 13.5 L 2.699219 13.5 L 2.699219 8.101562 Z M 8.101562 9.898438 C 8.101562 9.40625 7.902344 9 7.648438 9 C 7.398438 9 7.199219 9.40625 7.199219 9.898438 C 7.199219 10.394531 7.398438 10.800781 7.648438 10.800781 C 7.902344 10.800781 8.101562 10.394531 8.101562 9.898438 Z M 10.800781 9.898438 C 10.800781 9.40625 10.601562 9 10.351562 9 C 10.097656 9 9.898438 9.40625 9.898438 9.898438 C 9.898438 10.394531 10.097656 10.800781 10.351562 10.800781 C 10.601562 10.800781 10.800781 10.394531 10.800781 9.898438 Z M 5.4375 10.988281 C 6.265625 11.421875 7.542969 11.699219 9 11.699219 C 10.457031 11.699219 11.734375 11.421875 12.5625 10.988281 C 12.375 11.890625 10.863281 12.601562 9 12.601562 C 7.136719 12.601562 5.625 11.890625 5.4375 10.988281 Z M 5.4375 10.988281 "/>
  </g>
</svg>