<?xml version="1.0" encoding="utf-8"?>
<!-- Generator: Adobe Illustrator 21.0.2, SVG Export Plug-In . SVG Version: 6.00 Build 0)  -->
<svg version="1.1" id="Layer_1" xmlns="http://www.w3.org/2000/svg" xmlns:xlink="http://www.w3.org/1999/xlink" x="0px" y="0px"
	 viewBox="0 0 24 24" style="enable-background:new 0 0 24 24;" xml:space="preserve">
<g id="surface1">
	<path d="M14.4,6V2.4c0-0.7-0.5-1.2-1.2-1.2h-2.4c-0.7,0-1.2,0.5-1.2,1.2V6c0,0.7,0.5,1.2,1.2,1.2h2.4C13.9,7.2,14.4,6.7,14.4,6z
		 M12,2.4c0.7,0,1.2,0.5,1.2,1.2c0,0.7-0.5,1.2-1.2,1.2c-0.7,0-1.2-0.5-1.2-1.2C10.8,2.9,11.3,2.4,12,2.4z M21.6,18V8.4
		c0-1.3-1.1-2.4-2.4-2.4h-3.6v0.4c0,1.1-0.9,2-2,2h-3.2c-1.1,0-2-0.9-2-2V6H4.8C3.5,6,2.4,7.1,2.4,8.4V18c0,1.3,1.1,2.4,2.4,2.4
		h14.4C20.5,20.4,21.6,19.3,21.6,18z M20.4,10.8V18H3.6v-7.2H20.4z M10.8,13.2c0-0.7-0.3-1.2-0.6-1.2c-0.3,0-0.6,0.5-0.6,1.2
		c0,0.7,0.3,1.2,0.6,1.2C10.5,14.4,10.8,13.9,10.8,13.2z M14.4,13.2c0-0.7-0.3-1.2-0.6-1.2c-0.3,0-0.6,0.5-0.6,1.2
		c0,0.7,0.3,1.2,0.6,1.2C14.1,14.4,14.4,13.9,14.4,13.2z M7.2,14.7c1.1,0.6,2.8,0.9,4.8,0.9s3.6-0.4,4.8-0.9
		c-0.2,1.2-2.3,2.2-4.8,2.2S7.5,15.9,7.2,14.7z"/>
</g>
</svg>
