<?xml version="1.0" encoding="UTF-8" standalone="yes"?>
<svg xmlns="http://www.w3.org/2000/svg" xmlns:xlink="http://www.w3.org/1999/xlink" width="24px" height="24px" viewBox="0 0 18 18" version="1.1">
  <g id="surface1">
    <path style=" stroke:none;fill-rule:nonzero;fill:rgb(0%,0%,0%);fill-opacity:1;" d="M 16.199219 11.699219 L 17.101562 11.699219 C 17.59375 11.699219 18 12.105469 18 12.609375 L 18 15.289062 C 18 15.796875 17.59375 16.199219 17.101562 16.199219 L 13.5 16.199219 C 13.003906 16.199219 12.601562 15.796875 12.601562 15.289062 L 12.601562 12.609375 C 12.601562 12.105469 13.003906 11.699219 13.5 11.699219 L 14.398438 11.699219 L 14.398438 9.898438 L 9.898438 9.898438 L 9.898438 11.699219 L 10.800781 11.699219 C 11.296875 11.699219 11.699219 12.105469 11.699219 12.609375 L 11.699219 15.289062 C 11.699219 15.796875 11.296875 16.199219 10.800781 16.199219 L 7.199219 16.199219 C 6.703125 16.199219 6.300781 15.796875 6.300781 15.289062 L 6.300781 12.609375 C 6.300781 12.105469 6.703125 11.699219 7.199219 11.699219 L 8.101562 11.699219 L 8.101562 9.898438 L 3.601562 9.898438 L 3.601562 11.699219 L 4.5 11.699219 C 4.996094 11.699219 5.398438 12.105469 5.398438 12.609375 L 5.398438 15.289062 C 5.398438 15.796875 4.996094 16.199219 4.5 16.199219 L 0.898438 16.199219 C 0.40625 16.199219 0 15.796875 0 15.289062 L 0 12.609375 C 0 12.105469 0.40625 11.699219 0.898438 11.699219 L 1.800781 11.699219 L 1.800781 9.898438 C 1.800781 8.910156 2.609375 8.101562 3.601562 8.101562 L 8.101562 8.101562 L 8.101562 6.300781 L 7.199219 6.300781 C 6.703125 6.300781 6.300781 5.894531 6.300781 5.390625 L 6.300781 2.710938 C 6.300781 2.203125 6.703125 1.800781 7.199219 1.800781 L 10.800781 1.800781 C 11.296875 1.800781 11.699219 2.203125 11.699219 2.710938 L 11.699219 5.390625 C 11.699219 5.894531 11.296875 6.300781 10.800781 6.300781 L 9.898438 6.300781 L 9.898438 8.101562 L 14.398438 8.101562 C 15.390625 8.101562 16.199219 8.910156 16.199219 9.898438 Z M 16.199219 11.699219 "/>
  </g>
</svg>