<?xml version="1.0" encoding="UTF-8" standalone="yes"?>
<svg xmlns="http://www.w3.org/2000/svg" xmlns:xlink="http://www.w3.org/1999/xlink" width="24px" height="24px" viewBox="0 0 18 18" version="1.1">
  <g id="surface1">
    <path style=" stroke:none;fill-rule:nonzero;fill:rgb(0%,0%,0%);fill-opacity:1;" d="M 7.722656 2.152344 C 8.011719 2.152344 8.253906 2.195312 8.449219 2.277344 C 9.574219 2.773438 9.972656 4.292969 9.980469 5.851562 C 10.511719 5.113281 11.914062 3.789062 13.050781 3.789062 C 14.183594 3.789062 15.695312 4.445312 16.226562 6.984375 C 15.210938 6.398438 14.050781 6.136719 12.941406 6.136719 C 11.808594 6.136719 10.738281 6.425781 9.980469 6.9375 C 10.339844 6.839844 10.753906 6.796875 11.179688 6.796875 C 12.429688 6.796875 13.789062 7.199219 14.238281 7.972656 C 14.851562 9.019531 14.660156 11.015625 13.554688 11.699219 C 13.429688 9.808594 12.03125 7.992188 10.429688 7.992188 C 10.035156 7.992188 9.640625 8.101562 9.234375 8.335938 C 7.199219 9.558594 6.300781 13.105469 6.300781 17.101562 L 1.800781 17.101562 C 1.800781 12.121094 5.589844 8.414062 8.710938 7.390625 C 8.207031 7.308594 7.660156 7.253906 7.074219 7.253906 C 5.488281 7.253906 3.644531 7.648438 1.800781 9 C 2.484375 6.335938 4.300781 5.308594 6.019531 5.308594 C 7.144531 5.308594 8.226562 5.761719 8.902344 6.472656 C 8.308594 4.453125 6.660156 3.898438 5.230469 3.898438 C 4.507812 3.898438 3.835938 4.039062 3.382812 4.210938 C 4.203125 3.050781 6.363281 2.152344 7.722656 2.152344 Z M 11.699219 10.351562 C 11.699219 9.601562 11.097656 9 10.351562 9 C 9.601562 9 9 9.601562 9 10.351562 C 9 11.097656 9.601562 11.699219 10.351562 11.699219 C 11.097656 11.699219 11.699219 11.097656 11.699219 10.351562 Z M 11.699219 10.351562 "/>
  </g>
</svg>