<?xml version="1.0" encoding="utf-8"?>
<!-- Generator: Adobe Illustrator 21.0.2, SVG Export Plug-In . SVG Version: 6.00 Build 0)  -->
<svg version="1.1" id="Layer_1" xmlns="http://www.w3.org/2000/svg" xmlns:xlink="http://www.w3.org/1999/xlink" x="0px" y="0px"
	 viewBox="0 0 24 24" style="enable-background:new 0 0 24 24;" xml:space="preserve">
<g id="surface1">
	<path d="M10.3,2.9c0.4,0,0.7,0.1,1,0.2c1.5,0.7,2,2.7,2,4.8c0.7-1,2.6-2.8,4.1-2.8c1.5,0,3.5,0.9,4.2,4.3c-1.4-0.8-2.9-1.1-4.4-1.1
		c-1.5,0-2.9,0.4-3.9,1.1c0.5-0.1,1-0.2,1.6-0.2c1.7,0,3.5,0.5,4.1,1.6c0.8,1.4,0.6,4.1-0.9,5c-0.2-2.5-2-4.9-4.2-4.9
		c-0.5,0-1.1,0.1-1.6,0.5c-2.7,1.6-3.9,6.4-3.9,11.7h-6c0-6.6,5.1-11.6,9.2-12.9c-0.7-0.1-1.4-0.2-2.2-0.2c-2.1,0-4.6,0.5-7,2.3
		C3.3,8.4,5.7,7.1,8,7.1c1.5,0,2.9,0.6,3.8,1.6c-0.8-2.7-3-3.4-4.9-3.4c-1,0-1.9,0.2-2.5,0.4C5.6,4.1,8.5,2.9,10.3,2.9z M15.6,13.8
		c0-1-0.8-1.8-1.8-1.8c-1,0-1.8,0.8-1.8,1.8c0,1,0.8,1.8,1.8,1.8C14.8,15.6,15.6,14.8,15.6,13.8z"/>
</g>
</svg>
