<?xml version="1.0" encoding="UTF-8" standalone="yes"?>
<svg xmlns="http://www.w3.org/2000/svg" xmlns:xlink="http://www.w3.org/1999/xlink" width="24px" height="24px" viewBox="0 0 18 18" version="1.1">
  <g id="surface1">
    <path style=" stroke:none;fill-rule:nonzero;fill:rgb(0%,0%,0%);fill-opacity:1;" d="M 15.34375 2.429688 C 17.082031 4.175781 17.082031 7.046875 15.34375 8.792969 L 9 15.15625 C 7.308594 16.855469 4.582031 16.894531 2.824219 15.289062 C 2.773438 15.246094 2.710938 15.210938 2.65625 15.15625 C 0.917969 13.410156 0.917969 10.546875 2.65625 8.792969 L 7.101562 4.339844 C 7.921875 3.511719 9.152344 3.347656 10.152344 3.816406 C 10.421875 3.949219 10.683594 4.113281 10.898438 4.339844 C 11.953125 5.390625 11.953125 7.101562 10.898438 8.152344 L 6.460938 12.609375 C 6.109375 12.960938 5.542969 12.960938 5.191406 12.609375 C 4.84375 12.257812 4.84375 11.691406 5.191406 11.339844 L 9.628906 6.886719 C 9.980469 6.535156 9.980469 5.96875 9.628906 5.617188 C 9.289062 5.265625 8.710938 5.265625 8.371094 5.617188 L 3.925781 10.070312 C 3.105469 10.898438 2.933594 12.132812 3.410156 13.132812 C 3.535156 13.402344 3.699219 13.660156 3.925781 13.886719 C 4.148438 14.113281 4.410156 14.273438 4.679688 14.398438 C 5.679688 14.878906 6.902344 14.714844 7.730469 13.886719 L 14.074219 7.523438 C 15.121094 6.472656 15.121094 4.753906 14.074219 3.699219 C 13.570312 3.203125 12.925781 2.953125 12.277344 2.925781 C 12.203125 2.933594 12.132812 2.933594 12.058594 2.925781 C 11.863281 2.898438 11.671875 2.824219 11.519531 2.683594 C 11.167969 2.320312 11.179688 1.738281 11.539062 1.378906 C 11.683594 1.234375 11.863281 1.160156 12.042969 1.125 C 12.167969 1.105469 12.285156 1.117188 12.402344 1.144531 C 13.472656 1.195312 14.527344 1.609375 15.34375 2.429688 Z M 15.34375 2.429688 "/>
  </g>
</svg>