<?xml version="1.0" encoding="utf-8"?>
<!-- Generator: Adobe Illustrator 21.0.2, SVG Export Plug-In . SVG Version: 6.00 Build 0)  -->
<svg version="1.1" id="Layer_1" xmlns="http://www.w3.org/2000/svg" xmlns:xlink="http://www.w3.org/1999/xlink" x="0px" y="0px"
	 viewBox="0 0 24 24" style="enable-background:new 0 0 24 24;" xml:space="preserve">
<g id="surface1">
	<path d="M20.5,3.2c2.3,2.3,2.3,6.2,0,8.5L12,20.2c-2.3,2.3-5.9,2.3-8.2,0.2c-0.1-0.1-0.2-0.1-0.2-0.2c-2.3-2.3-2.3-6.1,0-8.5
		l5.9-5.9c1.1-1.1,2.7-1.3,4.1-0.7c0.4,0.2,0.7,0.4,1,0.7c1.4,1.4,1.4,3.7,0,5.1l-5.9,5.9c-0.5,0.5-1.2,0.5-1.7,0
		c-0.5-0.5-0.5-1.2,0-1.7l5.9-5.9c0.5-0.5,0.5-1.2,0-1.7c-0.5-0.5-1.2-0.5-1.7,0l-5.9,5.9c-1.1,1.1-1.3,2.8-0.7,4.1
		c0.2,0.4,0.4,0.7,0.7,1c0.3,0.3,0.6,0.5,1,0.7c1.3,0.6,3,0.4,4.1-0.7l8.5-8.5c1.4-1.4,1.4-3.7,0-5.1c-0.7-0.7-1.5-1-2.4-1
		c-0.1,0-0.2,0-0.3,0c-0.3,0-0.5-0.1-0.7-0.3c-0.5-0.5-0.5-1.3,0-1.7c0.2-0.2,0.4-0.3,0.7-0.3c0.2,0,0.3,0,0.5,0
		C18,1.6,19.4,2.1,20.5,3.2z"/>
</g>
</svg>
