<?xml version="1.0" encoding="UTF-8" standalone="yes"?>
<svg xmlns="http://www.w3.org/2000/svg" xmlns:xlink="http://www.w3.org/1999/xlink" width="24px" height="24px" viewBox="0 0 18 18" version="1.1">
  <g id="surface1">
    <path style=" stroke:none;fill-rule:nonzero;fill:rgb(0%,0%,0%);fill-opacity:1;" d="M 3.382812 15.308594 L 14.617188 15.308594 C 15.605469 14.066406 16.199219 12.511719 16.199219 10.800781 C 16.199219 6.832031 12.976562 3.601562 9 3.601562 C 5.023438 3.601562 1.800781 6.832031 1.800781 10.800781 C 1.800781 12.511719 2.394531 14.066406 3.382812 15.308594 Z M 8.101562 5.398438 C 8.101562 4.90625 8.503906 4.5 9 4.5 C 9.496094 4.5 9.898438 4.90625 9.898438 5.398438 C 9.898438 5.902344 9.496094 6.300781 9 6.300781 C 8.503906 6.300781 8.101562 5.902344 8.101562 5.398438 Z M 3.601562 7.199219 C 3.601562 6.703125 4.003906 6.300781 4.5 6.300781 C 4.996094 6.300781 5.398438 6.703125 5.398438 7.199219 C 5.398438 7.703125 4.996094 8.101562 4.5 8.101562 C 4.003906 8.101562 3.601562 7.703125 3.601562 7.199219 Z M 7.667969 10.261719 C 8.425781 9.511719 13.527344 7.109375 13.527344 7.109375 C 13.527344 7.109375 11.132812 12.222656 10.386719 12.96875 C 9.628906 13.726562 8.425781 13.726562 7.667969 12.96875 C 6.921875 12.222656 6.921875 11.007812 7.667969 10.261719 Z M 2.699219 11.699219 C 2.699219 11.203125 3.105469 10.800781 3.601562 10.800781 C 4.09375 10.800781 4.5 11.203125 4.5 11.699219 C 4.5 12.203125 4.09375 12.601562 3.601562 12.601562 C 3.105469 12.601562 2.699219 12.203125 2.699219 11.699219 Z M 8.101562 11.699219 C 8.101562 11.203125 8.503906 10.800781 9 10.800781 C 9.496094 10.800781 9.898438 11.203125 9.898438 11.699219 C 9.898438 12.203125 9.496094 12.601562 9 12.601562 C 8.503906 12.601562 8.101562 12.203125 8.101562 11.699219 Z M 13.5 11.699219 C 13.5 11.203125 13.90625 10.800781 14.398438 10.800781 C 14.894531 10.800781 15.300781 11.203125 15.300781 11.699219 C 15.300781 12.203125 14.894531 12.601562 14.398438 12.601562 C 13.90625 12.601562 13.5 12.203125 13.5 11.699219 Z M 13.5 11.699219 "/>
  </g>
</svg>