<?xml version="1.0" encoding="utf-8"?>
<!-- Generator: Adobe Illustrator 21.0.2, SVG Export Plug-In . SVG Version: 6.00 Build 0)  -->
<svg version="1.1" id="Layer_1" xmlns="http://www.w3.org/2000/svg" xmlns:xlink="http://www.w3.org/1999/xlink" x="0px" y="0px"
	 viewBox="0 0 24 24" style="enable-background:new 0 0 24 24;" xml:space="preserve">
<g id="surface1">
	<path d="M4.5,20.4h15c1.3-1.7,2.1-3.7,2.1-6c0-5.3-4.3-9.6-9.6-9.6s-9.6,4.3-9.6,9.6C2.4,16.7,3.2,18.8,4.5,20.4z M10.8,7.2
		C10.8,6.5,11.3,6,12,6c0.7,0,1.2,0.5,1.2,1.2c0,0.7-0.5,1.2-1.2,1.2C11.3,8.4,10.8,7.9,10.8,7.2z M4.8,9.6c0-0.7,0.5-1.2,1.2-1.2
		s1.2,0.5,1.2,1.2c0,0.7-0.5,1.2-1.2,1.2S4.8,10.3,4.8,9.6z M10.2,13.7c1-1,7.8-4.2,7.8-4.2s-3.2,6.8-4.2,7.8c-1,1-2.6,1-3.6,0
		C9.2,16.3,9.2,14.7,10.2,13.7z M3.6,15.6c0-0.7,0.5-1.2,1.2-1.2c0.7,0,1.2,0.5,1.2,1.2c0,0.7-0.5,1.2-1.2,1.2
		C4.1,16.8,3.6,16.3,3.6,15.6z M10.8,15.6c0-0.7,0.5-1.2,1.2-1.2c0.7,0,1.2,0.5,1.2,1.2c0,0.7-0.5,1.2-1.2,1.2
		C11.3,16.8,10.8,16.3,10.8,15.6z M18,15.6c0-0.7,0.5-1.2,1.2-1.2c0.7,0,1.2,0.5,1.2,1.2c0,0.7-0.5,1.2-1.2,1.2
		C18.5,16.8,18,16.3,18,15.6z"/>
</g>
</svg>
