<?xml version="1.0" encoding="UTF-8" standalone="yes"?>
<svg xmlns="http://www.w3.org/2000/svg" xmlns:xlink="http://www.w3.org/1999/xlink" width="24px" height="24px" viewBox="0 0 18 18" version="1.1">
  <g id="surface1">
    <path style=" stroke:none;fill-rule:nonzero;fill:rgb(0%,0%,0%);fill-opacity:1;" d="M 10.855469 5.398438 L 10.664062 5.21875 C 10.195312 4.734375 10.277344 4.507812 10.738281 4.050781 L 13.183594 1.574219 C 13.914062 0.835938 14.050781 0.484375 14.742188 1.144531 L 14.929688 1.324219 Z M 11.332031 5.804688 L 15.289062 1.84375 C 15.921875 2.691406 17.398438 4.96875 16.667969 6.652344 C 16.011719 8.152344 15.6875 8.226562 14.867188 9.351562 C 13.203125 11.25 11.105469 13.285156 9.46875 14.8125 C 8.335938 15.632812 8.289062 16.011719 6.769531 16.613281 C 5.148438 17.253906 2.808594 15.8125 1.925781 15.210938 L 5.886719 11.25 L 6.949219 12.707031 C 7.253906 13.121094 8.027344 12.652344 8.566406 12.113281 C 9.503906 11.167969 11.429688 9.253906 12.167969 8.449219 C 12.699219 7.921875 13.175781 7.144531 12.761719 6.832031 Z M 1.414062 14.851562 L 1.222656 14.660156 C 0.613281 13.996094 0.964844 13.851562 1.691406 13.132812 L 4.15625 10.683594 C 4.617188 10.242188 4.832031 10.144531 5.300781 10.585938 L 5.480469 10.773438 Z M 1.414062 14.851562 "/>
  </g>
</svg>