<?xml version="1.0" encoding="utf-8"?>
<!-- Generator: Adobe Illustrator 21.0.2, SVG Export Plug-In . SVG Version: 6.00 Build 0)  -->
<svg version="1.1" id="Layer_1" xmlns="http://www.w3.org/2000/svg" xmlns:xlink="http://www.w3.org/1999/xlink" x="0px" y="0px"
	 viewBox="0 0 24 24" style="enable-background:new 0 0 24 24;" xml:space="preserve">
<g id="surface1">
	<path d="M20.4,3.6V1.2h-18v2.4H20.4z M20.4,8.4V6h-18v2.4H20.4z M7.2,13.2v-2.4H2.4v2.4H7.2z M9.6,10.8h10.8c0.7,0,1.2,0.5,1.2,1.2
		v9.6c0,0.7-0.5,1.2-1.2,1.2H9.6c-0.7,0-1.2-0.5-1.2-1.2V12C8.4,11.3,8.9,10.8,9.6,10.8z M13.2,19.2l4-2.4l-4-2.4V19.2z M7.2,18
		v-2.4H2.4V18H7.2z M7.2,22.8v-2.4H2.4v2.4H7.2z"/>
</g>
</svg>
