<?xml version="1.0" encoding="UTF-8" standalone="yes"?>
<svg xmlns="http://www.w3.org/2000/svg" xmlns:xlink="http://www.w3.org/1999/xlink" width="24px" height="24px" viewBox="0 0 18 18" version="1.1">
  <g id="surface1">
    <path style=" stroke:none;fill-rule:nonzero;fill:rgb(0%,0%,0%);fill-opacity:1;" d="M 15.300781 2.699219 L 15.300781 0.898438 L 1.800781 0.898438 L 1.800781 2.699219 Z M 15.300781 6.300781 L 15.300781 4.5 L 1.800781 4.5 L 1.800781 6.300781 Z M 9 9.898438 L 9 8.101562 L 1.800781 8.101562 L 1.800781 9.898438 Z M 15.703125 8.136719 L 10.304688 9.144531 C 10.160156 9.160156 10.132812 9.171875 10.042969 9.261719 C 9.945312 9.34375 9.898438 9.460938 9.898438 9.59375 L 9.898438 13.726562 C 9.640625 13.609375 9.304688 13.597656 9.0625 13.597656 C 8.578125 13.597656 8.164062 13.769531 7.820312 14.113281 C 7.480469 14.453125 7.316406 14.867188 7.316406 15.355469 C 7.316406 15.832031 7.480469 16.246094 7.820312 16.585938 C 8.164062 16.929688 8.578125 17.101562 9.0625 17.101562 C 9.503906 17.101562 9.890625 16.957031 10.222656 16.667969 C 10.558594 16.378906 10.753906 16.027344 10.808594 15.597656 L 10.808594 11.140625 L 15.300781 10.144531 L 15.300781 13.273438 C 15.039062 13.15625 14.796875 13.105469 14.554688 13.105469 C 14.066406 13.105469 13.554688 13.273438 13.210938 13.617188 C 12.871094 13.949219 12.699219 14.363281 12.699219 14.851562 C 12.699219 15.335938 12.871094 15.742188 13.210938 16.082031 C 13.554688 16.425781 13.96875 16.597656 14.453125 16.597656 C 14.929688 16.597656 15.34375 16.425781 15.6875 16.082031 C 16.027344 15.742188 16.199219 15.335938 16.199219 14.851562 L 16.199219 8.640625 C 16.199219 8.496094 16.15625 8.371094 16.054688 8.269531 C 15.957031 8.164062 15.839844 8.117188 15.703125 8.136719 Z M 7.199219 13.5 L 7.199219 11.699219 L 1.800781 11.699219 L 1.800781 13.5 Z M 5.398438 17.101562 L 5.398438 15.300781 L 1.800781 15.300781 L 1.800781 17.101562 Z M 5.398438 17.101562 "/>
  </g>
</svg>