<?xml version="1.0" encoding="utf-8"?>
<!-- Generator: Adobe Illustrator 21.0.2, SVG Export Plug-In . SVG Version: 6.00 Build 0)  -->
<svg version="1.1" id="Layer_1" xmlns="http://www.w3.org/2000/svg" xmlns:xlink="http://www.w3.org/1999/xlink" x="0px" y="0px"
	 viewBox="0 0 24 24" style="enable-background:new 0 0 24 24;" xml:space="preserve">
<g id="surface1">
	<path d="M20.4,3.6V1.2h-18v2.4H20.4z M20.4,8.4V6h-18v2.4H20.4z M12,13.2v-2.4H2.4v2.4H12z M20.9,10.8l-7.2,1.3
		c-0.2,0-0.2,0-0.3,0.2c-0.1,0.1-0.2,0.3-0.2,0.4v5.5c-0.3-0.2-0.8-0.2-1.1-0.2c-0.6,0-1.2,0.2-1.7,0.7c-0.5,0.5-0.7,1-0.7,1.7
		c0,0.6,0.2,1.2,0.7,1.6c0.5,0.5,1,0.7,1.7,0.7c0.6,0,1.1-0.2,1.5-0.6c0.4-0.4,0.7-0.9,0.8-1.4v-5.9l6-1.3v4.2
		c-0.3-0.2-0.7-0.2-1-0.2c-0.7,0-1.3,0.2-1.8,0.7c-0.5,0.4-0.7,1-0.7,1.6c0,0.6,0.2,1.2,0.7,1.6c0.5,0.5,1,0.7,1.7,0.7
		c0.6,0,1.2-0.2,1.6-0.7c0.5-0.5,0.7-1,0.7-1.6v-8.3c0-0.2-0.1-0.4-0.2-0.5C21.3,10.9,21.1,10.8,20.9,10.8z M9.6,18v-2.4H2.4V18H9.6
		z M7.2,22.8v-2.4H2.4v2.4H7.2z"/>
</g>
</svg>
