<?xml version="1.0" encoding="UTF-8" standalone="yes"?>
<svg xmlns="http://www.w3.org/2000/svg" xmlns:xlink="http://www.w3.org/1999/xlink" width="24px" height="24px" viewBox="0 0 18 18" version="1.1">
  <g id="surface1">
    <path style=" stroke:none;fill-rule:nonzero;fill:rgb(0%,0%,0%);fill-opacity:1;" d="M 15.300781 2.699219 L 15.300781 0.898438 L 1.800781 0.898438 L 1.800781 2.699219 Z M 15.300781 6.300781 L 15.300781 4.5 L 1.800781 4.5 L 1.800781 6.300781 Z M 5.398438 9.898438 L 5.398438 8.101562 L 1.800781 8.101562 L 1.800781 9.898438 Z M 7.199219 8.101562 L 15.300781 8.101562 C 15.796875 8.101562 16.199219 8.503906 16.199219 9 L 16.199219 16.199219 C 16.199219 16.695312 15.796875 17.101562 15.300781 17.101562 L 7.199219 17.101562 C 6.703125 17.101562 6.300781 16.695312 6.300781 16.199219 L 6.300781 9 C 6.300781 8.503906 6.703125 8.101562 7.199219 8.101562 Z M 9.898438 14.398438 L 12.898438 12.601562 L 9.898438 10.800781 Z M 5.398438 13.5 L 5.398438 11.699219 L 1.800781 11.699219 L 1.800781 13.5 Z M 5.398438 17.101562 L 5.398438 15.300781 L 1.800781 15.300781 L 1.800781 17.101562 Z M 5.398438 17.101562 "/>
  </g>
</svg>