<?xml version="1.0" encoding="UTF-8" standalone="yes"?>
<svg xmlns="http://www.w3.org/2000/svg" xmlns:xlink="http://www.w3.org/1999/xlink" width="24px" height="24px" viewBox="0 0 18 18" version="1.1">
  <g id="surface1">
    <path style=" stroke:none;fill-rule:nonzero;fill:rgb(0%,0%,0%);fill-opacity:1;" d="M 3.601562 4.5 L 0.703125 4.5 C 0.367188 4.5 0.0351562 4.789062 0.0820312 5.257812 L 1.484375 14.246094 C 1.484375 14.246094 3.148438 7.621094 3.472656 6.03125 C 3.574219 5.554688 4.023438 5.398438 4.355469 5.398438 L 9 5.398438 C 9 5.398438 8.371094 3.527344 8.308594 3.320312 C 8.199219 2.925781 8 2.699219 7.605469 2.699219 L 4.625 2.699219 C 4.300781 2.699219 3.996094 2.90625 3.90625 3.277344 C 3.824219 3.636719 3.601562 4.5 3.601562 4.5 Z M 7.992188 4.5 L 4.390625 4.5 C 4.390625 4.5 4.769531 3.601562 5.175781 3.601562 L 7.09375 3.601562 C 7.523438 3.601562 7.992188 4.5 7.992188 4.5 Z M 2.402344 14.625 C 2.125 15.046875 1.71875 15.300781 1.269531 15.300781 L 15.425781 15.300781 C 15.910156 15.300781 16.253906 15.019531 16.351562 14.554688 C 16.75 12.582031 17.863281 6.957031 17.863281 6.957031 C 17.929688 6.507812 17.59375 6.300781 17.308594 6.300781 L 14.398438 6.300781 L 14.398438 4.976562 C 14.398438 4.832031 14.164062 4.5 13.804688 4.5 L 10.421875 4.5 C 9.953125 4.5 9.640625 5.023438 9.640625 5.023438 L 9 6.300781 L 5.03125 6.300781 C 4.742188 6.300781 4.464844 6.472656 4.410156 6.75 C 4.410156 6.75 2.980469 12.78125 2.863281 13.347656 C 2.800781 13.679688 2.664062 14.238281 2.402344 14.625 Z M 13.84375 6.300781 L 9.898438 6.300781 C 9.898438 6.300781 10.421875 5.398438 10.917969 5.398438 L 12.976562 5.398438 C 13.617188 5.398438 13.84375 6.300781 13.84375 6.300781 Z M 13.84375 6.300781 "/>
  </g>
</svg>