<?xml version="1.0" encoding="utf-8"?>
<!-- Generator: Adobe Illustrator 21.0.2, SVG Export Plug-In . SVG Version: 6.00 Build 0)  -->
<svg version="1.1" id="Layer_1" xmlns="http://www.w3.org/2000/svg" xmlns:xlink="http://www.w3.org/1999/xlink" x="0px" y="0px"
	 viewBox="0 0 24 24" style="enable-background:new 0 0 24 24;" xml:space="preserve">
<g id="surface1">
	<path d="M4.8,6H1C0.5,6,0.1,6.4,0.1,7L2,19c0,0,2.2-8.8,2.7-11c0.1-0.6,0.7-0.8,1.2-0.8H12c0,0-0.8-2.5-0.9-2.8
		c-0.1-0.5-0.4-0.8-0.9-0.8h-4c-0.4,0-0.8,0.3-1,0.8C5.1,4.8,4.8,6,4.8,6z M10.7,6H5.9c0,0,0.5-1.2,1-1.2h2.6
		C10.1,4.8,10.7,6,10.7,6z M3.2,19.5c-0.4,0.6-0.9,0.9-1.5,0.9h18.9c0.6,0,1.1-0.4,1.2-1c0.5-2.6,2-10.1,2-10.1
		c0.1-0.6-0.4-0.9-0.7-0.9h-3.9V6.6c0-0.2-0.3-0.6-0.8-0.6h-4.5c-0.6,0-1,0.7-1,0.7L12,8.4H6.7C6.4,8.4,6,8.6,5.9,9
		c0,0-1.9,8-2.1,8.8C3.8,18.2,3.6,19,3.2,19.5z M18.5,8.4h-5.3c0,0,0.7-1.2,1.4-1.2h2.7C18.2,7.2,18.5,8.4,18.5,8.4z"/>
</g>
</svg>
