<?xml version="1.0" encoding="UTF-8" standalone="yes"?>
<svg xmlns="http://www.w3.org/2000/svg" xmlns:xlink="http://www.w3.org/1999/xlink" width="24px" height="24px" viewBox="0 0 18 18" version="1.1">
  <g id="surface1">
    <path style=" stroke:none;fill-rule:nonzero;fill:rgb(0%,0%,0%);fill-opacity:1;" d="M 12.601562 5.398438 C 12.601562 7.074219 11.449219 8.46875 9.898438 8.875 L 9.898438 14.398438 C 9.898438 15.300781 8.101562 16.199219 8.101562 16.199219 L 8.101562 8.875 C 6.550781 8.46875 5.398438 7.074219 5.398438 5.398438 C 5.398438 3.410156 7.011719 1.800781 9 1.800781 C 10.988281 1.800781 12.601562 3.410156 12.601562 5.398438 Z M 7.199219 4.5 C 7.199219 4.996094 7.605469 5.398438 8.101562 5.398438 C 8.59375 5.398438 9 4.996094 9 4.5 C 9 4.003906 8.59375 3.601562 8.101562 3.601562 C 7.605469 3.601562 7.199219 4.003906 7.199219 4.5 Z M 7.199219 4.5 "/>
  </g>
</svg>