<?xml version="1.0" encoding="utf-8"?>
<!-- Generator: Adobe Illustrator 21.0.2, SVG Export Plug-In . SVG Version: 6.00 Build 0)  -->
<svg version="1.1" id="Layer_1" xmlns="http://www.w3.org/2000/svg" xmlns:xlink="http://www.w3.org/1999/xlink" x="0px" y="0px"
	 viewBox="0 0 24 24" style="enable-background:new 0 0 24 24;" xml:space="preserve">
<g id="surface1">
	<path d="M17.7,1.2c2.1,0,3.9,1.8,3.9,3.9c0,2.1-1.7,3.9-3.9,3.9c-0.3,0-0.6,0-0.8-0.1l-1.3,1.3v12.6H2.4v-18h11.4
		C14,2.4,15.7,1.2,17.7,1.2z M17.7,7.8c1.5,0,2.7-1.2,2.7-2.7c0-1.5-1.2-2.7-2.7-2.7c-1.5,0-2.7,1.2-2.7,2.7c0,0.4,0.1,0.9,0.3,1.2
		l-3.9,3.9c-0.3,0.3-2.1,2.7-1.8,3c0,0,0.1,0,0.1,0c0.6,0,2.6-1.5,2.9-1.8l3.9-3.9C16.9,7.7,17.3,7.8,17.7,7.8z"/>
</g>
</svg>
