<?xml version="1.0" encoding="UTF-8" standalone="yes"?>
<svg xmlns="http://www.w3.org/2000/svg" xmlns:xlink="http://www.w3.org/1999/xlink" width="24px" height="24px" viewBox="0 0 18 18" version="1.1">
  <g id="surface1">
    <path style=" stroke:none;fill-rule:nonzero;fill:rgb(0%,0%,0%);fill-opacity:1;" d="M 13.285156 0.898438 C 14.894531 0.898438 16.199219 2.214844 16.199219 3.824219 C 16.199219 5.425781 14.894531 6.742188 13.285156 6.742188 C 13.078125 6.742188 12.859375 6.714844 12.652344 6.667969 L 11.699219 7.621094 L 11.699219 17.101562 L 1.800781 17.101562 L 1.800781 3.601562 L 10.386719 3.601562 C 10.503906 1.800781 11.753906 0.898438 13.285156 0.898438 Z M 13.285156 5.839844 C 14.398438 5.839844 15.300781 4.933594 15.300781 3.824219 C 15.300781 2.710938 14.398438 1.800781 13.285156 1.800781 C 12.167969 1.800781 11.269531 2.710938 11.269531 3.824219 C 11.269531 4.15625 11.359375 4.472656 11.511719 4.753906 L 8.613281 7.648438 C 8.359375 7.902344 7.019531 9.648438 7.261719 9.890625 C 7.28125 9.917969 7.316406 9.925781 7.351562 9.925781 C 7.792969 9.925781 9.277344 8.773438 9.503906 8.550781 L 12.421875 5.632812 C 12.679688 5.761719 12.96875 5.839844 13.285156 5.839844 Z M 13.285156 5.839844 "/>
  </g>
</svg>