<?xml version="1.0" encoding="utf-8"?>
<!-- Generator: Adobe Illustrator 21.0.2, SVG Export Plug-In . SVG Version: 6.00 Build 0)  -->
<svg version="1.1" id="Layer_1" xmlns="http://www.w3.org/2000/svg" xmlns:xlink="http://www.w3.org/1999/xlink" x="0px" y="0px"
	 viewBox="0 0 24 24" style="enable-background:new 0 0 24 24;" xml:space="preserve">
<g id="surface1">
	<path d="M20.4,9.6h1.2v13.2H2.4V9.6h1.2V7.2c0-3.3,2.7-6,6-6c0.9,0,1.7,0.2,2.4,0.5c0.7-0.3,1.5-0.5,2.4-0.5c3.3,0,6,2.7,6,6V9.6z
		 M6,7.2v2.4h2.4V7.2c0-1.4,0.5-2.6,1.2-3.6h0C7.6,3.6,6,5.2,6,7.2z M18,9.6V7.2c0-2-1.6-3.6-3.6-3.6h0c0.8,1,1.2,2.2,1.2,3.6v2.4
		H18z M12,4.5c-0.7,0.7-1.2,1.6-1.2,2.7v2.4h2.4V7.2C13.2,6.1,12.7,5.2,12,4.5z"/>
</g>
</svg>
