<?xml version="1.0" encoding="UTF-8" standalone="yes"?>
<svg xmlns="http://www.w3.org/2000/svg" xmlns:xlink="http://www.w3.org/1999/xlink" width="24px" height="24px" viewBox="0 0 18 18" version="1.1">
  <g id="surface1">
    <path style=" stroke:none;fill-rule:nonzero;fill:rgb(0%,0%,0%);fill-opacity:1;" d="M 15.300781 7.199219 L 16.199219 7.199219 L 16.199219 17.101562 L 1.800781 17.101562 L 1.800781 7.199219 L 2.699219 7.199219 L 2.699219 5.398438 C 2.699219 2.914062 4.714844 0.898438 7.199219 0.898438 C 7.839844 0.898438 8.449219 1.035156 9 1.277344 C 9.550781 1.035156 10.160156 0.898438 10.800781 0.898438 C 13.285156 0.898438 15.300781 2.914062 15.300781 5.398438 Z M 4.5 5.398438 L 4.5 7.199219 L 6.300781 7.199219 L 6.300781 5.398438 C 6.300781 4.382812 6.652344 3.457031 7.21875 2.699219 L 7.199219 2.699219 C 5.714844 2.699219 4.5 3.914062 4.5 5.398438 Z M 13.5 7.199219 L 13.5 5.398438 C 13.5 3.914062 12.285156 2.699219 10.800781 2.699219 L 10.78125 2.699219 C 11.347656 3.457031 11.699219 4.382812 11.699219 5.398438 L 11.699219 7.199219 Z M 9 3.402344 C 8.449219 3.898438 8.101562 4.609375 8.101562 5.398438 L 8.101562 7.199219 L 9.898438 7.199219 L 9.898438 5.398438 C 9.898438 4.609375 9.550781 3.898438 9 3.402344 Z M 9 3.402344 "/>
  </g>
</svg>