<?xml version="1.0" encoding="utf-8"?>
<!-- Generator: Adobe Illustrator 21.0.2, SVG Export Plug-In . SVG Version: 6.00 Build 0)  -->
<svg version="1.1" id="Layer_1" xmlns="http://www.w3.org/2000/svg" xmlns:xlink="http://www.w3.org/1999/xlink" x="0px" y="0px"
	 viewBox="0 0 24 24" style="enable-background:new 0 0 24 24;" xml:space="preserve">
<g id="surface1">
	<path d="M3.3,12.1C4,10.7,4.8,9.4,5.9,8.3c1.1-1.1,2.4-2,3.8-2.6c1.4-0.6,3-0.9,4.7-0.9V1.2l7.2,5.4L14.4,12V8.4
		c-1.2,0-2.3,0.2-3.3,0.7c-1,0.4-1.9,1-2.7,1.8c-0.8,0.8-1.4,1.7-1.8,2.7c-0.4,1-0.7,2.1-0.7,3.3c0,1.2,0.2,2.3,0.7,3.3l-3.3,1.4
		c-0.6-1.4-0.9-3-0.9-4.7C2.4,15.1,2.7,13.6,3.3,12.1z"/>
</g>
</svg>
