<?xml version="1.0" encoding="UTF-8" standalone="yes"?>
<svg xmlns="http://www.w3.org/2000/svg" xmlns:xlink="http://www.w3.org/1999/xlink" width="24px" height="24px" viewBox="0 0 18 18" version="1.1">
  <g id="surface1">
    <path style=" stroke:none;fill-rule:nonzero;fill:rgb(0%,0%,0%);fill-opacity:1;" d="M 2.492188 9.089844 C 2.953125 8.011719 3.609375 7.039062 4.429688 6.226562 C 5.238281 5.410156 6.210938 4.753906 7.289062 4.292969 C 8.371094 3.835938 9.558594 3.582031 10.800781 3.582031 L 10.800781 0.898438 L 16.199219 4.949219 L 10.800781 9 L 10.800781 6.300781 C 9.925781 6.300781 9.097656 6.480469 8.34375 6.796875 C 7.597656 7.109375 6.910156 7.578125 6.34375 8.144531 C 5.777344 8.710938 5.308594 9.394531 4.996094 10.152344 C 4.679688 10.898438 4.5 11.726562 4.5 12.601562 C 4.5 13.472656 4.679688 14.300781 4.996094 15.058594 L 2.492188 16.109375 C 2.035156 15.03125 1.78125 13.84375 1.78125 12.601562 C 1.78125 11.359375 2.035156 10.171875 2.492188 9.089844 Z M 2.492188 9.089844 "/>
  </g>
</svg>