<?xml version="1.0" encoding="UTF-8" standalone="yes"?>
<svg xmlns="http://www.w3.org/2000/svg" xmlns:xlink="http://www.w3.org/1999/xlink" width="24px" height="24px" viewBox="0 0 18 18" version="1.1">
  <g id="surface1">
    <path style=" stroke:none;fill-rule:nonzero;fill:rgb(0%,0%,0%);fill-opacity:1;" d="M 13.429688 16.199219 L 16.199219 16.199219 C 16.199219 8.386719 9.738281 2.023438 1.800781 2.023438 L 1.800781 4.742188 C 8.207031 4.742188 13.429688 9.882812 13.429688 16.199219 Z M 8.53125 16.199219 L 11.304688 16.199219 C 11.304688 11.042969 7.039062 6.839844 1.800781 6.839844 L 1.800781 9.558594 C 3.601562 9.558594 5.28125 10.25 6.5625 11.503906 C 7.828125 12.753906 8.53125 14.425781 8.53125 16.199219 Z M 3.71875 16.183594 C 4.769531 16.183594 5.632812 15.34375 5.632812 14.300781 C 5.632812 13.265625 4.769531 12.421875 3.71875 12.421875 C 2.65625 12.421875 1.800781 13.265625 1.800781 14.300781 C 1.800781 15.34375 2.65625 16.183594 3.71875 16.183594 Z M 3.71875 16.183594 "/>
  </g>
</svg>