<?xml version="1.0" encoding="utf-8"?>
<!-- Generator: Adobe Illustrator 21.0.2, SVG Export Plug-In . SVG Version: 6.00 Build 0)  -->
<svg version="1.1" id="Layer_1" xmlns="http://www.w3.org/2000/svg" xmlns:xlink="http://www.w3.org/1999/xlink" x="0px" y="0px"
	 viewBox="0 0 24 24" style="enable-background:new 0 0 24 24;" xml:space="preserve">
<g id="surface1">
	<path d="M17.9,21.6h3.7C21.6,11.2,13,2.7,2.4,2.7v3.6C10.9,6.3,17.9,13.2,17.9,21.6z M11.4,21.6h3.7c0-6.9-5.7-12.5-12.7-12.5v3.6
		c2.4,0,4.6,0.9,6.3,2.6C10.4,17,11.4,19.2,11.4,21.6z M5,21.6c1.4,0,2.6-1.1,2.6-2.5c0-1.4-1.2-2.5-2.6-2.5c-1.4,0-2.6,1.1-2.6,2.5
		C2.4,20.5,3.5,21.6,5,21.6z"/>
</g>
</svg>
