<?xml version="1.0" encoding="UTF-8" standalone="yes"?>
<svg xmlns="http://www.w3.org/2000/svg" xmlns:xlink="http://www.w3.org/1999/xlink" width="24px" height="24px" viewBox="0 0 18 18" version="1.1">
  <g id="surface1">
    <path style=" stroke:none;fill-rule:nonzero;fill:rgb(0%,0%,0%);fill-opacity:1;" d="M 1.800781 1.800781 L 16.199219 1.800781 L 16.199219 5.398438 L 1.800781 5.398438 Z M 1.800781 10.800781 L 1.800781 7.199219 L 5.398438 7.199219 L 5.398438 10.800781 Z M 7.199219 9 L 7.199219 7.199219 L 10.800781 7.199219 L 10.800781 9 Z M 12.601562 11.699219 L 12.601562 7.199219 L 16.199219 7.199219 L 16.199219 11.699219 Z M 7.199219 16.199219 L 7.199219 10.800781 L 10.800781 10.800781 L 10.800781 16.199219 Z M 1.800781 16.199219 L 1.800781 12.601562 L 5.398438 12.601562 L 5.398438 16.199219 Z M 12.601562 16.199219 L 12.601562 13.5 L 16.199219 13.5 L 16.199219 16.199219 Z M 12.601562 16.199219 "/>
  </g>
</svg>