<?xml version="1.0" encoding="UTF-8" standalone="yes"?>
<svg xmlns="http://www.w3.org/2000/svg" xmlns:xlink="http://www.w3.org/1999/xlink" width="24px" height="24px" viewBox="0 0 18 18" version="1.1">
  <g id="surface1">
    <path style=" stroke:none;fill-rule:nonzero;fill:rgb(0%,0%,0%);fill-opacity:1;" d="M 10.925781 3.761719 C 12.609375 5.445312 12.824219 8.035156 11.574219 9.964844 C 11.683594 10.054688 11.773438 10.152344 11.898438 10.242188 C 12.078125 10.386719 12.320312 10.566406 12.628906 10.773438 C 12.933594 10.988281 13.132812 11.125 13.222656 11.195312 C 13.597656 11.476562 13.878906 11.710938 14.066406 11.898438 C 14.355469 12.1875 14.605469 12.484375 14.824219 12.796875 C 15.046875 13.113281 15.21875 13.417969 15.355469 13.734375 C 15.480469 14.050781 15.542969 14.347656 15.515625 14.632812 C 15.496094 14.921875 15.390625 15.164062 15.191406 15.363281 C 14.992188 15.5625 14.75 15.667969 14.464844 15.6875 C 14.183594 15.703125 13.878906 15.652344 13.570312 15.515625 C 13.257812 15.390625 12.941406 15.210938 12.636719 14.984375 C 12.320312 14.769531 12.023438 14.515625 11.734375 14.230469 C 11.546875 14.039062 11.3125 13.761719 11.042969 13.390625 C 10.953125 13.273438 10.816406 13.078125 10.621094 12.796875 C 10.421875 12.511719 10.261719 12.285156 10.117188 12.097656 C 9.972656 11.914062 9.855469 11.78125 9.71875 11.644531 C 7.855469 12.628906 5.5 12.328125 3.925781 10.765625 C 1.996094 8.828125 1.996094 5.6875 3.925781 3.761719 C 5.859375 1.828125 8.992188 1.828125 10.925781 3.761719 Z M 9.65625 9.484375 C 10.882812 8.253906 10.882812 6.265625 9.65625 5.03125 C 8.425781 3.796875 6.425781 3.796875 5.203125 5.03125 C 3.96875 6.265625 3.96875 8.253906 5.203125 9.484375 C 6.425781 10.71875 8.425781 10.71875 9.65625 9.484375 Z M 9.65625 9.484375 "/>
  </g>
</svg>