<?xml version="1.0" encoding="utf-8"?>
<!-- Generator: Adobe Illustrator 21.0.2, SVG Export Plug-In . SVG Version: 6.00 Build 0)  -->
<svg version="1.1" id="Layer_1" xmlns="http://www.w3.org/2000/svg" xmlns:xlink="http://www.w3.org/1999/xlink" x="0px" y="0px"
	 viewBox="0 0 24 24" style="enable-background:new 0 0 24 24;" xml:space="preserve">
<g id="surface1">
	<path d="M14.6,5c2.2,2.2,2.5,5.7,0.9,8.3c0.1,0.1,0.3,0.2,0.4,0.4c0.2,0.2,0.6,0.4,1,0.7c0.4,0.3,0.7,0.5,0.8,0.6
		c0.5,0.4,0.9,0.7,1.1,0.9c0.4,0.4,0.7,0.8,1,1.2c0.3,0.4,0.5,0.8,0.7,1.2c0.2,0.4,0.2,0.8,0.2,1.2c0,0.4-0.2,0.7-0.4,1
		c-0.3,0.3-0.6,0.4-1,0.4c-0.4,0-0.8,0-1.2-0.2c-0.4-0.2-0.8-0.4-1.2-0.7c-0.4-0.3-0.8-0.6-1.2-1c-0.2-0.3-0.6-0.6-0.9-1.1
		c-0.1-0.2-0.3-0.4-0.6-0.8c-0.3-0.4-0.5-0.7-0.7-0.9c-0.2-0.2-0.3-0.4-0.5-0.6c-2.5,1.3-5.6,0.9-7.7-1.2c-2.6-2.6-2.6-6.8,0-9.3
		C7.8,2.4,12,2.4,14.6,5z M12.9,12.6c1.6-1.6,1.6-4.3,0-5.9c-1.6-1.6-4.3-1.6-5.9,0c-1.6,1.6-1.6,4.3,0,5.9
		C8.6,14.3,11.2,14.3,12.9,12.6z"/>
</g>
</svg>
