<?xml version="1.0" encoding="utf-8"?>
<!-- Generator: Adobe Illustrator 21.0.2, SVG Export Plug-In . SVG Version: 6.00 Build 0)  -->
<svg version="1.1" id="Layer_1" xmlns="http://www.w3.org/2000/svg" xmlns:xlink="http://www.w3.org/1999/xlink" x="0px" y="0px"
	 viewBox="0 0 24 24" style="enable-background:new 0 0 24 24;" xml:space="preserve">
<g id="surface1">
	<path d="M19.5,7C20,7.8,19.8,8.9,19,9.5C18.2,10,17,9.8,16.5,9c-0.2-0.3-0.4-0.6-0.7-0.8c-0.2-0.2-0.5-0.5-0.8-0.7
		c-0.3-0.2-0.6-0.4-0.9-0.5c-0.3-0.1-0.7-0.3-1-0.3c-0.7-0.2-1.5-0.2-2.2,0c-0.3,0.1-0.7,0.2-1,0.3C9.6,7.2,9.3,7.3,9,7.5
		C8.7,7.7,8.4,7.9,8.2,8.2C7.9,8.4,7.7,8.7,7.5,9C7.3,9.3,7.2,9.6,7,9.9c0,0,0,0,0,0.1c-0.1,0.3-0.2,0.6-0.3,0.9H1.2V7.2h3.2
		C4.4,7.1,4.5,7,4.5,7C4.9,6.5,5.2,6,5.6,5.6C6,5.2,6.5,4.8,7,4.5c0.5-0.3,1-0.6,1.5-0.8C9,3.5,9.6,3.3,10.2,3.2
		c1.2-0.3,2.4-0.3,3.6,0c0.6,0.1,1.2,0.3,1.7,0.5C16,3.9,16.6,4.2,17,4.5c0.5,0.3,0.9,0.7,1.3,1.1C18.8,6,19.1,6.5,19.5,7z M15,12
		c0-1.7-1.3-3-3-3c-1.7,0-3,1.3-3,3c0,1.7,1.3,3,3,3C13.7,15,15,13.7,15,12z M4.5,17C4,16.2,4.2,15.1,5,14.5C5.8,14,7,14.2,7.5,15
		c0.2,0.3,0.4,0.6,0.7,0.8c0.2,0.2,0.5,0.5,0.8,0.7c0.3,0.2,0.6,0.4,0.9,0.5c0.3,0.1,0.7,0.2,1,0.3c0.7,0.2,1.5,0.1,2.2,0
		c0.3-0.1,0.7-0.2,1-0.3c0.3-0.1,0.6-0.3,0.9-0.5c0.3-0.2,0.6-0.4,0.8-0.7c0.2-0.2,0.5-0.5,0.7-0.8c0.2-0.3,0.4-0.6,0.5-0.9
		c0,0,0,0,0-0.1c0.1-0.3,0.2-0.6,0.3-0.9h5.5v3.6h-3.2c0,0.1-0.1,0.2-0.1,0.2c-0.3,0.5-0.7,0.9-1.1,1.3c-0.4,0.4-0.9,0.8-1.3,1.1
		c-0.5,0.3-1,0.6-1.5,0.8c-0.5,0.2-1.1,0.4-1.7,0.5c-1.2,0.3-2.4,0.3-3.6,0c-0.6-0.1-1.2-0.3-1.7-0.5C8,20.1,7.4,19.8,7,19.5
		c-0.5-0.3-0.9-0.7-1.3-1.1C5.2,18,4.9,17.5,4.5,17z"/>
</g>
</svg>
