<?xml version="1.0" encoding="UTF-8" standalone="yes"?>
<svg xmlns="http://www.w3.org/2000/svg" xmlns:xlink="http://www.w3.org/1999/xlink" width="24px" height="24px" viewBox="0 0 18 18" version="1.1">
  <g id="surface1">
    <path style=" stroke:none;fill-rule:nonzero;fill:rgb(0%,0%,0%);fill-opacity:1;" d="M 14.597656 5.21875 C 15.019531 5.839844 14.859375 6.679688 14.238281 7.09375 C 13.617188 7.515625 12.78125 7.351562 12.367188 6.730469 C 12.222656 6.515625 12.050781 6.316406 11.871094 6.128906 C 11.683594 5.949219 11.484375 5.777344 11.269531 5.632812 C 11.050781 5.488281 10.816406 5.363281 10.574219 5.265625 C 10.332031 5.15625 10.078125 5.074219 9.820312 5.03125 C 9.289062 4.914062 8.710938 4.914062 8.179688 5.023438 C 7.921875 5.074219 7.667969 5.15625 7.425781 5.265625 C 7.183594 5.363281 6.949219 5.488281 6.730469 5.632812 C 6.515625 5.777344 6.316406 5.949219 6.136719 6.128906 C 5.949219 6.316406 5.777344 6.515625 5.632812 6.730469 C 5.488281 6.949219 5.363281 7.183594 5.265625 7.414062 C 5.257812 7.433594 5.257812 7.441406 5.257812 7.453125 C 5.164062 7.667969 5.101562 7.882812 5.050781 8.101562 L 0.898438 8.101562 L 0.898438 5.398438 L 3.292969 5.398438 C 3.328125 5.335938 3.355469 5.28125 3.402344 5.21875 C 3.644531 4.859375 3.914062 4.527344 4.222656 4.222656 C 4.527344 3.914062 4.867188 3.636719 5.21875 3.402344 C 5.578125 3.160156 5.96875 2.941406 6.371094 2.773438 C 6.777344 2.601562 7.210938 2.464844 7.640625 2.386719 C 8.53125 2.195312 9.46875 2.195312 10.359375 2.386719 C 10.789062 2.464844 11.222656 2.601562 11.628906 2.773438 C 12.03125 2.941406 12.421875 3.160156 12.78125 3.402344 C 13.132812 3.636719 13.472656 3.914062 13.777344 4.222656 C 14.085938 4.527344 14.355469 4.859375 14.597656 5.21875 Z M 11.25 9 C 11.25 7.757812 10.242188 6.75 9 6.75 C 7.757812 6.75 6.75 7.757812 6.75 9 C 6.75 10.242188 7.757812 11.25 9 11.25 C 10.242188 11.25 11.25 10.242188 11.25 9 Z M 3.402344 12.78125 C 2.980469 12.160156 3.140625 11.320312 3.761719 10.898438 C 4.382812 10.484375 5.21875 10.648438 5.632812 11.269531 C 5.777344 11.484375 5.949219 11.683594 6.128906 11.871094 C 6.316406 12.050781 6.515625 12.222656 6.730469 12.367188 C 6.949219 12.511719 7.183594 12.636719 7.425781 12.734375 C 7.667969 12.84375 7.921875 12.914062 8.179688 12.96875 C 8.710938 13.085938 9.289062 13.078125 9.820312 12.96875 C 10.078125 12.914062 10.332031 12.84375 10.574219 12.734375 C 10.816406 12.636719 11.050781 12.511719 11.269531 12.367188 C 11.484375 12.222656 11.683594 12.050781 11.863281 11.871094 C 12.050781 11.683594 12.222656 11.476562 12.367188 11.269531 C 12.511719 11.042969 12.636719 10.816406 12.734375 10.585938 C 12.742188 10.566406 12.742188 10.558594 12.742188 10.546875 C 12.835938 10.332031 12.898438 10.117188 12.949219 9.898438 L 17.101562 9.898438 L 17.101562 12.601562 L 14.707031 12.601562 C 14.671875 12.652344 14.644531 12.71875 14.597656 12.78125 C 14.355469 13.140625 14.085938 13.472656 13.777344 13.777344 C 13.472656 14.085938 13.132812 14.363281 12.78125 14.597656 C 12.421875 14.839844 12.03125 15.058594 11.628906 15.226562 C 11.222656 15.398438 10.789062 15.523438 10.359375 15.613281 C 9.46875 15.804688 8.53125 15.804688 7.640625 15.613281 C 7.210938 15.523438 6.777344 15.398438 6.371094 15.226562 C 5.96875 15.058594 5.578125 14.839844 5.21875 14.597656 C 4.867188 14.363281 4.527344 14.085938 4.222656 13.777344 C 3.914062 13.472656 3.644531 13.140625 3.402344 12.78125 Z M 3.402344 12.78125 "/>
  </g>
</svg>