<?xml version="1.0" encoding="UTF-8" standalone="yes"?>
<svg xmlns="http://www.w3.org/2000/svg" xmlns:xlink="http://www.w3.org/1999/xlink" width="24px" height="24px" viewBox="0 0 18 18" version="1.1">
  <g id="surface1">
    <path style=" stroke:none;fill-rule:nonzero;fill:rgb(0%,0%,0%);fill-opacity:1;" d="M 13.050781 10.800781 C 14.542969 10.800781 15.75 12.007812 15.75 13.5 C 15.75 14.992188 14.542969 16.199219 13.050781 16.199219 C 11.554688 16.199219 10.351562 14.992188 10.351562 13.5 C 10.351562 13.285156 10.378906 13.085938 10.429688 12.878906 L 6.488281 10.808594 C 5.992188 11.359375 5.292969 11.699219 4.5 11.699219 C 3.007812 11.699219 1.800781 10.492188 1.800781 9 C 1.800781 7.507812 3.007812 6.300781 4.5 6.300781 C 5.292969 6.300781 5.992188 6.652344 6.488281 7.191406 L 10.429688 5.121094 C 10.378906 4.914062 10.351562 4.714844 10.351562 4.5 C 10.351562 3.007812 11.554688 1.800781 13.050781 1.800781 C 14.542969 1.800781 15.75 3.007812 15.75 4.5 C 15.75 5.992188 14.542969 7.199219 13.050781 7.199219 C 12.257812 7.199219 11.554688 6.847656 11.0625 6.308594 L 7.117188 8.378906 C 7.171875 8.585938 7.199219 8.785156 7.199219 9 C 7.199219 9.214844 7.171875 9.414062 7.117188 9.621094 L 11.0625 11.691406 C 11.554688 11.140625 12.257812 10.800781 13.050781 10.800781 Z M 13.050781 10.800781 "/>
  </g>
</svg>