<?xml version="1.0" encoding="utf-8"?>
<!-- Generator: Adobe Illustrator 21.0.2, SVG Export Plug-In . SVG Version: 6.00 Build 0)  -->
<svg version="1.1" id="Layer_1" xmlns="http://www.w3.org/2000/svg" xmlns:xlink="http://www.w3.org/1999/xlink" x="0px" y="0px"
	 viewBox="0 0 24 24" style="enable-background:new 0 0 24 24;" xml:space="preserve">
<g id="surface1">
	<path d="M17.7,14.4c2,0,3.6,1.6,3.6,3.6s-1.6,3.6-3.6,3.6c-2,0-3.6-1.6-3.6-3.6c0-0.3,0-0.6,0.1-0.8L9,14.4
		c-0.7,0.7-1.6,1.2-2.7,1.2c-2,0-3.6-1.6-3.6-3.6s1.6-3.6,3.6-3.6c1.1,0,2,0.5,2.7,1.2l5.3-2.8c-0.1-0.3-0.1-0.5-0.1-0.8
		c0-2,1.6-3.6,3.6-3.6c2,0,3.6,1.6,3.6,3.6s-1.6,3.6-3.6,3.6c-1.1,0-2-0.5-2.7-1.2l-5.3,2.8c0.1,0.3,0.1,0.5,0.1,0.8
		c0,0.3,0,0.6-0.1,0.8l5.3,2.8C15.7,14.9,16.6,14.4,17.7,14.4z"/>
</g>
</svg>
