<?xml version="1.0" encoding="utf-8"?>
<!-- Generator: Adobe Illustrator 21.0.2, SVG Export Plug-In . SVG Version: 6.00 Build 0)  -->
<svg version="1.1" id="Layer_1" xmlns="http://www.w3.org/2000/svg" xmlns:xlink="http://www.w3.org/1999/xlink" x="0px" y="0px"
	 viewBox="0 0 24 24" style="enable-background:new 0 0 24 24;" xml:space="preserve">
<g id="surface1">
	<path d="M8.4,6.2c1.3,0,2.4,1.1,2.4,2.4c0,0.4-0.1,0.8-0.3,1.2c0,0-0.9-0.2-2.1-0.2c-1.2,0-2.1,0.2-2.1,0.2C6.1,9.5,6,9.1,6,8.6
		C6,7.3,7.1,6.2,8.4,6.2z M15.6,6.2c1.3,0,2.4,1.1,2.4,2.4c0,0.4-0.1,0.8-0.3,1.2c0,0-0.9-0.2-2.1-0.2c-1.2,0-2.1,0.2-2.1,0.2
		c-0.2-0.3-0.3-0.8-0.3-1.2C13.2,7.3,14.3,6.2,15.6,6.2z M12,22.7c4.5,0,8.4-2.8,9.9-7.1l-1.6-0.6C19.1,18.6,15.7,21,12,21
		s-7.1-2.4-8.3-5.9l-1.6,0.6C3.6,19.8,7.5,22.7,12,22.7z"/>
</g>
</svg>
