<?xml version="1.0" encoding="UTF-8" standalone="yes"?>
<svg xmlns="http://www.w3.org/2000/svg" xmlns:xlink="http://www.w3.org/1999/xlink" width="24px" height="24px" viewBox="0 0 18 18" version="1.1">
  <g id="surface1">
    <path style=" stroke:none;fill-rule:nonzero;fill:rgb(0%,0%,0%);fill-opacity:1;" d="M 6.300781 4.679688 C 7.289062 4.679688 8.101562 5.480469 8.101562 6.480469 C 8.101562 6.8125 8 7.117188 7.847656 7.378906 C 7.847656 7.378906 7.199219 7.199219 6.300781 7.199219 C 5.398438 7.199219 4.753906 7.378906 4.753906 7.378906 C 4.597656 7.117188 4.5 6.8125 4.5 6.480469 C 4.5 5.480469 5.308594 4.679688 6.300781 4.679688 Z M 11.699219 4.679688 C 12.699219 4.679688 13.5 5.480469 13.5 6.480469 C 13.5 6.8125 13.402344 7.117188 13.246094 7.378906 C 13.246094 7.378906 12.601562 7.199219 11.699219 7.199219 C 10.800781 7.199219 10.152344 7.378906 10.152344 7.378906 C 10 7.117188 9.898438 6.8125 9.898438 6.480469 C 9.898438 5.480469 10.699219 4.679688 11.699219 4.679688 Z M 9 17.011719 C 12.347656 17.011719 15.328125 14.886719 16.40625 11.71875 L 15.21875 11.304688 C 14.308594 13.96875 11.808594 15.75 9 15.75 C 6.191406 15.75 3.691406 13.96875 2.78125 11.304688 L 1.59375 11.71875 C 2.671875 14.886719 5.652344 17.011719 9 17.011719 Z M 9 17.011719 "/>
  </g>
</svg>