<?xml version="1.0" encoding="utf-8"?>
<!-- Generator: Adobe Illustrator 21.0.2, SVG Export Plug-In . SVG Version: 6.00 Build 0)  -->
<svg version="1.1" id="Layer_1" xmlns="http://www.w3.org/2000/svg" xmlns:xlink="http://www.w3.org/1999/xlink" x="0px" y="0px"
	 viewBox="0 0 24 24" style="enable-background:new 0 0 24 24;" xml:space="preserve">
<g id="surface1">
	<path d="M21.6,12c0-5.3-4.3-9.6-9.6-9.6S2.4,6.7,2.4,12s4.3,9.6,9.6,9.6S21.6,17.3,21.6,12z M8.7,4.3l1.8,4.5
		c-0.7,0.3-1.4,1-1.7,1.7L4.3,8.7C5.1,6.7,6.7,5.1,8.7,4.3z M19.7,8.7l-4.5,1.8c-0.3-0.7-1-1.4-1.7-1.7l1.8-4.5
		C17.3,5.1,18.9,6.7,19.7,8.7z M12,14.4c-1.3,0-2.4-1.1-2.4-2.4s1.1-2.4,2.4-2.4s2.4,1.1,2.4,2.4S13.3,14.4,12,14.4z M4.3,15.3
		l4.5-1.8c0.3,0.7,1,1.4,1.7,1.7l-1.8,4.5C6.7,18.9,5.1,17.3,4.3,15.3z M15.3,19.7l-1.8-4.5c0.7-0.3,1.4-1,1.7-1.7l4.5,1.8
		C18.9,17.3,17.3,18.9,15.3,19.7z"/>
</g>
</svg>
