<?xml version="1.0" encoding="UTF-8" standalone="yes"?>
<svg xmlns="http://www.w3.org/2000/svg" xmlns:xlink="http://www.w3.org/1999/xlink" width="24px" height="24px" viewBox="0 0 18 18" version="1.1">
  <g id="surface1">
    <path style=" stroke:none;fill-rule:nonzero;fill:rgb(0%,0%,0%);fill-opacity:1;" d="M 16.199219 9 C 16.199219 5.023438 12.976562 1.800781 9 1.800781 C 5.023438 1.800781 1.800781 5.023438 1.800781 9 C 1.800781 12.976562 5.023438 16.199219 9 16.199219 C 12.976562 16.199219 16.199219 12.976562 16.199219 9 Z M 6.507812 3.214844 L 7.847656 6.570312 C 7.289062 6.832031 6.832031 7.289062 6.570312 7.847656 L 3.214844 6.507812 C 3.851562 5.03125 5.03125 3.851562 6.507812 3.214844 Z M 14.785156 6.507812 L 11.429688 7.847656 C 11.167969 7.289062 10.710938 6.832031 10.152344 6.570312 L 11.492188 3.214844 C 12.96875 3.851562 14.148438 5.03125 14.785156 6.507812 Z M 9 10.800781 C 8.011719 10.800781 7.199219 9.988281 7.199219 9 C 7.199219 8.011719 8.011719 7.199219 9 7.199219 C 9.988281 7.199219 10.800781 8.011719 10.800781 9 C 10.800781 9.988281 9.988281 10.800781 9 10.800781 Z M 3.214844 11.492188 L 6.570312 10.152344 C 6.832031 10.710938 7.289062 11.167969 7.847656 11.429688 L 6.507812 14.785156 C 5.03125 14.148438 3.851562 12.96875 3.214844 11.492188 Z M 11.492188 14.785156 L 10.152344 11.429688 C 10.710938 11.167969 11.167969 10.710938 11.429688 10.152344 L 14.785156 11.492188 C 14.148438 12.96875 12.96875 14.148438 11.492188 14.785156 Z M 11.492188 14.785156 "/>
  </g>
</svg>