<?xml version="1.0" encoding="UTF-8" standalone="yes"?>
<svg xmlns="http://www.w3.org/2000/svg" xmlns:xlink="http://www.w3.org/1999/xlink" width="24px" height="24px" viewBox="0 0 18 18" version="1.1">
  <g id="surface1">
    <path style=" stroke:none;fill-rule:nonzero;fill:rgb(0%,0%,0%);fill-opacity:1;" d="M 4.5 3.25 L 4.5 0.9375 L 12.589844 0.925781 L 12.582031 3.25 C 11.484375 3.484375 10.636719 4.464844 10.636719 5.652344 L 10.636719 6.101562 C 10.648438 7.28125 11.476562 8.261719 12.589844 8.496094 L 12.582031 10.816406 L 9.511719 10.816406 L 9.503906 13.132812 C 9.503906 13.671875 9.082031 17.101562 8.550781 17.101562 C 8.011719 17.101562 7.578125 13.671875 7.578125 13.132812 L 7.578125 10.828125 L 4.5 10.816406 L 4.507812 8.496094 C 5.617188 8.269531 6.445312 7.28125 6.445312 6.101562 L 6.445312 5.652344 C 6.445312 4.472656 5.617188 3.484375 4.5 3.25 Z M 4.5 3.25 "/>
  </g>
</svg>