<?xml version="1.0" encoding="UTF-8" standalone="yes"?>
<svg xmlns="http://www.w3.org/2000/svg" xmlns:xlink="http://www.w3.org/1999/xlink" width="24px" height="24px" viewBox="0 0 18 18" version="1.1">
  <g id="surface1">
    <path style=" stroke:none;fill-rule:nonzero;fill:rgb(0%,0%,0%);fill-opacity:1;" d="M 0.898438 9 C 1.269531 9.261719 1.765625 9.386719 2.25 9.386719 C 2.746094 9.386719 3.230469 9.261719 3.601562 9 C 4.15625 8.585938 4.5 7.945312 4.5 7.199219 C 4.5 7.945312 4.832031 8.585938 5.398438 9 C 5.769531 9.261719 6.265625 9.386719 6.75 9.386719 C 7.246094 9.386719 7.730469 9.261719 8.101562 9 C 8.65625 8.585938 9 7.945312 9 7.199219 C 9 7.945312 9.332031 8.585938 9.898438 9 C 10.269531 9.261719 10.765625 9.386719 11.257812 9.386719 C 11.746094 9.386719 12.230469 9.261719 12.601562 9 C 13.15625 8.585938 13.5 7.945312 13.5 7.199219 C 13.5 7.945312 13.832031 8.585938 14.398438 9 C 14.769531 9.261719 15.265625 9.386719 15.75 9.386719 C 16.246094 9.386719 16.730469 9.261719 17.101562 9 C 17.667969 8.585938 18 7.945312 18 7.199219 L 18 6.300781 L 15.300781 0 L 3.601562 0 L 0 6.300781 L 0 7.199219 C 0 7.945312 0.332031 8.585938 0.898438 9 Z M 2.699219 17.089844 L 7.199219 17.089844 L 7.199219 12.589844 L 10.800781 12.589844 L 10.800781 17.089844 L 15.300781 17.089844 L 15.300781 10.789062 C 14.96875 10.746094 14.652344 10.59375 14.398438 10.402344 C 13.832031 10 13.5 9.746094 13.5 9 C 13.5 9.746094 13.15625 10 12.601562 10.402344 C 12.230469 10.675781 11.746094 10.789062 11.257812 10.800781 C 10.765625 10.800781 10.269531 10.675781 9.898438 10.402344 C 9.332031 10 9 9.746094 9 9 C 9 9.746094 8.65625 10 8.101562 10.402344 C 7.730469 10.675781 7.246094 10.789062 6.75 10.800781 C 6.265625 10.800781 5.769531 10.675781 5.398438 10.402344 C 4.832031 10 4.5 9.746094 4.5 8.992188 C 4.5 9.746094 4.15625 10 3.601562 10.402344 C 3.339844 10.59375 3.03125 10.746094 2.699219 10.800781 Z M 2.699219 17.089844 "/>
  </g>
</svg>