<?xml version="1.0" encoding="utf-8"?>
<!-- Generator: Adobe Illustrator 21.0.2, SVG Export Plug-In . SVG Version: 6.00 Build 0)  -->
<svg version="1.1" id="Layer_1" xmlns="http://www.w3.org/2000/svg" xmlns:xlink="http://www.w3.org/1999/xlink" x="0px" y="0px"
	 viewBox="0 0 24 24" style="enable-background:new 0 0 24 24;" xml:space="preserve">
<g id="surface1">
	<path d="M1.2,12c0.5,0.3,1.2,0.5,1.8,0.5c0.7,0,1.3-0.2,1.8-0.5C5.5,11.4,6,10.6,6,9.6c0,1,0.4,1.8,1.2,2.4
		c0.5,0.3,1.2,0.5,1.8,0.5c0.7,0,1.3-0.2,1.8-0.5c0.7-0.6,1.2-1.4,1.2-2.4c0,1,0.4,1.8,1.2,2.4c0.5,0.3,1.2,0.5,1.8,0.5
		c0.7,0,1.3-0.2,1.8-0.5c0.7-0.6,1.2-1.4,1.2-2.4c0,1,0.4,1.8,1.2,2.4c0.5,0.3,1.2,0.5,1.8,0.5c0.7,0,1.3-0.2,1.8-0.5
		c0.8-0.6,1.2-1.4,1.2-2.4V8.4L20.4,0H4.8L0,8.4v1.2C0,10.6,0.4,11.4,1.2,12z M3.6,22.8h6v-6h4.8v6h6v-8.4c-0.4-0.1-0.9-0.3-1.2-0.5
		C18.4,13.3,18,13,18,12c0,1-0.5,1.3-1.2,1.9c-0.5,0.4-1.1,0.5-1.8,0.5c-0.7,0-1.3-0.2-1.8-0.5C12.4,13.3,12,13,12,12
		c0,1-0.5,1.3-1.2,1.9c-0.5,0.4-1.1,0.5-1.8,0.5c-0.6,0-1.3-0.2-1.8-0.5C6.4,13.3,6,13,6,12c0,1-0.5,1.3-1.2,1.9
		c-0.3,0.3-0.8,0.5-1.2,0.5V22.8z"/>
</g>
</svg>
