<?xml version="1.0" encoding="utf-8"?>
<!-- Generator: Adobe Illustrator 21.0.2, SVG Export Plug-In . SVG Version: 6.00 Build 0)  -->
<svg version="1.1" id="Layer_1" xmlns="http://www.w3.org/2000/svg" xmlns:xlink="http://www.w3.org/1999/xlink" x="0px" y="0px"
	 viewBox="0 0 24 24" style="enable-background:new 0 0 24 24;" xml:space="preserve">
<g id="surface1">
	<path d="M13.2,3.6v4.8h-12V3.6H13.2z M22.8,3.6v4.8h-8.4V3.6H22.8z M8.4,9.6v3.6H1.2V9.6H8.4z M22.8,9.6v3.6H9.6V9.6H22.8z
		 M10.8,14.4v2.4H1.2v-2.4H10.8z M22.8,14.4v2.4H12v-2.4H22.8z M7.2,18v1.2h-6V18H7.2z M13.2,18v1.2H8.4V18H13.2z M16.8,18v1.2h-2.4
		V18H16.8z M22.8,18v1.2H18V18H22.8z"/>
</g>
</svg>
