<?xml version="1.0" encoding="UTF-8" standalone="yes"?>
<svg xmlns="http://www.w3.org/2000/svg" xmlns:xlink="http://www.w3.org/1999/xlink" width="24px" height="24px" viewBox="0 0 18 18" version="1.1">
  <g id="surface1">
    <path style=" stroke:none;fill-rule:nonzero;fill:rgb(0%,0%,0%);fill-opacity:1;" d="M 9.898438 2.699219 L 9.898438 6.300781 L 0.898438 6.300781 L 0.898438 2.699219 Z M 17.101562 2.699219 L 17.101562 6.300781 L 10.800781 6.300781 L 10.800781 2.699219 Z M 6.300781 7.199219 L 6.300781 9.898438 L 0.898438 9.898438 L 0.898438 7.199219 Z M 17.101562 7.199219 L 17.101562 9.898438 L 7.199219 9.898438 L 7.199219 7.199219 Z M 8.101562 10.800781 L 8.101562 12.601562 L 0.898438 12.601562 L 0.898438 10.800781 Z M 17.101562 10.800781 L 17.101562 12.601562 L 9 12.601562 L 9 10.800781 Z M 5.398438 13.5 L 5.398438 14.398438 L 0.898438 14.398438 L 0.898438 13.5 Z M 9.898438 13.5 L 9.898438 14.398438 L 6.300781 14.398438 L 6.300781 13.5 Z M 12.601562 13.5 L 12.601562 14.398438 L 10.800781 14.398438 L 10.800781 13.5 Z M 17.101562 13.5 L 17.101562 14.398438 L 13.5 14.398438 L 13.5 13.5 Z M 17.101562 13.5 "/>
  </g>
</svg>