<?xml version="1.0" encoding="UTF-8" standalone="yes"?>
<svg xmlns="http://www.w3.org/2000/svg" xmlns:xlink="http://www.w3.org/1999/xlink" width="24px" height="24px" viewBox="0 0 18 18" version="1.1">
  <g id="surface1">
    <path style=" stroke:none;fill-rule:nonzero;fill:rgb(0%,0%,0%);fill-opacity:1;" d="M 3.601562 2.699219 L 14.398438 2.699219 C 14.894531 2.699219 15.316406 2.878906 15.667969 3.230469 C 16.019531 3.582031 16.199219 4.003906 16.199219 4.5 L 16.199219 10.800781 C 16.199219 11.296875 16.019531 11.71875 15.667969 12.070312 C 15.316406 12.421875 14.894531 12.601562 14.398438 12.601562 L 13.5 12.601562 L 9 17.101562 L 9 12.601562 L 3.601562 12.601562 C 3.105469 12.601562 2.683594 12.421875 2.332031 12.070312 C 1.980469 11.71875 1.800781 11.296875 1.800781 10.800781 L 1.800781 4.5 C 1.800781 4.003906 1.980469 3.582031 2.332031 3.230469 C 2.683594 2.878906 3.105469 2.699219 3.601562 2.699219 Z M 13.5 4.5 L 3.601562 4.5 L 3.601562 5.398438 L 13.5 5.398438 Z M 14.398438 7.199219 L 3.601562 7.199219 L 3.601562 8.101562 L 14.398438 8.101562 Z M 11.699219 9.898438 L 3.601562 9.898438 L 3.601562 10.800781 L 11.699219 10.800781 Z M 11.699219 9.898438 "/>
  </g>
</svg>