<?xml version="1.0" encoding="utf-8"?>
<!-- Generator: Adobe Illustrator 21.0.2, SVG Export Plug-In . SVG Version: 6.00 Build 0)  -->
<svg version="1.1" id="Layer_1" xmlns="http://www.w3.org/2000/svg" xmlns:xlink="http://www.w3.org/1999/xlink" x="0px" y="0px"
	 viewBox="0 0 24 24" style="enable-background:new 0 0 24 24;" xml:space="preserve">
<g id="surface1">
	<path d="M4.8,3.6h14.4c0.7,0,1.2,0.2,1.7,0.7c0.5,0.5,0.7,1,0.7,1.7v8.4c0,0.7-0.2,1.2-0.7,1.7s-1,0.7-1.7,0.7H18l-6,6v-6H4.8
		c-0.7,0-1.2-0.2-1.7-0.7c-0.5-0.5-0.7-1-0.7-1.7V6c0-0.7,0.2-1.2,0.7-1.7C3.6,3.8,4.1,3.6,4.8,3.6z M18,6H4.8v1.2H18V6z M19.2,9.6
		H4.8v1.2h14.4V9.6z M15.6,13.2H4.8v1.2h10.8V13.2z"/>
</g>
</svg>
