<?xml version="1.0" encoding="utf-8"?>
<!-- Generator: Adobe Illustrator 21.0.2, SVG Export Plug-In . SVG Version: 6.00 Build 0)  -->
<svg version="1.1" id="Layer_1" xmlns="http://www.w3.org/2000/svg" xmlns:xlink="http://www.w3.org/1999/xlink" x="0px" y="0px"
	 viewBox="0 0 24 24" style="enable-background:new 0 0 24 24;" xml:space="preserve">
<g id="surface1">
	<path d="M8.8,21.6c-0.2,0-0.3,0-0.5-0.1c-0.7-0.2-1-0.9-0.8-1.6c0.2-0.7,1.2-3.6,1.2-4.3c0-0.6-0.9-1.2-1.6-1.2H3.5
		c-0.7,0-1.2-0.5-1.2-1.2c0-0.7,2.4-8.4,2.4-8.4c0.2-0.5,0.7-1.2,1.2-1.2h11v10.8h-2.6c-0.5,0.5-4,5.7-4.3,6.3
		C9.8,21.2,9.3,21.5,8.8,21.6z M21.7,14.4h-2.4V3.6h2.4V14.4z"/>
</g>
</svg>
