<?xml version="1.0" encoding="UTF-8" standalone="yes"?>
<svg xmlns="http://www.w3.org/2000/svg" xmlns:xlink="http://www.w3.org/1999/xlink" width="24px" height="24px" viewBox="0 0 18 18" version="1.1">
  <g id="surface1">
    <path style=" stroke:none;fill-rule:nonzero;fill:rgb(0%,0%,0%);fill-opacity:1;" d="M 6.550781 16.199219 C 6.417969 16.21875 6.316406 16.183594 6.183594 16.136719 C 5.679688 15.964844 5.4375 15.425781 5.589844 14.921875 C 5.742188 14.425781 6.488281 12.1875 6.488281 11.699219 C 6.488281 11.222656 5.8125 10.800781 5.273438 10.800781 L 2.574219 10.800781 C 2.035156 10.800781 1.675781 10.441406 1.675781 9.898438 C 1.675781 9.359375 3.472656 3.601562 3.472656 3.601562 C 3.628906 3.25 3.96875 2.699219 4.375 2.699219 L 12.601562 2.699219 L 12.601562 10.800781 L 10.675781 10.800781 C 10.304688 11.167969 7.703125 15.039062 7.453125 15.542969 C 7.261719 15.910156 6.910156 16.15625 6.550781 16.199219 Z M 16.199219 10.800781 L 14.398438 10.800781 L 14.398438 2.699219 L 16.199219 2.699219 Z M 16.199219 10.800781 "/>
  </g>
</svg>