<?xml version="1.0" encoding="UTF-8" standalone="yes"?>
<svg xmlns="http://www.w3.org/2000/svg" xmlns:xlink="http://www.w3.org/1999/xlink" width="24px" height="24px" viewBox="0 0 18 18" version="1.1">
  <g id="surface1">
    <path style=" stroke:none;fill-rule:nonzero;fill:rgb(0%,0%,0%);fill-opacity:1;" d="M 11.449219 1.800781 C 11.582031 1.78125 11.683594 1.816406 11.816406 1.863281 C 12.320312 2.035156 12.5625 2.574219 12.410156 3.078125 C 12.257812 3.574219 11.511719 5.8125 11.511719 6.300781 C 11.511719 6.777344 12.1875 7.199219 12.726562 7.199219 L 15.425781 7.199219 C 15.964844 7.199219 16.324219 7.558594 16.324219 8.101562 C 16.324219 8.640625 14.527344 14.398438 14.527344 14.398438 C 14.371094 14.75 14.03125 15.300781 13.625 15.300781 L 5.398438 15.300781 L 5.398438 7.199219 L 7.324219 7.199219 C 7.695312 6.832031 10.296875 2.960938 10.546875 2.457031 C 10.738281 2.089844 11.089844 1.84375 11.449219 1.800781 Z M 1.800781 7.199219 L 3.601562 7.199219 L 3.601562 15.300781 L 1.800781 15.300781 Z M 1.800781 7.199219 "/>
  </g>
</svg>