<?xml version="1.0" encoding="UTF-8" standalone="yes"?>
<svg xmlns="http://www.w3.org/2000/svg" xmlns:xlink="http://www.w3.org/1999/xlink" width="24px" height="24px" viewBox="0 0 18 18" version="1.1">
  <g id="surface1">
    <path style=" stroke:none;fill-rule:nonzero;fill:rgb(0%,0%,0%);fill-opacity:1;" d="M 18 5.742188 L 17.089844 8.28125 L 17.089844 8.269531 C 16.621094 8.101562 16.164062 8.128906 15.714844 8.34375 C 15.265625 8.558594 14.949219 8.902344 14.777344 9.367188 C 14.605469 9.835938 14.632812 10.296875 14.839844 10.746094 C 15.058594 11.195312 15.398438 11.503906 15.875 11.671875 L 15.875 11.683594 L 14.96875 14.21875 L 1.414062 9.378906 L 2.304688 6.867188 C 2.773438 7.039062 3.230469 7.011719 3.679688 6.796875 C 4.132812 6.589844 4.4375 6.246094 4.609375 5.777344 C 4.777344 5.308594 4.753906 4.851562 4.535156 4.402344 C 4.328125 3.960938 3.988281 3.652344 3.519531 3.484375 L 4.4375 0.898438 Z M 13.527344 10.863281 L 14.761719 7.480469 C 14.867188 7.199219 14.851562 6.894531 14.722656 6.625 C 14.597656 6.355469 14.371094 6.148438 14.09375 6.039062 L 7.324219 3.582031 C 6.75 3.375 6.09375 3.691406 5.886719 4.246094 L 4.652344 7.632812 C 4.4375 8.21875 4.742188 8.863281 5.320312 9.070312 L 12.085938 11.539062 C 12.214844 11.582031 12.339844 11.609375 12.472656 11.609375 C 12.941406 11.609375 13.375 11.3125 13.527344 10.863281 Z M 7.171875 4.003906 L 13.933594 6.460938 C 14.101562 6.523438 14.238281 6.652344 14.320312 6.8125 C 14.390625 6.976562 14.398438 7.15625 14.335938 7.324219 L 13.105469 10.710938 C 12.988281 11.050781 12.582031 11.242188 12.238281 11.113281 L 5.480469 8.648438 C 5.128906 8.523438 4.949219 8.136719 5.074219 7.785156 L 6.308594 4.402344 C 6.398438 4.140625 6.660156 3.960938 6.9375 3.960938 C 7.019531 3.960938 7.09375 3.976562 7.171875 4.003906 Z M 13.3125 14.929688 C 13.625 15.175781 13.984375 15.300781 14.390625 15.300781 L 14.398438 15.300781 L 14.398438 18 L 0 18 L 0 15.335938 C 0.496094 15.335938 0.925781 15.15625 1.269531 14.804688 C 1.621094 14.464844 1.800781 14.03125 1.800781 13.535156 C 1.800781 13.039062 1.621094 12.617188 1.269531 12.265625 C 0.917969 11.914062 0.496094 11.734375 0 11.734375 L 0 9 L 0.945312 9 L 0.691406 9.71875 L 3.277344 10.636719 C 2.816406 10.78125 2.476562 11.195312 2.476562 11.699219 L 2.476562 15.300781 C 2.476562 15.921875 2.980469 16.425781 3.601562 16.425781 L 10.800781 16.425781 C 11.421875 16.425781 11.925781 15.921875 11.925781 15.300781 L 11.925781 13.726562 L 12.671875 13.996094 C 12.78125 14.382812 12.996094 14.695312 13.3125 14.929688 Z M 2.925781 15.300781 L 2.925781 11.699219 C 2.925781 11.332031 3.230469 11.023438 3.601562 11.023438 L 4.347656 11.023438 L 11.476562 13.570312 L 11.476562 15.300781 C 11.476562 15.667969 11.167969 15.976562 10.800781 15.976562 L 3.601562 15.976562 C 3.230469 15.976562 2.925781 15.667969 2.925781 15.300781 Z M 2.925781 15.300781 "/>
  </g>
</svg>