<?xml version="1.0" encoding="UTF-8" standalone="yes"?>
<svg xmlns="http://www.w3.org/2000/svg" xmlns:xlink="http://www.w3.org/1999/xlink" width="24px" height="24px" viewBox="0 0 18 18" version="1.1">
  <g id="surface1">
    <path style=" stroke:none;fill-rule:nonzero;fill:rgb(0%,0%,0%);fill-opacity:1;" d="M 18 4.84375 L 17.089844 7.378906 L 17.089844 7.371094 C 16.15625 7.039062 15.121094 7.53125 14.777344 8.46875 C 14.445312 9.40625 14.929688 10.441406 15.875 10.773438 L 15.875 10.78125 L 14.96875 13.320312 L 1.414062 8.476562 L 2.304688 5.96875 C 3.238281 6.308594 4.273438 5.8125 4.609375 4.878906 C 4.941406 3.941406 4.453125 2.914062 3.519531 2.582031 L 4.4375 0 Z M 13.09375 7.875 C 13.761719 6.003906 12.789062 3.941406 10.917969 3.265625 C 9.046875 2.601562 6.984375 3.582031 6.316406 5.445312 C 5.652344 7.316406 6.625 9.386719 8.496094 10.054688 C 10.359375 10.71875 12.429688 9.738281 13.09375 7.875 Z M 10.789062 3.609375 C 11.59375 3.898438 12.203125 4.453125 12.5625 5.148438 C 12.554688 5.140625 12.546875 5.140625 12.527344 5.128906 C 12.230469 5.023438 11.925781 5.210938 11.824219 5.488281 C 11.734375 5.742188 11.800781 6.003906 11.871094 6.308594 C 11.90625 6.550781 11.953125 6.867188 11.816406 7.246094 C 11.726562 7.507812 11.519531 7.765625 11.230469 8.144531 L 10.566406 9.054688 L 10.636719 5.382812 L 10.996094 5.480469 C 11.167969 5.515625 11.230469 5.265625 11.070312 5.21875 C 11.070312 5.21875 10.558594 5.085938 10.242188 4.96875 C 9.9375 4.859375 9.449219 4.644531 9.449219 4.644531 C 9.289062 4.570312 9.179688 4.816406 9.34375 4.886719 C 9.34375 4.886719 9.484375 4.960938 9.648438 5.03125 L 9.65625 6.496094 L 8.28125 8.261719 L 8.351562 4.5625 C 8.53125 4.617188 8.710938 4.660156 8.710938 4.660156 C 8.882812 4.699219 8.945312 4.453125 8.773438 4.402344 C 8.773438 4.402344 8.269531 4.265625 7.957031 4.148438 C 7.894531 4.132812 7.828125 4.105469 7.757812 4.078125 C 8.59375 3.445312 9.730469 3.230469 10.789062 3.609375 Z M 6.660156 5.570312 C 6.8125 5.128906 7.054688 4.742188 7.363281 4.429688 L 7.398438 8.929688 C 6.550781 8.074219 6.226562 6.777344 6.660156 5.570312 Z M 10.296875 9.847656 L 12.1875 7.480469 C 12.519531 7.109375 12.699219 6.785156 12.808594 6.472656 C 12.851562 6.363281 12.878906 6.253906 12.90625 6.15625 C 12.988281 6.667969 12.941406 7.21875 12.753906 7.75 C 12.347656 8.875 11.394531 9.640625 10.296875 9.847656 Z M 9.664062 6.949219 L 9.683594 9.847656 C 9.683594 9.863281 9.683594 9.882812 9.691406 9.898438 C 9.332031 9.898438 8.972656 9.835938 8.613281 9.710938 C 8.316406 9.601562 8.046875 9.460938 7.804688 9.277344 Z M 10.78125 12.421875 L 12.671875 13.09375 C 12.886719 13.851562 13.570312 14.398438 14.390625 14.398438 L 14.398438 14.398438 L 14.398438 17.101562 L 0 17.101562 L 0 14.4375 C 0.988281 14.4375 1.800781 13.636719 1.800781 12.636719 C 1.800781 11.644531 0.988281 10.835938 0 10.835938 L 0 8.101562 L 0.945312 8.101562 L 0.691406 8.820312 L 4.546875 10.1875 C 3.960938 10.828125 3.601562 11.671875 3.601562 12.601562 C 3.601562 14.589844 5.210938 16.199219 7.199219 16.199219 C 9.1875 16.199219 10.800781 14.589844 10.800781 12.601562 C 10.800781 12.535156 10.78125 12.484375 10.78125 12.421875 Z M 4.90625 10.324219 L 6.238281 10.800781 C 6.109375 10.835938 6.101562 11.042969 6.265625 11.050781 C 6.265625 11.050781 6.425781 11.070312 6.597656 11.078125 L 7.101562 12.464844 L 6.398438 14.589844 L 5.21875 11.078125 C 5.410156 11.070312 5.589844 11.050781 5.589844 11.050781 C 5.761719 11.035156 5.742188 10.773438 5.570312 10.78125 C 5.570312 10.78125 5.039062 10.828125 4.707031 10.828125 C 4.644531 10.828125 4.570312 10.828125 4.5 10.816406 C 4.617188 10.636719 4.753906 10.476562 4.90625 10.324219 Z M 3.960938 12.601562 C 3.960938 12.132812 4.066406 11.683594 4.246094 11.285156 L 5.785156 15.515625 C 4.707031 14.984375 3.960938 13.878906 3.960938 12.601562 Z M 7.730469 11.332031 L 9.277344 11.890625 C 9.34375 12.042969 9.386719 12.222656 9.386719 12.4375 C 9.386719 12.71875 9.277344 13.03125 9.136719 13.480469 L 8.820312 14.5625 Z M 10.441406 12.601562 C 10.441406 13.796875 9.792969 14.839844 8.828125 15.398438 L 9.820312 12.535156 C 9.871094 12.382812 9.910156 12.257812 9.945312 12.121094 L 10.414062 12.292969 C 10.429688 12.394531 10.441406 12.492188 10.441406 12.601562 Z M 6.28125 15.703125 L 7.253906 12.878906 L 8.253906 15.605469 C 8.261719 15.625 8.261719 15.640625 8.269531 15.652344 C 7.9375 15.769531 7.578125 15.839844 7.199219 15.839844 C 6.886719 15.839844 6.578125 15.785156 6.28125 15.703125 Z M 6.28125 15.703125 "/>
  </g>
</svg>