<?xml version="1.0" encoding="utf-8"?>
<!-- Generator: Adobe Illustrator 21.0.2, SVG Export Plug-In . SVG Version: 6.00 Build 0)  -->
<svg version="1.1" id="Layer_1" xmlns="http://www.w3.org/2000/svg" xmlns:xlink="http://www.w3.org/1999/xlink" x="0px" y="0px"
	 viewBox="0 0 24 24" style="enable-background:new 0 0 24 24;" xml:space="preserve">
<g id="surface1">
	<path d="M24,7.7L22.8,11v0c-0.6-0.2-1.2-0.2-1.8,0.1c-0.6,0.3-1,0.7-1.2,1.4c-0.2,0.6-0.2,1.2,0.1,1.8c0.3,0.6,0.7,1,1.4,1.2v0
		L20,19L1.9,12.5l1.2-3.3c0.6,0.2,1.2,0.2,1.8-0.1c0.6-0.3,1-0.7,1.2-1.4C6.4,7.1,6.3,6.5,6,5.9c-0.3-0.6-0.7-1-1.4-1.2l1.2-3.4
		L24,7.7z M18,14.5l1.6-4.5c0.1-0.4,0.1-0.8-0.1-1.1c-0.2-0.4-0.5-0.6-0.8-0.8l-9-3.3C9,4.5,8.1,4.9,7.8,5.7l-1.6,4.5
		c-0.3,0.8,0.1,1.6,0.9,1.9l9,3.3c0.2,0.1,0.3,0.1,0.5,0.1C17.3,15.5,17.8,15.1,18,14.5z M9.6,5.3l9,3.3c0.2,0.1,0.4,0.3,0.5,0.5
		c0.1,0.2,0.1,0.5,0,0.7l-1.6,4.5c-0.2,0.5-0.7,0.7-1.2,0.5l-9-3.3c-0.5-0.2-0.7-0.7-0.5-1.2l1.6-4.5c0.1-0.3,0.5-0.6,0.8-0.6
		C9.4,5.3,9.5,5.3,9.6,5.3z M17.8,19.9c0.4,0.3,0.9,0.5,1.4,0.5h0V24H0v-3.6c0.7,0,1.2-0.2,1.7-0.7c0.5-0.5,0.7-1,0.7-1.7
		s-0.2-1.2-0.7-1.7c-0.5-0.5-1-0.7-1.7-0.7V12h1.3l-0.3,1l3.4,1.2c-0.6,0.2-1.1,0.7-1.1,1.4v4.8c0,0.8,0.7,1.5,1.5,1.5h9.6
		c0.8,0,1.5-0.7,1.5-1.5v-2.1l1,0.4C17,19.2,17.3,19.6,17.8,19.9z M3.9,20.4v-4.8c0-0.5,0.4-0.9,0.9-0.9h1l9.5,3.4v2.3
		c0,0.5-0.4,0.9-0.9,0.9H4.8C4.3,21.3,3.9,20.9,3.9,20.4z"/>
</g>
</svg>
