<?xml version="1.0" encoding="utf-8"?>
<!-- Generator: Adobe Illustrator 21.0.2, SVG Export Plug-In . SVG Version: 6.00 Build 0)  -->
<svg version="1.1" id="Layer_1" xmlns="http://www.w3.org/2000/svg" xmlns:xlink="http://www.w3.org/1999/xlink" x="0px" y="0px"
	 viewBox="0 0 24 24" style="enable-background:new 0 0 24 24;" xml:space="preserve">
<g id="surface1">
	<path d="M24,6.5l-1.2,3.4v0c-1.2-0.4-2.6,0.2-3.1,1.5c-0.4,1.2,0.2,2.6,1.5,3.1v0L20,17.8L1.9,11.3L3.1,8c1.2,0.5,2.6-0.2,3.1-1.5
		c0.4-1.2-0.2-2.6-1.5-3.1L5.9,0L24,6.5z M17.5,10.5c0.9-2.5-0.4-5.2-2.9-6.1c-2.5-0.9-5.2,0.4-6.1,2.9c-0.9,2.5,0.4,5.3,2.9,6.1
		C13.8,14.3,16.6,13,17.5,10.5z M14.4,4.8c1.1,0.4,1.9,1.1,2.4,2.1c0,0,0,0,0,0c-0.4-0.1-0.8,0.1-0.9,0.5c-0.1,0.3,0,0.7,0.1,1.1
		c0,0.3,0.1,0.7-0.1,1.2c-0.1,0.3-0.4,0.7-0.8,1.2l-0.9,1.2l0.1-4.9l0.5,0.1C14.9,7.4,15,7,14.8,7c0,0-0.7-0.2-1.1-0.3
		c-0.4-0.1-1.1-0.4-1.1-0.4c-0.2-0.1-0.4,0.2-0.1,0.3c0,0,0.2,0.1,0.4,0.2l0,2L11,11l0.1-4.9c0.2,0.1,0.5,0.1,0.5,0.1
		c0.2,0.1,0.3-0.3,0.1-0.3c0,0-0.7-0.2-1.1-0.3c-0.1,0-0.2-0.1-0.3-0.1C11.5,4.6,13,4.3,14.4,4.8z M8.9,7.4c0.2-0.6,0.5-1.1,0.9-1.5
		l0,6C8.7,10.8,8.3,9,8.9,7.4z M13.7,13.1l2.5-3.2c0.4-0.5,0.7-0.9,0.8-1.3c0.1-0.1,0.1-0.3,0.1-0.4c0.1,0.7,0,1.4-0.2,2.1
		C16.5,11.8,15.2,12.9,13.7,13.1z M12.9,9.3l0,3.9c0,0,0,0,0,0.1c-0.5,0-1-0.1-1.4-0.2c-0.4-0.1-0.8-0.3-1.1-0.6L12.9,9.3z
		 M14.4,16.6l2.5,0.9c0.3,1,1.2,1.7,2.3,1.7h0v3.6H0v-3.6c1.3,0,2.4-1.1,2.4-2.4c0-1.3-1.1-2.4-2.4-2.4v-3.6h1.3l-0.3,1l5.1,1.8
		c-0.8,0.9-1.3,2-1.3,3.2c0,2.7,2.1,4.8,4.8,4.8s4.8-2.1,4.8-4.8C14.4,16.7,14.4,16.6,14.4,16.6z M6.5,13.8l1.8,0.6
		c-0.2,0-0.2,0.3,0,0.3c0,0,0.2,0,0.4,0l0.7,1.8l-0.9,2.8L7,14.8c0.3,0,0.5,0,0.5,0c0.2,0,0.2-0.4,0-0.4c0,0-0.7,0.1-1.2,0.1
		c-0.1,0-0.2,0-0.3,0C6.2,14.2,6.3,14,6.5,13.8z M5.3,16.8c0-0.6,0.1-1.2,0.4-1.8l2.1,5.6C6.3,20,5.3,18.5,5.3,16.8z M10.3,15.1
		l2.1,0.7c0.1,0.2,0.1,0.4,0.1,0.7c0,0.4-0.1,0.8-0.3,1.4l-0.4,1.4L10.3,15.1z M13.9,16.8c0,1.6-0.9,3-2.2,3.7l1.3-3.8
		c0.1-0.2,0.1-0.4,0.2-0.6l0.6,0.2C13.9,16.5,13.9,16.7,13.9,16.8z M8.4,20.9l1.3-3.8l1.3,3.6c0,0,0,0,0,0.1
		c-0.4,0.2-0.9,0.2-1.4,0.2C9.2,21.1,8.8,21,8.4,20.9z"/>
</g>
</svg>
