<?xml version="1.0" encoding="utf-8"?>
<!-- Generator: Adobe Illustrator 21.0.2, SVG Export Plug-In . SVG Version: 6.00 Build 0)  -->
<svg version="1.1" id="Layer_1" xmlns="http://www.w3.org/2000/svg" xmlns:xlink="http://www.w3.org/1999/xlink" x="0px" y="0px"
	 viewBox="0 0 24 24" style="enable-background:new 0 0 24 24;" xml:space="preserve">
<g id="surface1">
	<path d="M13.8,8.4H12c-0.8,0-1.5,0.4-1.9,0.8L9,6H5.6l-2.9,8.4h2L5.6,12H9v4.8H3c-1.3,0-2.4-1.1-2.4-2.4V6c0-1.3,1.1-2.4,2.4-2.4
		h8.4c1.3,0,2.4,1.1,2.4,2.4V8.4z M8.4,10.8H6l1.2-3.5L8.4,10.8z M12.6,9.6H21c1.3,0,2.4,1.1,2.4,2.4v8.4c0,1.3-1.1,2.4-2.4,2.4
		h-8.4c-1.3,0-2.4-1.1-2.4-2.4V12C10.2,10.7,11.3,9.6,12.6,9.6z M21.3,15.6v-1.3h-3.8v-2.6h-1.4v2.6h-3.8v1.3h1.5
		c0.1,1,0.7,2.2,1.5,3.1c-1,0.4-2.3,0.7-2.8,0.7c0,0,0.3,1.2,0.2,1.8c1,0,2.7-0.6,3.9-1.4c1.3,0.8,3,1.4,4,1.4
		c0-0.6,0.2-1.7,0.2-1.8c-0.5,0-1.8-0.3-2.9-0.8c0.8-0.9,1.4-2.1,1.5-3.1H21.3z M16.7,17.9c-0.6-0.6-1-1.4-1.2-2.3H18
		C17.8,16.6,17.4,17.4,16.7,17.9L16.7,17.9C16.8,18,16.7,17.9,16.7,17.9z"/>
</g>
</svg>
