<?xml version="1.0" encoding="UTF-8" standalone="yes"?>
<svg xmlns="http://www.w3.org/2000/svg" xmlns:xlink="http://www.w3.org/1999/xlink" width="24px" height="24px" viewBox="0 0 18 18" version="1.1">
  <g id="surface1">
    <path style=" stroke:none;fill-rule:nonzero;fill:rgb(0%,0%,0%);fill-opacity:1;" d="M 9.898438 6.300781 L 8.539062 6.300781 C 7.972656 6.300781 7.414062 6.570312 7.109375 6.929688 L 6.300781 4.5 L 3.71875 4.5 L 1.566406 10.800781 L 3.085938 10.800781 L 3.753906 9 L 6.300781 9 L 6.300781 12.601562 L 1.800781 12.601562 C 0.808594 12.601562 0 11.789062 0 10.800781 L 0 4.5 C 0 3.511719 0.808594 2.699219 1.800781 2.699219 L 8.101562 2.699219 C 9.089844 2.699219 9.898438 3.511719 9.898438 4.5 Z M 5.859375 8.101562 L 4.039062 8.101562 L 4.941406 5.464844 Z M 9 7.199219 L 15.300781 7.199219 C 16.289062 7.199219 17.101562 8.011719 17.101562 9 L 17.101562 15.300781 C 17.101562 16.289062 16.289062 17.101562 15.300781 17.101562 L 9 17.101562 C 8.011719 17.101562 7.199219 16.289062 7.199219 15.300781 L 7.199219 9 C 7.199219 8.011719 8.011719 7.199219 9 7.199219 Z M 15.523438 11.699219 L 15.523438 10.726562 L 12.671875 10.726562 L 12.671875 8.773438 L 11.628906 8.773438 L 11.628906 10.726562 L 8.773438 10.726562 L 8.773438 11.699219 L 9.925781 11.699219 C 10.027344 12.464844 10.429688 13.363281 11.078125 14.058594 C 10.296875 14.382812 9.378906 14.617188 9 14.617188 C 8.992188 14.632812 9.199219 15.488281 9.179688 15.929688 C 9.9375 15.929688 11.167969 15.480469 12.132812 14.894531 C 13.113281 15.480469 14.363281 15.929688 15.136719 15.929688 C 15.121094 15.488281 15.316406 14.632812 15.316406 14.617188 C 14.929688 14.617188 13.976562 14.371094 13.175781 14.050781 C 13.804688 13.355469 14.203125 12.457031 14.300781 11.699219 Z M 12.097656 13.4375 C 11.644531 13.023438 11.332031 12.421875 11.1875 11.699219 L 13.066406 11.699219 C 12.914062 12.421875 12.609375 13.023438 12.167969 13.4375 L 12.132812 13.464844 C 12.132812 13.464844 12.105469 13.445312 12.097656 13.4375 Z M 12.097656 13.4375 "/>
  </g>
</svg>