<?xml version="1.0" encoding="UTF-8" standalone="yes"?>
<svg xmlns="http://www.w3.org/2000/svg" xmlns:xlink="http://www.w3.org/1999/xlink" width="24px" height="24px" viewBox="0 0 18 18" version="1.1">
  <g id="surface1">
    <path style=" stroke:none;fill-rule:nonzero;fill:rgb(0%,0%,0%);fill-opacity:1;" d="M 10.800781 3.601562 L 13.5 3.601562 C 13.996094 3.601562 14.398438 4.003906 14.398438 4.5 L 14.398438 5.398438 L 2.699219 5.398438 L 2.699219 4.5 C 2.699219 4.003906 3.105469 3.601562 3.601562 3.601562 L 6.300781 3.601562 C 6.507812 2.574219 7.460938 1.800781 8.550781 1.800781 C 9.640625 1.800781 10.59375 2.574219 10.800781 3.601562 Z M 7.199219 3.601562 L 9.898438 3.601562 C 9.710938 3.078125 9.136719 2.699219 8.550781 2.699219 C 7.964844 2.699219 7.390625 3.078125 7.199219 3.601562 Z M 3.601562 6.300781 L 13.5 6.300781 L 13.5 15.300781 C 13.5 15.796875 13.09375 16.199219 12.601562 16.199219 L 4.5 16.199219 C 4.003906 16.199219 3.601562 15.796875 3.601562 15.300781 Z M 6.300781 14.398438 L 6.300781 8.101562 L 5.398438 8.101562 L 5.398438 14.398438 Z M 9 14.398438 L 9 8.101562 L 8.101562 8.101562 L 8.101562 14.398438 Z M 11.699219 14.398438 L 11.699219 8.101562 L 10.800781 8.101562 L 10.800781 14.398438 Z M 11.699219 14.398438 "/>
  </g>
</svg>