<?xml version="1.0" encoding="utf-8"?>
<!-- Generator: Adobe Illustrator 21.0.2, SVG Export Plug-In . SVG Version: 6.00 Build 0)  -->
<svg version="1.1" id="Layer_1" xmlns="http://www.w3.org/2000/svg" xmlns:xlink="http://www.w3.org/1999/xlink" x="0px" y="0px"
	 viewBox="0 0 24 24" style="enable-background:new 0 0 24 24;" xml:space="preserve">
<g id="surface1">
	<path d="M15,4.8h3.6c0.7,0,1.2,0.5,1.2,1.2v1.2H4.2V6c0-0.7,0.5-1.2,1.2-1.2H9c0.3-1.4,1.5-2.4,3-2.4S14.7,3.4,15,4.8z M10.2,4.8
		h3.6c-0.2-0.7-1-1.2-1.8-1.2S10.5,4.1,10.2,4.8z M5.4,8.4h13.2v12c0,0.7-0.5,1.2-1.2,1.2H6.6c-0.7,0-1.2-0.5-1.2-1.2V8.4z M9,19.2
		v-8.4H7.8v8.4H9z M12.6,19.2v-8.4h-1.2v8.4H12.6z M16.2,19.2v-8.4H15v8.4H16.2z"/>
</g>
</svg>
