<?xml version="1.0" encoding="UTF-8" standalone="yes"?>
<svg xmlns="http://www.w3.org/2000/svg" xmlns:xlink="http://www.w3.org/1999/xlink" width="24px" height="24px" viewBox="0 0 18 18" version="1.1">
  <g id="surface1">
    <path style=" stroke:none;fill-rule:nonzero;fill:rgb(0%,0%,0%);fill-opacity:1;" d="M 17.046875 4.015625 C 16.605469 4.671875 16.046875 5.257812 15.398438 5.722656 C 15.40625 5.859375 15.40625 6.003906 15.40625 6.148438 C 15.40625 10.511719 12.085938 15.542969 6.019531 15.542969 C 4.15625 15.542969 2.421875 14.992188 0.953125 14.058594 C 1.214844 14.085938 1.476562 14.101562 1.746094 14.101562 C 3.292969 14.101562 4.714844 13.570312 5.839844 12.691406 C 4.402344 12.664062 3.1875 11.710938 2.761719 10.394531 C 2.960938 10.429688 3.167969 10.457031 3.382812 10.457031 C 3.679688 10.457031 3.976562 10.414062 4.246094 10.339844 C 2.746094 10.035156 1.601562 8.703125 1.601562 7.101562 L 1.601562 7.066406 C 2.050781 7.308594 2.554688 7.460938 3.097656 7.480469 C 2.214844 6.886719 1.628906 5.878906 1.628906 4.726562 C 1.628906 4.121094 1.789062 3.554688 2.078125 3.070312 C 3.707031 5.066406 6.136719 6.382812 8.882812 6.515625 C 8.828125 6.273438 8.792969 6.019531 8.792969 5.761719 C 8.792969 3.941406 10.277344 2.464844 12.097656 2.464844 C 13.050781 2.464844 13.90625 2.863281 14.507812 3.511719 C 15.253906 3.355469 15.964844 3.085938 16.605469 2.710938 C 16.351562 3.472656 15.832031 4.121094 15.148438 4.527344 C 15.820312 4.453125 16.453125 4.273438 17.046875 4.015625 Z M 17.046875 4.015625 "/>
  </g>
</svg>