<?xml version="1.0" encoding="UTF-8" standalone="yes"?>
<svg xmlns="http://www.w3.org/2000/svg" xmlns:xlink="http://www.w3.org/1999/xlink" width="24px" height="24px" viewBox="0 0 18 18" version="1.1">
  <g id="surface1">
    <path style=" stroke:none;fill-rule:nonzero;fill:rgb(0%,0%,0%);fill-opacity:1;" d="M 15.507812 9.089844 C 15.964844 10.171875 16.21875 11.359375 16.21875 12.601562 C 16.21875 13.84375 15.964844 15.03125 15.507812 16.109375 L 13.003906 15.058594 C 13.320312 14.300781 13.5 13.472656 13.5 12.601562 C 13.5 11.726562 13.320312 10.898438 13.003906 10.152344 C 12.691406 9.394531 12.222656 8.710938 11.65625 8.144531 C 11.089844 7.578125 10.402344 7.109375 9.65625 6.796875 C 8.902344 6.480469 8.074219 6.300781 7.199219 6.300781 L 7.199219 9 L 1.800781 4.949219 L 7.199219 0.898438 L 7.199219 3.582031 C 8.441406 3.582031 9.628906 3.835938 10.710938 4.292969 C 11.789062 4.753906 12.761719 5.410156 13.570312 6.226562 C 14.390625 7.039062 15.046875 8.011719 15.507812 9.089844 Z M 15.507812 9.089844 "/>
  </g>
</svg>