<?xml version="1.0" encoding="utf-8"?>
<!-- Generator: Adobe Illustrator 21.0.2, SVG Export Plug-In . SVG Version: 6.00 Build 0)  -->
<svg version="1.1" id="Layer_1" xmlns="http://www.w3.org/2000/svg" xmlns:xlink="http://www.w3.org/1999/xlink" x="0px" y="0px"
	 viewBox="0 0 24 24" style="enable-background:new 0 0 24 24;" xml:space="preserve">
<g id="surface1">
	<path d="M20.7,12.1c0.6,1.4,0.9,3,0.9,4.7c0,1.7-0.3,3.2-0.9,4.7l-3.3-1.4c0.4-1,0.7-2.1,0.7-3.3c0-1.2-0.2-2.3-0.7-3.3
		c-0.4-1-1-1.9-1.8-2.7c-0.8-0.8-1.7-1.4-2.7-1.8c-1-0.4-2.1-0.7-3.3-0.7V12L2.4,6.6l7.2-5.4v3.6c1.7,0,3.2,0.3,4.7,0.9
		c1.4,0.6,2.7,1.5,3.8,2.6C19.2,9.4,20,10.7,20.7,12.1z"/>
</g>
</svg>
