<?xml version="1.0" encoding="utf-8"?>
<!-- Generator: Adobe Illustrator 21.0.2, SVG Export Plug-In . SVG Version: 6.00 Build 0)  -->
<svg version="1.1" id="Layer_1" xmlns="http://www.w3.org/2000/svg" xmlns:xlink="http://www.w3.org/1999/xlink" x="0px" y="0px"
	 viewBox="0 0 24 24" style="enable-background:new 0 0 24 24;" xml:space="preserve">
<g id="surface1">
	<path d="M22.8,12C22.8,6,18,1.2,12,1.2S1.2,6,1.2,12S6,22.8,12,22.8S22.8,18,22.8,12z M12,3.1c1,0,1.8,0.8,1.8,1.8
		c0,1-0.8,1.8-1.8,1.8c-1,0-1.8-0.8-1.8-1.8C10.2,3.9,11,3.1,12,3.1z M4.1,8.8c0-0.8,7.9-0.9,7.9-0.9s7.9,0.1,7.9,0.9
		c0,0.8-5.4,1.7-5.4,1.7s2,9.8,1.3,10.1c-0.7,0.3-3.8-6.2-3.8-6.2s-3.1,6.5-3.8,6.2c-0.8-0.3,1.3-10.1,1.3-10.1S4.1,9.6,4.1,8.8z"/>
</g>
</svg>
