<?xml version="1.0" encoding="UTF-8" standalone="yes"?>
<svg xmlns="http://www.w3.org/2000/svg" xmlns:xlink="http://www.w3.org/1999/xlink" width="24px" height="24px" viewBox="0 0 18 18" version="1.1">
  <g id="surface1">
    <path style=" stroke:none;fill-rule:nonzero;fill:rgb(0%,0%,0%);fill-opacity:1;" d="M 9 2.339844 C 9.746094 2.339844 10.351562 2.941406 10.351562 3.691406 C 10.351562 4.4375 9.746094 5.050781 9 5.050781 C 8.261719 5.050781 7.648438 4.4375 7.648438 3.691406 C 7.648438 2.941406 8.261719 2.339844 9 2.339844 Z M 3.058594 6.625 C 3.058594 6.039062 9 5.941406 9 5.941406 C 9 5.941406 14.941406 6.039062 14.941406 6.625 C 14.941406 7.210938 10.917969 7.882812 10.917969 7.882812 C 10.917969 7.882812 12.4375 15.210938 11.871094 15.425781 C 11.3125 15.640625 9 10.753906 9 10.753906 C 9 10.753906 6.695312 15.640625 6.136719 15.425781 C 5.570312 15.210938 7.09375 7.882812 7.09375 7.882812 C 7.09375 7.882812 3.058594 7.210938 3.058594 6.625 Z M 3.058594 6.625 "/>
  </g>
</svg>