<?xml version="1.0" encoding="utf-8"?>
<!-- Generator: Adobe Illustrator 21.0.2, SVG Export Plug-In . SVG Version: 6.00 Build 0)  -->
<svg version="1.1" id="Layer_1" xmlns="http://www.w3.org/2000/svg" xmlns:xlink="http://www.w3.org/1999/xlink" x="0px" y="0px"
	 viewBox="0 0 24 24" style="enable-background:new 0 0 24 24;" xml:space="preserve">
<g id="surface1">
	<path d="M14.4,10.8V7.2c0-1.3-1.1-2.4-2.4-2.4S9.6,5.9,9.6,7.2H7.2c0-2.7,2.2-4.8,4.8-4.8s4.8,2.1,4.8,4.8v3.6H18
		c0.7,0,1.2,0.5,1.2,1.2v8.4c0,0.7-0.5,1.2-1.2,1.2H6c-0.7,0-1.2-0.5-1.2-1.2V12c0-0.7,0.5-1.2,1.2-1.2H14.4z M13.2,19.2l-0.4-2.6
		c0.6-0.3,1-0.9,1-1.6c0-1-0.8-1.8-1.8-1.8S10.2,14,10.2,15c0,0.7,0.4,1.3,1,1.6l-0.4,2.6H13.2z"/>
</g>
</svg>
