<?xml version="1.0" encoding="UTF-8" standalone="yes"?>
<svg xmlns="http://www.w3.org/2000/svg" xmlns:xlink="http://www.w3.org/1999/xlink" width="24px" height="24px" viewBox="0 0 18 18" version="1.1">
  <g id="surface1">
    <path style=" stroke:none;fill-rule:nonzero;fill:rgb(0%,0%,0%);fill-opacity:1;" d="M 9.179688 2.953125 C 12.355469 2.953125 14.96875 5.300781 15.40625 8.351562 L 17.28125 8.351562 L 14.128906 11.953125 L 10.980469 8.351562 L 13.066406 8.351562 C 12.664062 6.578125 11.078125 5.246094 9.179688 5.246094 C 7.875 5.246094 6.722656 5.886719 5.992188 6.847656 L 4.453125 5.09375 C 5.605469 3.78125 7.300781 2.953125 9.179688 2.953125 Z M 8.820312 15.046875 C 5.652344 15.046875 3.03125 12.699219 2.59375 9.648438 L 0.71875 9.648438 L 3.871094 6.046875 C 4.921875 7.246094 5.96875 8.449219 7.019531 9.648438 L 4.933594 9.648438 C 5.335938 11.421875 6.921875 12.753906 8.820312 12.753906 C 10.125 12.753906 11.277344 12.113281 12.007812 11.152344 L 13.546875 12.90625 C 12.394531 14.21875 10.710938 15.046875 8.820312 15.046875 Z M 8.820312 15.046875 "/>
  </g>
</svg>