<?xml version="1.0" encoding="utf-8"?>
<!-- Generator: Adobe Illustrator 21.0.2, SVG Export Plug-In . SVG Version: 6.00 Build 0)  -->
<svg version="1.1" id="Layer_1" xmlns="http://www.w3.org/2000/svg" xmlns:xlink="http://www.w3.org/1999/xlink" x="0px" y="0px"
	 viewBox="0 0 24 24" style="enable-background:new 0 0 24 24;" xml:space="preserve">
<g id="surface1">
	<path d="M12.2,3.9c4.2,0,7.7,3.1,8.3,7.2H23l-4.2,4.8l-4.2-4.8h2.8C16.9,8.8,14.8,7,12.2,7C10.5,7,9,7.8,8,9.1L5.9,6.8
		C7.5,5,9.7,3.9,12.2,3.9z M11.8,20.1c-4.2,0-7.7-3.1-8.3-7.2H1l4.2-4.8c1.4,1.6,2.8,3.2,4.2,4.8H6.6c0.5,2.4,2.7,4.1,5.2,4.1
		c1.7,0,3.3-0.9,4.2-2.1l2.1,2.3C16.5,19,14.3,20.1,11.8,20.1z"/>
</g>
</svg>
