<?xml version="1.0" encoding="UTF-8" standalone="yes"?>
<svg xmlns="http://www.w3.org/2000/svg" xmlns:xlink="http://www.w3.org/1999/xlink" width="24px" height="24px" viewBox="0 0 18 18" version="1.1">
  <g id="surface1">
    <path style=" stroke:none;fill-rule:nonzero;fill:rgb(0%,0%,0%);fill-opacity:1;" d="M 16.199219 15.300781 L 16.199219 2.699219 C 16.199219 2.203125 15.796875 1.800781 15.300781 1.800781 L 2.699219 1.800781 C 2.203125 1.800781 1.800781 2.203125 1.800781 2.699219 L 1.800781 15.300781 C 1.800781 15.796875 2.203125 16.199219 2.699219 16.199219 L 15.300781 16.199219 C 15.796875 16.199219 16.199219 15.796875 16.199219 15.300781 Z M 15.300781 15.300781 L 2.699219 15.300781 L 2.699219 2.699219 L 15.300781 2.699219 Z M 4.273438 3.601562 L 13.726562 3.601562 C 14.09375 3.601562 14.398438 3.90625 14.398438 4.273438 L 14.398438 5.398438 L 13.5 5.398438 L 13.5 8.101562 L 14.398438 8.101562 L 14.398438 9.898438 L 13.5 9.898438 L 13.5 12.601562 L 14.398438 12.601562 L 14.398438 13.726562 C 14.398438 14.09375 14.09375 14.398438 13.726562 14.398438 L 4.273438 14.398438 C 3.90625 14.398438 3.601562 14.09375 3.601562 13.726562 L 3.601562 4.273438 C 3.601562 3.90625 3.90625 3.601562 4.273438 3.601562 Z M 11.699219 9 C 11.699219 7.011719 10.089844 5.398438 8.101562 5.398438 C 6.109375 5.398438 4.5 7.011719 4.5 9 C 4.5 10.988281 6.109375 12.601562 8.101562 12.601562 C 10.089844 12.601562 11.699219 10.988281 11.699219 9 Z M 8.101562 6.300781 L 8.792969 7.335938 C 9.441406 7.613281 9.898438 8.253906 9.898438 9 C 9.898438 9.988281 9.089844 10.800781 8.101562 10.800781 C 7.109375 10.800781 6.300781 9.988281 6.300781 9 C 6.300781 8.253906 6.757812 7.613281 7.40625 7.335938 Z M 8.101562 6.300781 "/>
  </g>
</svg>