<?xml version="1.0" encoding="utf-8"?>
<!-- Generator: Adobe Illustrator 21.0.2, SVG Export Plug-In . SVG Version: 6.00 Build 0)  -->
<svg version="1.1" id="Layer_1" xmlns="http://www.w3.org/2000/svg" xmlns:xlink="http://www.w3.org/1999/xlink" x="0px" y="0px"
	 viewBox="0 0 24 24" style="enable-background:new 0 0 24 24;" xml:space="preserve">
<g id="surface1">
	<path d="M21.6,20.4V3.6c0-0.7-0.5-1.2-1.2-1.2H3.6c-0.7,0-1.2,0.5-1.2,1.2v16.8c0,0.7,0.5,1.2,1.2,1.2h16.8
		C21.1,21.6,21.6,21.1,21.6,20.4z M20.4,20.4H3.6V3.6h16.8V20.4z M5.7,4.8h12.6c0.5,0,0.9,0.4,0.9,0.9v1.5H18v3.6h1.2v2.4H18v3.6
		h1.2v1.5c0,0.5-0.4,0.9-0.9,0.9H5.7c-0.5,0-0.9-0.4-0.9-0.9V5.7C4.8,5.2,5.2,4.8,5.7,4.8z M15.6,12c0-2.7-2.1-4.8-4.8-4.8
		C8.1,7.2,6,9.3,6,12s2.1,4.8,4.8,4.8C13.5,16.8,15.6,14.7,15.6,12z M10.8,8.4l0.9,1.4c0.9,0.4,1.5,1.2,1.5,2.2
		c0,1.3-1.1,2.4-2.4,2.4c-1.3,0-2.4-1.1-2.4-2.4c0-1,0.6-1.8,1.5-2.2L10.8,8.4z"/>
</g>
</svg>
