<?xml version="1.0" encoding="utf-8"?>
<!-- Generator: Adobe Illustrator 21.0.2, SVG Export Plug-In . SVG Version: 6.00 Build 0)  -->
<svg version="1.1" id="Layer_1" xmlns="http://www.w3.org/2000/svg" xmlns:xlink="http://www.w3.org/1999/xlink" x="0px" y="0px"
	 viewBox="0 0 24 24" style="enable-background:new 0 0 24 24;" xml:space="preserve">
<g id="surface1">
	<path d="M10.2,6c0-0.7-0.5-1.2-1.2-1.2H3C2.3,4.8,1.8,5.3,1.8,6c0,0.7,0.6,1.2,1.2,1.2h6C9.7,7.2,10.2,6.7,10.2,6z M17.4,12
		l4.8-4.8v12l-4.8-4.8V12z M16.2,16.8V9.6c0-0.7-0.5-1.2-1.2-1.2H5.4c-0.7,0-1.2,0.5-1.2,1.2v7.2c0,0.7,0.5,1.2,1.2,1.2H15
		C15.7,18,16.2,17.5,16.2,16.8z"/>
</g>
</svg>
