<?xml version="1.0" encoding="UTF-8" standalone="yes"?>
<svg xmlns="http://www.w3.org/2000/svg" xmlns:xlink="http://www.w3.org/1999/xlink" width="24px" height="24px" viewBox="0 0 18 18" version="1.1">
  <g id="surface1">
    <path style=" stroke:none;fill-rule:nonzero;fill:rgb(0%,0%,0%);fill-opacity:1;" d="M 7.199219 4.5 C 7.199219 4.003906 6.796875 3.601562 6.300781 3.601562 L 1.800781 3.601562 C 1.304688 3.601562 0.898438 4.003906 0.898438 4.5 C 0.898438 5.011719 1.339844 5.398438 1.800781 5.398438 L 6.300781 5.398438 C 6.796875 5.398438 7.199219 4.996094 7.199219 4.5 Z M 12.601562 9 L 16.199219 5.398438 L 16.199219 14.398438 L 12.601562 10.800781 Z M 11.699219 12.601562 L 11.699219 7.199219 C 11.699219 6.703125 11.296875 6.300781 10.800781 6.300781 L 3.601562 6.300781 C 3.105469 6.300781 2.699219 6.703125 2.699219 7.199219 L 2.699219 12.601562 C 2.699219 13.09375 3.105469 13.5 3.601562 13.5 L 10.800781 13.5 C 11.296875 13.5 11.699219 13.09375 11.699219 12.601562 Z M 11.699219 12.601562 "/>
  </g>
</svg>