<?xml version="1.0" encoding="UTF-8" standalone="yes"?>
<svg xmlns="http://www.w3.org/2000/svg" xmlns:xlink="http://www.w3.org/1999/xlink" width="24px" height="24px" viewBox="0 0 18 18" version="1.1">
  <g id="surface1">
    <path style=" stroke:none;fill-rule:nonzero;fill:rgb(0%,0%,0%);fill-opacity:1;" d="M 9 4.582031 C 12.582031 4.582031 15.660156 6.605469 17.101562 9.53125 C 15.660156 12.457031 12.582031 14.480469 9 14.480469 C 5.417969 14.480469 2.339844 12.457031 0.898438 9.53125 C 2.339844 6.605469 5.417969 4.582031 9 4.582031 Z M 11.113281 7.371094 C 11.113281 6.839844 10.765625 6.398438 10.285156 6.253906 C 10.144531 6.238281 10 6.226562 9.847656 6.21875 C 9.261719 6.265625 8.792969 6.757812 8.792969 7.371094 C 8.792969 8.011719 9.316406 8.53125 9.953125 8.53125 C 10.601562 8.53125 11.113281 8.011719 11.113281 7.371094 Z M 9 13.402344 C 12.023438 13.402344 14.625 11.710938 15.839844 9.53125 C 15.003906 8.027344 13.5 7.003906 11.65625 6.515625 C 12.257812 7.164062 12.636719 8.035156 12.636719 9 C 12.636719 11.007812 11.007812 12.636719 9 12.636719 C 6.992188 12.636719 5.363281 11.007812 5.363281 9 C 5.363281 8.035156 5.742188 7.164062 6.34375 6.515625 C 4.5 7.003906 2.996094 8.027344 2.160156 9.53125 C 3.375 11.710938 5.976562 13.402344 9 13.402344 Z M 9 13.402344 "/>
  </g>
</svg>