<?xml version="1.0" encoding="utf-8"?>
<!-- Generator: Adobe Illustrator 21.0.2, SVG Export Plug-In . SVG Version: 6.00 Build 0)  -->
<svg version="1.1" id="Layer_1" xmlns="http://www.w3.org/2000/svg" xmlns:xlink="http://www.w3.org/1999/xlink" x="0px" y="0px"
	 viewBox="0 0 24 24" style="enable-background:new 0 0 24 24;" xml:space="preserve">
<g id="surface1">
	<path d="M12,6.1c4.8,0,8.9,2.7,10.8,6.6c-1.9,3.9-6,6.6-10.8,6.6s-8.9-2.7-10.8-6.6C3.1,8.8,7.2,6.1,12,6.1z M14.8,9.8
		c0-0.7-0.5-1.3-1.1-1.5c-0.2,0-0.4,0-0.6,0c-0.8,0.1-1.4,0.7-1.4,1.5c0,0.9,0.7,1.5,1.5,1.5C14.1,11.4,14.8,10.7,14.8,9.8z
		 M12,17.9c4,0,7.5-2.3,9.1-5.2c-1.1-2-3.1-3.4-5.6-4c0.8,0.9,1.3,2,1.3,3.3c0,2.7-2.2,4.8-4.8,4.8S7.2,14.7,7.2,12
		c0-1.3,0.5-2.4,1.3-3.3c-2.5,0.7-4.5,2-5.6,4C4.5,15.6,8,17.9,12,17.9z"/>
</g>
</svg>
