<?xml version="1.0" encoding="utf-8"?>
<!-- Generator: Adobe Illustrator 21.0.2, SVG Export Plug-In . SVG Version: 6.00 Build 0)  -->
<svg version="1.1" id="Layer_1" xmlns="http://www.w3.org/2000/svg" xmlns:xlink="http://www.w3.org/1999/xlink" x="0px" y="0px"
	 viewBox="0 0 24 24" style="enable-background:new 0 0 24 24;" xml:space="preserve">
<g id="surface1">
	<path d="M12,2.4c5.3,0,9.6,4.3,9.6,9.6s-4.3,9.6-9.6,9.6S2.4,17.3,2.4,12S6.7,2.4,12,2.4z M13.4,13.7l0.4-7.8h-3.6l0.4,7.8H13.4z
		 M13.2,17.7c0.3-0.3,0.4-0.7,0.4-1.2c0-0.5-0.1-0.9-0.4-1.2C13,15.1,12.6,15,12,15c-0.6,0-1,0.1-1.3,0.4c-0.3,0.3-0.4,0.7-0.4,1.2
		c0,0.5,0.2,0.9,0.5,1.2c0.3,0.3,0.7,0.4,1.3,0.4C12.5,18.1,12.9,18,13.2,17.7z"/>
</g>
</svg>
