<?xml version="1.0" encoding="UTF-8" standalone="yes"?>
<svg xmlns="http://www.w3.org/2000/svg" xmlns:xlink="http://www.w3.org/1999/xlink" width="24px" height="24px" viewBox="0 0 18 18" version="1.1">
  <g id="surface1">
    <path style=" stroke:none;fill-rule:nonzero;fill:rgb(0%,0%,0%);fill-opacity:1;" d="M 9 1.800781 C 12.976562 1.800781 16.199219 5.023438 16.199219 9 C 16.199219 12.976562 12.976562 16.199219 9 16.199219 C 5.023438 16.199219 1.800781 12.976562 1.800781 9 C 1.800781 5.023438 5.023438 1.800781 9 1.800781 Z M 10.015625 10.242188 L 10.332031 4.429688 L 7.667969 4.429688 L 7.984375 10.242188 Z M 9.9375 13.265625 C 10.152344 13.058594 10.269531 12.769531 10.269531 12.402344 C 10.269531 12.023438 10.160156 11.734375 9.945312 11.527344 C 9.730469 11.320312 9.414062 11.214844 8.992188 11.214844 C 8.566406 11.214844 8.253906 11.320312 8.027344 11.527344 C 7.804688 11.734375 7.695312 12.023438 7.695312 12.402344 C 7.695312 12.769531 7.8125 13.058594 8.035156 13.265625 C 8.269531 13.472656 8.585938 13.570312 8.992188 13.570312 C 9.394531 13.570312 9.710938 13.472656 9.9375 13.265625 Z M 9.9375 13.265625 "/>
  </g>
</svg>