<?xml version="1.0" encoding="utf-8"?>
<!-- Generator: Adobe Illustrator 21.0.2, SVG Export Plug-In . SVG Version: 6.00 Build 0)  -->
<svg version="1.1" id="Layer_1" xmlns="http://www.w3.org/2000/svg" xmlns:xlink="http://www.w3.org/1999/xlink" x="0px" y="0px"
	 viewBox="0 0 24 24" style="enable-background:new 0 0 24 24;" xml:space="preserve">
<g id="surface1">
	<path d="M6,2.4h12c1.3,0,2.4,1.1,2.4,2.4v9.6c0,1.3-1.1,2.4-2.4,2.4h-2.4l-6,6v-6H6c-1.3,0-2.4-1.1-2.4-2.4V4.8
		C3.6,3.5,4.7,2.4,6,2.4z M16.2,12.6l-3-3l3-3L15,5.4l-3,3l-3-3L7.8,6.6l3,3l-3,3L9,13.8l3-3l3,3L16.2,12.6z"/>
</g>
</svg>
