<?xml version="1.0" encoding="UTF-8" standalone="yes"?>
<svg xmlns="http://www.w3.org/2000/svg" xmlns:xlink="http://www.w3.org/1999/xlink" width="24px" height="24px" viewBox="0 0 18 18" version="1.1">
  <g id="surface1">
    <path style=" stroke:none;fill-rule:nonzero;fill:rgb(0%,0%,0%);fill-opacity:1;" d="M 16.199219 12.601562 L 16.199219 3.601562 C 16.199219 3.105469 15.796875 2.699219 15.300781 2.699219 L 2.699219 2.699219 C 2.203125 2.699219 1.800781 3.105469 1.800781 3.601562 L 1.800781 12.601562 C 1.800781 13.09375 2.203125 13.5 2.699219 13.5 L 15.300781 13.5 C 15.796875 13.5 16.199219 13.09375 16.199219 12.601562 Z M 9 5.398438 C 11.070312 5.398438 12.960938 6.425781 14.398438 8.101562 C 12.960938 9.773438 11.070312 10.800781 9 10.800781 C 6.929688 10.800781 5.039062 9.773438 3.601562 8.101562 C 5.039062 6.425781 6.929688 5.398438 9 5.398438 Z M 10.800781 8.101562 C 10.800781 7.109375 9.988281 6.300781 9 6.300781 C 8.011719 6.300781 7.199219 7.109375 7.199219 8.101562 C 7.199219 9.089844 8.011719 9.898438 9 9.898438 C 9.988281 9.898438 10.800781 9.089844 10.800781 8.101562 Z M 12.601562 15.300781 L 15.300781 15.300781 L 15.300781 16.199219 L 2.699219 16.199219 L 2.699219 15.300781 L 5.398438 15.300781 L 5.398438 14.398438 L 12.601562 14.398438 Z M 12.601562 15.300781 "/>
  </g>
</svg>