<?xml version="1.0" encoding="UTF-8" standalone="yes"?>
<svg xmlns="http://www.w3.org/2000/svg" xmlns:xlink="http://www.w3.org/1999/xlink" width="24px" height="24px" viewBox="0 0 18 18" version="1.1">
  <g id="surface1">
    <path style=" stroke:none;fill-rule:nonzero;fill:rgb(0%,0%,0%);fill-opacity:1;" d="M 4.5 1.800781 L 13.5 1.800781 C 14.488281 1.800781 15.300781 2.609375 15.300781 3.601562 L 15.300781 10.800781 C 15.300781 11.789062 14.488281 12.601562 13.5 12.601562 L 11.699219 12.601562 L 7.199219 17.101562 L 7.199219 12.601562 L 4.5 12.601562 C 3.511719 12.601562 2.699219 11.789062 2.699219 10.800781 L 2.699219 3.601562 C 2.699219 2.609375 3.511719 1.800781 4.5 1.800781 Z M 12.148438 9.449219 L 9.898438 7.199219 L 12.148438 4.949219 L 11.25 4.050781 L 9 6.300781 L 6.75 4.050781 L 5.851562 4.949219 L 8.101562 7.199219 L 5.851562 9.449219 L 6.75 10.351562 L 9 8.101562 L 11.25 10.351562 Z M 12.148438 9.449219 "/>
  </g>
</svg>