<?xml version="1.0" encoding="utf-8"?>
<!-- Generator: Adobe Illustrator 21.0.2, SVG Export Plug-In . SVG Version: 6.00 Build 0)  -->
<svg version="1.1" id="Layer_1" xmlns="http://www.w3.org/2000/svg" xmlns:xlink="http://www.w3.org/1999/xlink" x="0px" y="0px"
	 viewBox="0 0 24 24" style="enable-background:new 0 0 24 24;" xml:space="preserve">
<g id="surface1">
	<path d="M12,12L3,8.4l0.6,13.2H1.2L1.8,7.9L0,7.2l12-4.8l12,4.8L12,12z M12,6c-0.7,0-1.2,0.3-1.2,0.6c0,0.3,0.5,0.6,1.2,0.6
		c0.7,0,1.2-0.3,1.2-0.6C13.2,6.3,12.7,6,12,6z M12,13.2l6.7-2.7c0.9,1.1,1.4,2.5,1.6,4c-0.4,0-0.7-0.1-1.1-0.1
		c-3.1,0-5.7,1.6-7.2,4.1c-1.5-2.4-4.1-4.1-7.2-4.1c-0.4,0-0.8,0-1.1,0.1c0.2-1.5,0.8-2.8,1.6-4L12,13.2z"/>
</g>
</svg>
