<?xml version="1.0" encoding="utf-8"?>
<!-- Generator: Adobe Illustrator 21.0.2, SVG Export Plug-In . SVG Version: 6.00 Build 0)  -->
<svg version="1.1" id="Layer_1" xmlns="http://www.w3.org/2000/svg" xmlns:xlink="http://www.w3.org/1999/xlink" x="0px" y="0px"
	 viewBox="0 0 24 24" style="enable-background:new 0 0 24 24;" xml:space="preserve">
<g id="surface1">
	<path d="M22.2,19.2V3.6c0-0.7-0.5-1.2-1.2-1.2H3c-0.7,0-1.2,0.5-1.2,1.2v15.6c0,0.7,0.5,1.2,1.2,1.2h18
		C21.7,20.4,22.2,19.9,22.2,19.2z M4.2,4.8h15.6v4.8H4.2V4.8z M5.4,6v2.4H9V6H5.4z M10.2,6v2.4h3.6V6H10.2z M15,6v2.4h3.6V6H15z
		 M4.8,12c0.3,0,0.6,0.3,0.6,0.6c0,0.3-0.3,0.6-0.6,0.6c-0.3,0-0.6-0.3-0.6-0.6C4.2,12.3,4.5,12,4.8,12z M6.6,12h4.8v1.2H6.6V12z
		 M13.8,12h6v6h-6V12z M4.8,14.4c0.3,0,0.6,0.3,0.6,0.6c0,0.3-0.3,0.6-0.6,0.6c-0.3,0-0.6-0.3-0.6-0.6C4.2,14.7,4.5,14.4,4.8,14.4z
		 M6.6,14.4h4.8v1.2H6.6V14.4z M15,14.4v2.4h3.6v-2.4H15z M4.8,16.8c0.3,0,0.6,0.3,0.6,0.6c0,0.3-0.3,0.6-0.6,0.6
		c-0.3,0-0.6-0.3-0.6-0.6C4.2,17.1,4.5,16.8,4.8,16.8z M6.6,16.8h4.8V18H6.6V16.8z"/>
</g>
</svg>
