<?xml version="1.0" encoding="UTF-8" standalone="yes"?>
<svg xmlns="http://www.w3.org/2000/svg" xmlns:xlink="http://www.w3.org/1999/xlink" width="24px" height="24px" viewBox="0 0 18 18" version="1.1">
  <g id="surface1">
    <path style=" stroke:none;fill-rule:nonzero;fill:rgb(0%,0%,0%);fill-opacity:1;" d="M 9 9 L 2.285156 6.316406 L 2.699219 16.199219 L 0.898438 16.199219 L 1.332031 5.929688 L 0 5.398438 L 9 1.800781 L 18 5.398438 Z M 9 4.5 C 8.503906 4.5 8.101562 4.699219 8.101562 4.949219 C 8.101562 5.203125 8.503906 5.398438 9 5.398438 C 9.496094 5.398438 9.898438 5.203125 9.898438 4.949219 C 9.898438 4.699219 9.496094 4.5 9 4.5 Z M 9 9.898438 L 14.011719 7.894531 C 14.652344 8.738281 15.09375 9.757812 15.238281 10.863281 C 14.96875 10.828125 14.6875 10.800781 14.398438 10.800781 C 12.105469 10.800781 10.097656 12.03125 9 13.867188 C 7.902344 12.03125 5.894531 10.800781 3.601562 10.800781 C 3.3125 10.800781 3.03125 10.828125 2.761719 10.863281 C 2.90625 9.757812 3.347656 8.738281 3.988281 7.894531 Z M 9 9.898438 "/>
  </g>
</svg>