<?xml version="1.0" encoding="UTF-8" standalone="yes"?>
<svg xmlns="http://www.w3.org/2000/svg" xmlns:xlink="http://www.w3.org/1999/xlink" width="24px" height="24px" viewBox="0 0 18 18" version="1.1">
  <g id="surface1">
    <path style=" stroke:none;fill-rule:nonzero;fill:rgb(0%,0%,0%);fill-opacity:1;" d="M 17.101562 14.398438 L 17.101562 2.699219 C 17.101562 2.203125 16.695312 1.800781 16.199219 1.800781 L 2.699219 1.800781 C 2.203125 1.800781 1.800781 2.203125 1.800781 2.699219 L 1.800781 14.398438 C 1.800781 14.894531 2.203125 15.300781 2.699219 15.300781 L 16.199219 15.300781 C 16.695312 15.300781 17.101562 14.894531 17.101562 14.398438 Z M 3.601562 3.601562 L 15.300781 3.601562 L 15.300781 7.199219 L 3.601562 7.199219 Z M 4.5 4.5 L 4.5 6.300781 L 7.199219 6.300781 L 7.199219 4.5 Z M 8.101562 4.5 L 8.101562 6.300781 L 10.800781 6.300781 L 10.800781 4.5 Z M 11.699219 4.5 L 11.699219 6.300781 L 14.398438 6.300781 L 14.398438 4.5 Z M 4.050781 9 C 4.300781 9 4.5 9.199219 4.5 9.449219 C 4.5 9.703125 4.300781 9.898438 4.050781 9.898438 C 3.796875 9.898438 3.601562 9.703125 3.601562 9.449219 C 3.601562 9.199219 3.796875 9 4.050781 9 Z M 5.398438 9 L 9 9 L 9 9.898438 L 5.398438 9.898438 Z M 10.800781 9 L 15.300781 9 L 15.300781 13.5 L 10.800781 13.5 Z M 4.050781 10.800781 C 4.300781 10.800781 4.5 10.996094 4.5 11.25 C 4.5 11.503906 4.300781 11.699219 4.050781 11.699219 C 3.796875 11.699219 3.601562 11.503906 3.601562 11.25 C 3.601562 10.996094 3.796875 10.800781 4.050781 10.800781 Z M 5.398438 10.800781 L 9 10.800781 L 9 11.699219 L 5.398438 11.699219 Z M 11.699219 10.800781 L 11.699219 12.601562 L 14.398438 12.601562 L 14.398438 10.800781 Z M 4.050781 12.601562 C 4.300781 12.601562 4.5 12.796875 4.5 13.050781 C 4.5 13.300781 4.300781 13.5 4.050781 13.5 C 3.796875 13.5 3.601562 13.300781 3.601562 13.050781 C 3.601562 12.796875 3.796875 12.601562 4.050781 12.601562 Z M 5.398438 12.601562 L 9 12.601562 L 9 13.5 L 5.398438 13.5 Z M 5.398438 12.601562 "/>
  </g>
</svg>