<?xml version="1.0" encoding="utf-8"?>
<!-- Generator: Adobe Illustrator 21.0.2, SVG Export Plug-In . SVG Version: 6.00 Build 0)  -->
<svg version="1.1" id="Layer_1" xmlns="http://www.w3.org/2000/svg" xmlns:xlink="http://www.w3.org/1999/xlink" x="0px" y="0px"
	 viewBox="0 0 24 24" style="enable-background:new 0 0 24 24;" xml:space="preserve">
<g id="surface1">
	<path d="M21.6,16.8v-12c0-0.7-0.5-1.2-1.2-1.2H3.6c-0.7,0-1.2,0.5-1.2,1.2v12c0,0.7,0.5,1.2,1.2,1.2h16.8
		C21.1,18,21.6,17.5,21.6,16.8z M12,7.2c2.8,0,5.3,1.4,7.2,3.6c-1.9,2.2-4.4,3.6-7.2,3.6S6.7,13,4.8,10.8C6.7,8.6,9.2,7.2,12,7.2z
		 M14.4,10.8c0-1.3-1.1-2.4-2.4-2.4s-2.4,1.1-2.4,2.4c0,1.3,1.1,2.4,2.4,2.4S14.4,12.1,14.4,10.8z M16.8,20.4h3.6v1.2H3.6v-1.2h3.6
		v-1.2h9.6V20.4z"/>
</g>
</svg>
