<?xml version="1.0" encoding="utf-8"?>
<!-- Generator: Adobe Illustrator 21.0.2, SVG Export Plug-In . SVG Version: 6.00 Build 0)  -->
<svg version="1.1" id="Layer_1" xmlns="http://www.w3.org/2000/svg" xmlns:xlink="http://www.w3.org/1999/xlink" x="0px" y="0px"
	 viewBox="0 0 24 24" style="enable-background:new 0 0 24 24;" xml:space="preserve">
<g id="surface1">
	<path d="M24,12c0-6.6-5.4-12-12-12S0,5.4,0,12s5.4,12,12,12S24,18.6,24,12z M12,1.2C18,1.2,22.8,6,22.8,12S18,22.8,12,22.8
		S1.2,18,1.2,12S6,1.2,12,1.2z M9.6,17.8L6,7.9c0.6,0,1.3-0.1,1.3-0.1c0.5-0.1,0.5-1.2-0.1-1.2c0,0-1.5,0.1-2.6,0.1
		c-0.2,0-0.4,0-0.6,0c1.7-2.6,4.7-4.3,8-4.3c2.5,0,4.8,0.9,6.5,2.5c-0.7-0.1-1.7,0.4-1.7,1.7c0,0.8,0.5,1.5,0.9,2.3
		c0.4,0.6,0.6,1.5,0.6,2.7c0,1.6-1.5,5.4-1.5,5.4l-3.3-9c0.6,0,0.9-0.2,0.9-0.2c0.5-0.1,0.5-1.3-0.1-1.3c0,0-1.6,0.1-2.6,0.1
		c-0.9,0-2.5-0.1-2.5-0.1c-0.5,0-0.6,1.3-0.1,1.3l1,0.1l1.3,3.6L9.6,17.8z M16.8,20.4L20,12c0,0,0.8-2,0.5-4.6
		c0.8,1.4,1.1,2.9,1.1,4.6C21.6,15.6,19.7,18.7,16.8,20.4z M3.2,8.1l4.6,12.6c-3.2-1.6-5.4-4.9-5.4-8.7C2.4,10.6,2.7,9.3,3.2,8.1z
		 M12.2,13.6l2.8,7.5C14,21.4,13,21.6,12,21.6c-0.9,0-1.7-0.1-2.5-0.4L12.2,13.6z"/>
</g>
</svg>
