<?xml version="1.0" encoding="utf-8"?>
<!-- Generator: Adobe Illustrator 21.0.2, SVG Export Plug-In . SVG Version: 6.00 Build 0)  -->
<svg version="1.1" id="Layer_1" xmlns="http://www.w3.org/2000/svg" xmlns:xlink="http://www.w3.org/1999/xlink" x="0px" y="0px"
	 viewBox="0 0 24 24" style="enable-background:new 0 0 24 24;" xml:space="preserve">
<g id="surface1">
	<path d="M24,12c0-6.6-5.4-12-12-12C5.4,0,0,5.4,0,12c0,6.6,5.4,12,12,12C18.6,24,24,18.6,24,12z M9.3,18.4l-4.1-11
		c0.7,0,1.4-0.1,1.4-0.1C7.2,7.3,7.2,6,6.6,6c0,0-1.7,0.1-2.8,0.1c-0.2,0-0.4,0-0.7,0c1.9-2.9,5.2-4.8,9-4.8c2.8,0,5.3,1,7.3,2.8
		c-0.8-0.1-2,0.5-2,1.9c0,0.9,0.5,1.6,1.1,2.5c0.4,0.7,0.7,1.6,0.7,3c0,1.8-1.7,6-1.7,6l-3.6-10c0.7,0,1-0.2,1-0.2
		c0.6-0.1,0.5-1.5-0.1-1.5c0,0-1.7,0.1-2.9,0.1c-1,0-2.8-0.1-2.8-0.1c-0.6,0-0.7,1.4-0.1,1.5L10,7.4l1.5,4.1L9.3,18.4z M20.9,12
		c0.3-0.8,0.9-2.2,0.5-5.1c0.8,1.5,1.3,3.2,1.3,5.1c0,3.9-2.1,7.5-5.3,9.3C18.6,18.2,19.7,15.1,20.9,12z M7.3,21.7
		c-3.6-1.7-6-5.5-6-9.7c0-1.6,0.3-3,0.9-4.3C3.9,12.4,5.6,17,7.3,21.7z M12.2,13.8l3.1,8.4c-1,0.3-2.1,0.5-3.2,0.5
		c-0.9,0-1.9-0.1-2.8-0.4C10.2,19.4,11.2,16.6,12.2,13.8z"/>
</g>
</svg>
