<?xml version="1.0" encoding="UTF-8" standalone="yes"?>
<svg xmlns="http://www.w3.org/2000/svg" xmlns:xlink="http://www.w3.org/1999/xlink" width="24px" height="24px" viewBox="0 0 18 18" version="1.1">
  <g id="surface1">
    <path style=" stroke:none;fill-rule:nonzero;fill:rgb(0%,0%,0%);fill-opacity:1;" d="M 18 9 C 18 4.03125 13.96875 0 9 0 C 4.03125 0 0 4.03125 0 9 C 0 13.96875 4.03125 18 9 18 C 13.96875 18 18 13.96875 18 9 Z M 9 0.910156 C 13.472656 0.910156 17.089844 4.527344 17.089844 9 C 17.089844 13.472656 13.472656 17.089844 9 17.089844 C 4.527344 17.089844 0.910156 13.472656 0.910156 9 C 0.910156 4.527344 4.527344 0.910156 9 0.910156 Z M 7.210938 13.339844 L 4.464844 5.949219 C 4.90625 5.921875 5.410156 5.878906 5.410156 5.878906 C 5.796875 5.832031 5.75 4.96875 5.355469 4.984375 C 5.355469 4.984375 4.195312 5.074219 3.4375 5.074219 C 3.304688 5.074219 3.140625 5.074219 2.96875 5.066406 C 4.265625 3.113281 6.480469 1.828125 9 1.828125 C 10.882812 1.828125 12.589844 2.539062 13.867188 3.707031 C 13.328125 3.636719 12.5625 4.023438 12.5625 4.984375 C 12.5625 5.578125 12.90625 6.085938 13.273438 6.679688 C 13.554688 7.164062 13.726562 7.777344 13.726562 8.667969 C 13.726562 9.871094 12.582031 12.699219 12.582031 12.699219 L 10.144531 5.949219 C 10.574219 5.921875 10.816406 5.804688 10.816406 5.804688 C 11.203125 5.761719 11.160156 4.816406 10.773438 4.832031 C 10.773438 4.832031 9.601562 4.933594 8.847656 4.933594 C 8.144531 4.933594 6.949219 4.832031 6.949219 4.832031 C 6.5625 4.816406 6.515625 5.785156 6.902344 5.804688 L 7.660156 5.878906 L 8.667969 8.613281 Z M 12.628906 15.273438 L 14.976562 9 C 14.976562 9 15.578125 7.480469 15.328125 5.570312 C 15.894531 6.597656 16.171875 7.75 16.171875 9 C 16.171875 11.664062 14.769531 14.023438 12.628906 15.273438 Z M 2.410156 6.09375 L 5.851562 15.523438 C 3.445312 14.355469 1.828125 11.851562 1.828125 9 C 1.828125 7.957031 2.007812 6.992188 2.410156 6.09375 Z M 9.117188 10.171875 L 11.179688 15.796875 C 10.503906 16.039062 9.765625 16.171875 9 16.171875 C 8.351562 16.171875 7.730469 16.074219 7.144531 15.902344 Z M 9.117188 10.171875 "/>
  </g>
</svg>