<?xml version="1.0" encoding="UTF-8" standalone="yes"?>
<svg xmlns="http://www.w3.org/2000/svg" xmlns:xlink="http://www.w3.org/1999/xlink" width="24px" height="24px" viewBox="0 0 18 18" version="1.1">
  <g id="surface1">
    <path style=" stroke:none;fill-rule:nonzero;fill:rgb(0%,0%,0%);fill-opacity:1;" d="M 18 9 C 18 4.039062 13.960938 0 9 0 C 4.03125 0 0 4.039062 0 9 C 0 13.96875 4.03125 18 9 18 C 13.960938 18 18 13.96875 18 9 Z M 7.003906 13.832031 L 3.933594 5.597656 C 4.429688 5.578125 4.984375 5.527344 4.984375 5.527344 C 5.4375 5.472656 5.382812 4.507812 4.933594 4.527344 C 4.933594 4.527344 3.628906 4.625 2.800781 4.625 C 2.636719 4.625 2.464844 4.625 2.277344 4.617188 C 3.707031 2.421875 6.183594 1 9 1 C 11.097656 1 13.003906 1.78125 14.445312 3.105469 C 13.832031 3.007812 12.960938 3.457031 12.960938 4.527344 C 12.960938 5.191406 13.363281 5.75 13.769531 6.417969 C 14.085938 6.964844 14.265625 7.640625 14.265625 8.632812 C 14.265625 9.972656 13.003906 13.132812 13.003906 13.132812 L 10.277344 5.597656 C 10.765625 5.578125 11.015625 5.445312 11.015625 5.445312 C 11.464844 5.398438 11.410156 4.320312 10.960938 4.347656 C 10.960938 4.347656 9.664062 4.453125 8.820312 4.453125 C 8.035156 4.453125 6.722656 4.347656 6.722656 4.347656 C 6.273438 4.320312 6.21875 5.425781 6.667969 5.445312 L 7.496094 5.515625 L 8.632812 8.585938 Z M 15.667969 9 C 15.886719 8.425781 16.335938 7.316406 16.054688 5.175781 C 16.6875 6.335938 17 7.613281 17 9 C 17 11.960938 15.445312 14.617188 13.039062 16.003906 C 13.914062 13.671875 14.785156 11.320312 15.667969 9 Z M 5.488281 16.28125 C 2.808594 14.984375 1 12.175781 1 9 C 1 7.828125 1.207031 6.769531 1.648438 5.769531 C 2.925781 9.269531 4.203125 12.78125 5.488281 16.28125 Z M 9.117188 10.3125 L 11.4375 16.597656 C 10.664062 16.855469 9.855469 17 9 17 C 8.289062 17 7.585938 16.902344 6.9375 16.703125 C 7.667969 14.5625 8.398438 12.4375 9.117188 10.3125 Z M 9.117188 10.3125 "/>
  </g>
</svg>